<svg xmlns="http://www.w3.org/2000/svg" width="30.25" height="30.25" viewBox="0 0 30.25 30.25">
  <g id="Icon_ionic-ios-arrow-dropleft" data-name="Icon ionic-ios-arrow-dropleft" transform="translate(0.5 0.5)" opacity="0.8">
    <path id="Path_48661" data-name="Path 48661" d="M12.43,10.246a.909.909,0,0,1,1.28,0l4.474,4.488a.9.9,0,0,1,.028,1.247L13.8,20.4a.9.9,0,1,1-1.28-1.276l3.742-3.8-3.841-3.8A.9.9,0,0,1,12.43,10.246Z" transform="translate(0.446 -0.706)" stroke="#fff" stroke-width="1"/>
    <path id="Path_48662" data-name="Path 48662" d="M18,3.375A14.625,14.625,0,1,1,3.375,18,14.623,14.623,0,0,1,18,3.375ZM9.253,26.747A12.37,12.37,0,1,0,26.747,9.253,12.37,12.37,0,1,0,9.253,26.747Z" transform="translate(-3.375 -3.375)" stroke="#fff" stroke-width="1"/>
  </g>
</svg>
