<svg id="Group_7253" data-name="Group 7253" xmlns="http://www.w3.org/2000/svg" width="84" height="84" viewBox="0 0 84 84">
  <circle id="Ellipse_45" data-name="Ellipse 45" cx="42" cy="42" r="42" fill="#fff"/>
  <path id="Icon_material-business-center" data-name="Icon material-business-center" d="M21.893,35.2V32.84H5.385l-.024,9.447a4.707,4.707,0,0,0,4.723,4.723H43.148a4.707,4.707,0,0,0,4.723-4.723V32.84H31.34V35.2ZM45.51,13.947h-9.47V9.223L31.316,4.5H21.87L17.146,9.223v4.723H7.723A4.737,4.737,0,0,0,3,18.67v7.085a4.707,4.707,0,0,0,4.723,4.723h14.17V25.755H31.34v4.723H45.51a4.737,4.737,0,0,0,4.723-4.723V18.67A4.737,4.737,0,0,0,45.51,13.947Zm-14.17,0H21.893V9.223H31.34Z" transform="translate(15 16.5)" fill="#003157"/>
</svg>
