<svg xmlns="http://www.w3.org/2000/svg" width="84" height="84" viewBox="0 0 84 84">
  <g id="Group_7252" data-name="Group 7252" transform="translate(0.159)">
    <circle id="Ellipse_46" data-name="Ellipse 46" cx="42" cy="42" r="42" transform="translate(-0.159)" fill="#fff"/>
    <path id="Icon_material-business" data-name="Icon material-business" d="M23.018,12.507V4.5H3V40.532H43.035V12.507ZM11.007,36.528H7v-4h4Zm0-8.007H7v-4h4Zm0-8.007H7v-4h4Zm0-8.007H7v-4h4Zm8.007,24.021h-4v-4h4Zm0-8.007h-4v-4h4Zm0-8.007h-4v-4h4Zm0-8.007h-4v-4h4ZM39.032,36.528H23.018v-4h4v-4h-4v-4h4v-4h-4v-4H39.032Zm-4-16.014h-4v4h4Zm0,8.007h-4v4h4Z" transform="translate(19 19.5)" fill="#003157"/>
  </g>
</svg>
