<?xml version="1.0" encoding="utf-8"?>
<!-- Generator: Adobe Illustrator 23.0.1, SVG Export Plug-In . SVG Version: 6.00 Build 0)  -->
<svg version="1.1" id="Layer_1" xmlns="http://www.w3.org/2000/svg" xmlns:xlink="http://www.w3.org/1999/xlink" x="0px" y="0px"
	 width="178.4px" height="100.7px" viewBox="0 0 178.4 100.7" style="enable-background:new 0 0 178.4 100.7;" xml:space="preserve"
	>
<style type="text/css">
	.st0{fill:#3B5891;}
	.st1{fill:#FFFFFF;}
</style>
<g>
	<rect x="0.2" y="80.9" class="st0" width="84.2" height="19.8"/>
	<g>
		<path class="st1" d="M18.6,98.3v-0.6l0.8-0.8c2-1.9,2.9-2.9,2.9-4.1c0-0.8-0.4-1.5-1.5-1.5c-0.7,0-1.3,0.4-1.7,0.7l-0.3-0.7
			c0.5-0.5,1.3-0.8,2.2-0.8c1.7,0,2.4,1.2,2.4,2.3c0,1.4-1,2.6-2.7,4.2l-0.6,0.6l0,0h3.5v0.9h-5V98.3z"/>
		<path class="st1" d="M24.8,98.3v-0.6l0.8-0.8c2-1.9,2.9-2.9,2.9-4.1c0-0.8-0.4-1.5-1.5-1.5c-0.7,0-1.3,0.4-1.7,0.7L25,91.3
			c0.5-0.5,1.3-0.8,2.2-0.8c1.7,0,2.4,1.2,2.4,2.3c0,1.4-1,2.6-2.7,4.2l-0.6,0.6l0,0h3.5v0.9h-5V98.3z"/>
		<path class="st1" d="M31.3,90.3c0.5-0.1,1.2-0.2,2-0.2c1,0,1.8,0.2,2.3,0.7c0.4,0.4,0.7,1,0.7,1.7s-0.2,1.3-0.6,1.7
			c-0.6,0.6-1.5,0.9-2.5,0.9c-0.3,0-0.6,0-0.8-0.1v3.2h-1v-7.9H31.3z M32.4,94.2c0.2,0.1,0.5,0.1,0.9,0.1c1.3,0,2-0.6,2-1.7
			S34.5,91,33.4,91c-0.5,0-0.8,0-1,0.1V94.2z"/>
		<path class="st1" d="M37.7,90.2h1v3.9l0,0c0.2-0.3,0.4-0.6,0.6-0.9l2.5-3h1.4l-2.9,3.4l3.2,4.7h-1.3l-2.7-4l-0.8,0.9v3.1h-1V90.2z
			"/>
		<path class="st1" d="M44.4,97.5c0.2,0,0.5,0,0.9,0c0.6-0.1,1.2-0.3,1.6-0.8c0.5-0.5,0.9-1.2,1-2.1l0,0c-0.4,0.5-1.1,0.8-1.8,0.8
			c-1.4,0-2.3-1.1-2.3-2.4c0-1.5,1.1-2.8,2.7-2.8s2.6,1.3,2.6,3.3c0,1.7-0.6,2.9-1.3,3.7c-0.6,0.6-1.4,0.9-2.3,1
			c-0.4,0.1-0.7,0.1-1,0.1v-0.8H44.4z M44.8,93.1c0,1,0.6,1.7,1.5,1.7c0.7,0,1.3-0.3,1.5-0.8c0.1-0.1,0.1-0.2,0.1-0.4
			c0-1.3-0.5-2.4-1.6-2.4C45.5,91.2,44.8,91.9,44.8,93.1z"/>
		<path class="st1" d="M55.2,94.3c0,2.7-1,4.1-2.7,4.1c-1.5,0-2.6-1.4-2.6-4s1.1-4.1,2.7-4.1C54.2,90.4,55.2,91.8,55.2,94.3z
			 M50.9,94.4c0,2,0.6,3.2,1.6,3.2c1.1,0,1.6-1.3,1.6-3.3c0-1.9-0.5-3.2-1.6-3.2C51.6,91.2,50.9,92.3,50.9,94.4z"/>
		<path class="st1" d="M56.4,97.1c0.3,0.2,1,0.5,1.7,0.5c1.4,0,1.8-0.9,1.8-1.5c0-1.1-1-1.6-2-1.6h-0.6v-0.8h0.6
			c0.8,0,1.7-0.4,1.7-1.3c0-0.6-0.4-1.2-1.4-1.2c-0.6,0-1.2,0.3-1.6,0.5L56.4,91c0.4-0.3,1.2-0.6,2-0.6c1.5,0,2.2,0.9,2.2,1.9
			c0,0.8-0.5,1.5-1.4,1.8l0,0c1,0.2,1.7,0.9,1.7,2c0,1.2-1,2.3-2.8,2.3c-0.9,0-1.6-0.3-2-0.5L56.4,97.1z"/>
		<path class="st1" d="M62.3,98.3v-0.6l0.8-0.8c2-1.9,2.9-2.9,2.9-4.1c0-0.8-0.4-1.5-1.5-1.5c-0.7,0-1.3,0.4-1.7,0.7l-0.3-0.7
			c0.5-0.5,1.3-0.8,2.2-0.8c1.7,0,2.4,1.2,2.4,2.3c0,1.4-1,2.6-2.7,4.2l-0.6,0.6l0,0h3.5v0.9h-5V98.3z"/>
	</g>
	<g>
		<path class="st1" d="M33.6,88.2c-0.2,0.1-0.6,0.2-1.1,0.2c-1.1,0-2-0.7-2-2s0.9-2.1,2.1-2.1c0.5,0,0.8,0.1,1,0.2l-0.1,0.4
			c-0.2-0.1-0.5-0.2-0.8-0.2c-0.9,0-1.6,0.6-1.6,1.7c0,1,0.6,1.6,1.6,1.6c0.3,0,0.6-0.1,0.9-0.2L33.6,88.2z"/>
		<path class="st1" d="M36.3,86.5h-1.6V88h1.8v0.4h-2.3v-4h2.2v0.4h-1.7V86h1.6V86.5z"/>
		<path class="st1" d="M37.2,84.4c0.3-0.1,0.6-0.1,1-0.1c0.6,0,0.9,0.1,1.2,0.3c0.2,0.2,0.3,0.5,0.3,0.8c0,0.5-0.3,0.9-0.8,1l0,0
			c0.3,0.1,0.5,0.4,0.6,0.8c0.1,0.6,0.2,1,0.3,1.1h-0.5c-0.1-0.1-0.2-0.5-0.3-1c-0.1-0.6-0.3-0.8-0.8-0.8h-0.5v1.8h-0.5V84.4z
			 M37.7,86.2h0.5c0.6,0,0.9-0.3,0.9-0.8s-0.4-0.8-0.9-0.8c-0.3,0-0.4,0-0.5,0V86.2z"/>
		<path class="st1" d="M41.2,84.8H40v-0.4h3v0.4h-1.2v3.6h-0.6V84.8z"/>
		<path class="st1" d="M44,84.3v4h-0.5v-4H44z"/>
		<path class="st1" d="M44.9,84.3h2.2v0.4h-1.7V86h1.5v0.4h-1.5v1.8h-0.5V84.3z"/>
		<path class="st1" d="M48.3,84.3v4h-0.5v-4H48.3z"/>
		<path class="st1" d="M51.3,86.5h-1.6V88h1.8v0.4h-2.3v-4h2.2v0.4h-1.7V86h1.6V86.5z"/>
		<path class="st1" d="M52.2,84.4c0.3,0,0.7-0.1,1.1-0.1c0.8,0,1.3,0.2,1.6,0.5c0.4,0.3,0.6,0.8,0.6,1.5s-0.2,1.2-0.6,1.6
			c-0.4,0.4-1,0.6-1.8,0.6c-0.4,0-0.7,0-0.9,0C52.2,88.5,52.2,84.4,52.2,84.4z M52.7,87.9c0.1,0,0.3,0,0.5,0c1.1,0,1.7-0.6,1.7-1.7
			c0-1-0.5-1.6-1.6-1.6c-0.3,0-0.5,0-0.6,0.1C52.7,84.7,52.7,87.9,52.7,87.9z"/>
	</g>
	<rect x="27.8" y="45.5" class="st0" width="8.5" height="8.5"/>
	<rect x="36.7" y="45.5" class="st0" width="0.7" height="8.5"/>
	<rect x="37.8" y="45.5" class="st0" width="8.5" height="8.5"/>
	<rect x="47.9" y="45.5" class="st0" width="8.5" height="8.5"/>
	<rect x="46.8" y="45.5" class="st0" width="0.7" height="8.5"/>
	<g>
		<path class="st0" d="M42.2,64.4c-13.5,0-24.5-11-24.5-24.5s11-24.5,24.5-24.5s24.5,11,24.5,24.5S55.7,64.4,42.2,64.4z M42.2,16.5
			c-12.9,0-23.5,10.5-23.5,23.5c0,12.9,10.5,23.5,23.5,23.5s23.5-10.5,23.5-23.5C65.7,27,55.2,16.5,42.2,16.5z"/>
	</g>
	<path class="st0" d="M42.2,14c14.3,0,25.9,11.6,25.9,25.9S56.5,65.8,42.2,65.8S16.4,54.2,16.4,39.9S28,14,42.2,14 M42.2,3
		C21.9,3,5.4,19.6,5.4,39.9s16.5,36.9,36.9,36.9s36.9-16.5,36.9-36.9S62.6,3,42.2,3L42.2,3z"/>
	<g>
		<path class="st0" d="M84.5,100.7H0V0h84.5V100.7z M1,99.7h82.5V1H1V99.7z"/>
	</g>
	<g>
		<g>
			<path class="st0" d="M42.3,24.3c-2.8,0-5.3,1.6-6.6,4c-1.8,3.4-0.7,7.6,2.4,9.8c1.3,0.9,2.8,1.3,4.3,1.3c1.7,0,3.3-0.6,4.4-1.6
				c-0.4-0.5-0.9-1-1.3-1.5c-1.2,0.6-2.4,0.9-3.4,0.9c-1.4,0-2.6-0.5-3.6-1.6c-1.5-1.6-1.9-4.1-0.9-6c0.5-1.1,1.3-1.9,2.4-2.4
				c0.8-0.4,1.6-0.6,2.4-0.6c0.7,0,1.4,0.1,2.1,0.4c0.3-0.7,0.5-1.3,0.8-1.9C44.3,24.5,43.3,24.3,42.3,24.3L42.3,24.3z"/>
		</g>
		<g>
			<path class="st0" d="M42.1,28c-1.3,0-2.5,0.6-3.2,1.8c-1,1.6-0.7,3.6,0.7,4.9c0.7,0.7,1.7,1,2.6,1c0.7,0,1.5-0.2,2.1-0.6
				c-0.3-0.4-0.6-0.7-0.9-1c-0.2-0.3-0.4-0.5-0.8-0.5c0,0-0.1,0-0.1,0c-0.1,0-0.1,0-0.2,0c-1,0-1.7-0.7-1.7-1.6c0-1,0.7-1.8,1.8-1.8
				c0,0,0,0,0,0c0.1,0,0.2,0,0.3,0c0.1,0,0.3,0,0.4-0.2c0.2-0.5,0.5-1,0.6-1.6C43.1,28.1,42.6,28,42.1,28L42.1,28z"/>
		</g>
		<g>
			<path class="st0" d="M48.8,28.3c-1.2,0.8-2,2.1-2.9,3.1c-0.3-0.3-0.1-0.7-0.4-0.9c-0.7,0-1.4,0.1-2.2,0.2
				c0.9,1.2,1.4,2.5,1.8,3.9c1.3-1.5,2.6-2.9,4.3-4c0.2-0.1,0.2-0.3,0.2-0.5C49.4,29.4,49.3,28.8,48.8,28.3L48.8,28.3z"/>
		</g>
		<g>
			<path class="st0" d="M43.3,41.5c-0.4,0-0.9,0.1-1.3,0.3c-1,0.4-2,1-3.2,1.1c0.4,0.3,0.8,0.5,1.3,0.5c0.4,0,0.8-0.1,1.3-0.4
				c1-0.5,2-1.1,3.2-1.1c0.1,0,0.2,0,0.3,0C44.3,41.6,43.8,41.5,43.3,41.5L43.3,41.5z"/>
		</g>
		<g>
			<path class="st0" d="M48.7,39.2c-1,0.2-1.8,0.6-2.2,1.8C48.2,40.4,48.8,39.9,48.7,39.2L48.7,39.2z"/>
		</g>
		<g>
			<path class="st0" d="M32.2,38.5c0.7,0.8,1.2,1.5,2.2,1.5c0.1,0,0.3,0,0.4,0C34.2,39.1,33.4,38.7,32.2,38.5L32.2,38.5z"/>
		</g>
		<g>
			<path class="st0" d="M49,40.8c-0.5,0-0.8,0.2-1.2,0.6c0.5,0.2,0.9,0.3,1.3,0.3c0.5,0,0.9-0.2,1.4-0.6
				C49.9,40.9,49.4,40.8,49,40.8L49,40.8z"/>
		</g>
		<g>
			<path class="st0" d="M36.6,41.2c-0.5,0-1,0.2-1.6,0.2c-0.1,0-0.3,0-0.4,0c0.7,0.5,1.1,0.7,1.5,0.7c0.4,0,0.8-0.2,1.6-0.5
				C37.3,41.3,36.9,41.2,36.6,41.2L36.6,41.2z"/>
		</g>
		<g>
			<path class="st0" d="M36.1,39.4c0.7,1,1.6,1.5,2.7,1.7C38.2,39.9,37.2,39.7,36.1,39.4L36.1,39.4z"/>
		</g>
		<g>
			<path class="st0" d="M52.7,37.8c-0.9,0.2-1.6,0.7-2.2,1.6C51.7,39.3,52.5,38.7,52.7,37.8L52.7,37.8z"/>
		</g>
		<g>
			<path class="st0" d="M31,36.1c0.5,0.9,0.8,1.7,2,1.8C32.6,36.9,32,36.4,31,36.1L31,36.1z"/>
		</g>
		<g>
			<path class="st0" d="M53.8,35.4c-0.9,0.5-1.5,0.9-1.9,2C52.9,37,53.5,36.4,53.8,35.4L53.8,35.4z"/>
		</g>
		<g>
			<path class="st0" d="M50.5,36.5c-0.6,0.8-0.5,1.6-0.5,2.5C50.7,38.2,50.7,37.5,50.5,36.5L50.5,36.5z"/>
		</g>
		<g>
			<path class="st0" d="M50.6,22.6c-0.1,0.9-0.1,1.6,0.5,2.4C51.2,24.1,51.3,23.4,50.6,22.6L50.6,22.6z"/>
		</g>
		<g>
			<path class="st0" d="M35.6,21.6c-0.8,0.6-1.1,1.3-1.2,2.1C34.9,23.1,35.7,22.7,35.6,21.6L35.6,21.6z"/>
		</g>
		<g>
			<path class="st0" d="M50.5,26.5c0.3,1,1,1.3,1.7,1.7C51.8,27.5,51.3,26.9,50.5,26.5L50.5,26.5z"/>
		</g>
		<g>
			<path class="st0" d="M53.7,27.8c-0.3,0.9-0.7,1.6-0.7,2.5C53.8,29.6,53.9,29.1,53.7,27.8L53.7,27.8z"/>
		</g>
		<g>
			<path class="st0" d="M33.8,27.1c-0.8,0.5-1.4,0.7-1.6,1.7C32.8,28.2,33.6,28.1,33.8,27.1L33.8,27.1z"/>
		</g>
		<g>
			<path class="st0" d="M30.7,28.8c-0.1,0.8-0.1,1.6,0.7,2.3C31.3,30.1,31,29.5,30.7,28.8L30.7,28.8z"/>
		</g>
		<g>
			<path class="st0" d="M48.4,21.3c0,1,0.7,1.4,1.3,2C49.5,22.4,49.2,21.8,48.4,21.3L48.4,21.3z"/>
		</g>
		<g>
			<path class="st0" d="M32.7,33.4c-0.6,1-0.6,1.2-0.1,2.1C32.8,34.8,32.9,34.1,32.7,33.4L32.7,33.4z"/>
		</g>
		<g>
			<path class="st0" d="M52.1,32.4c-0.3,1-0.2,1.7,0.3,2.4C52.4,34,52.4,33.3,52.1,32.4L52.1,32.4z"/>
		</g>
		<g>
			<path class="st0" d="M33.3,35.1c-0.2,1.5-0.1,1.7,0.2,2.4C33.8,36.7,33.7,36,33.3,35.1L33.3,35.1z"/>
		</g>
		<g>
			<path class="st0" d="M34.4,37c-0.2,0.9,0.1,1.6,0.7,2.5C35,38.5,35,37.7,34.4,37L34.4,37z"/>
		</g>
		<g>
			<path class="st0" d="M49.4,24.7c0.5,0.9,1,1.3,2,1.4C50.9,25.4,50.2,25.1,49.4,24.7L49.4,24.7z"/>
		</g>
		<g>
			<path class="st0" d="M34.7,25.2c-0.6,0.5-1.3,0.5-1.7,1.4C34.1,26.3,34.3,26.1,34.7,25.2L34.7,25.2z"/>
		</g>
		<g>
			<path class="st0" d="M33.2,23.1c-0.3,0.7-0.4,1.3-0.2,2C33.7,24.3,33.7,23.9,33.2,23.1L33.2,23.1z"/>
		</g>
		<g>
			<path class="st0" d="M30.6,33.9c0.4,0.8,0.6,1.4,1.4,1.8C31.7,34.9,31.3,34.4,30.6,33.9L30.6,33.9z"/>
		</g>
		<g>
			<path class="st0" d="M54.1,30.7c-0.5,0.5-0.7,1.1-0.7,2C53.9,32.1,54.1,31.4,54.1,30.7L54.1,30.7z"/>
		</g>
		<g>
			<path class="st0" d="M51.1,28.4c0.3,1,0.6,1.3,1.4,1.5C52.1,29.2,51.8,28.7,51.1,28.4L51.1,28.4z"/>
		</g>
		<g>
			<path class="st0" d="M51.9,24.2c-0.1,0.8-0.2,1.5,0.1,2.3C52.3,25.7,52.3,25,51.9,24.2L51.9,24.2z"/>
		</g>
		<g>
			<path class="st0" d="M51.6,34.8c-0.4,0.7-0.5,1.3,0,2.2C51.6,36.2,51.6,35.5,51.6,34.8L51.6,34.8z"/>
		</g>
		<g>
			<path class="st0" d="M32.6,31.2c-0.5,0.5-0.8,1-0.7,1.8C32.3,32.4,32.8,32,32.6,31.2L32.6,31.2z"/>
		</g>
		<g>
			<path class="st0" d="M52.9,25.7c-0.4,0.7-0.2,1.4-0.2,2.1C52.9,27.2,53.4,26.6,52.9,25.7L52.9,25.7z"/>
		</g>
		<g>
			<path class="st0" d="M31.2,26.7c-0.1,0.7,0.2,1.4,0.5,2C31.8,28,31.8,27.3,31.2,26.7L31.2,26.7z"/>
		</g>
		<g>
			<path class="st0" d="M36.4,23.4c-0.7,0.2-1.4,0.3-1.8,0.9C35.8,24.2,36,24.1,36.4,23.4L36.4,23.4z"/>
		</g>
		<g>
			<path class="st0" d="M51.7,30.3c0.3,0.9,0.5,1.5,1.1,2.1C52.8,31.5,52.4,31,51.7,30.3L51.7,30.3z"/>
		</g>
		<g>
			<path class="st0" d="M33.2,29c-0.6,0.4-1.1,0.8-1.1,1.6C32.7,30.3,33,29.8,33.2,29L33.2,29z"/>
		</g>
		<g>
			<path class="st0" d="M48.2,23.3c-0.1,0-0.2,0-0.4,0c0.5,0.6,1.1,0.6,1.9,0.8C49.1,23.4,48.8,23.3,48.2,23.3L48.2,23.3z"/>
		</g>
		<g>
			<path class="st0" d="M30.4,31.6c0.1,0.6,0.2,1.2,0.7,1.7C31.1,32.3,31,32.1,30.4,31.6L30.4,31.6z"/>
		</g>
		<g>
			<path class="st0" d="M44.5,29.1c-0.2,0-0.4,0.1-0.4,0.4c0,0.3,0.2,0.4,0.5,0.4c0,0,0,0,0,0c0.2,0,0.4-0.1,0.5-0.4
				C45,29.3,44.8,29.2,44.5,29.1C44.5,29.1,44.5,29.1,44.5,29.1L44.5,29.1z"/>
		</g>
		<g>
			<path class="st0" d="M53.9,33.6c-0.5,0.3-0.8,0.7-1,1.4C53.6,34.7,53.7,34.2,53.9,33.6L53.9,33.6z"/>
		</g>
	</g>
	<g>
		<path class="st1" d="M9,47.5C8.9,47,8.9,46.5,9,46c0.1-0.5,0.4-0.8,0.8-1.2c0.4-0.3,0.9-0.5,1.5-0.6c0.6-0.1,1.1-0.1,1.6,0
			c0.5,0.1,0.9,0.4,1.2,0.7c0.3,0.4,0.5,0.8,0.7,1.4c0.1,0.4,0.1,0.7,0.1,1.1c0,0.4-0.1,0.7-0.3,0.9l-0.9-0.2
			c0.2-0.3,0.2-0.5,0.3-0.8s0-0.5,0-0.8c-0.1-0.5-0.4-0.9-0.8-1.2c-0.4-0.2-0.9-0.3-1.5-0.1c-0.6,0.1-1.1,0.4-1.4,0.7
			c-0.3,0.4-0.4,0.8-0.2,1.4c0.1,0.3,0.2,0.5,0.3,0.8s0.3,0.4,0.6,0.6L10,49.3c-0.3-0.2-0.5-0.4-0.7-0.7C9.2,48.3,9.1,47.9,9,47.5z"
			/>
		<path class="st1" d="M10.1,51.3l5.3-2.1l1.4,3.6L16,53l-1.1-2.6L13.5,51l1,2.4l-0.8,0.3l-1-2.4l-1.5,0.6l1.1,2.6l-0.8,0.3
			L10.1,51.3z"/>
		<path class="st1" d="M12.5,56.7l4.8-3.1l1.4,2.1c0.3,0.5,0.5,1,0.4,1.5c-0.1,0.4-0.3,0.8-0.8,1.1c-0.3,0.2-0.6,0.3-0.8,0.3
			c-0.3,0-0.5-0.1-0.8-0.2s-0.5-0.4-0.7-0.6l0.1,0l0.1,0.2c0.1,0.2,0.1,0.3,0.1,0.5s-0.1,0.4-0.2,0.6l-1,1.8l-0.6-1l1-1.8
			c0.1-0.1,0.1-0.2,0.1-0.3c0-0.1,0-0.2,0-0.3c0-0.1-0.1-0.2-0.2-0.3l-0.4-0.7l-1.9,1.2L12.5,56.7z M15.6,56l0.7,1.1
			c0.2,0.3,0.4,0.5,0.6,0.6c0.2,0.1,0.5,0,0.7-0.1c0.2-0.2,0.4-0.4,0.4-0.6c0-0.2-0.1-0.5-0.3-0.8L17.1,55L15.6,56z"/>
		<path class="st1" d="M17.1,63l3.5-3.3l-1.3-1.4l0.7-0.6l3.4,3.6L22.6,62l-1.3-1.4l-3.5,3.3L17.1,63z"/>
		<path class="st1" d="M20.2,66.2l3.6-4.4l0.8,0.7l-3.6,4.4L20.2,66.2z"/>
		<path class="st1" d="M22.6,68.1l3.1-4.8l3.2,2.1l-0.5,0.7l-2.3-1.5l-0.8,1.3l2.2,1.4L27,68l-2.2-1.4l-1.3,2L22.6,68.1z"/>
		<path class="st1" d="M27.2,70.8l2.5-5.1l1,0.5l-2.5,5.1L27.2,70.8z"/>
		<path class="st1" d="M30,72.1l1.8-5.4l3.6,1.2l-0.3,0.8l-2.7-0.9L32,69.3l2.5,0.8l-0.3,0.8l-2.5-0.8l-0.5,1.5l2.7,0.9l-0.3,0.8
			L30,72.1z"/>
		<path class="st1" d="M35.8,73.8l0.7-5.6l2.1,0.3c0.6,0.1,1.1,0.3,1.5,0.5c0.4,0.3,0.7,0.6,0.9,1.1c0.2,0.4,0.2,1,0.1,1.6
			s-0.3,1.1-0.5,1.5c-0.3,0.4-0.7,0.7-1.1,0.8c-0.5,0.2-1,0.2-1.6,0.1L35.8,73.8z M36.9,73.1l1,0.1c0.6,0.1,1.1,0,1.5-0.3
			c0.4-0.3,0.6-0.7,0.7-1.4c0.1-0.6,0-1.2-0.3-1.5s-0.7-0.6-1.4-0.7l-1-0.1L36.9,73.1z"/>
		<path class="st1" d="M48.3,74c-0.6,0.1-1.1,0-1.5-0.1c-0.5-0.2-0.8-0.5-1.1-0.9s-0.5-0.9-0.6-1.5S45,70.4,45.2,70
			c0.2-0.5,0.4-0.8,0.8-1.1c0.4-0.3,0.9-0.5,1.4-0.6c0.4-0.1,0.7-0.1,1.1,0c0.3,0.1,0.7,0.2,0.9,0.4l-0.2,0.9
			c-0.3-0.2-0.5-0.3-0.8-0.3c-0.3-0.1-0.5-0.1-0.8,0c-0.5,0.1-0.9,0.3-1.2,0.7c-0.2,0.4-0.3,0.9-0.2,1.5c0.1,0.6,0.3,1.1,0.7,1.4
			s0.8,0.4,1.4,0.3c0.3,0,0.5-0.1,0.8-0.3c0.2-0.1,0.5-0.3,0.7-0.5l0.5,0.8c-0.2,0.2-0.4,0.5-0.8,0.6C49,73.9,48.7,74,48.3,74z"/>
		<path class="st1" d="M54.5,72.4c-0.4,0.1-0.8,0.2-1.1,0.2c-0.4,0-0.7-0.1-1-0.3s-0.6-0.4-0.8-0.7c-0.2-0.3-0.4-0.6-0.6-1.1
			c-0.2-0.4-0.2-0.8-0.2-1.2c0-0.4,0.1-0.7,0.2-1.1c0.1-0.3,0.3-0.6,0.6-0.9c0.3-0.2,0.6-0.4,1-0.6c0.4-0.1,0.8-0.2,1.1-0.2
			c0.4,0,0.7,0.1,1,0.2c0.3,0.2,0.6,0.4,0.8,0.7c0.2,0.3,0.4,0.6,0.6,1.1c0.2,0.4,0.2,0.8,0.2,1.2s-0.1,0.7-0.2,1.1
			c-0.1,0.3-0.3,0.6-0.6,0.9C55.2,72.1,54.9,72.3,54.5,72.4z M54.2,71.5c0.3-0.1,0.6-0.3,0.8-0.5c0.2-0.2,0.3-0.5,0.3-0.8
			c0-0.3,0-0.7-0.2-1.1c-0.1-0.4-0.3-0.7-0.6-1s-0.5-0.4-0.8-0.4s-0.6,0-0.9,0.1c-0.3,0.1-0.6,0.3-0.8,0.5c-0.2,0.2-0.3,0.5-0.3,0.8
			c0,0.3,0,0.7,0.2,1.1c0.1,0.4,0.3,0.7,0.6,1s0.5,0.4,0.8,0.4C53.5,71.7,53.8,71.7,54.2,71.5z"/>
		<path class="st1" d="M59.2,70.3L56,65.6l0.8-0.6l3.8,2.1l-0.1,0.1l-0.4-4.3l0.8-0.6l3.1,4.7l-0.8,0.5l-2.3-3.4l0.1-0.1l0.4,3.6
			l-0.6,0.4l-3.2-1.7l0.1-0.1l2.3,3.4L59.2,70.3z"/>
		<path class="st1" d="M65.9,65.5l-4.1-4l1.8-1.8c0.3-0.3,0.6-0.5,0.9-0.6C64.7,59,65,59,65.3,59s0.6,0.2,0.9,0.5
			c0.3,0.3,0.4,0.5,0.5,0.8c0.1,0.3,0.1,0.6,0,0.9c-0.1,0.3-0.3,0.6-0.6,0.9l-1,1l1.5,1.5L65.9,65.5z M64.5,62.6l0.9-0.9
			c0.3-0.3,0.4-0.5,0.4-0.7c0-0.2-0.1-0.5-0.3-0.7C65.2,60.1,65,60,64.8,60s-0.5,0.2-0.7,0.4l-0.9,0.9L64.5,62.6z"/>
		<path class="st1" d="M69.5,61.7l-3.3-5.3l0.5-0.7l6.1,1l-0.6,0.9l-1.7-0.3l0.5-0.2l-1.9,2.8l0-0.6l0.9,1.5L69.5,61.7z M67.4,56.7
			l1.6,2.4l-0.3,0l1.5-2.2l0.1,0.3L67.4,56.7L67.4,56.7z"/>
		<path class="st1" d="M73.6,55.1L68.4,53l0.3-0.8l5-1.4l0,0.1l-3.9-1.5l0.4-0.9l5.3,2.1l-0.3,0.8l-5,1.4l0-0.1l3.8,1.5L73.6,55.1z"
			/>
		<path class="st1" d="M76.3,47l-2.9-0.5l0.7-0.1L70.3,48l0.2-1.2l2.5-1.1l0,0.1l-2-2l0.2-1.2l2.9,3l-0.6-0.3l2.9,0.5L76.3,47z"/>
	</g>
	<g>
		<path class="st1" d="M16.7,30.1l-5.3-2l0.4-1l5.3,2L16.7,30.1z"/>
		<path class="st1" d="M18.8,25.6c-0.2,0.3-0.3,0.5-0.5,0.7c-0.2,0.2-0.4,0.4-0.6,0.6s-0.4,0.3-0.6,0.4l-0.6-0.7
			c0.2-0.1,0.4-0.2,0.6-0.3c0.2-0.1,0.3-0.3,0.5-0.5c0.1-0.2,0.3-0.4,0.4-0.6c0.2-0.4,0.3-0.6,0.3-0.9c0-0.2-0.1-0.4-0.3-0.5
			c-0.1-0.1-0.2-0.1-0.3-0.1s-0.2,0.1-0.3,0.1c-0.1,0.1-0.3,0.2-0.4,0.4l-0.6,0.7c-0.3,0.4-0.7,0.6-1.1,0.7s-0.7,0-1.1-0.2
			c-0.3-0.2-0.5-0.4-0.6-0.7c-0.1-0.3-0.2-0.6-0.1-1c0-0.4,0.2-0.7,0.4-1.1c0.1-0.2,0.3-0.4,0.4-0.6s0.3-0.3,0.5-0.5
			c0.2-0.1,0.4-0.2,0.6-0.3l0.5,0.7c-0.3,0.1-0.5,0.2-0.7,0.4c-0.2,0.2-0.4,0.4-0.6,0.7c-0.1,0.2-0.2,0.4-0.2,0.6c0,0.2,0,0.4,0,0.5
			c0.1,0.1,0.2,0.3,0.3,0.3c0.2,0.1,0.3,0.1,0.5,0.1c0.2-0.1,0.3-0.2,0.6-0.4l0.6-0.7c0.4-0.4,0.7-0.7,1.1-0.8
			c0.3-0.1,0.7-0.1,1,0.1c0.3,0.2,0.5,0.4,0.6,0.7c0.1,0.3,0.2,0.6,0.1,1C19.2,24.8,19.1,25.2,18.8,25.6z"/>
		<path class="st1" d="M22.6,20.5c-0.3,0.3-0.6,0.5-0.9,0.7s-0.7,0.2-1,0.2c-0.4,0-0.7-0.1-1.1-0.2s-0.7-0.4-1-0.7
			c-0.3-0.3-0.6-0.6-0.7-1s-0.3-0.7-0.3-1s0-0.7,0.2-1c0.1-0.3,0.3-0.7,0.6-1c0.3-0.3,0.6-0.5,0.9-0.7s0.7-0.2,1-0.2s0.7,0.1,1,0.2
			c0.3,0.1,0.7,0.4,1,0.7c0.3,0.3,0.6,0.6,0.8,1c0.2,0.3,0.3,0.7,0.3,1s0,0.7-0.2,1C23.1,19.9,22.8,20.2,22.6,20.5z M21.9,19.9
			c0.2-0.3,0.4-0.5,0.4-0.8c0.1-0.3,0-0.6-0.1-0.9s-0.3-0.6-0.7-0.9c-0.3-0.3-0.6-0.5-0.9-0.6c-0.3-0.1-0.6-0.1-0.9,0
			c-0.3,0.1-0.5,0.2-0.8,0.5c-0.2,0.3-0.4,0.5-0.4,0.8c-0.1,0.3,0,0.6,0.1,0.9s0.3,0.6,0.7,0.9c0.3,0.3,0.6,0.5,0.9,0.6
			c0.3,0.1,0.6,0.1,0.9,0.1S21.7,20.2,21.9,19.9z"/>
		<path class="st1" d="M28.1,15.8l-0.4-0.7l0.7-2.6c0.1-0.2,0.1-0.4,0.1-0.6c0-0.2,0-0.3,0-0.5c0-0.1-0.1-0.3-0.1-0.4
			c-0.1-0.2-0.3-0.4-0.5-0.4c-0.2,0-0.5,0-0.7,0.2c-0.2,0.1-0.4,0.3-0.6,0.5c-0.2,0.2-0.3,0.4-0.4,0.7l-0.7-0.5
			c0.1-0.3,0.3-0.6,0.5-0.8c0.2-0.3,0.5-0.5,0.8-0.7c0.4-0.2,0.7-0.3,1-0.3c0.3,0,0.6,0,0.8,0.2c0.2,0.1,0.4,0.4,0.6,0.7
			c0.1,0.1,0.1,0.3,0.2,0.5c0,0.2,0.1,0.3,0.1,0.5s0,0.4,0,0.6c0,0.2-0.1,0.4-0.2,0.7l-0.5,1.9l-0.1-0.1l2.3-1.2l0.4,0.8L28.1,15.8z
			"/>
		<path class="st1" d="M33,13.4l1.1-5.7L34.2,8l-2.9,0.9l-0.3-0.9l3.8-1.2l0.2,0.8l-1,5.4L33,13.4z"/>
		<path class="st1" d="M39.9,12c-0.4,0-0.8,0-1.2-0.2c-0.3-0.2-0.6-0.5-0.8-0.9c-0.2-0.4-0.3-0.9-0.4-1.6s0-1.2,0.1-1.6
			c0.1-0.4,0.3-0.8,0.6-1c0.3-0.3,0.7-0.4,1.1-0.4c0.5,0,0.8,0,1.2,0.2c0.3,0.2,0.6,0.5,0.8,0.9c0.2,0.4,0.3,0.9,0.4,1.6
			c0.1,0.6,0,1.2-0.1,1.6c-0.1,0.4-0.3,0.8-0.6,1.1C40.7,11.8,40.3,11.9,39.9,12z M39.8,11.1c0.4,0,0.6-0.2,0.7-0.6
			c0.1-0.3,0.2-0.9,0.1-1.6c-0.1-0.7-0.2-1.2-0.4-1.5C40,7.1,39.8,7,39.4,7c-0.4,0-0.6,0.2-0.7,0.6c-0.1,0.3-0.2,0.9-0.1,1.6
			c0.1,0.7,0.2,1.2,0.4,1.5S39.4,11.1,39.8,11.1z"/>
		<path class="st1" d="M45.2,11.9c-0.4,0-0.8-0.2-1.1-0.4s-0.5-0.6-0.6-1.1s-0.1-1-0.1-1.6s0.2-1.2,0.4-1.6s0.5-0.7,0.8-0.9
			s0.7-0.3,1.2-0.2c0.5,0,0.8,0.2,1.1,0.4c0.3,0.2,0.5,0.6,0.6,1s0.1,1,0.1,1.6c-0.1,0.6-0.2,1.2-0.4,1.6c-0.2,0.4-0.5,0.7-0.8,0.9
			C46.1,11.9,45.7,12,45.2,11.9z M45.3,11.1c0.4,0,0.6-0.1,0.8-0.4c0.2-0.3,0.3-0.8,0.4-1.5c0.1-0.7,0-1.2-0.1-1.6
			C46.3,7.2,46.1,7,45.7,7c-0.4,0-0.6,0.1-0.8,0.4c-0.2,0.3-0.3,0.8-0.4,1.5c-0.1,0.7,0,1.2,0.1,1.6S45,11,45.3,11.1z"/>
		<path class="st1" d="M48.9,12.4l0.3-0.8l1.3,0.4l1.1-3.8l0.5,0.2l-1.8,0.5L50.1,8l2-0.5l0.7,0.2l-1.4,4.6l1.2,0.4l-0.3,0.8
			L48.9,12.4z"/>
		<path class="st1" d="M53.7,14.1l0.5-1l1.1,0.5l-0.5,1L53.7,14.1z M54.9,11.5l0.5-1l1.1,0.5L56,12L54.9,11.5z"/>
		<path class="st1" d="M56.3,15.3l0.4-0.6l2.6-0.6c0.2-0.1,0.4-0.1,0.6-0.2c0.2-0.1,0.3-0.1,0.4-0.2s0.2-0.2,0.3-0.3
			c0.1-0.2,0.2-0.4,0.1-0.6c-0.1-0.2-0.2-0.4-0.5-0.6c-0.2-0.1-0.4-0.2-0.7-0.3c-0.3-0.1-0.5-0.1-0.8,0l0.1-0.9c0.3,0,0.6,0,1,0.1
			c0.4,0.1,0.7,0.2,1,0.4c0.3,0.2,0.6,0.5,0.8,0.7s0.2,0.5,0.2,0.8s-0.1,0.6-0.3,0.8c-0.1,0.1-0.2,0.3-0.3,0.4
			c-0.1,0.1-0.3,0.2-0.4,0.3c-0.2,0.1-0.3,0.2-0.5,0.2c-0.2,0.1-0.4,0.1-0.7,0.2l-2,0.4l0.1-0.1l2.2,1.5l-0.5,0.7L56.3,15.3z"/>
		<path class="st1" d="M61.9,19.8c-0.3-0.3-0.5-0.7-0.6-1s0-0.8,0.2-1.2c0.2-0.4,0.5-0.9,1-1.3c0.4-0.4,0.9-0.8,1.3-1
			c0.4-0.2,0.8-0.3,1.2-0.2s0.7,0.3,1,0.6c0.3,0.3,0.5,0.7,0.6,1c0.1,0.4,0,0.8-0.2,1.2s-0.5,0.8-1,1.3c-0.4,0.4-0.9,0.8-1.3,1
			c-0.4,0.2-0.8,0.3-1.2,0.2S62.2,20.1,61.9,19.8z M62.5,19.1c0.3,0.3,0.6,0.3,0.9,0.2c0.4-0.1,0.8-0.4,1.3-0.9
			c0.5-0.5,0.8-0.9,0.9-1.3c0.1-0.4,0-0.7-0.2-0.9c-0.3-0.3-0.6-0.3-0.9-0.2c-0.4,0.1-0.8,0.4-1.3,0.9s-0.8,0.9-0.9,1.3
			C62.2,18.6,62.3,18.9,62.5,19.1z"/>
		<path class="st1" d="M64.5,22.5l0.7-0.5l0.8,1.1l3.3-2.2l0.3,0.4l-1.7-0.8l0.4-0.8l1.9,0.9l0.4,0.6l-4,2.7l0.7,1.1l-0.7,0.5
			L64.5,22.5z"/>
		<path class="st1" d="M67.8,28.5c-0.1-0.2-0.2-0.5-0.2-0.7c0-0.2-0.1-0.5-0.1-0.7c0-0.2,0-0.4,0.1-0.6l0.9,0
			c-0.1,0.3-0.1,0.6-0.1,0.9c0,0.3,0.1,0.6,0.2,0.8c0.1,0.2,0.2,0.4,0.3,0.5c0.1,0.1,0.3,0.2,0.4,0.2c0.1,0,0.3,0,0.5-0.1
			c0.2-0.1,0.4-0.3,0.4-0.5c0.1-0.2,0-0.5-0.1-0.8l-0.4-0.9l0.8-0.3l0.3,0.8c0.1,0.2,0.2,0.3,0.3,0.4s0.2,0.2,0.4,0.2
			c0.1,0,0.3,0,0.5-0.1c0.2-0.1,0.4-0.2,0.4-0.4c0-0.2,0-0.4-0.1-0.7c-0.1-0.3-0.3-0.5-0.4-0.7c-0.2-0.2-0.4-0.4-0.7-0.5l0.6-0.6
			c0.3,0.1,0.6,0.3,0.8,0.6s0.4,0.6,0.6,0.9c0.2,0.4,0.2,0.7,0.2,1c0,0.3-0.1,0.6-0.2,0.8c-0.1,0.2-0.4,0.4-0.7,0.5
			c-0.3,0.1-0.6,0.2-0.9,0.1c-0.3-0.1-0.5-0.2-0.7-0.5l0,0c0.1,0.2,0.1,0.5,0,0.7c0,0.2-0.1,0.4-0.3,0.6c-0.1,0.2-0.3,0.3-0.6,0.4
			c-0.3,0.1-0.6,0.2-0.9,0.1c-0.3-0.1-0.6-0.2-0.8-0.4C68.2,29.2,68,28.9,67.8,28.5z"/>
	</g>
	<g>
		<path class="st1" d="M32.6,53c-0.6,0-1.2-0.1-1.7-0.4c-0.5-0.3-0.8-0.6-1.1-1.1s-0.4-1.1-0.4-1.7s0.1-1.3,0.4-1.7s0.6-0.9,1.1-1.1
			c0.5-0.3,1-0.4,1.7-0.4c0.4,0,0.8,0.1,1.2,0.2s0.7,0.3,0.9,0.6l-0.4,0.9c-0.3-0.2-0.5-0.4-0.8-0.5c-0.3-0.1-0.6-0.1-0.9-0.1
			c-0.6,0-1.1,0.2-1.4,0.6s-0.5,0.9-0.5,1.6s0.2,1.3,0.5,1.6c0.3,0.4,0.8,0.6,1.4,0.6c0.3,0,0.6,0,0.9-0.1c0.3-0.1,0.5-0.3,0.8-0.5
			l0.4,0.9c-0.3,0.2-0.6,0.4-0.9,0.6S33,53,32.6,53z"/>
	</g>
	<g>
		<path class="st1" d="M42.4,53c-0.6,0-1.2-0.1-1.7-0.4c-0.5-0.3-0.8-0.6-1.1-1.1c-0.3-0.5-0.4-1.1-0.4-1.7s0.1-1.3,0.4-1.7
			s0.6-0.9,1.1-1.1c0.5-0.3,1-0.4,1.7-0.4c0.4,0,0.8,0.1,1.2,0.2s0.7,0.3,0.9,0.6l-0.4,0.9c-0.3-0.2-0.5-0.4-0.8-0.5
			c-0.3-0.1-0.6-0.1-0.9-0.1c-0.6,0-1.1,0.2-1.4,0.6s-0.5,0.9-0.5,1.6s0.2,1.3,0.5,1.6c0.3,0.4,0.8,0.6,1.4,0.6c0.3,0,0.6,0,0.9-0.1
			c0.3-0.1,0.5-0.3,0.8-0.5l0.4,0.9c-0.3,0.2-0.6,0.4-0.9,0.6S42.8,53,42.4,53z"/>
	</g>
	<g>
		<path class="st1" d="M51.4,53v-6.3h1.2V53H51.4z"/>
	</g>
	<rect x="94.5" y="80.9" class="st0" width="83.8" height="19.8"/>
	<g>
		<path class="st1" d="M113,98.2v-0.6l0.8-0.8c2-1.9,2.9-2.9,2.9-4.1c0-0.8-0.4-1.5-1.5-1.5c-0.7,0-1.3,0.4-1.7,0.7l-0.3-0.7
			c0.5-0.5,1.3-0.8,2.2-0.8c1.7,0,2.4,1.2,2.4,2.3c0,1.4-1,2.6-2.7,4.2l-0.6,0.6l0,0h3.5v0.9h-5V98.2z"/>
		<path class="st1" d="M119.1,98.2v-0.6l0.8-0.8c2-1.9,2.9-2.9,2.9-4.1c0-0.8-0.4-1.5-1.5-1.5c-0.7,0-1.3,0.4-1.7,0.7l-0.3-0.7
			c0.5-0.5,1.3-0.8,2.2-0.8c1.7,0,2.4,1.2,2.4,2.3c0,1.4-1,2.6-2.7,4.2l-0.6,0.6l0,0h3.5v0.9h-5V98.2z"/>
		<path class="st1" d="M125.7,90.2c0.5-0.1,1.2-0.2,2-0.2c1,0,1.8,0.2,2.3,0.7c0.4,0.4,0.7,1,0.7,1.7s-0.2,1.3-0.6,1.7
			c-0.6,0.6-1.5,0.9-2.5,0.9c-0.3,0-0.6,0-0.8-0.1v3.2h-1L125.7,90.2L125.7,90.2z M126.7,94.1c0.2,0.1,0.5,0.1,0.9,0.1
			c1.3,0,2-0.6,2-1.7s-0.8-1.6-1.9-1.6c-0.5,0-0.8,0-1,0.1V94.1z"/>
		<path class="st1" d="M132,90.1h1V94l0,0c0.2-0.3,0.4-0.6,0.6-0.9l2.5-3h1.3l-2.9,3.4l3.2,4.7h-1.2l-2.7-4l-0.8,0.9v3.1h-1
			L132,90.1L132,90.1z"/>
		<path class="st1" d="M138.8,97.5c0.2,0,0.5,0,0.9,0c0.6-0.1,1.2-0.3,1.6-0.8c0.5-0.5,0.9-1.2,1-2.1l0,0c-0.4,0.5-1.1,0.8-1.8,0.8
			c-1.4,0-2.3-1.1-2.3-2.4c0-1.5,1.1-2.8,2.7-2.8c1.6,0,2.6,1.3,2.6,3.3c0,1.7-0.6,2.9-1.3,3.7c-0.6,0.6-1.4,0.9-2.3,1
			c-0.4,0.1-0.7,0.1-1,0.1L138.8,97.5L138.8,97.5z M139.2,93c0,1,0.6,1.7,1.5,1.7c0.7,0,1.3-0.3,1.5-0.8c0.1-0.1,0.1-0.2,0.1-0.4
			c0-1.3-0.5-2.4-1.6-2.4C139.8,91.1,139.2,91.9,139.2,93z"/>
		<path class="st1" d="M149.5,94.2c0,2.7-1,4.1-2.7,4.1c-1.5,0-2.6-1.4-2.6-4s1.1-4.1,2.7-4.1C148.6,90.3,149.5,91.8,149.5,94.2z
			 M145.3,94.4c0,2,0.6,3.2,1.6,3.2c1.1,0,1.6-1.3,1.6-3.3c0-1.9-0.5-3.2-1.6-3.2C145.9,91.1,145.3,92.2,145.3,94.4z"/>
		<path class="st1" d="M150.7,97c0.3,0.2,1,0.5,1.7,0.5c1.4,0,1.8-0.9,1.8-1.5c0-1.1-1-1.6-2-1.6h-0.6v-0.8h0.6
			c0.8,0,1.7-0.4,1.7-1.3c0-0.6-0.4-1.2-1.4-1.2c-0.6,0-1.2,0.3-1.6,0.5l-0.3-0.8c0.4-0.3,1.2-0.6,2-0.6c1.5,0,2.2,0.9,2.2,1.9
			c0,0.8-0.5,1.5-1.4,1.8l0,0c1,0.2,1.7,0.9,1.7,2c0,1.2-1,2.3-2.8,2.3c-0.9,0-1.6-0.3-2-0.5L150.7,97z"/>
		<path class="st1" d="M156.9,97c0.3,0.2,1,0.5,1.7,0.5c1.4,0,1.8-0.9,1.8-1.5c0-1.1-1-1.6-2-1.6h-0.6v-0.8h0.6
			c0.8,0,1.7-0.4,1.7-1.3c0-0.6-0.4-1.2-1.4-1.2c-0.6,0-1.2,0.3-1.6,0.5l-0.3-0.8c0.4-0.3,1.2-0.6,2-0.6c1.5,0,2.2,0.9,2.2,1.9
			c0,0.8-0.5,1.5-1.4,1.8l0,0c1,0.2,1.7,0.9,1.7,2c0,1.2-1,2.3-2.8,2.3c-0.9,0-1.6-0.3-2-0.5L156.9,97z"/>
	</g>
	<g>
		<path class="st1" d="M127.9,88.2c-0.2,0.1-0.6,0.2-1.1,0.2c-1.1,0-2-0.7-2-2s0.9-2.1,2.1-2.1c0.5,0,0.8,0.1,1,0.2l-0.1,0.4
			c-0.2-0.1-0.5-0.2-0.8-0.2c-0.9,0-1.6,0.6-1.6,1.7c0,1,0.6,1.6,1.6,1.6c0.3,0,0.6-0.1,0.9-0.2L127.9,88.2z"/>
		<path class="st1" d="M130.7,86.4h-1.6v1.5h1.8v0.4h-2.3v-4h2.2v0.4h-1.7V86h1.6V86.4z"/>
		<path class="st1" d="M131.5,84.3c0.3-0.1,0.6-0.1,1-0.1c0.6,0,0.9,0.1,1.2,0.3c0.2,0.2,0.3,0.5,0.3,0.8c0,0.5-0.3,0.9-0.8,1l0,0
			c0.3,0.1,0.5,0.4,0.6,0.8c0.1,0.6,0.2,1,0.3,1.1h-0.5c-0.1-0.1-0.2-0.5-0.3-1c-0.1-0.6-0.3-0.8-0.8-0.8H132v1.8h-0.5V84.3z
			 M132,86.1h0.5c0.6,0,0.9-0.3,0.9-0.8s-0.4-0.8-0.9-0.8c-0.3,0-0.4,0-0.5,0V86.1z"/>
		<path class="st1" d="M135.6,84.7h-1.3v-0.4h3v0.4h-1.2v3.6h-0.5V84.7z"/>
		<path class="st1" d="M138.3,84.2v4h-0.5v-4H138.3z"/>
		<path class="st1" d="M139.2,84.2h2.2v0.4h-1.7V86h1.5v0.4h-1.5v1.8h-0.5V84.2z"/>
		<path class="st1" d="M142.7,84.2v4h-0.5v-4H142.7z"/>
		<path class="st1" d="M145.7,86.4h-1.6v1.5h1.8v0.4h-2.3v-4h2.2v0.4h-1.7V86h1.6V86.4z"/>
		<path class="st1" d="M146.5,84.3c0.3,0,0.7-0.1,1.1-0.1c0.8,0,1.3,0.2,1.6,0.5c0.4,0.3,0.6,0.8,0.6,1.5s-0.2,1.2-0.6,1.6
			c-0.4,0.4-1,0.6-1.8,0.6c-0.4,0-0.7,0-0.9,0L146.5,84.3L146.5,84.3z M147,87.9c0.1,0,0.3,0,0.5,0c1.1,0,1.7-0.6,1.7-1.7
			c0-1-0.5-1.6-1.6-1.6c-0.3,0-0.5,0-0.6,0.1L147,87.9L147,87.9z"/>
	</g>
	<rect x="121.7" y="45.5" class="st0" width="8.5" height="8.5"/>
	<rect x="130.6" y="45.5" class="st0" width="0.7" height="8.5"/>
	<rect x="131.7" y="45.5" class="st0" width="8.5" height="8.5"/>
	<rect x="141.8" y="45.5" class="st0" width="8.5" height="8.5"/>
	<rect x="140.7" y="45.5" class="st0" width="0.7" height="8.5"/>
	<g>
		<g>
			<path class="st0" d="M136.1,64.4c-13.5,0-24.5-11-24.5-24.5s11-24.5,24.5-24.5s24.5,11,24.5,24.5S149.6,64.4,136.1,64.4z
				 M136.1,16.5c-12.9,0-23.5,10.5-23.5,23.5c0,12.9,10.5,23.5,23.5,23.5s23.5-10.5,23.5-23.5C159.6,27,149.1,16.5,136.1,16.5z"/>
		</g>
	</g>
	<path class="st0" d="M136.1,14c14.3,0,25.9,11.6,25.9,25.9s-11.6,25.9-25.9,25.9s-25.9-11.6-25.9-25.9S121.9,14,136.1,14 M136.1,3
		c-20.4,0-36.9,16.5-36.9,36.9s16.5,36.9,36.9,36.9S173,60.3,173,39.9S156.5,3,136.1,3L136.1,3z"/>
	<g>
		<path class="st0" d="M178.4,100.7H93.9V0h84.5V100.7z M94.9,99.7h82.5V1H94.9V99.7z"/>
	</g>
	<g>
		<g>
			<path class="st0" d="M136.2,24.3c-2.8,0-5.3,1.6-6.6,4c-1.8,3.4-0.7,7.6,2.4,9.8c1.3,0.9,2.8,1.3,4.3,1.3c1.7,0,3.3-0.6,4.4-1.6
				c-0.4-0.5-0.9-1-1.3-1.5c-1.2,0.6-2.4,0.9-3.4,0.9c-1.4,0-2.6-0.5-3.6-1.6c-1.5-1.6-1.9-4.1-0.9-6c0.5-1.1,1.3-1.9,2.4-2.4
				c0.8-0.4,1.6-0.6,2.4-0.6c0.7,0,1.4,0.1,2.1,0.4c0.3-0.7,0.5-1.3,0.8-1.9C138.2,24.5,137.2,24.3,136.2,24.3L136.2,24.3z"/>
		</g>
		<g>
			<path class="st0" d="M136.1,28c-1.3,0-2.5,0.6-3.2,1.8c-1,1.6-0.7,3.6,0.7,4.9c0.7,0.7,1.7,1,2.6,1c0.7,0,1.5-0.2,2.1-0.6
				c-0.3-0.4-0.6-0.7-0.9-1c-0.2-0.3-0.4-0.5-0.8-0.5c0,0-0.1,0-0.1,0c-0.1,0-0.1,0-0.2,0c-1,0-1.7-0.7-1.7-1.6c0-1,0.7-1.8,1.8-1.8
				c0,0,0,0,0,0c0.1,0,0.2,0,0.3,0c0.1,0,0.3,0,0.4-0.2c0.2-0.5,0.5-1,0.6-1.6C137,28.1,136.5,28,136.1,28L136.1,28z"/>
		</g>
		<g>
			<path class="st0" d="M142.7,28.3c-1.2,0.8-2,2.1-2.9,3.1c-0.3-0.3-0.1-0.7-0.4-0.9c-0.7,0-1.4,0.1-2.2,0.2
				c0.9,1.2,1.4,2.5,1.8,3.9c1.3-1.5,2.6-2.9,4.3-4c0.2-0.1,0.2-0.3,0.2-0.5C143.3,29.4,143.2,28.8,142.7,28.3L142.7,28.3z"/>
		</g>
		<g>
			<path class="st0" d="M137.2,41.5c-0.4,0-0.9,0.1-1.3,0.3c-1,0.4-2,1-3.2,1.1c0.4,0.3,0.8,0.5,1.3,0.5c0.4,0,0.8-0.1,1.3-0.4
				c1-0.5,2-1.1,3.2-1.1c0.1,0,0.2,0,0.3,0C138.2,41.6,137.7,41.5,137.2,41.5L137.2,41.5z"/>
		</g>
		<g>
			<path class="st0" d="M142.6,39.2c-1,0.2-1.8,0.6-2.2,1.8C142.1,40.4,142.7,39.9,142.6,39.2L142.6,39.2z"/>
		</g>
		<g>
			<path class="st0" d="M126.1,38.5c0.7,0.8,1.2,1.5,2.2,1.5c0.1,0,0.3,0,0.4,0C128.1,39.1,127.3,38.7,126.1,38.5L126.1,38.5z"/>
		</g>
		<g>
			<path class="st0" d="M142.9,40.8c-0.5,0-0.8,0.2-1.2,0.6c0.5,0.2,0.9,0.3,1.3,0.3c0.5,0,0.9-0.2,1.4-0.6
				C143.8,40.9,143.3,40.8,142.9,40.8L142.9,40.8z"/>
		</g>
		<g>
			<path class="st0" d="M130.5,41.2c-0.5,0-1,0.2-1.6,0.2c-0.1,0-0.3,0-0.4,0c0.7,0.5,1.1,0.7,1.5,0.7c0.4,0,0.8-0.2,1.6-0.5
				C131.2,41.3,130.9,41.2,130.5,41.2L130.5,41.2z"/>
		</g>
		<g>
			<path class="st0" d="M130,39.4c0.7,1,1.6,1.5,2.7,1.7C132.1,39.9,131.1,39.7,130,39.4L130,39.4z"/>
		</g>
		<g>
			<path class="st0" d="M146.6,37.8c-0.9,0.2-1.6,0.7-2.2,1.6C145.6,39.3,146.4,38.7,146.6,37.8L146.6,37.8z"/>
		</g>
		<g>
			<path class="st0" d="M124.9,36.1c0.5,0.9,0.8,1.7,2,1.8C126.5,36.9,125.9,36.4,124.9,36.1L124.9,36.1z"/>
		</g>
		<g>
			<path class="st0" d="M147.7,35.4c-0.9,0.5-1.5,0.9-1.9,2C146.8,37,147.4,36.4,147.7,35.4L147.7,35.4z"/>
		</g>
		<g>
			<path class="st0" d="M144.4,36.5c-0.6,0.8-0.5,1.6-0.5,2.5C144.6,38.2,144.6,37.5,144.4,36.5L144.4,36.5z"/>
		</g>
		<g>
			<path class="st0" d="M144.5,22.6c-0.1,0.9-0.1,1.6,0.5,2.4C145.1,24.1,145.2,23.4,144.5,22.6L144.5,22.6z"/>
		</g>
		<g>
			<path class="st0" d="M129.5,21.6c-0.8,0.6-1.1,1.3-1.2,2.1C128.8,23.1,129.6,22.7,129.5,21.6L129.5,21.6z"/>
		</g>
		<g>
			<path class="st0" d="M144.4,26.5c0.3,1,1,1.3,1.7,1.7C145.7,27.5,145.2,26.9,144.4,26.5L144.4,26.5z"/>
		</g>
		<g>
			<path class="st0" d="M147.6,27.8c-0.3,0.9-0.7,1.6-0.7,2.5C147.7,29.6,147.8,29.1,147.6,27.8L147.6,27.8z"/>
		</g>
		<g>
			<path class="st0" d="M127.7,27.1c-0.8,0.5-1.4,0.7-1.6,1.7C126.7,28.2,127.6,28.1,127.7,27.1L127.7,27.1z"/>
		</g>
		<g>
			<path class="st0" d="M124.6,28.8c-0.1,0.8-0.1,1.6,0.7,2.3C125.2,30.1,124.9,29.5,124.6,28.8L124.6,28.8z"/>
		</g>
		<g>
			<path class="st0" d="M142.3,21.3c0,1,0.7,1.4,1.3,2C143.4,22.4,143.1,21.8,142.3,21.3L142.3,21.3z"/>
		</g>
		<g>
			<path class="st0" d="M126.6,33.4c-0.6,1-0.6,1.2-0.1,2.1C126.7,34.8,126.8,34.1,126.6,33.4L126.6,33.4z"/>
		</g>
		<g>
			<path class="st0" d="M146,32.4c-0.3,1-0.2,1.7,0.3,2.4C146.3,34,146.4,33.3,146,32.4L146,32.4z"/>
		</g>
		<g>
			<path class="st0" d="M127.2,35.1c-0.2,1.5-0.1,1.7,0.2,2.4C127.7,36.7,127.6,36,127.2,35.1L127.2,35.1z"/>
		</g>
		<g>
			<path class="st0" d="M128.4,37c-0.2,0.9,0.1,1.6,0.7,2.5C128.9,38.5,128.9,37.7,128.4,37L128.4,37z"/>
		</g>
		<g>
			<path class="st0" d="M143.3,24.7c0.5,0.9,1,1.3,2,1.4C144.8,25.4,144.1,25.1,143.3,24.7L143.3,24.7z"/>
		</g>
		<g>
			<path class="st0" d="M128.6,25.2c-0.6,0.5-1.3,0.5-1.7,1.4C128,26.3,128.2,26.1,128.6,25.2L128.6,25.2z"/>
		</g>
		<g>
			<path class="st0" d="M127.1,23.1c-0.3,0.7-0.4,1.3-0.2,2C127.6,24.3,127.6,23.9,127.1,23.1L127.1,23.1z"/>
		</g>
		<g>
			<path class="st0" d="M124.5,33.9c0.4,0.8,0.6,1.4,1.4,1.8C125.6,34.9,125.2,34.4,124.5,33.9L124.5,33.9z"/>
		</g>
		<g>
			<path class="st0" d="M148,30.7c-0.5,0.5-0.7,1.1-0.7,2C147.9,32.1,148.1,31.4,148,30.7L148,30.7z"/>
		</g>
		<g>
			<path class="st0" d="M145,28.4c0.3,1,0.6,1.3,1.4,1.5C146,29.2,145.7,28.7,145,28.4L145,28.4z"/>
		</g>
		<g>
			<path class="st0" d="M145.8,24.2c-0.1,0.8-0.2,1.5,0.1,2.3C146.2,25.7,146.2,25,145.8,24.2L145.8,24.2z"/>
		</g>
		<g>
			<path class="st0" d="M145.5,34.8c-0.4,0.7-0.5,1.3,0,2.2C145.5,36.2,145.5,35.5,145.5,34.8L145.5,34.8z"/>
		</g>
		<g>
			<path class="st0" d="M126.5,31.2c-0.5,0.5-0.8,1-0.7,1.8C126.2,32.4,126.7,32,126.5,31.2L126.5,31.2z"/>
		</g>
		<g>
			<path class="st0" d="M146.8,25.7c-0.4,0.7-0.2,1.4-0.2,2.1C146.8,27.2,147.3,26.6,146.8,25.7L146.8,25.7z"/>
		</g>
		<g>
			<path class="st0" d="M125.1,26.7c-0.1,0.7,0.2,1.4,0.5,2C125.7,28,125.7,27.3,125.1,26.7L125.1,26.7z"/>
		</g>
		<g>
			<path class="st0" d="M130.3,23.4c-0.7,0.2-1.4,0.3-1.8,0.9C129.7,24.2,129.9,24.1,130.3,23.4L130.3,23.4z"/>
		</g>
		<g>
			<path class="st0" d="M145.6,30.3c0.3,0.9,0.5,1.5,1.1,2.1C146.7,31.5,146.3,31,145.6,30.3L145.6,30.3z"/>
		</g>
		<g>
			<path class="st0" d="M127.1,29c-0.6,0.4-1.1,0.8-1.1,1.6C126.6,30.3,126.9,29.8,127.1,29L127.1,29z"/>
		</g>
		<g>
			<path class="st0" d="M142.1,23.3c-0.1,0-0.2,0-0.4,0c0.5,0.6,1.1,0.6,1.9,0.8C143,23.4,142.7,23.3,142.1,23.3L142.1,23.3z"/>
		</g>
		<g>
			<path class="st0" d="M124.3,31.6c0.1,0.6,0.2,1.2,0.7,1.7C125,32.3,124.9,32.1,124.3,31.6L124.3,31.6z"/>
		</g>
		<g>
			<path class="st0" d="M138.4,29.1c-0.2,0-0.4,0.1-0.4,0.4c0,0.3,0.2,0.4,0.5,0.4c0,0,0,0,0,0c0.2,0,0.4-0.1,0.5-0.4
				C138.9,29.3,138.7,29.2,138.4,29.1C138.4,29.1,138.4,29.1,138.4,29.1L138.4,29.1z"/>
		</g>
		<g>
			<path class="st0" d="M147.8,33.6c-0.5,0.3-0.8,0.7-1,1.4C147.5,34.7,147.6,34.2,147.8,33.6L147.8,33.6z"/>
		</g>
	</g>
	<g>
		<path class="st1" d="M102.9,47.5c-0.1-0.6-0.1-1.1,0-1.5c0.1-0.5,0.4-0.8,0.8-1.2c0.4-0.3,0.9-0.5,1.5-0.6c0.6-0.1,1.1-0.1,1.6,0
			c0.5,0.1,0.9,0.4,1.2,0.7c0.3,0.4,0.5,0.8,0.7,1.4c0.1,0.4,0.1,0.7,0.1,1.1c0,0.4-0.1,0.7-0.3,0.9l-0.9-0.2
			c0.2-0.3,0.2-0.5,0.3-0.8s0-0.5,0-0.8c-0.1-0.5-0.4-0.9-0.8-1.2c-0.4-0.2-0.9-0.3-1.5-0.1c-0.6,0.1-1.1,0.4-1.4,0.7
			c-0.3,0.4-0.4,0.8-0.2,1.4c0.1,0.3,0.2,0.5,0.3,0.8s0.3,0.4,0.6,0.6l-0.7,0.5c-0.3-0.2-0.5-0.4-0.7-0.7
			C103.1,48.3,103,47.9,102.9,47.5z"/>
		<path class="st1" d="M104,51.3l5.3-2.1l1.4,3.6l-0.8,0.3l-1.1-2.6l-1.4,0.6l1,2.4l-0.8,0.3l-1-2.4l-1.5,0.6l1.1,2.6l-0.8,0.3
			L104,51.3z"/>
		<path class="st1" d="M106.4,56.7l4.8-3.1l1.4,2.1c0.3,0.5,0.5,1,0.4,1.5c-0.1,0.4-0.3,0.8-0.8,1.1c-0.3,0.2-0.6,0.3-0.8,0.3
			c-0.3,0-0.5-0.1-0.8-0.2s-0.5-0.4-0.7-0.6l0.1,0L110,58c0.1,0.2,0.1,0.3,0.1,0.5s-0.1,0.4-0.2,0.6l-1,1.8l-0.6-1l1-1.8
			c0.1-0.1,0.1-0.2,0.1-0.3c0-0.1,0-0.2,0-0.3c0-0.1-0.1-0.2-0.2-0.3l-0.4-0.7l-1.9,1.2L106.4,56.7z M109.5,56l0.7,1.1
			c0.2,0.3,0.4,0.5,0.6,0.6c0.2,0.1,0.5,0,0.7-0.1c0.2-0.2,0.4-0.4,0.4-0.6c0-0.2-0.1-0.5-0.3-0.8L111,55L109.5,56z"/>
		<path class="st1" d="M111,63l3.5-3.3l-1.3-1.4l0.7-0.6l3.4,3.6l-0.7,0.6l-1.3-1.4l-3.5,3.3L111,63z"/>
		<path class="st1" d="M114.1,66.2l3.6-4.4l0.8,0.7l-3.6,4.4L114.1,66.2z"/>
		<path class="st1" d="M116.5,68.1l3.1-4.8l3.2,2.1l-0.5,0.7l-2.3-1.5l-0.8,1.3l2.2,1.4l-0.5,0.7l-2.2-1.4l-1.3,2L116.5,68.1z"/>
		<path class="st1" d="M121.1,70.8l2.5-5.1l1,0.5l-2.5,5.1L121.1,70.8z"/>
		<path class="st1" d="M123.9,72.1l1.8-5.4l3.6,1.2l-0.3,0.8l-2.7-0.9l-0.5,1.4l2.5,0.8l-0.3,0.8l-2.5-0.8l-0.5,1.5l2.7,0.9
			l-0.3,0.8L123.9,72.1z"/>
		<path class="st1" d="M129.7,73.8l0.7-5.6l2.1,0.3c0.6,0.1,1.1,0.3,1.5,0.5c0.4,0.3,0.7,0.6,0.9,1.1c0.2,0.4,0.2,1,0.1,1.6
			s-0.3,1.1-0.5,1.5c-0.3,0.4-0.7,0.7-1.1,0.8c-0.5,0.2-1,0.2-1.6,0.1L129.7,73.8z M130.8,73.1l1,0.1c0.6,0.1,1.1,0,1.5-0.3
			c0.4-0.3,0.6-0.7,0.7-1.4c0.1-0.6,0-1.2-0.3-1.5s-0.7-0.6-1.4-0.7l-1-0.1L130.8,73.1z"/>
		<path class="st1" d="M142.2,74c-0.6,0.1-1.1,0-1.5-0.1c-0.5-0.2-0.8-0.5-1.1-0.9s-0.5-0.9-0.6-1.5s-0.1-1.1,0.1-1.6
			c0.2-0.5,0.4-0.8,0.8-1.1c0.4-0.3,0.9-0.5,1.4-0.6c0.4-0.1,0.7-0.1,1.1,0c0.3,0.1,0.7,0.2,0.9,0.4l-0.2,0.9
			c-0.3-0.2-0.5-0.3-0.8-0.3c-0.3-0.1-0.5-0.1-0.8,0c-0.5,0.1-0.9,0.3-1.2,0.7c-0.2,0.4-0.3,0.9-0.2,1.5c0.1,0.6,0.3,1.1,0.7,1.4
			s0.8,0.4,1.4,0.3c0.3,0,0.5-0.1,0.8-0.3c0.2-0.1,0.5-0.3,0.7-0.5l0.5,0.8c-0.2,0.2-0.4,0.5-0.8,0.6C142.9,73.9,142.6,74,142.2,74z
			"/>
		<path class="st1" d="M148.4,72.4c-0.4,0.1-0.8,0.2-1.1,0.2c-0.4,0-0.7-0.1-1-0.3s-0.6-0.4-0.8-0.7c-0.2-0.3-0.4-0.6-0.6-1.1
			c-0.2-0.4-0.2-0.8-0.2-1.2c0-0.4,0.1-0.7,0.2-1.1c0.1-0.3,0.3-0.6,0.6-0.9c0.3-0.2,0.6-0.4,1-0.6c0.4-0.1,0.8-0.2,1.1-0.2
			c0.4,0,0.7,0.1,1,0.2c0.3,0.2,0.6,0.4,0.8,0.7c0.2,0.3,0.4,0.6,0.6,1.1c0.2,0.4,0.2,0.8,0.2,1.2s-0.1,0.7-0.2,1.1
			c-0.1,0.3-0.3,0.6-0.6,0.9C149.1,72.1,148.8,72.3,148.4,72.4z M148.1,71.5c0.3-0.1,0.6-0.3,0.8-0.5c0.2-0.2,0.3-0.5,0.3-0.8
			c0-0.3,0-0.7-0.2-1.1c-0.1-0.4-0.3-0.7-0.6-1s-0.5-0.4-0.8-0.4s-0.6,0-0.9,0.1c-0.3,0.1-0.6,0.3-0.8,0.5c-0.2,0.2-0.3,0.5-0.3,0.8
			c0,0.3,0,0.7,0.2,1.1c0.1,0.4,0.3,0.7,0.6,1s0.5,0.4,0.8,0.4C147.4,71.7,147.7,71.7,148.1,71.5z"/>
		<path class="st1" d="M153.1,70.3l-3.1-4.7l0.8-0.6l3.8,2.1l-0.1,0.1l-0.4-4.3l0.8-0.6l3.1,4.7l-0.8,0.5l-2.3-3.4l0.1-0.1l0.4,3.6
			l-0.6,0.4l-3.2-1.7l0.1-0.1l2.3,3.4L153.1,70.3z"/>
		<path class="st1" d="M159.8,65.5l-4.1-4l1.8-1.8c0.3-0.3,0.6-0.5,0.9-0.6c0.3-0.1,0.6-0.1,0.9-0.1s0.6,0.2,0.9,0.5
			c0.3,0.3,0.4,0.5,0.5,0.8c0.1,0.3,0.1,0.6,0,0.9c-0.1,0.3-0.3,0.6-0.6,0.9l-1,1l1.5,1.5L159.8,65.5z M158.4,62.6l0.9-0.9
			c0.3-0.3,0.4-0.5,0.4-0.7c0-0.2-0.1-0.5-0.3-0.7c-0.2-0.2-0.5-0.3-0.7-0.3s-0.5,0.2-0.7,0.4l-0.9,0.9L158.4,62.6z"/>
		<path class="st1" d="M163.4,61.7l-3.3-5.3l0.5-0.7l6.1,1l-0.6,0.9l-1.7-0.3l0.5-0.2l-1.9,2.8l0-0.6l0.9,1.5L163.4,61.7z
			 M161.3,56.7l1.6,2.4l-0.3,0l1.5-2.2l0.1,0.3L161.3,56.7L161.3,56.7z"/>
		<path class="st1" d="M167.5,55.1l-5.3-2.1l0.3-0.8l5-1.4l0,0.1l-3.9-1.5l0.4-0.9l5.3,2.1l-0.3,0.8l-5,1.4l0-0.1l3.8,1.5
			L167.5,55.1z"/>
		<path class="st1" d="M170.2,47l-2.9-0.5l0.7-0.1l-3.8,1.7l0.2-1.2l2.5-1.1l0,0.1l-2-2l0.2-1.2l2.9,3l-0.6-0.3l2.9,0.5L170.2,47z"
			/>
	</g>
	<g>
		<path class="st1" d="M110.6,30.1l-5.3-2l0.4-1l5.3,2L110.6,30.1z"/>
		<path class="st1" d="M112.7,25.6c-0.2,0.3-0.3,0.5-0.5,0.7c-0.2,0.2-0.4,0.4-0.6,0.6s-0.4,0.3-0.6,0.4l-0.6-0.7
			c0.2-0.1,0.4-0.2,0.6-0.3c0.2-0.1,0.3-0.3,0.5-0.5c0.1-0.2,0.3-0.4,0.4-0.6c0.2-0.4,0.3-0.6,0.3-0.9c0-0.2-0.1-0.4-0.3-0.5
			c-0.1-0.1-0.2-0.1-0.3-0.1s-0.2,0.1-0.3,0.1c-0.1,0.1-0.3,0.2-0.4,0.4l-0.6,0.7c-0.3,0.4-0.7,0.6-1.1,0.7s-0.7,0-1.1-0.2
			c-0.3-0.2-0.5-0.4-0.6-0.7c-0.1-0.3-0.2-0.6-0.1-1c0-0.4,0.2-0.7,0.4-1.1c0.1-0.2,0.3-0.4,0.4-0.6s0.3-0.3,0.5-0.5
			c0.2-0.1,0.4-0.2,0.6-0.3l0.5,0.7c-0.3,0.1-0.5,0.2-0.7,0.4c-0.2,0.2-0.4,0.4-0.6,0.7c-0.1,0.2-0.2,0.4-0.2,0.6c0,0.2,0,0.4,0,0.5
			c0.1,0.1,0.2,0.3,0.3,0.3c0.2,0.1,0.3,0.1,0.5,0.1c0.2-0.1,0.3-0.2,0.6-0.4l0.6-0.7c0.4-0.4,0.7-0.7,1.1-0.8
			c0.3-0.1,0.7-0.1,1,0.1c0.3,0.2,0.5,0.4,0.6,0.7c0.1,0.3,0.2,0.6,0.1,1C113.1,24.8,113,25.2,112.7,25.6z"/>
		<path class="st1" d="M116.5,20.5c-0.3,0.3-0.6,0.5-0.9,0.7s-0.7,0.2-1,0.2c-0.4,0-0.7-0.1-1.1-0.2s-0.7-0.4-1-0.7
			c-0.3-0.3-0.6-0.6-0.7-1s-0.3-0.7-0.3-1s0-0.7,0.2-1c0.1-0.3,0.3-0.7,0.6-1c0.3-0.3,0.6-0.5,0.9-0.7s0.7-0.2,1-0.2s0.7,0.1,1,0.2
			c0.3,0.1,0.7,0.4,1,0.7c0.3,0.3,0.6,0.6,0.8,1c0.2,0.3,0.3,0.7,0.3,1s0,0.7-0.2,1C117,19.9,116.8,20.2,116.5,20.5z M115.8,19.9
			c0.2-0.3,0.4-0.5,0.4-0.8c0.1-0.3,0-0.6-0.1-0.9s-0.3-0.6-0.7-0.9c-0.3-0.3-0.6-0.5-0.9-0.6c-0.3-0.1-0.6-0.1-0.9,0
			c-0.3,0.1-0.5,0.2-0.8,0.5c-0.2,0.3-0.4,0.5-0.4,0.8c-0.1,0.3,0,0.6,0.1,0.9s0.3,0.6,0.7,0.9c0.3,0.3,0.6,0.5,0.9,0.6
			c0.3,0.1,0.6,0.1,0.9,0.1S115.6,20.2,115.8,19.9z"/>
		<path class="st1" d="M122,15.8l-0.4-0.7l0.7-2.6c0.1-0.2,0.1-0.4,0.1-0.6c0-0.2,0-0.3,0-0.5c0-0.1-0.1-0.3-0.1-0.4
			c-0.1-0.2-0.3-0.4-0.5-0.4c-0.2,0-0.5,0-0.7,0.2c-0.2,0.1-0.4,0.3-0.6,0.5c-0.2,0.2-0.3,0.4-0.4,0.7l-0.7-0.5
			c0.1-0.3,0.3-0.6,0.5-0.8c0.2-0.3,0.5-0.5,0.8-0.7c0.4-0.2,0.7-0.3,1-0.3c0.3,0,0.6,0,0.8,0.2c0.2,0.1,0.4,0.4,0.6,0.7
			c0.1,0.1,0.1,0.3,0.2,0.5c0,0.2,0.1,0.3,0.1,0.5s0,0.4,0,0.6c0,0.2-0.1,0.4-0.2,0.7l-0.5,1.9l-0.1-0.1l2.3-1.2l0.4,0.8L122,15.8z"
			/>
		<path class="st1" d="M126.9,13.4l1.1-5.7l0.1,0.4l-2.9,0.9L125,8.1l3.8-1.2l0.2,0.8l-1,5.4L126.9,13.4z"/>
		<path class="st1" d="M133.8,12c-0.4,0-0.8,0-1.2-0.2c-0.3-0.2-0.6-0.5-0.8-0.9c-0.2-0.4-0.3-0.9-0.4-1.6s0-1.2,0.1-1.6
			c0.1-0.4,0.3-0.8,0.6-1c0.3-0.3,0.7-0.4,1.1-0.4c0.5,0,0.8,0,1.2,0.2c0.3,0.2,0.6,0.5,0.8,0.9c0.2,0.4,0.3,0.9,0.4,1.6
			c0.1,0.6,0,1.2-0.1,1.6c-0.1,0.4-0.3,0.8-0.6,1.1C134.6,11.8,134.2,11.9,133.8,12z M133.7,11.1c0.4,0,0.6-0.2,0.7-0.6
			c0.1-0.3,0.2-0.9,0.1-1.6c-0.1-0.7-0.2-1.2-0.4-1.5c-0.2-0.3-0.5-0.4-0.8-0.4c-0.4,0-0.6,0.2-0.7,0.6c-0.1,0.3-0.2,0.9-0.1,1.6
			c0.1,0.7,0.2,1.2,0.4,1.5S133.3,11.1,133.7,11.1z"/>
		<path class="st1" d="M139.1,11.9c-0.4,0-0.8-0.2-1.1-0.4s-0.5-0.6-0.6-1.1s-0.1-1-0.1-1.6s0.2-1.2,0.4-1.6s0.5-0.7,0.8-0.9
			s0.7-0.3,1.2-0.2c0.5,0,0.8,0.2,1.1,0.4c0.3,0.2,0.5,0.6,0.6,1s0.1,1,0.1,1.6c-0.1,0.6-0.2,1.2-0.4,1.6c-0.2,0.4-0.5,0.7-0.8,0.9
			C140,11.9,139.6,12,139.1,11.9z M139.2,11.1c0.4,0,0.6-0.1,0.8-0.4c0.2-0.3,0.3-0.8,0.4-1.5c0.1-0.7,0-1.2-0.1-1.6
			C140.2,7.2,140,7,139.6,7c-0.4,0-0.6,0.1-0.8,0.4c-0.2,0.3-0.3,0.8-0.4,1.5c-0.1,0.7,0,1.2,0.1,1.6S138.9,11,139.2,11.1z"/>
		<path class="st1" d="M142.8,12.4l0.3-0.8l1.3,0.4l1.1-3.8l0.5,0.2l-1.8,0.5L144,8l2-0.5l0.7,0.2l-1.4,4.6l1.2,0.4l-0.3,0.8
			L142.8,12.4z"/>
		<path class="st1" d="M147.6,14.1l0.5-1l1.1,0.5l-0.5,1L147.6,14.1z M148.9,11.5l0.5-1l1.1,0.5l-0.5,1L148.9,11.5z"/>
		<path class="st1" d="M150.2,15.3l0.4-0.6l2.6-0.6c0.2-0.1,0.4-0.1,0.6-0.2c0.2-0.1,0.3-0.1,0.4-0.2s0.2-0.2,0.3-0.3
			c0.1-0.2,0.2-0.4,0.1-0.6c-0.1-0.2-0.2-0.4-0.5-0.6c-0.2-0.1-0.4-0.2-0.7-0.3c-0.3-0.1-0.5-0.1-0.8,0l0.1-0.9c0.3,0,0.6,0,1,0.1
			c0.4,0.1,0.7,0.2,1,0.4c0.3,0.2,0.6,0.5,0.8,0.7s0.2,0.5,0.2,0.8s-0.1,0.6-0.3,0.8c-0.1,0.1-0.2,0.3-0.3,0.4
			c-0.1,0.1-0.3,0.2-0.4,0.3c-0.2,0.1-0.3,0.2-0.5,0.2c-0.2,0.1-0.4,0.1-0.7,0.2l-2,0.4l0.1-0.1l2.2,1.5l-0.5,0.7L150.2,15.3z"/>
		<path class="st1" d="M155.8,19.8c-0.3-0.3-0.5-0.7-0.6-1s0-0.8,0.2-1.2c0.2-0.4,0.5-0.9,1-1.3c0.4-0.4,0.9-0.8,1.3-1
			c0.4-0.2,0.8-0.3,1.2-0.2s0.7,0.3,1,0.6c0.3,0.3,0.5,0.7,0.6,1c0.1,0.4,0,0.8-0.2,1.2s-0.5,0.8-1,1.3c-0.4,0.4-0.9,0.8-1.3,1
			c-0.4,0.2-0.8,0.3-1.2,0.2S156.2,20.1,155.8,19.8z M156.4,19.1c0.3,0.3,0.6,0.3,0.9,0.2c0.4-0.1,0.8-0.4,1.3-0.9
			c0.5-0.5,0.8-0.9,0.9-1.3c0.1-0.4,0-0.7-0.2-0.9c-0.3-0.3-0.6-0.3-0.9-0.2c-0.4,0.1-0.8,0.4-1.3,0.9s-0.8,0.9-0.9,1.3
			C156.1,18.6,156.2,18.9,156.4,19.1z"/>
		<path class="st1" d="M158.4,22.5l0.7-0.5l0.8,1.1l3.3-2.2l0.3,0.4l-1.7-0.8l0.4-0.8l1.9,0.9l0.4,0.6l-4,2.7l0.7,1.1l-0.7,0.5
			L158.4,22.5z"/>
		<path class="st1" d="M161.8,28.5c-0.1-0.2-0.2-0.5-0.2-0.7c0-0.2-0.1-0.5-0.1-0.7c0-0.2,0-0.4,0.1-0.6l0.9,0
			c-0.1,0.3-0.1,0.6-0.1,0.9c0,0.3,0.1,0.6,0.2,0.8c0.1,0.2,0.2,0.4,0.3,0.5c0.1,0.1,0.3,0.2,0.4,0.2c0.1,0,0.3,0,0.5-0.1
			c0.2-0.1,0.4-0.3,0.4-0.5c0.1-0.2,0-0.5-0.1-0.8l-0.4-0.9l0.8-0.3l0.3,0.8c0.1,0.2,0.2,0.3,0.3,0.4s0.2,0.2,0.4,0.2
			c0.1,0,0.3,0,0.5-0.1c0.2-0.1,0.4-0.2,0.4-0.4c0-0.2,0-0.4-0.1-0.7c-0.1-0.3-0.3-0.5-0.4-0.7c-0.2-0.2-0.4-0.4-0.7-0.5l0.6-0.6
			c0.3,0.1,0.6,0.3,0.8,0.6s0.4,0.6,0.6,0.9c0.2,0.4,0.2,0.7,0.2,1c0,0.3-0.1,0.6-0.2,0.8c-0.1,0.2-0.4,0.4-0.7,0.5
			c-0.3,0.1-0.6,0.2-0.9,0.1c-0.3-0.1-0.5-0.2-0.7-0.5l0,0c0.1,0.2,0.1,0.5,0,0.7c0,0.2-0.1,0.4-0.3,0.6c-0.1,0.2-0.3,0.3-0.6,0.4
			c-0.3,0.1-0.6,0.2-0.9,0.1c-0.3-0.1-0.6-0.2-0.8-0.4C162.1,29.2,161.9,28.9,161.8,28.5z"/>
	</g>
	<g>
		<path class="st1" d="M126.5,53c-0.6,0-1.2-0.1-1.7-0.4c-0.5-0.3-0.8-0.6-1.1-1.1s-0.4-1.1-0.4-1.7s0.1-1.3,0.4-1.7
			s0.6-0.9,1.1-1.1c0.5-0.3,1-0.4,1.7-0.4c0.4,0,0.8,0.1,1.2,0.2c0.4,0.1,0.7,0.3,0.9,0.6l-0.4,0.9c-0.3-0.2-0.5-0.4-0.8-0.5
			c-0.3-0.1-0.6-0.1-0.9-0.1c-0.6,0-1.1,0.2-1.4,0.6s-0.5,0.9-0.5,1.6s0.2,1.3,0.5,1.6c0.3,0.4,0.8,0.6,1.4,0.6c0.3,0,0.6,0,0.9-0.1
			c0.3-0.1,0.5-0.3,0.8-0.5l0.4,0.9c-0.3,0.2-0.6,0.4-0.9,0.6C127.3,53,126.9,53,126.5,53z"/>
	</g>
	<g>
		<path class="st1" d="M136.3,53c-0.6,0-1.2-0.1-1.7-0.4c-0.5-0.3-0.8-0.6-1.1-1.1c-0.3-0.5-0.4-1.1-0.4-1.7s0.1-1.3,0.4-1.7
			s0.6-0.9,1.1-1.1c0.5-0.3,1-0.4,1.7-0.4c0.4,0,0.8,0.1,1.2,0.2s0.7,0.3,0.9,0.6l-0.4,0.9c-0.3-0.2-0.5-0.4-0.8-0.5
			c-0.3-0.1-0.6-0.1-0.9-0.1c-0.6,0-1.1,0.2-1.4,0.6s-0.5,0.9-0.5,1.6s0.2,1.3,0.5,1.6c0.3,0.4,0.8,0.6,1.4,0.6c0.3,0,0.6,0,0.9-0.1
			c0.3-0.1,0.5-0.3,0.8-0.5l0.4,0.9c-0.3,0.2-0.6,0.4-0.9,0.6S136.7,53,136.3,53z"/>
	</g>
	<g>
		<path class="st1" d="M145.3,53v-6.3h1.2V53H145.3z"/>
	</g>
</g>
</svg>
