<svg xmlns="http://www.w3.org/2000/svg" width="54.354" height="33.385" viewBox="0 0 54.354 33.385">
  <g id="Group_27158" data-name="Group 27158" transform="translate(-1310.729 -15.654)">
    <path id="Icon_ionic-ios-arrow-round-down" data-name="Icon ionic-ios-arrow-round-down" d="M17.452,17.013A1.211,1.211,0,0,0,15.747,17L10.1,22.629V1.2a1.2,1.2,0,0,0-2.409,0V22.629L2.051,16.995A1.22,1.22,0,0,0,.346,17a1.2,1.2,0,0,0,.009,1.7l7.691,7.636h0a1.353,1.353,0,0,0,.38.25,1.15,1.15,0,0,0,.463.093,1.208,1.208,0,0,0,.843-.343L17.424,18.7A1.18,1.18,0,0,0,17.452,17.013Z" transform="translate(1364.583 30.746) rotate(90)" fill="none" stroke="#003157" stroke-width="1"/>
    <path id="Icon_ionic-ios-arrow-round-down-2" data-name="Icon ionic-ios-arrow-round-down" d="M17.451,9.665a1.211,1.211,0,0,1-1.7.009L10.1,4.049V25.482a1.2,1.2,0,0,1-2.409,0V4.049L2.051,9.683a1.219,1.219,0,0,1-1.7-.009,1.2,1.2,0,0,1,.009-1.7L8.046.343h0a1.353,1.353,0,0,1,.38-.25A1.15,1.15,0,0,1,8.889,0a1.208,1.208,0,0,1,.843.343l7.691,7.635A1.18,1.18,0,0,1,17.451,9.665Z" transform="translate(1337.906 16.25) rotate(90)" fill="none" stroke="#000" stroke-width="1"/>
  </g>
</svg>
