<svg xmlns="http://www.w3.org/2000/svg" width="28.768" height="21.776" viewBox="0 0 28.768 21.776">
  <g id="Group_22597" data-name="Group 22597" transform="translate(0.4 0.4)">
    <path id="Icon_material-contact-phone" data-name="Icon material-contact-phone" d="M25.637,4.5H2.331A2.337,2.337,0,0,0,0,6.831V23.145a2.337,2.337,0,0,0,2.331,2.331H25.637a2.328,2.328,0,0,0,2.319-2.331l.012-16.314A2.337,2.337,0,0,0,25.637,4.5ZM20.8,17.319h1.911l1.76,2.331-2.319,2.319a8.753,8.753,0,0,1-3.181-4.65,8.487,8.487,0,0,1,0-4.661,8.71,8.71,0,0,1,3.181-4.65l2.319,2.319-1.76,2.331H20.8a6.863,6.863,0,0,0,0,4.661Z" transform="translate(0 -4.5)" fill="none" stroke="#000" stroke-width="0.8"/>
    <g id="Group_22596" data-name="Group 22596" transform="translate(4.039 4.699)">
      <path id="login" d="M21.988,25.553c-1.826,0-5.488.918-5.488,2.744v2.245H27.475V28.3C27.475,26.471,23.814,25.553,21.988,25.553Z" transform="translate(-16.5 -18.965)" fill="none" stroke="#003157" stroke-width="0.8"/>
      <path id="login-2" data-name="login" d="M25.446,15.489a2.494,2.494,0,1,0-2.494-2.494A2.487,2.487,0,0,0,25.446,15.489Z" transform="translate(-19.953 -10.5)" fill="none" stroke="#003157" stroke-width="0.8"/>
    </g>
  </g>
</svg>
