<svg xmlns="http://www.w3.org/2000/svg" width="84" height="84" viewBox="0 0 84 84">
  <g id="Group_7251" data-name="Group 7251" transform="translate(0.306)">
    <circle id="Ellipse_47" data-name="Ellipse 47" cx="42" cy="42" r="42" transform="translate(-0.306)" fill="#fff"/>
    <path id="Icon_map-health" data-name="Icon map-health" d="M47.526,16.322a.978.978,0,0,0-.975-.975H33.874a.978.978,0,0,1-.975-.975V1.7A.978.978,0,0,0,31.924.72h-15.6a.978.978,0,0,0-.975.975V14.372a.978.978,0,0,1-.975.975H1.7a.978.978,0,0,0-.975.975v15.6A.978.978,0,0,0,1.7,32.9H14.372a.978.978,0,0,1,.975.975V46.551a.978.978,0,0,0,.975.975h15.6a.978.978,0,0,0,.975-.975V33.874a.978.978,0,0,1,.975-.975H46.551a.978.978,0,0,0,.975-.975Z" transform="translate(18.28 18.28)" fill="#003157"/>
  </g>
</svg>
