<?xml version="1.0" encoding="utf-8"?>
<svg xmlns="http://www.w3.org/2000/svg" xmlns:xlink="http://www.w3.org/1999/xlink" style="margin: auto; background: rgb(255, 255, 255); display: block; shape-rendering: auto;" width="210px" height="210px" viewBox="0 0 100 100" preserveAspectRatio="xMidYMid">
<g transform="rotate(0 50 50)">
  <rect x="49.5" y="38.5" rx="0.5" ry="0.5" width="1" height="1" fill="#1c436d">
    <animate attributeName="opacity" values="1;0" keyTimes="0;1" dur="1.0204081632653061s" begin="-0.9966777408637874s" repeatCount="indefinite"></animate>
  </rect>
</g><g transform="rotate(8.372093023255815 50 50)">
  <rect x="49.5" y="38.5" rx="0.5" ry="0.5" width="1" height="1" fill="#1c436d">
    <animate attributeName="opacity" values="1;0" keyTimes="0;1" dur="1.0204081632653061s" begin="-0.9729473184622686s" repeatCount="indefinite"></animate>
  </rect>
</g><g transform="rotate(16.74418604651163 50 50)">
  <rect x="49.5" y="38.5" rx="0.5" ry="0.5" width="1" height="1" fill="#1c436d">
    <animate attributeName="opacity" values="1;0" keyTimes="0;1" dur="1.0204081632653061s" begin="-0.9492168960607499s" repeatCount="indefinite"></animate>
  </rect>
</g><g transform="rotate(25.11627906976744 50 50)">
  <rect x="49.5" y="38.5" rx="0.5" ry="0.5" width="1" height="1" fill="#1c436d">
    <animate attributeName="opacity" values="1;0" keyTimes="0;1" dur="1.0204081632653061s" begin="-0.9254864736592311s" repeatCount="indefinite"></animate>
  </rect>
</g><g transform="rotate(33.48837209302326 50 50)">
  <rect x="49.5" y="38.5" rx="0.5" ry="0.5" width="1" height="1" fill="#1c436d">
    <animate attributeName="opacity" values="1;0" keyTimes="0;1" dur="1.0204081632653061s" begin="-0.9017560512577124s" repeatCount="indefinite"></animate>
  </rect>
</g><g transform="rotate(41.86046511627907 50 50)">
  <rect x="49.5" y="38.5" rx="0.5" ry="0.5" width="1" height="1" fill="#1c436d">
    <animate attributeName="opacity" values="1;0" keyTimes="0;1" dur="1.0204081632653061s" begin="-0.8780256288561936s" repeatCount="indefinite"></animate>
  </rect>
</g><g transform="rotate(50.23255813953488 50 50)">
  <rect x="49.5" y="38.5" rx="0.5" ry="0.5" width="1" height="1" fill="#1c436d">
    <animate attributeName="opacity" values="1;0" keyTimes="0;1" dur="1.0204081632653061s" begin="-0.8542952064546748s" repeatCount="indefinite"></animate>
  </rect>
</g><g transform="rotate(58.604651162790695 50 50)">
  <rect x="49.5" y="38.5" rx="0.5" ry="0.5" width="1" height="1" fill="#1c436d">
    <animate attributeName="opacity" values="1;0" keyTimes="0;1" dur="1.0204081632653061s" begin="-0.8305647840531561s" repeatCount="indefinite"></animate>
  </rect>
</g><g transform="rotate(66.97674418604652 50 50)">
  <rect x="49.5" y="38.5" rx="0.5" ry="0.5" width="1" height="1" fill="#1c436d">
    <animate attributeName="opacity" values="1;0" keyTimes="0;1" dur="1.0204081632653061s" begin="-0.8068343616516374s" repeatCount="indefinite"></animate>
  </rect>
</g><g transform="rotate(75.34883720930233 50 50)">
  <rect x="49.5" y="38.5" rx="0.5" ry="0.5" width="1" height="1" fill="#1c436d">
    <animate attributeName="opacity" values="1;0" keyTimes="0;1" dur="1.0204081632653061s" begin="-0.7831039392501187s" repeatCount="indefinite"></animate>
  </rect>
</g><g transform="rotate(83.72093023255815 50 50)">
  <rect x="49.5" y="38.5" rx="0.5" ry="0.5" width="1" height="1" fill="#1c436d">
    <animate attributeName="opacity" values="1;0" keyTimes="0;1" dur="1.0204081632653061s" begin="-0.7593735168485999s" repeatCount="indefinite"></animate>
  </rect>
</g><g transform="rotate(92.09302325581395 50 50)">
  <rect x="49.5" y="38.5" rx="0.5" ry="0.5" width="1" height="1" fill="#1c436d">
    <animate attributeName="opacity" values="1;0" keyTimes="0;1" dur="1.0204081632653061s" begin="-0.7356430944470812s" repeatCount="indefinite"></animate>
  </rect>
</g><g transform="rotate(100.46511627906976 50 50)">
  <rect x="49.5" y="38.5" rx="0.5" ry="0.5" width="1" height="1" fill="#1c436d">
    <animate attributeName="opacity" values="1;0" keyTimes="0;1" dur="1.0204081632653061s" begin="-0.7119126720455624s" repeatCount="indefinite"></animate>
  </rect>
</g><g transform="rotate(108.83720930232558 50 50)">
  <rect x="49.5" y="38.5" rx="0.5" ry="0.5" width="1" height="1" fill="#1c436d">
    <animate attributeName="opacity" values="1;0" keyTimes="0;1" dur="1.0204081632653061s" begin="-0.6881822496440436s" repeatCount="indefinite"></animate>
  </rect>
</g><g transform="rotate(117.20930232558139 50 50)">
  <rect x="49.5" y="38.5" rx="0.5" ry="0.5" width="1" height="1" fill="#1c436d">
    <animate attributeName="opacity" values="1;0" keyTimes="0;1" dur="1.0204081632653061s" begin="-0.6644518272425249s" repeatCount="indefinite"></animate>
  </rect>
</g><g transform="rotate(125.5813953488372 50 50)">
  <rect x="49.5" y="38.5" rx="0.5" ry="0.5" width="1" height="1" fill="#1c436d">
    <animate attributeName="opacity" values="1;0" keyTimes="0;1" dur="1.0204081632653061s" begin="-0.6407214048410061s" repeatCount="indefinite"></animate>
  </rect>
</g><g transform="rotate(133.95348837209303 50 50)">
  <rect x="49.5" y="38.5" rx="0.5" ry="0.5" width="1" height="1" fill="#1c436d">
    <animate attributeName="opacity" values="1;0" keyTimes="0;1" dur="1.0204081632653061s" begin="-0.6169909824394875s" repeatCount="indefinite"></animate>
  </rect>
</g><g transform="rotate(142.32558139534885 50 50)">
  <rect x="49.5" y="38.5" rx="0.5" ry="0.5" width="1" height="1" fill="#1c436d">
    <animate attributeName="opacity" values="1;0" keyTimes="0;1" dur="1.0204081632653061s" begin="-0.5932605600379687s" repeatCount="indefinite"></animate>
  </rect>
</g><g transform="rotate(150.69767441860466 50 50)">
  <rect x="49.5" y="38.5" rx="0.5" ry="0.5" width="1" height="1" fill="#1c436d">
    <animate attributeName="opacity" values="1;0" keyTimes="0;1" dur="1.0204081632653061s" begin="-0.5695301376364499s" repeatCount="indefinite"></animate>
  </rect>
</g><g transform="rotate(159.06976744186048 50 50)">
  <rect x="49.5" y="38.5" rx="0.5" ry="0.5" width="1" height="1" fill="#1c436d">
    <animate attributeName="opacity" values="1;0" keyTimes="0;1" dur="1.0204081632653061s" begin="-0.5457997152349312s" repeatCount="indefinite"></animate>
  </rect>
</g><g transform="rotate(167.4418604651163 50 50)">
  <rect x="49.5" y="38.5" rx="0.5" ry="0.5" width="1" height="1" fill="#1c436d">
    <animate attributeName="opacity" values="1;0" keyTimes="0;1" dur="1.0204081632653061s" begin="-0.5220692928334124s" repeatCount="indefinite"></animate>
  </rect>
</g><g transform="rotate(175.8139534883721 50 50)">
  <rect x="49.5" y="38.5" rx="0.5" ry="0.5" width="1" height="1" fill="#1c436d">
    <animate attributeName="opacity" values="1;0" keyTimes="0;1" dur="1.0204081632653061s" begin="-0.4983388704318937s" repeatCount="indefinite"></animate>
  </rect>
</g><g transform="rotate(184.1860465116279 50 50)">
  <rect x="49.5" y="38.5" rx="0.5" ry="0.5" width="1" height="1" fill="#1c436d">
    <animate attributeName="opacity" values="1;0" keyTimes="0;1" dur="1.0204081632653061s" begin="-0.47460844803037494s" repeatCount="indefinite"></animate>
  </rect>
</g><g transform="rotate(192.5581395348837 50 50)">
  <rect x="49.5" y="38.5" rx="0.5" ry="0.5" width="1" height="1" fill="#1c436d">
    <animate attributeName="opacity" values="1;0" keyTimes="0;1" dur="1.0204081632653061s" begin="-0.4508780256288562s" repeatCount="indefinite"></animate>
  </rect>
</g><g transform="rotate(200.93023255813952 50 50)">
  <rect x="49.5" y="38.5" rx="0.5" ry="0.5" width="1" height="1" fill="#1c436d">
    <animate attributeName="opacity" values="1;0" keyTimes="0;1" dur="1.0204081632653061s" begin="-0.4271476032273374s" repeatCount="indefinite"></animate>
  </rect>
</g><g transform="rotate(209.30232558139534 50 50)">
  <rect x="49.5" y="38.5" rx="0.5" ry="0.5" width="1" height="1" fill="#1c436d">
    <animate attributeName="opacity" values="1;0" keyTimes="0;1" dur="1.0204081632653061s" begin="-0.4034171808258187s" repeatCount="indefinite"></animate>
  </rect>
</g><g transform="rotate(217.67441860465115 50 50)">
  <rect x="49.5" y="38.5" rx="0.5" ry="0.5" width="1" height="1" fill="#1c436d">
    <animate attributeName="opacity" values="1;0" keyTimes="0;1" dur="1.0204081632653061s" begin="-0.37968675842429994s" repeatCount="indefinite"></animate>
  </rect>
</g><g transform="rotate(226.04651162790697 50 50)">
  <rect x="49.5" y="38.5" rx="0.5" ry="0.5" width="1" height="1" fill="#1c436d">
    <animate attributeName="opacity" values="1;0" keyTimes="0;1" dur="1.0204081632653061s" begin="-0.3559563360227812s" repeatCount="indefinite"></animate>
  </rect>
</g><g transform="rotate(234.41860465116278 50 50)">
  <rect x="49.5" y="38.5" rx="0.5" ry="0.5" width="1" height="1" fill="#1c436d">
    <animate attributeName="opacity" values="1;0" keyTimes="0;1" dur="1.0204081632653061s" begin="-0.33222591362126247s" repeatCount="indefinite"></animate>
  </rect>
</g><g transform="rotate(242.7906976744186 50 50)">
  <rect x="49.5" y="38.5" rx="0.5" ry="0.5" width="1" height="1" fill="#1c436d">
    <animate attributeName="opacity" values="1;0" keyTimes="0;1" dur="1.0204081632653061s" begin="-0.30849549121974373s" repeatCount="indefinite"></animate>
  </rect>
</g><g transform="rotate(251.1627906976744 50 50)">
  <rect x="49.5" y="38.5" rx="0.5" ry="0.5" width="1" height="1" fill="#1c436d">
    <animate attributeName="opacity" values="1;0" keyTimes="0;1" dur="1.0204081632653061s" begin="-0.28476506881822494s" repeatCount="indefinite"></animate>
  </rect>
</g><g transform="rotate(259.5348837209302 50 50)">
  <rect x="49.5" y="38.5" rx="0.5" ry="0.5" width="1" height="1" fill="#1c436d">
    <animate attributeName="opacity" values="1;0" keyTimes="0;1" dur="1.0204081632653061s" begin="-0.2610346464167062s" repeatCount="indefinite"></animate>
  </rect>
</g><g transform="rotate(267.90697674418607 50 50)">
  <rect x="49.5" y="38.5" rx="0.5" ry="0.5" width="1" height="1" fill="#1c436d">
    <animate attributeName="opacity" values="1;0" keyTimes="0;1" dur="1.0204081632653061s" begin="-0.23730422401518747s" repeatCount="indefinite"></animate>
  </rect>
</g><g transform="rotate(276.27906976744185 50 50)">
  <rect x="49.5" y="38.5" rx="0.5" ry="0.5" width="1" height="1" fill="#1c436d">
    <animate attributeName="opacity" values="1;0" keyTimes="0;1" dur="1.0204081632653061s" begin="-0.2135738016136687s" repeatCount="indefinite"></animate>
  </rect>
</g><g transform="rotate(284.6511627906977 50 50)">
  <rect x="49.5" y="38.5" rx="0.5" ry="0.5" width="1" height="1" fill="#1c436d">
    <animate attributeName="opacity" values="1;0" keyTimes="0;1" dur="1.0204081632653061s" begin="-0.18984337921214997s" repeatCount="indefinite"></animate>
  </rect>
</g><g transform="rotate(293.0232558139535 50 50)">
  <rect x="49.5" y="38.5" rx="0.5" ry="0.5" width="1" height="1" fill="#1c436d">
    <animate attributeName="opacity" values="1;0" keyTimes="0;1" dur="1.0204081632653061s" begin="-0.16611295681063123s" repeatCount="indefinite"></animate>
  </rect>
</g><g transform="rotate(301.3953488372093 50 50)">
  <rect x="49.5" y="38.5" rx="0.5" ry="0.5" width="1" height="1" fill="#1c436d">
    <animate attributeName="opacity" values="1;0" keyTimes="0;1" dur="1.0204081632653061s" begin="-0.14238253440911247s" repeatCount="indefinite"></animate>
  </rect>
</g><g transform="rotate(309.7674418604651 50 50)">
  <rect x="49.5" y="38.5" rx="0.5" ry="0.5" width="1" height="1" fill="#1c436d">
    <animate attributeName="opacity" values="1;0" keyTimes="0;1" dur="1.0204081632653061s" begin="-0.11865211200759374s" repeatCount="indefinite"></animate>
  </rect>
</g><g transform="rotate(318.13953488372096 50 50)">
  <rect x="49.5" y="38.5" rx="0.5" ry="0.5" width="1" height="1" fill="#1c436d">
    <animate attributeName="opacity" values="1;0" keyTimes="0;1" dur="1.0204081632653061s" begin="-0.09492168960607499s" repeatCount="indefinite"></animate>
  </rect>
</g><g transform="rotate(326.51162790697674 50 50)">
  <rect x="49.5" y="38.5" rx="0.5" ry="0.5" width="1" height="1" fill="#1c436d">
    <animate attributeName="opacity" values="1;0" keyTimes="0;1" dur="1.0204081632653061s" begin="-0.07119126720455624s" repeatCount="indefinite"></animate>
  </rect>
</g><g transform="rotate(334.8837209302326 50 50)">
  <rect x="49.5" y="38.5" rx="0.5" ry="0.5" width="1" height="1" fill="#1c436d">
    <animate attributeName="opacity" values="1;0" keyTimes="0;1" dur="1.0204081632653061s" begin="-0.04746084480303749s" repeatCount="indefinite"></animate>
  </rect>
</g><g transform="rotate(343.25581395348837 50 50)">
  <rect x="49.5" y="38.5" rx="0.5" ry="0.5" width="1" height="1" fill="#1c436d">
    <animate attributeName="opacity" values="1;0" keyTimes="0;1" dur="1.0204081632653061s" begin="-0.023730422401518746s" repeatCount="indefinite"></animate>
  </rect>
</g><g transform="rotate(351.6279069767442 50 50)">
  <rect x="49.5" y="38.5" rx="0.5" ry="0.5" width="1" height="1" fill="#1c436d">
    <animate attributeName="opacity" values="1;0" keyTimes="0;1" dur="1.0204081632653061s" begin="0s" repeatCount="indefinite"></animate>
  </rect>
</g>
<!-- [ldio] generated by https://loading.io/ --></svg>