<svg xmlns="http://www.w3.org/2000/svg" width="27.224" height="27.223" viewBox="0 0 27.224 27.223">
  <path id="Vector" d="M13.979,9.343a4.539,4.539,0,1,0,4.539,4.539A4.549,4.549,0,0,0,13.979,9.343Zm13.614,4.539c0-1.88.017-3.742-.089-5.619a8.1,8.1,0,0,0-2.2-5.707A8.086,8.086,0,0,0,19.6.36C17.721.254,15.858.271,13.982.271S10.24.254,8.363.36a8.1,8.1,0,0,0-5.707,2.2A8.086,8.086,0,0,0,.46,8.263c-.106,1.88-.089,3.742-.089,5.619S.354,17.624.46,19.5a8.1,8.1,0,0,0,2.2,5.707,8.086,8.086,0,0,0,5.707,2.2c1.88.106,3.742.089,5.619.089s3.742.017,5.619-.089a8.1,8.1,0,0,0,5.707-2.2A8.086,8.086,0,0,0,27.5,19.5c.109-1.876.089-3.739.089-5.619ZM13.979,20.866a6.984,6.984,0,1,1,6.984-6.984A6.974,6.974,0,0,1,13.979,20.866Zm7.27-12.623a1.629,1.629,0,1,1,.625-.124,1.629,1.629,0,0,1-.625.124Z" transform="translate(-0.37 -0.27)"/>
</svg>
