<svg xmlns="http://www.w3.org/2000/svg" width="27.224" height="27.224" viewBox="0 0 27.224 27.224">
  <path id="Vector_1_" data-name="Vector (1)" d="M22.687,8.543a7.885,7.885,0,0,1-2.145.6A3.618,3.618,0,0,0,22.19,7.072a7.4,7.4,0,0,1-2.375.9A3.538,3.538,0,0,0,17.1,6.806a3.722,3.722,0,0,0-3.722,3.722,3.416,3.416,0,0,0,.089.851,10.537,10.537,0,0,1-4.289-1.152,10.551,10.551,0,0,1-3.4-2.747,3.686,3.686,0,0,0-.514,1.879,3.51,3.51,0,0,0,1.613,3.1A4.39,4.39,0,0,1,5.1,12v.035A3.54,3.54,0,0,0,5.991,14.4a3.722,3.722,0,0,0,2.18,1.285,3.458,3.458,0,0,1-.9.142,4.991,4.991,0,0,1-.691-.071A3.784,3.784,0,0,0,7.9,17.6a3.538,3.538,0,0,0,2.153.744,7.354,7.354,0,0,1-4.626,1.6,7.144,7.144,0,0,1-.886-.053,10.441,10.441,0,0,0,5.707,1.666,10.844,10.844,0,0,0,3.722-.629,9.587,9.587,0,0,0,2.978-1.684,11.179,11.179,0,0,0,2.136-2.428,10.726,10.726,0,0,0,1.764-5.858,4.707,4.707,0,0,0-.018-.479A7.234,7.234,0,0,0,22.687,8.543ZM27.224,5.1V22.119a5.113,5.113,0,0,1-5.1,5.1H5.1a4.917,4.917,0,0,1-3.607-1.5A4.916,4.916,0,0,1,0,22.119V5.1A4.916,4.916,0,0,1,1.5,1.5,4.916,4.916,0,0,1,5.1,0H22.119a4.916,4.916,0,0,1,3.607,1.5A4.917,4.917,0,0,1,27.224,5.1Z"/>
</svg>
