<?xml version="1.0" encoding="utf-8"?>
<!-- Generator: Adobe Illustrator 19.2.1, SVG Export Plug-In . SVG Version: 6.00 Build 0)  -->
<svg version="1.1" xmlns="http://www.w3.org/2000/svg" xmlns:xlink="http://www.w3.org/1999/xlink" x="0px" y="0px"
	 viewBox="0 0 652 652" style="enable-background:new 0 0 652 652;" xml:space="preserve">
<style type="text/css">
	.st0{display:none;}
	.st1{display:inline;}
	.st2{fill:#0C0407;}
	.st3{fill:#004A85;}
	.st4{fill:#EC6F00;}
	.st5{fill-rule:evenodd;clip-rule:evenodd;fill:#3085C7;}
	.st6{fill:#3085C7;}
</style>
<g class="st0">
	<g class="st1">
		<path class="st2" d="M240,670.9l1.6-0.1c0.1,0.6,0.3,1.2,0.5,1.6c0.3,0.4,0.7,0.7,1.3,1c0.6,0.3,1.2,0.4,2,0.4
			c0.7,0,1.2-0.1,1.7-0.3s0.9-0.5,1.1-0.8s0.4-0.7,0.4-1.1c0-0.4-0.1-0.8-0.4-1.1s-0.6-0.6-1.2-0.8c-0.3-0.1-1.1-0.3-2.3-0.6
			s-2-0.6-2.5-0.8c-0.6-0.3-1.1-0.7-1.4-1.2c-0.3-0.5-0.5-1-0.5-1.6c0-0.7,0.2-1.3,0.6-1.8s0.9-1,1.6-1.3s1.5-0.4,2.4-0.4
			c1,0,1.8,0.2,2.5,0.5c0.7,0.3,1.3,0.8,1.7,1.4s0.6,1.3,0.6,2l-1.6,0.1c-0.1-0.8-0.4-1.4-0.9-1.8c-0.5-0.4-1.3-0.6-2.2-0.6
			c-1,0-1.8,0.2-2.3,0.6c-0.5,0.4-0.7,0.8-0.7,1.4c0,0.5,0.2,0.8,0.5,1.1c0.3,0.3,1.2,0.6,2.6,0.9c1.4,0.3,2.3,0.6,2.9,0.8
			c0.8,0.3,1.3,0.8,1.7,1.3s0.5,1.1,0.5,1.8c0,0.7-0.2,1.3-0.6,1.9c-0.4,0.6-1,1.1-1.7,1.4c-0.7,0.3-1.6,0.5-2.5,0.5
			c-1.2,0-2.1-0.2-2.9-0.5c-0.8-0.3-1.4-0.9-1.9-1.5C240.3,672.6,240,671.8,240,670.9z"/>
		<path class="st2" d="M258.8,672.1l1.6,0.2c-0.3,1-0.7,1.7-1.4,2.2s-1.6,0.8-2.7,0.8c-1.4,0-2.4-0.4-3.2-1.3
			c-0.8-0.8-1.2-2-1.2-3.5c0-1.6,0.4-2.8,1.2-3.7s1.9-1.3,3.1-1.3c1.2,0,2.3,0.4,3.1,1.3s1.2,2,1.2,3.6c0,0.1,0,0.2,0,0.4h-7
			c0.1,1,0.3,1.8,0.9,2.4s1.2,0.8,2,0.8c0.6,0,1.1-0.2,1.5-0.5S258.6,672.7,258.8,672.1z M253.6,669.5h5.2c-0.1-0.8-0.3-1.4-0.6-1.8
			c-0.5-0.6-1.2-0.9-2-0.9c-0.7,0-1.3,0.2-1.8,0.7S253.6,668.7,253.6,669.5z"/>
		<path class="st2" d="M268.8,672.1l1.6,0.2c-0.3,1-0.7,1.7-1.4,2.2s-1.6,0.8-2.7,0.8c-1.4,0-2.4-0.4-3.2-1.3
			c-0.8-0.8-1.2-2-1.2-3.5c0-1.6,0.4-2.8,1.2-3.7s1.9-1.3,3.1-1.3c1.2,0,2.3,0.4,3.1,1.3s1.2,2,1.2,3.6c0,0.1,0,0.2,0,0.4h-7
			c0.1,1,0.3,1.8,0.9,2.4s1.2,0.8,2,0.8c0.6,0,1.1-0.2,1.5-0.5S268.6,672.7,268.8,672.1z M263.6,669.5h5.2c-0.1-0.8-0.3-1.4-0.6-1.8
			c-0.5-0.6-1.2-0.9-2-0.9c-0.7,0-1.3,0.2-1.8,0.7S263.7,668.7,263.6,669.5z"/>
		<path class="st2" d="M272.4,675.1v-12.9h1.6v7.3l3.7-3.8h2l-3.6,3.5l3.9,5.9h-2l-3.1-4.8l-1.1,1.1v3.7H272.4z"/>
		<path class="st2" d="M285.3,675.1l-5-12.9h1.8l3.3,9.4c0.3,0.8,0.5,1.5,0.7,2.1c0.2-0.7,0.4-1.4,0.7-2.1l3.5-9.4h1.7l-5,12.9
			H285.3z"/>
		<path class="st2" d="M298.8,672.1l1.6,0.2c-0.3,1-0.7,1.7-1.4,2.2s-1.6,0.8-2.7,0.8c-1.4,0-2.4-0.4-3.2-1.3
			c-0.8-0.8-1.2-2-1.2-3.5c0-1.6,0.4-2.8,1.2-3.7s1.9-1.3,3.1-1.3c1.2,0,2.3,0.4,3.1,1.3s1.2,2,1.2,3.6c0,0.1,0,0.2,0,0.4h-7
			c0.1,1,0.3,1.8,0.9,2.4s1.2,0.8,2,0.8c0.6,0,1.1-0.2,1.5-0.5S298.6,672.7,298.8,672.1z M293.6,669.5h5.2c-0.1-0.8-0.3-1.4-0.6-1.8
			c-0.5-0.6-1.2-0.9-2-0.9c-0.7,0-1.3,0.2-1.8,0.7S293.7,668.7,293.6,669.5z"/>
		<path class="st2" d="M308.5,671.7l1.6,0.2c-0.2,1.1-0.6,1.9-1.3,2.5c-0.7,0.6-1.6,0.9-2.6,0.9c-1.3,0-2.3-0.4-3.1-1.3
			c-0.8-0.8-1.2-2-1.2-3.6c0-1,0.2-1.9,0.5-2.6s0.8-1.3,1.5-1.7c0.7-0.4,1.4-0.6,2.2-0.6c1,0,1.8,0.3,2.5,0.8s1.1,1.2,1.2,2.2
			l-1.5,0.2c-0.1-0.6-0.4-1.1-0.8-1.4s-0.8-0.5-1.3-0.5c-0.8,0-1.4,0.3-1.9,0.9c-0.5,0.6-0.7,1.5-0.7,2.7c0,1.3,0.2,2.2,0.7,2.7
			s1.1,0.9,1.9,0.9c0.6,0,1.1-0.2,1.6-0.6S308.4,672.4,308.5,671.7z"/>
		<path class="st2" d="M314.9,673.7l0.2,1.4c-0.4,0.1-0.8,0.1-1.2,0.1c-0.6,0-1-0.1-1.3-0.3s-0.5-0.4-0.7-0.7s-0.2-0.9-0.2-1.9V667
			h-1.2v-1.2h1.2v-2.3l1.6-0.9v3.3h1.6v1.2h-1.6v5.5c0,0.5,0,0.7,0.1,0.9s0.1,0.2,0.3,0.3c0.1,0.1,0.3,0.1,0.5,0.1
			C314.4,673.7,314.6,673.7,314.9,673.7z"/>
		<path class="st2" d="M315.9,670.4c0-1.7,0.5-3,1.4-3.8c0.8-0.7,1.8-1,2.9-1c1.3,0,2.3,0.4,3.1,1.3s1.2,2,1.2,3.5
			c0,1.2-0.2,2.1-0.5,2.8c-0.4,0.7-0.9,1.2-1.6,1.6s-1.4,0.6-2.3,0.6c-1.3,0-2.4-0.4-3.2-1.3C316.3,673.2,315.9,672,315.9,670.4z
			 M317.5,670.4c0,1.2,0.3,2.1,0.8,2.7c0.5,0.6,1.2,0.9,2,0.9c0.8,0,1.4-0.3,2-0.9s0.8-1.5,0.8-2.7c0-1.2-0.3-2-0.8-2.6
			c-0.5-0.6-1.2-0.9-2-0.9c-0.8,0-1.4,0.3-2,0.9S317.5,669.2,317.5,670.4z"/>
		<path class="st2" d="M326.4,675.1v-9.3h1.4v1.4c0.4-0.7,0.7-1.1,1-1.3c0.3-0.2,0.6-0.3,1-0.3c0.5,0,1.1,0.2,1.6,0.5l-0.5,1.5
			c-0.4-0.2-0.8-0.3-1.2-0.3c-0.3,0-0.7,0.1-0.9,0.3s-0.5,0.5-0.6,0.9c-0.2,0.6-0.3,1.2-0.3,1.8v4.9H326.4z"/>
		<path class="st2" d="M332.6,675.1v-12.9h1.7v11.4h6.3v1.5H332.6z"/>
		<path class="st2" d="M341.9,670.4c0-1.7,0.5-3,1.4-3.8c0.8-0.7,1.8-1,2.9-1c1.3,0,2.3,0.4,3.1,1.3s1.2,2,1.2,3.5
			c0,1.2-0.2,2.1-0.5,2.8c-0.4,0.7-0.9,1.2-1.6,1.6s-1.4,0.6-2.3,0.6c-1.3,0-2.4-0.4-3.2-1.3C342.3,673.2,341.9,672,341.9,670.4z
			 M343.5,670.4c0,1.2,0.3,2.1,0.8,2.7c0.5,0.6,1.2,0.9,2,0.9c0.8,0,1.4-0.3,2-0.9s0.8-1.5,0.8-2.7c0-1.2-0.3-2-0.8-2.6
			c-0.5-0.6-1.2-0.9-2-0.9c-0.8,0-1.4,0.3-2,0.9S343.5,669.2,343.5,670.4z"/>
		<path class="st2" d="M352.2,675.8l1.5,0.2c0.1,0.5,0.2,0.8,0.5,1c0.4,0.3,0.9,0.4,1.6,0.4c0.7,0,1.3-0.1,1.7-0.4s0.7-0.7,0.8-1.2
			c0.1-0.3,0.1-1,0.1-2c-0.7,0.8-1.6,1.2-2.6,1.2c-1.3,0-2.3-0.5-3-1.4s-1.1-2-1.1-3.3c0-0.9,0.2-1.7,0.5-2.5
			c0.3-0.8,0.8-1.3,1.4-1.7s1.3-0.6,2.2-0.6c1.1,0,2,0.4,2.7,1.3v-1.1h1.5v8.1c0,1.5-0.1,2.5-0.4,3.1c-0.3,0.6-0.8,1.1-1.4,1.4
			c-0.6,0.4-1.4,0.5-2.4,0.5c-1.1,0-2-0.3-2.7-0.8C352.5,677.6,352.2,676.9,352.2,675.8z M353.5,670.2c0,1.2,0.2,2.1,0.7,2.7
			s1.1,0.8,1.8,0.8c0.7,0,1.3-0.3,1.8-0.8s0.7-1.4,0.7-2.6c0-1.1-0.3-2-0.8-2.6c-0.5-0.6-1.1-0.9-1.8-0.9c-0.7,0-1.3,0.3-1.8,0.9
			C353.7,668.3,353.5,669.1,353.5,670.2z"/>
		<path class="st2" d="M361.9,670.4c0-1.7,0.5-3,1.4-3.8c0.8-0.7,1.8-1,2.9-1c1.3,0,2.3,0.4,3.1,1.3s1.2,2,1.2,3.5
			c0,1.2-0.2,2.1-0.5,2.8c-0.4,0.7-0.9,1.2-1.6,1.6s-1.4,0.6-2.3,0.6c-1.3,0-2.4-0.4-3.2-1.3C362.3,673.2,361.9,672,361.9,670.4z
			 M363.5,670.4c0,1.2,0.3,2.1,0.8,2.7c0.5,0.6,1.2,0.9,2,0.9c0.8,0,1.4-0.3,2-0.9s0.8-1.5,0.8-2.7c0-1.2-0.3-2-0.8-2.6
			c-0.5-0.6-1.2-0.9-2-0.9c-0.8,0-1.4,0.3-2,0.9S363.5,669.2,363.5,670.4z"/>
		<path class="st2" d="M372.9,675.1v-1.8h1.8v1.8H372.9z"/>
		<path class="st2" d="M386.9,670.6l1.7,0.4c-0.4,1.4-1,2.5-1.9,3.2s-2.1,1.1-3.4,1.1c-1.4,0-2.5-0.3-3.4-0.8
			c-0.9-0.6-1.5-1.4-2-2.5c-0.5-1.1-0.7-2.2-0.7-3.5c0-1.3,0.3-2.5,0.8-3.5c0.5-1,1.2-1.8,2.2-2.3c0.9-0.5,2-0.8,3.1-0.8
			c1.3,0,2.4,0.3,3.3,1s1.5,1.6,1.8,2.8l-1.7,0.4c-0.3-0.9-0.7-1.6-1.3-2s-1.3-0.6-2.1-0.6c-1,0-1.8,0.2-2.5,0.7
			c-0.7,0.5-1.1,1.1-1.4,1.9c-0.3,0.8-0.4,1.6-0.4,2.5c0,1.1,0.2,2.1,0.5,2.9c0.3,0.8,0.8,1.4,1.5,1.8s1.4,0.6,2.2,0.6
			c1,0,1.8-0.3,2.4-0.8S386.7,671.6,386.9,670.6z"/>
		<path class="st2" d="M389.9,670.4c0-1.7,0.5-3,1.4-3.8c0.8-0.7,1.8-1,2.9-1c1.3,0,2.3,0.4,3.1,1.3s1.2,2,1.2,3.5
			c0,1.2-0.2,2.1-0.5,2.8c-0.4,0.7-0.9,1.2-1.6,1.6s-1.4,0.6-2.3,0.6c-1.3,0-2.4-0.4-3.2-1.3C390.3,673.2,389.9,672,389.9,670.4z
			 M391.5,670.4c0,1.2,0.3,2.1,0.8,2.7c0.5,0.6,1.2,0.9,2,0.9c0.8,0,1.4-0.3,2-0.9s0.8-1.5,0.8-2.7c0-1.2-0.3-2-0.8-2.6
			c-0.5-0.6-1.2-0.9-2-0.9c-0.8,0-1.4,0.3-2,0.9S391.5,669.2,391.5,670.4z"/>
		<path class="st2" d="M400.5,675.1v-9.3h1.4v1.3c0.3-0.5,0.7-0.8,1.2-1.1s1-0.4,1.7-0.4c0.7,0,1.3,0.1,1.7,0.4
			c0.4,0.3,0.8,0.7,0.9,1.2c0.7-1.1,1.7-1.6,2.9-1.6c0.9,0,1.6,0.3,2.1,0.8s0.7,1.3,0.7,2.4v6.4h-1.6v-5.9c0-0.6-0.1-1.1-0.2-1.4
			c-0.1-0.3-0.3-0.5-0.6-0.7s-0.6-0.3-0.9-0.3c-0.7,0-1.2,0.2-1.6,0.7c-0.4,0.4-0.7,1.1-0.7,2.1v5.4h-1.6V669c0-0.7-0.1-1.2-0.4-1.6
			s-0.7-0.5-1.3-0.5c-0.4,0-0.9,0.1-1.2,0.4c-0.4,0.2-0.7,0.6-0.8,1s-0.3,1.1-0.3,2v4.8H400.5z"/>
	</g>
</g>
<g>
	<g>
		<path class="st3" d="M463.7,270.7c4.5,0,8.1-3.6,8.1-8.1c0-4.5-3.6-8.1-8.1-8.1c-4.5,0-8.1,3.6-8.1,8.1
			C455.6,267.1,459.2,270.7,463.7,270.7 M311.9,345.4c-6.4,0-13.1-2.6-16.9-5.1l-3.2,9.7c4.9,2.9,12.1,4.8,19.8,4.8
			c16.7,0,26.3-8.7,26.3-21.1c0-10.5-6.2-16.6-18.5-21.2c-9.2-3.5-13.4-6.1-13.4-11.9c0-5.2,4.2-9.6,11.8-9.6
			c6.5,0,11.6,2.3,14.4,4.1l3.2-9.3c-3.9-2.3-10.2-4.4-17.3-4.4c-15.1,0-24.3,9.3-24.3,20.6c0,8.4,6,15.4,18.6,19.9
			c9.4,3.5,13.1,6.8,13.1,12.9C325.6,340.7,321.2,345.4,311.9,345.4 M379.4,281.4c-11.5,0-20.1,5.1-25.3,13.7l0-12.1h-11.5
			c0,0,0,14,0,23v76.2h12.6v-38.2c4.2,7,12.6,11,21.9,11c16.6,0,32-12.5,32-37.8C409.2,295.8,396.4,281.4,379.4,281.4 M375,344.9
			c-9.2,0-16.9-6.1-19.2-15c-0.3-1.6-0.6-3.3-0.6-5.2v-12.1c0-1.7,0.4-3.6,0.9-5.2c2.5-9.6,10.6-15.8,19.3-15.8
			c13.5,0,20.9,12.1,20.9,26.2C396.4,333.9,388.5,344.9,375,344.9 M414.7,353.4h12.6v-37.5c0-2.2,0.3-4.2,0.6-6
			c1.7-9.6,8.1-16.4,17.1-16.4c1.7,0,3.1,0.1,4.4,0.4v-12.1c-1.2-0.3-2.2-0.4-3.6-0.4c-8.6,0-16.9,6-20.1,15.4l0-13.8h-11
			c0,0,0,13.7,0,21.9V353.4z M457.3,353.4h12.8V283h-12.8V353.4z M526.9,353.4h12.8v-42c0-24.1-15.1-29.9-24.8-29.9
			c-11.6,0-20.1,6.5-23.5,13.2l0-11.6h-11.5c0,0,0,11.8,0,19v51.3h12.8v-42.3c0-2.2,0.3-4.4,0.9-6c2.2-7.1,8.7-13.1,17.1-13.1
			c12.1,0,16.3,9.4,16.3,20.8V353.4z M577.4,353.1c10.9,0,18.7-5.2,22.7-11.8v7.8c0,17.7-9.6,24.6-22.7,24.6c-8.7,0-16-2.6-20.6-5.5
			l-3.2,9.7c5.7,3.8,15,5.8,23.4,5.8c8.9,0,18.7-2,25.6-8.4c6.8-6.1,10-16,10-32.1v-40.8c0-8.6,0-19.3,0-19.3h-11.2l0,10.6
			c-3.1-5.8-10-12.2-22.2-12.2c-16.1,0-31.7,13.5-31.7,37.3C547.5,338.3,560,353.1,577.4,353.1 M581.4,291.5
			c9.3,0,15.5,6.1,17.9,13.5c0.6,1.7,0.7,3.6,0.7,5.8v12.6c0,2.2-0.3,4.7-1,6.8c-2.8,8.1-9.9,13.1-17.7,13.1
			c-13.8,0-20.8-11.5-20.8-25.3C560.4,301.8,569.2,291.5,581.4,291.5 M125.1,397.3c0.9,0,1.7,0.1,2.5,0.4c0.8,0.3,1.6,0.6,2.3,0.9
			l1.3-2.9c-1.8-0.9-3.9-1.4-6-1.4c-2.1,0-3.9,0.4-5.4,1.3c-1.5,0.9-2.7,2.2-3.5,3.8c-0.8,1.7-1.2,3.6-1.2,5.8
			c0,3.5,0.8,6.2,2.5,8.1c1.7,1.9,4.1,2.8,7.2,2.8c2.1,0,4-0.3,5.7-0.9v-3c-0.9,0.3-1.8,0.5-2.6,0.7c-0.8,0.2-1.7,0.3-2.6,0.3
			c-2.1,0-3.7-0.7-4.8-2c-1.1-1.3-1.7-3.3-1.7-5.9c0-2.5,0.6-4.5,1.7-5.9C121.6,398.1,123.1,397.3,125.1,397.3 M133.7,416h3.4v-22.7
			h-3.4V416z M147.9,399.6c-2.4,0-4.3,0.7-5.7,2.2c-1.3,1.5-2,3.5-2,6.1c0,1.7,0.3,3.2,0.9,4.4c0.6,1.3,1.5,2.3,2.7,2.9
			c1.2,0.7,2.5,1,4,1c2.4,0,4.3-0.7,5.6-2.2c1.4-1.5,2-3.5,2-6.2c0-2.5-0.7-4.6-2-6.1C152.1,400.3,150.2,399.6,147.9,399.6
			 M147.9,413.5c-2.8,0-4.1-1.9-4.1-5.6c0-1.8,0.3-3.1,1-4.1c0.6-1,1.7-1.4,3.1-1.4c2.7,0,4.1,1.8,4.1,5.5
			C152,411.6,150.6,413.5,147.9,413.5 M168.5,407.9c0,2-0.3,3.5-1,4.3c-0.7,0.9-1.7,1.3-3.2,1.3c-1.1,0-1.9-0.3-2.4-0.9
			c-0.5-0.6-0.8-1.5-0.8-2.8v-10h-3.5v10.5c0,2,0.5,3.4,1.4,4.4c1,1,2.4,1.5,4.4,1.5c1.1,0,2.1-0.2,3-0.6c0.9-0.4,1.6-1,2-1.8h0.2
			l0.5,2.1h2.7v-16.1h-3.4V407.9z M185.6,399.2c0,0.7,0.1,1.6,0.3,2.7h-0.2c-1.1-1.6-2.7-2.3-4.8-2.3c-2,0-3.6,0.7-4.8,2.2
			c-1.1,1.5-1.7,3.5-1.7,6.2c0,2.6,0.6,4.7,1.7,6.1c1.1,1.5,2.7,2.2,4.7,2.2c2.1,0,3.7-0.8,4.8-2.4h0.2l0.6,2.1h2.7v-22.7h-3.4
			V399.2z M185.8,408.5c0,1.8-0.3,3.1-1,3.9c-0.6,0.8-1.7,1.2-3.1,1.2c-1.3,0-2.2-0.5-2.8-1.4c-0.6-0.9-0.9-2.3-0.9-4.1
			c0-1.8,0.3-3.2,1-4.2c0.6-1,1.6-1.5,2.8-1.5c1.4,0,2.4,0.4,3.1,1.3c0.7,0.9,1,2.3,1,4.3V408.5z M193.2,412.5
			c-0.3,2.3-0.8,4.7-1.5,7.3h2.5c1.2-2.9,2.1-5.2,2.6-7l-0.2-0.3H193.2z M206.8,416h3.5v-8.8h8v-3h-8v-6.7h8.6v-3h-12V416z
			 M231.8,407.9c0,2-0.3,3.5-1,4.3c-0.7,0.9-1.7,1.3-3.2,1.3c-1.1,0-1.9-0.3-2.4-0.9c-0.5-0.6-0.8-1.5-0.8-2.8v-10H221v10.5
			c0,2,0.5,3.5,1.4,4.4c1,1,2.4,1.5,4.4,1.5c1.1,0,2.1-0.2,3-0.6c0.9-0.4,1.6-1,2-1.8h0.2l0.5,2.1h2.7v-16.1h-3.4V407.9z M239.1,416
			h3.4v-22.7h-3.4V416z M245.7,416h3.4v-22.7h-3.4V416z M259.6,410.7c-0.2,0.8-0.4,1.4-0.5,1.9H259c-0.2-1.1-0.5-2.4-1-3.7l-3.3-9.1
			H251l6.5,16.1l-0.6,1.5c-0.7,1.9-1.8,2.9-3.5,2.9c-0.7,0-1.2-0.1-1.8-0.2v2.7c0.7,0.2,1.5,0.2,2.2,0.2c2.9,0,5-1.7,6.3-5l6.9-18.3
			h-3.7C261.1,406.3,259.9,410,259.6,410.7 M287.8,411.6L287.8,411.6l-6-17h-4.9V416h3.2v-10.4c0-2.3-0.1-4.8-0.2-7.4h0.1l6.2,17.8
			h3.1l6.4-17.8h0.1c0,0.4-0.1,1.4-0.1,3.1c-0.1,1.7-0.1,3.1-0.1,4.1V416h3.4v-21.3h-4.9L287.8,411.6z M308.7,399.6
			c-0.9,0-1.9,0.1-2.9,0.4c-1,0.2-2,0.6-2.9,1l1.1,2.5c0.7-0.3,1.4-0.6,2.2-0.9c0.8-0.2,1.6-0.4,2.4-0.4c1,0,1.8,0.3,2.2,0.8
			c0.5,0.5,0.7,1.3,0.7,2.3v0.9l-2.8,0.1c-2.5,0.1-4.4,0.5-5.6,1.4c-1.2,0.8-1.9,2.1-1.9,3.8c0,1.6,0.4,2.8,1.3,3.6
			c0.9,0.9,2.1,1.3,3.7,1.3c1.2,0,2.2-0.2,3-0.5c0.8-0.4,1.6-1,2.3-2h0.1l0.7,2.2h2.5v-10.9c0-1.9-0.5-3.3-1.6-4.2
			C312.3,400,310.7,399.6,308.7,399.6 M311.5,409.7c0,1.3-0.4,2.2-1.1,2.9c-0.8,0.7-1.8,1-3,1c-0.9,0-1.5-0.2-1.9-0.6
			c-0.4-0.4-0.6-0.9-0.6-1.7c0-1,0.4-1.7,1.1-2.2c0.7-0.5,1.9-0.8,3.5-0.8l2.1-0.1V409.7z M327.1,399.6c-1.1,0-2.1,0.2-3,0.6
			c-0.9,0.4-1.6,1-2.1,1.8h-0.2l-0.5-2.1h-2.7V416h3.4v-8c0-2,0.3-3.5,1-4.3c0.7-0.9,1.7-1.3,3.2-1.3c1.1,0,1.9,0.3,2.4,0.9
			c0.5,0.6,0.8,1.5,0.8,2.8v9.9h3.4v-10.5C332.9,401.5,331,399.6,327.1,399.6 M343,399.6c-0.9,0-1.9,0.1-2.9,0.4c-1,0.2-2,0.6-2.9,1
			l1.1,2.5c0.7-0.3,1.4-0.6,2.2-0.9c0.8-0.2,1.5-0.4,2.4-0.4c1,0,1.8,0.3,2.2,0.8c0.5,0.5,0.7,1.3,0.7,2.3v0.9l-2.8,0.1
			c-2.5,0.1-4.4,0.5-5.6,1.4c-1.2,0.8-1.9,2.1-1.9,3.8c0,1.6,0.4,2.8,1.3,3.6c0.9,0.9,2.1,1.3,3.7,1.3c1.2,0,2.2-0.2,3-0.5
			c0.8-0.4,1.6-1,2.3-2h0.1l0.7,2.2h2.5v-10.9c0-1.9-0.5-3.3-1.6-4.2C346.6,400,345,399.6,343,399.6 M345.8,409.7
			c0,1.3-0.4,2.2-1.1,2.9c-0.8,0.7-1.8,1-3,1c-0.9,0-1.5-0.2-1.9-0.6c-0.4-0.4-0.6-0.9-0.6-1.7c0-1,0.4-1.7,1.1-2.2
			c0.7-0.5,1.9-0.8,3.5-0.8l2.1-0.1V409.7z M360,399.7c-0.5-0.1-1-0.1-1.4-0.1c-2,0-3.6,0.5-4.7,1.4c-1.1,1-1.7,2.3-1.7,4.1
			c0,1.1,0.3,2,0.8,2.9c0.5,0.8,1.2,1.4,2,1.8c-0.7,0.4-1.2,0.8-1.5,1.2c-0.3,0.4-0.5,0.9-0.5,1.5c0,0.5,0.1,0.9,0.4,1.4
			c0.3,0.4,0.7,0.7,1.1,0.9c-1.1,0.3-2,0.7-2.6,1.4c-0.6,0.7-0.9,1.5-0.9,2.5c0,1.4,0.6,2.5,1.7,3.3c1.2,0.8,2.8,1.2,5,1.2
			c2.9,0,5-0.5,6.5-1.5c1.5-1,2.3-2.4,2.3-4.2c0-1.4-0.5-2.5-1.4-3.3c-0.9-0.8-2.3-1.1-4.1-1.1h-2.8c-0.9,0-1.6-0.1-1.9-0.3
			c-0.3-0.2-0.5-0.5-0.5-0.8c0-0.6,0.4-1.1,1.1-1.6c0.4,0.1,0.9,0.1,1.4,0.1c2,0,3.6-0.5,4.7-1.4c1.2-1,1.7-2.3,1.7-3.9
			c0-0.6-0.1-1.1-0.2-1.6c-0.2-0.5-0.4-0.9-0.6-1.3l2.8-0.5v-1.9h-5.6C360.9,399.8,360.5,399.7,360,399.7 M357.2,415.9h2.6
			c1.4,0,2.3,0.1,2.8,0.4c0.5,0.3,0.8,0.8,0.8,1.5c0,0.9-0.5,1.6-1.4,2.1c-0.9,0.5-2.3,0.8-4.2,0.8c-1.2,0-2.1-0.2-2.8-0.6
			c-0.7-0.4-1-1-1-1.7c0-0.8,0.3-1.4,0.9-1.9C355.5,416.2,356.3,415.9,357.2,415.9 M358.5,408.2c-1,0-1.7-0.3-2.2-0.8
			c-0.5-0.5-0.8-1.3-0.8-2.3c0-1.1,0.3-1.9,0.8-2.5c0.5-0.6,1.3-0.8,2.3-0.8c1,0,1.7,0.3,2.2,0.9c0.5,0.6,0.7,1.4,0.7,2.4
			C361.5,407.2,360.5,408.2,358.5,408.2 M374.9,399.6c-2.3,0-4.1,0.8-5.4,2.3c-1.3,1.5-2,3.6-2,6.2c0,2.6,0.7,4.6,2.1,6
			c1.4,1.5,3.4,2.2,5.9,2.2c1.1,0,2.1-0.1,2.9-0.2c0.9-0.2,1.7-0.4,2.5-0.8v-2.8c-0.9,0.4-1.8,0.7-2.6,0.9c-0.8,0.2-1.7,0.3-2.7,0.3
			c-1.5,0-2.6-0.4-3.4-1.3c-0.8-0.8-1.2-2-1.3-3.6h10.8v-1.9c0-2.3-0.6-4-1.9-5.3C378.7,400.2,377.1,399.6,374.9,399.6 M371.1,406.2
			c0.1-1.3,0.5-2.3,1.2-3s1.5-1,2.6-1c1.1,0,1.9,0.3,2.6,1c0.6,0.7,0.9,1.7,1,3H371.1z M395.3,399.2c0,0.7,0.1,1.6,0.2,2.7h-0.2
			c-1.1-1.6-2.7-2.3-4.8-2.3c-2,0-3.6,0.7-4.8,2.2c-1.1,1.5-1.7,3.5-1.7,6.2c0,2.6,0.6,4.7,1.7,6.1c1.1,1.5,2.7,2.2,4.7,2.2
			c2.1,0,3.7-0.8,4.8-2.4h0.2l0.6,2.1h2.7v-22.7h-3.4V399.2z M395.5,408.5c0,1.8-0.4,3.1-1,3.9c-0.6,0.8-1.7,1.2-3.1,1.2
			c-1.3,0-2.2-0.5-2.8-1.4c-0.6-0.9-1-2.3-1-4.1c0-1.8,0.3-3.2,1-4.2c0.6-1,1.6-1.5,2.8-1.5c1.4,0,2.4,0.4,3.1,1.3
			c0.7,0.9,1,2.3,1,4.3V408.5z M417,399.6c-0.9,0-1.9,0.1-2.9,0.4c-1,0.2-2,0.6-2.9,1l1.1,2.5c0.7-0.3,1.4-0.6,2.2-0.9
			c0.8-0.2,1.6-0.4,2.4-0.4c1,0,1.8,0.3,2.2,0.8c0.5,0.5,0.7,1.3,0.7,2.3v0.9l-2.8,0.1c-2.5,0.1-4.4,0.5-5.6,1.4
			c-1.2,0.8-1.9,2.1-1.9,3.8c0,1.6,0.4,2.8,1.3,3.6c0.9,0.9,2.1,1.3,3.7,1.3c1.2,0,2.3-0.2,3-0.5c0.8-0.4,1.6-1,2.4-2h0.1l0.7,2.2
			h2.5v-10.9c0-1.9-0.5-3.3-1.6-4.2C420.6,400,419.1,399.6,417,399.6 M419.8,409.7c0,1.3-0.4,2.2-1.1,2.9c-0.8,0.7-1.8,1-3,1
			c-0.9,0-1.5-0.2-1.9-0.6c-0.4-0.4-0.6-0.9-0.6-1.7c0-1,0.4-1.7,1.1-2.2c0.7-0.5,1.9-0.8,3.5-0.8l2.1-0.1V409.7z M435.4,399.6
			c-1.1,0-2.1,0.2-3,0.6c-0.9,0.4-1.6,1-2.1,1.8h-0.2l-0.5-2.1H427V416h3.4v-8c0-2,0.3-3.5,1-4.3c0.7-0.9,1.7-1.3,3.2-1.3
			c1.1,0,1.9,0.3,2.4,0.9c0.5,0.6,0.8,1.5,0.8,2.8v9.9h3.4v-10.5C441.2,401.5,439.3,399.6,435.4,399.6 M455.4,399.2
			c0,0.7,0.1,1.6,0.2,2.7h-0.2c-1.1-1.6-2.7-2.3-4.8-2.3c-2,0-3.6,0.7-4.7,2.2c-1.1,1.5-1.7,3.5-1.7,6.2c0,2.6,0.6,4.7,1.7,6.1
			c1.1,1.5,2.7,2.2,4.7,2.2c2.1,0,3.7-0.8,4.8-2.4h0.2l0.6,2.1h2.7v-22.7h-3.4V399.2z M455.6,408.5c0,1.8-0.4,3.1-1,3.9
			c-0.6,0.8-1.7,1.2-3.1,1.2c-1.3,0-2.2-0.5-2.8-1.4c-0.6-0.9-0.9-2.3-0.9-4.1c0-1.8,0.3-3.2,1-4.2c0.6-1,1.6-1.5,2.8-1.5
			c1.4,0,2.4,0.4,3.1,1.3c0.7,0.9,1,2.3,1,4.3V408.5z M480.2,397.3c0.9,0,1.7,0.1,2.5,0.4c0.8,0.3,1.6,0.6,2.3,0.9l1.3-2.9
			c-1.8-0.9-3.9-1.4-6-1.4c-2.1,0-3.9,0.4-5.4,1.3c-1.5,0.9-2.7,2.2-3.5,3.8c-0.8,1.7-1.2,3.6-1.2,5.8c0,3.5,0.8,6.2,2.5,8.1
			c1.7,1.9,4.1,2.8,7.2,2.8c2.1,0,4-0.3,5.7-0.9v-3c-0.9,0.3-1.8,0.5-2.6,0.7c-0.8,0.2-1.7,0.3-2.6,0.3c-2.1,0-3.7-0.7-4.8-2
			c-1.1-1.3-1.7-3.3-1.7-5.9c0-2.5,0.6-4.5,1.7-5.9C476.6,398.1,478.2,397.3,480.2,397.3 M494.5,399.6c-2.4,0-4.3,0.7-5.7,2.2
			c-1.3,1.5-2,3.5-2,6.1c0,1.7,0.3,3.2,0.9,4.4c0.6,1.3,1.5,2.3,2.7,2.9c1.2,0.7,2.5,1,4,1c2.4,0,4.3-0.7,5.6-2.2
			c1.4-1.5,2-3.5,2-6.2c0-2.5-0.7-4.6-2-6.1C498.7,400.3,496.9,399.6,494.5,399.6 M494.5,413.5c-2.7,0-4.1-1.9-4.1-5.6
			c0-1.8,0.3-3.1,1-4.1c0.6-1,1.7-1.4,3.1-1.4c2.7,0,4.1,1.8,4.1,5.5C498.6,411.6,497.2,413.5,494.5,413.5 M513.4,399.6
			c-1.1,0-2.1,0.2-3,0.6c-0.9,0.4-1.6,1-2.1,1.8h-0.2l-0.5-2.1H505V416h3.4v-8c0-2,0.3-3.5,1-4.3c0.7-0.9,1.7-1.3,3.2-1.3
			c1.1,0,1.9,0.3,2.4,0.9c0.5,0.6,0.8,1.5,0.8,2.8v9.9h3.4v-10.5C519.2,401.5,517.3,399.6,513.4,399.6 M530.7,399.6
			c-1.1,0-2.1,0.2-3,0.6c-0.9,0.4-1.6,1-2.1,1.8h-0.2l-0.5-2.1h-2.7V416h3.4v-8c0-2,0.3-3.5,1-4.3c0.7-0.9,1.7-1.3,3.2-1.3
			c1.1,0,1.9,0.3,2.4,0.9c0.5,0.6,0.7,1.5,0.7,2.8v9.9h3.4v-10.5C536.5,401.5,534.6,399.6,530.7,399.6 M546.8,399.6
			c-2.3,0-4.1,0.8-5.4,2.3c-1.3,1.5-2,3.6-2,6.2c0,2.6,0.7,4.6,2.1,6c1.4,1.5,3.4,2.2,5.9,2.2c1.1,0,2.1-0.1,2.9-0.2
			c0.9-0.2,1.7-0.4,2.5-0.8v-2.8c-0.9,0.4-1.8,0.7-2.6,0.9c-0.8,0.2-1.7,0.3-2.7,0.3c-1.4,0-2.6-0.4-3.4-1.3c-0.8-0.8-1.2-2-1.3-3.6
			h10.7v-1.9c0-2.3-0.6-4-1.9-5.3C550.7,400.2,549,399.6,546.8,399.6 M543,406.2c0.1-1.3,0.5-2.3,1.2-3c0.7-0.7,1.5-1,2.6-1
			c1.1,0,1.9,0.3,2.6,1c0.6,0.7,0.9,1.7,1,3H543z M563.7,402.4c0.9,0,2.1,0.3,3.6,0.8l1-2.8c-1.4-0.6-2.9-0.9-4.6-0.9
			c-2.5,0-4.4,0.7-5.8,2.2c-1.3,1.5-2,3.5-2,6.3c0,2.7,0.6,4.7,1.9,6.1c1.3,1.4,3.1,2.1,5.6,2.1c1,0,1.8-0.1,2.5-0.2
			c0.7-0.2,1.3-0.4,2-0.8v-3c-1.4,0.8-2.8,1.1-4.3,1.1c-1.3,0-2.4-0.5-3.1-1.4c-0.7-0.9-1-2.3-1-4.1
			C559.5,404.3,560.9,402.4,563.7,402.4 M576,412.9c-0.4-0.4-0.6-1-0.6-1.8v-8.6h4.6v-2.6h-4.6v-3.6h-2.1l-1.2,3.4l-2.4,1.3v1.5h2.2
			v8.7c0,3.4,1.6,5.1,4.9,5.1c0.6,0,1.3-0.1,1.9-0.2c0.6-0.1,1.1-0.3,1.5-0.4v-2.6c-0.8,0.3-1.7,0.4-2.5,0.4
			C577,413.5,576.4,413.3,576,412.9 M588.8,399.6c-2.3,0-4.1,0.8-5.4,2.3c-1.3,1.5-2,3.6-2,6.2c0,2.6,0.7,4.6,2.1,6
			c1.4,1.5,3.4,2.2,5.9,2.2c1.1,0,2.1-0.1,2.9-0.2c0.9-0.2,1.7-0.4,2.5-0.8v-2.8c-0.9,0.4-1.8,0.7-2.7,0.9c-0.8,0.2-1.7,0.3-2.7,0.3
			c-1.4,0-2.6-0.4-3.4-1.3c-0.8-0.8-1.2-2-1.3-3.6h10.8v-1.9c0-2.3-0.6-4-1.9-5.3C592.6,400.2,590.9,399.6,588.8,399.6 M585,406.2
			c0.1-1.3,0.5-2.3,1.2-3c0.7-0.7,1.5-1,2.6-1c1.1,0,1.9,0.3,2.6,1c0.6,0.7,0.9,1.7,1,3H585z M609.2,399.2c0,0.7,0.1,1.6,0.2,2.7
			h-0.2c-1.1-1.6-2.7-2.3-4.8-2.3c-2,0-3.6,0.7-4.7,2.2c-1.1,1.5-1.7,3.5-1.7,6.2c0,2.6,0.6,4.7,1.7,6.1c1.1,1.5,2.7,2.2,4.7,2.2
			c2.1,0,3.7-0.8,4.8-2.4h0.2l0.6,2.1h2.7v-22.7h-3.4V399.2z M609.4,408.5c0,1.8-0.4,3.1-1,3.9c-0.6,0.8-1.7,1.2-3.1,1.2
			c-1.3,0-2.2-0.5-2.8-1.4c-0.6-0.9-0.9-2.3-0.9-4.1c0-1.8,0.3-3.2,1-4.2c0.7-1,1.6-1.5,2.8-1.5c1.4,0,2.4,0.4,3.1,1.3
			c0.7,0.9,1,2.3,1,4.3V408.5z"/>
		<path class="st4" d="M30.8,329.4c0-41.2,32-74.7,71.5-74.7c12,0,23.3,3.1,33.2,8.5c0-0.2,0-0.4,0-0.6c0-9,6.1-16.5,14.3-18.8
			c-13.4-8.2-29.3-12.9-46.2-12.9c-49,0-88.7,39.7-88.7,88.7c0,46.8,36.2,85.1,82.2,88.5v-4.3C60,401.1,30.8,368.8,30.8,329.4"/>
		<path class="st5" d="M154.9,250.9c6.5,0,11.8,5.3,11.8,11.8c0,6.5-5.3,11.8-11.8,11.8s-11.8-5.3-11.8-11.8
			C143.1,256.1,148.4,250.9,154.9,250.9"/>
		<path class="st6" d="M135.2,353.4c0,0,0-10.5,0-17.3v-24.7c0-16.7-7.6-30.7-31.2-30.7c-12.9,0-22.7,3.5-27.6,6.2l4.1,14.2
			c4.6-2.9,12.4-5.4,19.6-5.4c10.9,0,12.9,5.4,12.9,9.2v1c-25.1-0.1-41.7,8.7-41.7,27.2c0,11.3,8.6,21.8,23,21.8
			c8.4,0,16.1-3,20.8-8.7l0,7.1H135.2z M113.7,327.5c0,1.3-0.1,2.6-0.4,3.8c-1.5,4.5-6,8.1-11.5,8.1c-4.9,0-8.7-2.8-8.7-8.4
			c0-8.6,9-11.3,20.6-11.2V327.5z"/>
		<rect x="144" y="282.3" class="st6" width="22.1" height="71.1"/>
		<path class="st6" d="M175.3,353.4h22.1v-36c0-1.7,0.1-3.5,0.4-4.9c1.5-6.8,7-11.2,15.1-11.2c2.5,0,4.4,0.3,6,0.6V281
			c-1.6-0.3-2.6-0.3-4.6-0.3c-6.8,0-16.1,4.4-19.8,14.7l0-13.1h-19.1c0,0,0,12.9,0,23.4V353.4z"/>
		<path class="st6" d="M286.5,324.9c0.3-1.6,0.7-4.9,0.7-8.7c0-17.6-8.7-35.5-31.7-35.5c-24.7,0-35.9,19.9-35.9,37.9
			c0,22.2,13.8,36.2,37.9,36.2c9.6,0,18.5-1.5,25.7-4.4l-2.9-15c-6,1.9-12.1,2.9-19.6,2.9c-10.3,0-19.3-4.4-20.1-13.5H286.5z
			 M240.5,309.8c0.6-6,4.4-14.4,13.7-14.4c10.2,0,12.5,9,12.5,14.4H240.5z"/>
		<path class="st3" d="M638.4,289.1c0,4.5-3.5,8-8.1,8c-4.5,0-8.1-3.5-8.1-8c0-4.4,3.6-7.9,8.1-7.9
			C634.9,281.2,638.4,284.8,638.4,289.1 M624.3,289.1c0,3.5,2.6,6.3,6.1,6.3c3.5,0,6-2.8,6-6.2c0-3.5-2.5-6.3-6-6.3
			C626.9,282.8,624.3,285.7,624.3,289.1 M629.1,293.2h-1.8v-7.9c0.7-0.1,1.7-0.2,3-0.2c1.5,0,2.2,0.2,2.7,0.6c0.4,0.3,0.8,1,0.8,1.7
			c0,0.9-0.7,1.5-1.6,1.8v0.1c0.8,0.3,1.2,0.9,1.4,1.9c0.2,1.2,0.4,1.7,0.6,2h-2c-0.2-0.3-0.4-1-0.6-1.9c-0.1-0.9-0.6-1.2-1.6-1.2
			h-0.9V293.2z M629.2,288.8h0.9c1,0,1.8-0.3,1.8-1.2c0-0.7-0.5-1.2-1.7-1.2c-0.5,0-0.8,0-1,0.1V288.8z"/>
	</g>
</g>
</svg>
