<?xml version="1.0" encoding="utf-8"?>
<!-- Generator: Adobe Illustrator 23.0.1, SVG Export Plug-In . SVG Version: 6.00 Build 0)  -->
<svg version="1.1" id="图层_1" xmlns="http://www.w3.org/2000/svg" xmlns:xlink="http://www.w3.org/1999/xlink" x="0px" y="0px"
	 viewBox="0 0 243.78 45.35" style="enable-background:new 0 0 243.78 45.35;" xml:space="preserve">
<style type="text/css">
	.st0{fill:#EB7F2E;}
</style>
<path class="st0" d="M31.61,14.52c-3-2.95-5.6-4.16-9.05-4.16c-6.76,0-12.09,5.6-12.09,12.71c0,7.49,5.15,12.76,12.43,12.76
	c3.26,0,5.82-1.16,8.71-4.05v8.5c-3.28,1.55-5.94,2.16-9.05,2.16c-10.99,0-19.54-8.44-19.54-19.31c0-10.76,8.78-19.37,19.7-19.37
	c3.11,0,5.72,0.66,8.89,2.27V14.52z"/>
<path class="st0" d="M39.55,29.55c0,3.72,3.05,6.77,6.77,6.77c3.73,0,6.72-2.99,6.72-6.72c0-3.76-2.99-6.76-6.72-6.76
	C42.56,22.85,39.55,25.85,39.55,29.55 M59.03,17.57V41.6h-6.71v-3.1c-2.16,2.65-4.55,3.88-7.83,3.88c-6.83,0-11.88-5.5-11.88-12.87
	c0-7.22,5.1-12.72,11.77-12.72c3.22,0,5.6,1.16,7.94,3.89v-3.12H59.03z"/>
<path class="st0" d="M67.81,17.57v3.66c1.72-3.05,3.93-4.43,6.98-4.43c1.06,0,1.73,0.11,2.95,0.61l-0.95,6.28
	c-1.16-0.62-1.94-0.83-3.16-0.83c-3.94,0-5.82,2.33-5.82,7.21V41.6h-6.73V17.57H67.81z"/>
<path class="st0" d="M95.05,26.4c-0.73-3.12-2.72-4.78-5.66-4.78c-3.06,0-5.05,1.72-5.66,4.78H95.05z M83.45,30.67
	c0.17,4.16,2.22,6.44,5.94,6.44c2.5,0,4.16-0.94,5.66-3.21l6.21,0.99c-1.99,4.89-6.1,7.49-11.71,7.49
	c-7.88,0-12.99-4.99-12.99-12.77c0-7.76,4.94-12.81,12.61-12.81c7.6,0,12.32,4.94,12.32,12.88v0.99H83.45z"/>
<path class="st0" d="M115.06,23.17c-1.44-1.11-2.66-1.6-4-1.6c-1.5,0-2.6,0.88-2.6,2c0,1.16,0.67,1.6,3.83,2.72
	c5.66,1.99,7.33,3.72,7.33,7.48c0,5.06-4.17,8.61-10.1,8.61c-3.49,0-6.77-1.44-9.1-3.99l3.49-4.11c1.95,1.95,3.73,2.82,5.67,2.82
	c1.78,0,3.11-1.1,3.11-2.66c0-1.38-0.66-1.88-3.72-2.99c-3-1.12-3.56-1.33-4.61-2.11c-1.61-1.11-2.39-2.78-2.39-4.94
	c0-4.5,3.55-7.71,8.44-7.71c3.16,0,5.61,0.77,7.99,2.55L115.06,23.17z"/>
<polygon class="st0" points="128.55,41.6 121.84,41.6 121.84,23.39 119.17,23.39 119.17,17.57 121.84,17.57 121.84,9.36 
	128.55,9.36 128.55,17.57 133.32,17.57 133.32,23.39 128.55,23.39 "/>
<path class="st0" d="M141.32,17.57v3.66c1.72-3.05,3.94-4.43,6.99-4.43c1.05,0,1.72,0.11,2.94,0.61l-0.94,6.28
	c-1.18-0.62-1.95-0.83-3.17-0.83c-3.94,0-5.82,2.33-5.82,7.21V41.6h-6.72V17.57H141.32z"/>
<path class="st0" d="M168.56,26.4c-0.71-3.12-2.71-4.78-5.66-4.78c-3.05,0-5.05,1.72-5.66,4.78H168.56z M156.97,30.67
	c0.17,4.16,2.21,6.44,5.94,6.44c2.5,0,4.16-0.94,5.66-3.21l6.22,0.99c-2,4.89-6.11,7.49-11.71,7.49c-7.88,0-12.99-4.99-12.99-12.77
	c0-7.76,4.93-12.81,12.6-12.81c7.6,0,12.32,4.94,12.32,12.88v0.99H156.97z"/>
<path class="st0" d="M182.97,29.55c0,3.72,3.04,6.77,6.78,6.77c3.71,0,6.71-2.99,6.71-6.72c0-3.76-3-6.76-6.71-6.76
	C185.97,22.85,182.97,25.85,182.97,29.55 M202.45,17.57V41.6h-6.71v-3.1c-2.17,2.65-4.56,3.88-7.83,3.88
	c-6.83,0-11.88-5.5-11.88-12.87c0-7.22,5.11-12.72,11.77-12.72c3.22,0,5.61,1.16,7.94,3.89v-3.12H202.45z"/>
<path class="st0" d="M211.25,17.57v2.78c2.28-2.6,4.33-3.55,7.55-3.55c3.11,0,5.44,1.38,7.28,4.39c1.88-2.95,4.49-4.39,7.88-4.39
	c5.28,0,8.05,3.22,8.05,9.27V41.6h-6.71V28.45c0-4.21-1.18-5.93-4.06-5.93c-3.06,0-4.61,2.27-4.61,6.76V41.6h-6.72V28.84
	c0-2.06-0.11-3.11-0.5-3.99c-0.55-1.4-2.05-2.33-3.61-2.33c-1.5,0-3.11,0.88-3.77,2.16c-0.56,1-0.79,2.28-0.79,4.61V41.6h-6.71
	V17.57H211.25z"/>
</svg>
