<?xml version="1.0" encoding="utf-8"?>
<!-- Generator: Adobe Illustrator 23.0.1, SVG Export Plug-In . SVG Version: 6.00 Build 0)  -->
<svg version="1.1" id="layer" xmlns="http://www.w3.org/2000/svg" xmlns:xlink="http://www.w3.org/1999/xlink" x="0px" y="0px"
	 viewBox="0 0 554.9 182.63" style="enable-background:new 0 0 554.9 182.63;" xml:space="preserve">
<style type="text/css">
	.st0{fill:#8C1515;}
	.st1{fill:#A90533;}
	.st2{clip-path:url(#SVGID_2_);fill:#FFFFFF;}
	.st3{clip-path:url(#SVGID_2_);fill:#A90533;}
	.st4{clip-path:url(#SVGID_2_);fill:#A32035;}
	.st5{clip-path:url(#SVGID_2_);fill:#006F53;}
	.st6{fill:#FFFFFF;}
	.st7{fill:#A90533;stroke:#FFFFFF;stroke-width:0.15;}
</style>
<g>
	<g>
		<path class="st0" d="M253.5,85.85c-14.61,0-15.77-11.13-15.77-14.4c0-3.89,0.89-11.13,10.37-14.61
			c9.49-3.48,11.53-3.89,18.29-6.01V49.2c0-3.28,0-3.89-0.75-6.01c-1.16-3.75-4.85-6.28-9.96-6.28c-4.85,0-9.01,2.73-10.92,6.76
			l-2.73-1.64c1.64-6.01,7.85-12.01,18.5-12.01c7.37,0,12.49,2.12,15.49,6.76c2.25,3.75,2.53,8.8,2.53,13.92
			c0,4.64-0.27,9.76-0.27,13.92c0,2.73-0.27,5.39-0.27,6.89c0,3.75,0.75,6.76,3.75,6.76c1.37,0,1.64-0.48,2.73-1.16l1.64,2.12
			c-2.73,3.75-6.01,6.76-11.4,6.76c-4.16,0-7.17-2.12-8.39-5.53C264.63,82.85,260.19,85.85,253.5,85.85z M266.4,57.53
			c-7.17,2.12-9.76,3.28-11.81,4.37c-3.28,1.64-4.64,4.64-4.64,8.53c0,3,1.16,7.85,8.12,7.85c2.25,0,5.53-0.48,8.53-2.53V57.46h-0.2
			V57.53z M145.8,82.99c0-5.39,0-9.96-0.48-15.49h3.28c0,3.48,0.89,6.01,2.53,7.64c2.25,2.53,7.64,4.16,12.49,4.16
			c10.17,0,15.02-3.89,15.02-12.29c0-7.17-4.37-10.17-10.37-14.4l-0.89-0.75l-6.48-4.37c-9.01-6.01-13.65-10.65-13.65-20.13
			c0-4.64,1.84-19.93,24.3-19.93c5.8,0,13.17,0.75,17.61,1.37c0,0.75-0.27,4.16-0.27,7.17c0,3.48,0,4.37,0.27,8.53h-2.73
			c0-3.75-1.16-6.01-2.73-7.64c-2.12-2.12-6.89-3.28-12.01-3.28c-12.01,0-13.38,6.01-13.38,10.65c0,6.28,3.28,8.53,10.37,13.17
			l8.12,5.39c6.89,4.64,13.38,9.01,13.38,20.61c0,19.45-18.29,21.5-25.94,21.5C157.2,85.85,151.33,84.83,145.8,82.99z M291.18,33.5
			c2.73,0.27,6.89,0,10.92-0.75c3.48-0.75,4.64-1.16,7.17-2.25l1.16,0.75v4.16c2.73-2.12,8.12-5.12,15.77-5.12
			c9.76,0,16.04,4.64,17.81,12.76c0.48,2.12,0.75,6.89,0.75,9.76v15.77c0,8.8,0.48,11.4,2.12,12.97c0.89,0.75,2.73,1.64,5.39,1.64
			v2.53c-3.48-0.27-9.76-0.48-13.38-0.48c-4.85,0-10.37,0.27-13.38,0.48v-2.53c2.73-0.27,4.37-1.16,5.39-1.84
			c1.64-1.64,1.84-4.64,2.12-11.4c0-2.12,0.27-6.28,0.27-9.28c0-3.89,0-8.12-0.48-12.29c-0.75-6.89-4.37-10.17-11.4-10.17
			c-4.85,0-7.85,1.16-10.17,2.25v28.26c0,8.8,0.48,11.4,2.12,12.97c0.89,0.75,3,1.64,5.12,1.64v2.53
			c-4.37-0.27-9.76-0.48-13.17-0.48c-7.17,0-9.49,0.27-13.65,0.48v-2.66c2.25,0,4.64-0.89,5.8-2.25c1.64-1.84,1.84-6.48,1.84-15.49
			V49.41c0-6.76-0.27-9.49-1.16-10.92c-0.75-1.16-2.53-2.12-6.28-2.12v-3h-0.48v0.14H291.18z M358.13,82.85
			c2.25,0,4.64-0.75,5.8-2.25c1.64-1.84,1.84-6.48,1.84-15.49V38.14h-6.89v-3c3-1.16,5.53-2.53,6.89-3.75
			c0-4.85,0.27-10.92,0.89-14.4c2.12-11.13,9.28-16.65,21.5-16.65c5.39,0,10.37,1.84,13.65,4.37l0.27,1.16l-5.39,7.37h-1.37
			c-1.84-4.37-4.64-6.89-9.49-6.89c-1.64,0-3.89,0.48-5.39,1.84c-2.25,2.25-2.73,5.8-2.73,12.76v10.37h12.01v6.76h-12.01v29.89
			c0,7.17,0.27,10.65,1.16,12.01c1.37,2.25,6.28,2.53,8.53,2.53v2.73c-3.89-0.27-10.17-0.48-14.61-0.48
			c-6.76,0-11.13,0.27-14.61,0.48L358.13,82.85L358.13,82.85z M420.17,86.26c-16.38,0-26.14-10.17-26.14-27.3
			c0-13.38,7.17-28.94,27.3-28.94c16.38,0,26.14,10.17,26.14,27.3C447.47,70.7,440.24,86.26,420.17,86.26z M420.85,36.23
			c-3.28,0-5.8,0.89-7.64,2.53c-4.37,3.75-6.48,10.17-6.48,19.66c0,3.75,0.75,21.77,13.92,21.77c3.28,0,5.8-0.89,7.64-2.53
			c4.37-3.75,6.48-10.17,6.48-19.66C434.71,54.32,434.1,36.23,420.85,36.23z M453,33.23c3.75,0.27,7.64-0.27,11.81-0.89
			c3.28-0.48,5.39-1.16,6.48-1.84l0.89,0.48v4.64c2.53-2.53,6.76-5.12,12.49-5.12c4.16,0,6.89,1.16,9.49,3.28v1.64l-4.64,8.39h-2.25
			c-1.37-2.53-4.16-4.85-9.01-4.85c-2.25,0-4.16,0.48-5.8,1.64v27.57c0,7.17,0.27,10.37,1.16,11.81c1.37,2.25,6.01,2.53,8.53,2.25v3
			c-3.75-0.27-10.17-0.48-14.61-0.48c-5.12,0-10.37,0-14.61,0.48v-2.73c3-0.27,4.64-0.89,5.8-2.25c1.64-1.84,1.84-6.28,1.84-15.49
			V49.75c0-6.76,0-9.49-1.16-10.92c-0.89-1.16-2.73-1.84-6.28-1.84V33.5L453,33.23L453,33.23z M528.76,3.61
			c3.28,0,7.37-0.75,12.76-1.64c3-0.48,4.85-1.16,5.8-1.37l0.89,0.48c-0.48,4.37-0.48,14.4-0.48,21.5v43.95
			c0,6.48,0,10.65,0.89,12.01c0.89,1.16,2.73,2.12,6.28,2.12v2.73c-3.48,0-7.37,0.48-11.53,1.16c-2.73,0.48-4.85,0.89-6.01,1.37
			l-1.36-0.48V80.8c-2.73,2.12-7.85,5.12-15.02,5.12c-14.81,0-24.3-10.17-24.3-26.14c0-5.39,0.89-10.17,2.73-14.61
			c4.64-9.76,13.92-15.29,25.66-15.29c4.37,0,8.12,0.48,10.37,0.89v-11.4c0-6.76,0-10.17-1.16-11.81c-0.75-1.16-1.84-1.64-5.8-1.84
			V3.54h0.27V3.61z M526.85,78.34c3.75,0,6.28-0.48,8.8-2.12V40.19c-0.89-0.89-4.16-3.75-10.65-3.75
			c-10.37,0-15.49,7.17-15.49,22.05C509.31,64.69,511.15,78.34,526.85,78.34z M232.41,79.98c-1.64,2.12-5.8,6.28-14.61,6.28
			c-8.39,0-12.97-3-15.02-9.76c-0.89-2.53-0.89-7.85-0.89-10.92c0-8.53,0-15.49,0.27-23.62v-3.75h-7.23V36.1
			c2.73-1.16,4.85-2.25,6.76-3.75c4.16-3.28,6.89-7.17,9.96-12.97h2.25v12.01h18.29v6.76h-18.29V66.4c0,8.53,1.64,13.17,9.49,13.17
			c3.75,0,6.28-1.16,7.64-2.12L232.41,79.98z"/>
		<path class="st0" d="M488.97,130.49c-0.89,0-2.12,0.27-2.73,0.89c-0.75,0.48-0.75,1.16-0.75,1.64c0,0.89,0.27,1.64,0.89,3.48
			l5.12,13.38c0.75,2.12,1.37,3.75,1.64,4.85l6.28-18.29c0.75-2.12,0.89-2.53,0.89-3.48c0-0.48-0.27-0.89-0.75-1.37
			c-0.75-0.48-1.64-0.89-2.73-0.89v-2.12c0.75,0,2.25,0,3,0.27c0.75,0,2.12,0.27,3.28,0.27c2.25,0,5.53-0.27,6.89-0.27v2.12
			c-0.89,0.27-3-0.27-4.85,5.12l-13.17,35.15c-1.84,5.12-4.37,11.4-13.38,11.4c-3.75,0-6.28-0.89-8.39-2.73v-0.89l3.28-3.89h0.89
			c0.89,2.12,2.73,3,5.39,3c4.16,0,6.01-3.75,8.8-11.13l0.75-2.12l-11.06-28.87c0-0.27-0.27-0.75-0.48-1.16
			c-0.27-0.75-0.89-2.12-0.89-2.12c-0.75-1.37-1.84-1.84-3.28-1.84v-2.12c2.12,0.27,5.8,0.27,7.64,0.27c1.16,0,3,0,4.85-0.27
			c0.89,0,2.53-0.27,3.28-0.27v1.84h-0.27v0.14H488.97z M366.39,130.01c2.25,0.27,4.85-0.27,7.37-0.75
			c2.12-0.48,3.28-0.75,4.16-1.16l0.75,0.27v3c1.64-1.64,4.16-3.28,7.85-3.28c2.73,0,4.37,0.75,6.01,2.12v1.16l-2.73,5.39h-1.37
			c-0.89-1.64-2.53-3-5.8-3c-1.37,0-2.53,0.48-3.75,1.16v17.4c0,4.64,0.27,6.76,0.75,7.64c0.89,1.37,3.75,1.64,5.39,1.64v1.84
			c-2.25-0.27-6.48-0.27-9.28-0.27c-3.28,0-6.76,0-9.28,0.48v-1.84c1.84,0,3-0.75,3.75-1.37c1.16-1.16,1.16-3.89,1.16-9.96v-9.76
			c0-4.16,0-6.01-0.75-6.89c-0.48-0.75-1.84-1.16-3.89-1.16v-2.53h-0.34L366.39,130.01L366.39,130.01z M212.28,163.59
			c-9.76,0-15.49-3-17.61-9.49c-1.16-3.28-1.16-7.37-1.16-10.65v-18.5c0-5.53-0.27-6.48-1.37-7.37c-0.48-0.48-1.64-0.89-3.28-1.16
			v-1.84c2.25,0.27,6.28,0.48,8.53,0.48c3.89,0,6.28,0,8.8-0.48v2.12c-1.64,0-2.73,0.48-3.75,1.37c-1.16,1.16-1.16,3.28-1.16,9.28
			v16.38c0,9.76,0.89,16.04,11.81,16.04c11.13,0,11.81-6.48,11.81-16.38v-18.02c0-5.53-0.27-6.48-1.37-7.37
			c-0.75-0.48-1.84-0.89-3.28-1.16V115c2.12,0,4.85,0.27,7.64,0.27c2.53,0,5.12,0,8.12-0.48v2.12c-1.64,0-2.73,0.48-3.75,1.37
			c-1.16,1.16-1.16,3.28-1.16,9.28v13.92c0,4.37,0,9.28-1.37,13.17C227.57,160.59,221.97,163.59,212.28,163.59z M278.28,161.48
			c1.84-0.27,3-0.48,3.89-1.37c1.16-1.16,1.16-3.89,1.16-9.96v-9.76c0-4.16,0-6.28-0.75-7.17c-0.48-0.75-1.37-1.16-3.89-1.37v-2.12
			c1.37,0.27,5.12-0.27,7.85-0.75c1.37-0.27,2.73-0.75,3.75-1.16l0.75,0.75c-0.27,2.25-0.27,7.17-0.27,13.65v9.96
			c0,4.64,0.27,6.76,0.75,7.64c0.75,0.89,2.12,1.64,4.16,1.64v1.64c-1.84-0.27-5.39-0.27-8.39-0.27c-3.48,0-7.17,0.27-9.01,0.48
			V161.48L278.28,161.48z M286.81,121.89c-2.73,0-4.37-1.64-4.37-4.16c0-2.53,1.84-4.37,4.64-4.37c2.73,0,4.37,1.64,4.37,4.16
			C291.38,120.25,289.54,121.89,286.81,121.89z M424.61,161.48c1.84-0.27,3-0.48,3.89-1.37c1.16-1.16,1.16-3.89,1.16-9.96v-9.76
			c0-4.16,0-6.28-0.75-7.17c-0.48-0.75-1.37-1.16-3.89-1.37v-2.12c1.37,0.27,5.12-0.27,7.85-0.75c1.37-0.27,3-0.75,3.75-1.16
			l0.75,0.75c-0.27,2.25-0.27,7.17-0.27,13.65v9.96c0,4.64,0.27,6.76,0.75,7.64c0.75,0.89,2.12,1.64,4.16,1.64v1.64
			c-2.12-0.27-5.53-0.27-8.53-0.27c-3.48,0-7.17,0.27-9.01,0.48v-1.84H424.61z M433.14,121.89c-2.73,0-4.37-1.64-4.37-4.16
			c0-2.53,1.84-4.37,4.64-4.37c2.73,0,4.37,1.64,4.37,4.16C437.78,120.25,435.87,121.89,433.14,121.89z M396.56,161.95
			c0-3.48-0.27-7.17-0.48-9.01h2.25c0,1.84,0.48,3.48,1.37,4.37c1.37,1.64,3,2.25,6.01,2.25h0.48c3.75,0,5.8-1.64,5.8-4.85
			c0-2.53-1.64-3.75-4.37-5.39l-4.85-3c-2.53-1.64-5.53-3.89-5.53-8.8c0-3.89,1.64-6.89,4.85-8.53c2.12-1.16,5.39-1.16,6.89-1.16
			c2.73,0,6.76,0.48,9.01,0.89c-0.27,0.89-0.27,3.28-0.27,4.16c0,0.75,0,3.89,0.27,4.64h-2.25c0-1.37-0.48-2.73-1.37-3.89
			c-0.89-1.16-3-1.84-5.53-1.84c-3.48,0-5.39,1.37-5.39,4.37c0,2.25,1.84,3.48,3.48,4.64h0.27l4.64,2.73c3,1.84,6.89,4.16,6.89,9.49
			c0,9.01-8.39,10.37-13.17,10.37C402.84,163.32,399.83,163.11,396.56,161.95z M469.24,159.7c-1.16,1.16-3.75,3.89-9.28,3.89
			c-5.39,0-8.39-1.84-9.49-6.28c-0.48-1.64-0.48-5.12-0.48-6.89c0-5.53,0-9.96,0-15.02v-2.25h-4.64v-1.37
			c1.84-0.75,3-1.37,4.37-2.25c2.53-2.12,4.37-4.64,6.48-8.39h1.64v7.64h11.53v4.16h-11.53v18.02c0,5.39,0.89,8.53,6.01,8.53
			c2.25,0,3.89-0.75,4.85-1.37L469.24,159.7z M312.68,128.65c-0.75,0-2.25,0-3.28,0.27c-1.84,0-3.75,0.27-5.12,0.27
			c-2.53,0-6.28-0.27-7.37-0.27v2.12c0.48,0,2.25-0.27,3.48,2.12c0.48,0.89,0.75,1.64,0.89,2.12c0.27,0.48,0.48,0.89,0.48,1.16
			l11.13,27.78l3.48-0.75l12.29-27.3c0-0.27,0.27-0.48,0.48-0.89c0.27-0.27,0.27-0.75,1.16-2.12c0.75-1.37,2.25-2.12,3.48-2.12
			v-2.12c-1.37,0-4.37,0.27-6.76,0.27c-1.16,0-2.25,0-3.48-0.27c-0.89,0-2.25-0.27-3.28-0.27v1.84c1.16,0,2.25,0.48,2.73,0.89
			c0.27,0.27,0.75,0.89,0.75,1.37c0,0.75-0.27,1.37-0.89,3.48l-6.76,16.38c-0.27-0.89-0.75-2.25-1.37-4.16l-4.64-12.29
			c-0.75-1.84-0.89-2.53-0.89-3.48c0-0.48,0-0.89,0.48-1.16c0.75-0.75,1.84-1.16,3-1.16v-1.84h0V128.65z M237.05,130.01
			c1.84,0.27,4.37,0,6.89-0.48c2.12-0.48,3-0.75,4.64-1.37l0.75,0.48v2.73c1.64-1.37,5.39-3.28,9.96-3.28c6.28,0,10.17,3,11.4,8.12
			c0.27,1.37,0.48,4.37,0.48,6.28v9.96c0,5.53,0.27,7.17,1.37,8.39c0.48,0.48,1.84,0.89,3.28,0.89v1.64c-2.25,0-6.28-0.27-8.53-0.27
			c-3.28,0-6.76,0.27-8.53,0.48v-1.64c1.64-0.27,2.73-0.75,3.48-1.16c0.89-0.89,1.16-3,1.37-7.17c0-1.37,0-3.89,0-6.01
			c0-2.53,0-5.39-0.27-7.85c-0.48-4.37-2.73-6.48-7.17-6.48c-3,0-5.12,0.75-6.48,1.37v18.15c0,5.53,0.27,7.17,1.37,8.39
			c0.48,0.48,1.84,0.89,3.28,0.89v1.64c-3-0.75-6.48-0.75-8.8-0.75c-4.64,0-6.01,0-8.53,0.48v-1.64c1.37,0,3-0.48,3.75-1.37
			c0.89-1.16,1.16-4.16,1.16-9.96v-9.76c0-4.16,0-6.01-0.75-6.89c-0.48-0.75-1.64-1.37-3.89-1.16v-2.59h-0.2V130.01z M349.53,163.59
			c-10.37,0-16.04-6.01-16.04-16.93c0-1.84,0.48-18.77,16.18-18.77c4.64,0,8.8,1.84,10.65,5.12c2.12,3.28,2.25,6.48,2.25,9.28v2.12
			h-21.5c0,1.84,0.27,3.28,0.48,4.37c1.16,6.76,4.85,9.96,11.4,9.96c3.75,0,6.01-0.75,8.12-2.12l0.89,1.64
			C359.77,161.34,355.13,163.59,349.53,163.59z M341.2,140.45h13.38c0-4.16-0.75-8.8-6.76-8.8
			C342.57,131.92,341.48,136.9,341.2,140.45z"/>
	</g>
	<g>
		<polygon class="st1" points="23.71,0.33 0.3,23.59 0.3,83.41 20.64,103.75 69.25,103.75 69.25,124.52 44.26,124.52 44.26,110.97 
			0.35,110.97 0.35,143.68 20.44,163.93 88.08,163.93 107.78,144.24 107.78,83.13 87.36,63.4 42.75,63.4 42.75,41.13 67.44,41.13 
			67.44,56.48 107.78,56.48 107.78,23.3 85.33,0.33 		"/>
	</g>
	<g>
		<defs>
			<rect id="SVGID_1_" width="107.78" height="163.93"/>
		</defs>
		<clipPath id="SVGID_2_">
			<use xlink:href="#SVGID_1_"  style="overflow:visible;"/>
		</clipPath>
		<path class="st2" d="M2.98,24.8v57.55l18.75,18.75c0,0,45.33,0,50.2,0c0,4.11,0,22.09,0,26.19c-4.25,0-26.15,0-30.41,0
			c0-3.47,0-13.55,0-13.55l-38.49,0v28.85l18.81,19.02h64.78l18.74-18.75V84.58l-19.17-18.4c0,0-41.31,0-46.17,0
			c0-4.16,0-23.53,0-27.69h30.11v15.35h35.23V24.81L84.18,3.11H24.77L2.98,24.8"/>
		<polygon class="st3" points="25.88,6.01 5.71,26.14 5.71,81.43 22.86,98.59 74.65,98.59 74.64,130.2 38.82,130.2 38.82,116.66 
			5.74,116.66 5.75,141.64 22.94,159.1 85.51,159.1 102.65,141.93 102.65,85.87 85.04,69.08 37.31,69.08 37.31,35.97 72.84,35.97 
			72.84,51.32 102.65,51.32 102.65,26.14 83.08,6.01 		"/>
		<path class="st4" d="M64.63,91.03c0,0.01-0.02,0.05-0.11,0.15C64.56,91.14,64.6,91.09,64.63,91.03"/>
		<path class="st2" d="M55.65,3.17c-1.13,0.06-1.72,0.48-1.96,0.87c-0.27,0.43-0.4,0.78-0.39,1.22c0,0.32,0.07,0.61,0.14,0.88
			c-0.43,0.83-1.02,2.12-1.08,2.13c0,0-0.47,0-0.45,0c-1.78,0.04-2.07,0.82-2.42,1.48c-0.21,0.41-0.29,0.83-0.29,1.24
			c0.01,1.09,0.63,2.62,0.79,2.85c0,0,0.31,0.43,0.43,0.61c-2.81,1.91-2.69,3.74-2.68,4.99c0,0.33,0.09,0.64,0.26,0.96
			c0.18,0.34,0.44,0.57,0.73,0.75c-0.1,0.1-0.2,0.2-0.3,0.31c-2.17,1.66-4.61,3.2-4.67,5.21c-0.05,0.18,0.31,1.35,0.54,1.63
			c0,0.01,0.02,0.01,0.02,0.01c-1.49,0.74-3.08,2.1-3.06,3.77c0,0.06,0,0.12,0.01,0.18c0.17,2.08,2.71,2.9,3.48,3.11l0.66,0.17
			L46,35.19c2.2-1.32,3.56-1.63,4.32-1.69c0,0.03,0.01,0.06,0.01,0.09c0.04,3.81-5.34,5.47-5.57,5.54l0.27-0.06
			c-7.08,1.01-9.82,6.27-10.35,7.45c-1.13,1.23-1.49,2.29-1.48,3.11c0.02,1.14,0.67,1.82,0.72,1.87l0.18,0.18l0.23,0.12
			c2.45,1.22,7.36-1.56,10.06-3.33l0.14-0.09l0.12-0.12c0.36-0.36,0.88-0.77,1.36-0.75c0.52,0.03,0.95,0.57,0.95,0.57l0.28,0.36
			l0.45,0.18c0.57,0.21,0.92,0.39,1.16,0.54c-1.1,0.33-3.62,1.33-9.79,4.3l-0.5,0.24l-0.25,0.49c-0.71,1.42-3.54,3.03-5.16,3.72
			c-2.58,1.12-4.1,2.59-4.51,4.38c-0.08,0.36-0.12,0.7-0.11,1.02c0.02,1.58,0.91,2.69,1.04,2.84l0.38,0.45l0.58,0.1
			c1.57,0.26,9.33-1.46,13.82-2.51l0.11-0.02l0.1-0.04c1.9-0.74,2.5-0.47,2.57-0.44c0.02,0.18,0.05,0.48,0.05,0.48
			s0.13,0.12,0.27,0.23c-0.16,0.8-1.55,2.75-3.1,4.31L44.05,69l-0.12,0.39c-0.41,1.36-2.1,2.21-2.71,2.42l0.13-0.04
			c-8.74,2.18-8.83,5.58-8.66,6.57l0.26,1.44l7.95-0.66l0.4-0.34c0.48-0.41,0.62-0.27,0.74-0.15l0.31,0.32l0.49,0.17
			c0,0,0.56,0.14,1.11,0.28c0,0.05,0.02,0.07,0.02,0.12c0.01,0.68-0.15,1.75-0.43,2.83H39.4c0,0-0.16,0.94-0.2,1.19
			c-0.24,0.16-0.69,0.32-1.22,0.33c-1.89-0.79-3.81,1.25-4.04,1.48l-0.16,0.16c0,0-0.2,0.29-0.22,0.33
			c-0.19,0.28-1.09,0.77-1.92,1.14l0.27-0.09c-1.63,0.41-2.11,1.29-2.22,1.95c-0.02,0.13-0.03,0.25-0.03,0.38
			c0.01,0.78,0.47,1.42,1,1.86c-1.29,0.33-3.22,0.82-3.2,2.57c0,0.04,0,0.09,0,0.13c0.04,0.62,0.37,1.18,0.91,1.51
			c0.61,0.38,2.22,1.38,14.99-3.86c0,0,0.06-0.02,0.13-0.05c-0.33,0.34-0.71,0.67-1.14,0.96l-0.18,0.12l-0.15,0.17
			c-1.13,1.32-3.2,1.86-3.22,1.87l0.14-0.03c-5.17,0.83-6.9,3.13-7.48,4.43c-0.51,1.16-0.49,2.35,0.06,3.18
			c0.56,0.86,0.67,0.93,6.53-0.13c-0.28,0.74-0.56,1.91-1.07,2.8c-0.37,0.33-4.52,4.06-4.68,4.21c-5.51,3.13-8.81,13.27-9.17,14.43
			l-0.05,0.17l-0.02,0.17c-0.01,0.15-0.02,0.29-0.01,0.42c0.01,1.41,0.75,2.09,1.21,2.38c1.69,1.05,4.16-0.2,5.15-0.79l0.37-0.22
			l0.75-1.34c0.83-1.41,3.24-1.87,4.14-1.94c2.6,0.31,5.21-2.15,5.73-2.68l0.14-0.13l0.1-0.17c0.24-0.4,0.57-0.45,0.65-0.46
			c3.7,0.49,6.4-3.53,7.35-5.2c0.86-0.23,1.58-0.03,2.26,1.37c0.46,0.94,0.75,3.83,0.81,5.58c0,0,0,0.87,0,0.87
			c0-0.01-0.16,5.37-0.16,5.37l-0.16,5.17c0,0,0.13-0.18,0.15-0.2c0,0.01-0.01,0.17-0.01,0.17c0,0.03-0.05,2.78-0.05,2.78
			c-0.04,2.3-0.2,4.19-0.3,4.99c-0.41,3.07-0.97,3.43-1.18,3.56c-0.19,0.11-0.83,0.37-1.32,0.5c-0.77,0.2-1.05,0.36-1.97,0.75
			c-2.92,1.24-3.74,3.35-4.52,5.26c-0.4,0.97-0.88,1.76-1.34,2.05c-1.51,0.96-1.51,0.96-2.09,1.05l-1.24,0.24
			c-2.79,0.62-4.2,3.37-4.35,3.67l-1.12,2.31l47.58-0.02l-0.24-2.09c-0.24-2.23-1.23-3.65-6-5.23c-2.03-0.67-2.45-1.16-3.14-1.98
			c-0.88-1.03-1.96-1.91-5.44-3.68c-1.33-0.68-2.53-3.57-3.28-7.25c-0.43-2.09-0.17-2.96-0.17-2.98l0-0.08l-0.25-7.18
			c0,0.05-0.03-5.77-0.03-5.77c0,0.02,0.07-5.69,0.09-8.01c1.67,1.06,3.63,1.2,3.89,1.22c0.01,0,6.09,0.25,6.09,0.25l0.11-0.01
			c1.25-0.11,4.92,2.05,7.56,4.14l0.1,0.08l0.1,0.06c1.89,1.08,4.26,2.16,5.8,0.93c1.01-0.81,1.05-2.14,0.77-3.04l0.06,0.25
			c-1.54-11.01-7.89-12.81-8.92-13.03c-0.36-0.1-0.59-0.2-0.73-0.27c0.06-0.08,0.13-0.16,0.19-0.22l-0.1,0.09
			c1.91-1.48,2.69-2.97,2.34-4.42c-0.53-2.16-3.3-2.77-3.85-2.87l-0.26-0.05l-0.26,0.04c-2.69,0.38-5.69-1.39-6.03-1.6
			c-2.89-2.21-3.67-3.93-3.68-4.9c0-0.27,0.05-0.49,0.14-0.63l-0.04,0.06l0.2-0.28c0,0,0.02-0.1,0.05-0.21
			c0.94,0.01,3.4,1.08,5.48,2.43l-0.18-0.14c2.36,2.06,4.96,1.12,6.01,0.33l0.41-0.31c0,0,0.13-0.4,0.16-0.51
			c0.16-0.35,1.12-1.3,2.02-2c1.3-0.99,1.66-1.96,1.65-2.74c0-0.25-0.05-0.48-0.11-0.69c-0.68-2.29-4.63-3.1-7.99-3.38
			c-0.52-0.31-2.35-1.41-2.35-1.41c-2.92-1.72-4.61-2.79-5.62-4.85c2.05,0.19,3.95,0.37,5.06,0.49c1.2,0.52,3.58,0.13,4.23-0.17
			c0.94-0.44,1.26-1.24,1.25-1.88c0-0.04,0-0.08,0-0.12c-0.12-1.56-2.07-4.03-5.47-5.55c-3.03-1.36-5.33-4.27-5.54-4.98
			c-0.18-0.62-0.25-1.29-0.25-1.94c-0.01-0.67,0.05-1.29,0.12-1.78c1.37,0.05,2.86,1.74,2.88,1.76l0.53,0.64l0.83-0.06
			c0.54-0.04,1.52,0.35,2.02,0.63l0.62,0.34l0.68-0.22c0.77-0.25,3.36,0.13,4.75,0.33c2.44,0.36,3.34,0.81,4.12-0.58l0.2-0.32
			l0.09-0.43c0.45-6.75-4.53-9.23-4.73-9.33l-0.53-0.26c0,0-0.08,0.02-0.12,0.03c-0.25-0.28-0.62-0.81-0.86-1.29
			c-1.22-2.2-3.54-2.59-5.25-2.46c-0.59-0.48-1.34-0.74-2.13-0.84c-0.21-0.23-0.28-0.3-0.46-0.51c-0.04-0.25-0.09-0.47-0.16-0.68
			c0.28,0.04,0.55,0.08,0.83,0.12c7.62,1.07,8.59,1.09,9.43,0.25c0.48-0.49,0.74-1.11,0.73-1.76c0-0.16-0.02-0.33-0.06-0.5
			c-0.59-2.71-6.7-5.53-11.73-7.43c-3.65-1.39-4.61-2.86-4.8-3.22c-0.02-0.14-0.15-0.34-0.15-0.45c0-0.32,0.12-0.47,0.22-0.56
			c0.39-0.33,1.36-0.23,2.32,0.08L63,34.56l0.19,0.02c3.15,0.24,4.6-1.4,4.96-2.41l0.19-0.53l-0.19-0.54
			c-0.69-2-2.26-3.38-3.69-4.08c0.16-0.21,1.05-0.57,0.98-2.1c-0.03-0.67-0.84-2.4-3.29-4.08c1.8-0.6,0.04-3.76-2.11-5.45
			c0,0-0.58-0.44-0.66-0.5c1.27-0.37,2-1.85,2.16-2.82c0.02-0.15,0.03-0.29,0.03-0.44c-0.01-0.95-0.58-1.76-1.44-1.95
			c-1.55-0.36-2.08-0.74-2.22-0.88c0.4-0.05,0.01-2.21-0.26-2.61c0.02-0.21,0.2-0.71,0.19-0.92c-0.01-0.68-0.1-1.12-0.57-1.62
			C56.85,3.2,56.13,3.17,55.65,3.17"/>
		<path class="st5" d="M59.58,113.84l-0.11,9.01l0.03,5.82l0.25,7.09c0,0-0.28,1.07,0.19,3.41c0.63,3.08,1.83,7.19,4.13,8.36
			c6.36,3.23,3.87,4.12,8.8,5.76c5.06,1.68,4.77,2.88,4.93,4.22H34.6c0,0,1.15-2.35,3.26-2.82c2.11-0.46,1.46,0.01,3.84-1.5
			c1.94-1.23,1.6-5.48,5.63-7.19c1.64-0.7,2.76-0.9,3.52-1.37c0.54-0.34,1.41-0.89,1.91-4.71c0.17-1.27,0.31-5.79,0.37-7.91
			l0.25-5.48l-0.23,0.31l0.17-5.42l0-0.92c0,0-0.16-4.56-0.97-6.23c-0.81-1.67-2.26-3.09-4.79-2.04c0,0-2.82,5.71-6.3,4.96
			c0,0-1.24,0-1.99,1.24c0,0-2.65,2.69-4.64,2.19c0,0-4,0.24-5.48,2.74c-0.14,0.24-0.56,0.99-0.56,0.99s-4.17,2.49-3.92-0.5
			c0,0,3.39-10.9,8.62-13.64l4.98-4.48c0,0,2.78-5.63,1.04-5.88l-6.44,1.33c0,0,0.24-3.82,6.46-4.82c0,0,2.42-0.96,3.92-2.71
			c0,0,3.73-2.48,2.49-4.48c0,0-1.24-0.75-2.98,0.74c0,0-13.57,5.57-13.69,3.73c-0.07-1.05,3.98-1,4.48-2.24c0,0,0-2.73-1.74-1.49
			c0,0-1.49-1,0.5-1.49c0,0,2.24-1,2.74-1.99c0,0,1.49-1.49,2.74-1c0,0,2.74,0,2.98-1.49h3.98c0,0,1.48-4.41,0.48-5.91l-1.99-0.5
			c0,0-1.24-1.49-2.98,0l-5.97,0.5c0,0-0.5-2.74,7.46-4.73c0,0,2.99-1,3.73-3.48c0,0,4.97-4.98,3.23-6.47c0,0-0.25-2.49-4.73-0.75
			c0,0-11.7,2.74-13.18,2.49c0,0-2.74-3.24,2.98-5.72c0,0,4.73-1.99,5.97-4.48c0,0,8.99-4.31,9.98-4.31c0,0,3.23-1.74-1.49-3.48
			c0,0-1.99-2.74-4.73,0c0,0-6.47,4.23-8.46,3.23c0,0-0.99-0.99,1-2.98c0,0,2.24-5.73,9.2-6.72c0,0,8.02-2.43,6.48-8.59
			c0,0-1.84-1.09-6.56,1.74c0,0-5.28-1.75,0.71-4.41l1.79-2.43c0,0-1.83,1.29-2.1-0.06c-0.14-0.68-0.19-1.64,1.7-2.58
			c2.43-1.2,1.86-2.29,4.74-2.42c0,0,0.39-0.56,0.14-1.19c-2.77-0.33-4.09-3.82,0.75-5.94l0.49-2.05l-2.09,0.19
			c0,0-1.75-3.16,1.61-3.1c0,0,1.56-1.55,2.1-3.81c0,0-0.86-1.33,0.63-1.33c0,0,1.01-0.44,0.51,1.79c0,0,0.6,1.28,0.6,2.52
			c0,0-0.62,1.43,3.03,2.26c0.39,0.09,0.4,2.69-2.09,2.44c0,0-0.81,1.63,1.54,3.48c0,0,3.89,3.61,0.36,3.81c0,0,5.42,3.46,3.86,5.02
			c-0.68,0.68-2.78-0.27-2.98,0.12c-0.28,0.57-0.17,0.85,0.57,1.16c0.62,0.26,4.52,1.26,5.59,4.35c0,0-0.56,1.56-3.33,1.35
			c0,0-5.22-1.92-4.48,2.81c0,0,0.6,2.39,5.82,4.39c0,0,12.72,4.8,10.48,7.05c-0.6,0.6-11.22-1.33-13.22-1.33l-0.25,1.49
			c0,0,2.99-0.75,2.99,1.99l1.22,1.32c0,0,1.99,0,2.24,1c0,0,3.23-0.75,4.48,1.5c0,0,1.24,2.49,2.24,2.24c0,0,4.16,2.04,3.78,7.79
			c-0.26,0.42-6.07-1.08-8-0.44c0,0-1.64-0.94-2.95-0.83c0,0-2.79-3.38-5.52-2.04c0,0-0.72,3.02,0,5.48c0.39,1.34,3.14,4.53,6.42,6
			c3.13,1.4,4.47,3.49,4.52,4.2c0.07,0.96-2.69,0.65-3.11,0.56c-0.42-0.1-8.08-0.81-8.08-0.81s0.03,0.71,0.44,1.78
			c1.45,3.8,4.43,4.83,9.28,7.86c0,0,10.2,0.74,5.97,3.98c0,0-2.32,1.81-2.57,2.8c0,0-1.99,1.5-3.98-0.25c0,0-7.39-4.79-7.88-1.55
			c0,0-2.27,3.03,3.95,7.75c0,0,3.69,2.37,7.17,1.87c0,0,5.29,0.96,0.81,4.44c0,0-2.48,2.24,1.25,3.23c0,0,6.22,1,7.71,11.7
			c0,0,0.99,3.24-4.24,0.25c0,0-5.97-4.73-8.71-4.48l-5.97-0.25c0,0-2.41-0.12-3.78-1.48C61.37,112.96,59.74,111.68,59.58,113.84"/>
	</g>
	<g>
		<path class="st1" d="M106.33,158.8c-0.5-0.5-1.09-0.74-1.79-0.74c-0.67,0-1.25,0.23-1.74,0.69c-0.53,0.49-0.79,1.11-0.79,1.85
			c0,0.71,0.25,1.31,0.73,1.8c0.49,0.49,1.09,0.73,1.8,0.73c0.69,0,1.28-0.24,1.78-0.72c0.5-0.49,0.76-1.1,0.76-1.82
			C107.08,159.9,106.83,159.3,106.33,158.8z"/>
		<path class="st6" d="M106.02,159.13c0.41,0.41,0.61,0.91,0.61,1.47c0,0.58-0.21,1.08-0.61,1.49c-0.41,0.41-0.9,0.62-1.48,0.62
			c-0.58,0-1.07-0.2-1.48-0.61c-0.41-0.41-0.61-0.91-0.61-1.5c0-0.57,0.2-1.05,0.61-1.47c0.41-0.42,0.91-0.63,1.49-0.63
			C105.12,158.49,105.61,158.71,106.02,159.13z"/>
		<path class="st7" d="M104.85,160.4c-0.09,0.07-0.23,0.1-0.4,0.1h-0.29v-0.81h0.18c0.18,0,0.32,0.02,0.42,0.06
			c0.15,0.06,0.23,0.17,0.23,0.32C105,160.22,104.95,160.33,104.85,160.4z M104.17,161.01h0.16l0.16,0.01
			c0.11,0.01,0.2,0.02,0.25,0.04c0.1,0.04,0.17,0.11,0.21,0.21c0.02,0.06,0.04,0.18,0.04,0.34c0.01,0.17,0.02,0.3,0.04,0.39h0.7
			l-0.03-0.08c-0.01-0.03-0.01-0.05-0.02-0.08c0-0.03,0-0.05,0-0.08v-0.25c0-0.29-0.08-0.5-0.25-0.63c-0.09-0.07-0.22-0.13-0.4-0.16
			c0.19-0.02,0.35-0.08,0.49-0.19c0.13-0.1,0.2-0.28,0.2-0.51c0-0.31-0.13-0.53-0.38-0.67c-0.15-0.08-0.33-0.13-0.55-0.14
			c-0.04,0-0.23,0-0.58-0.01c-0.35,0-0.61,0-0.78,0v2.81h0.73V161.01z"/>
	</g>
</g>
</svg>
