<svg xmlns="http://www.w3.org/2000/svg" width="15.591" height="21.625" viewBox="0 0 15.591 21.625">
  <g id="Icon_ionic-ios-notifications" data-name="Icon ionic-ios-notifications" transform="translate(-6.246 -3.43)">
    <path id="Path_52052" data-name="Path 52052" d="M19.029,32.063c2.855,0,4.416-1.547,4.416-3.727H14.6C14.6,30.516,16.165,32.063,19.029,32.063Z" transform="translate(-4.99 -7.508)" fill="none" stroke="#003157" stroke-width="1"/>
    <path id="Path_52053" data-name="Path 52053" d="M21.137,17.984c-.7-.963-2.08-1.527-2.08-5.839,0-4.425-1.875-6.2-3.623-6.631-.164-.043-.282-.1-.282-.28V5.1a1.112,1.112,0,1,0-2.221,0v.138c0,.175-.118.237-.282.28C10.9,5.946,9.025,7.72,9.025,12.145c0,4.311-1.379,4.871-2.08,5.839a.945.945,0,0,0,.724,1.508H20.418A.945.945,0,0,0,21.137,17.984Z" transform="translate(0 0)" fill="none" stroke="#003157" stroke-width="1"/>
  </g>
</svg>
