<svg xmlns="http://www.w3.org/2000/svg" xmlns:xlink="http://www.w3.org/1999/xlink" width="27.613" height="27.613" viewBox="0 0 27.613 27.613">
  <defs>
    <clipPath id="clip-path">
      <rect id="Rectangle_773" data-name="Rectangle 773" width="27.613" height="27.613" transform="translate(0)"/>
    </clipPath>
  </defs>
  <g id="Group_23839" data-name="Group 23839" transform="translate(-41.378 -16)">
    <g id="brandico_facebook-rect" transform="translate(41.378 16)" clip-path="url(#clip-path)">
      <path id="Path_1071" data-name="Path 1071" d="M4.971,0A4.96,4.96,0,0,0,0,4.971V22.253a4.96,4.96,0,0,0,4.971,4.971h9.367V16.581H11.523V12.749h2.814V9.476c0-2.572,1.663-4.933,5.493-4.933a23.234,23.234,0,0,1,2.7.149l-.09,3.578s-1.17-.011-2.446-.011c-1.381,0-1.6.636-1.6,1.693v2.8h4.158l-.181,3.832H18.39V27.224h3.863a4.96,4.96,0,0,0,4.971-4.971V4.971A4.96,4.96,0,0,0,22.253,0H4.971Z" transform="translate(-0.005 0.194)"/>
    </g>
  </g>
</svg>
