<svg xmlns="http://www.w3.org/2000/svg" width="36.814" height="36.814" viewBox="0 0 36.814 36.814">
  <path id="Icon_awesome-headset" data-name="Icon awesome-headset" d="M13.805,14.956a2.3,2.3,0,0,0-2.3-2.3h-1.15a4.6,4.6,0,0,0-4.6,4.6v3.451a4.6,4.6,0,0,0,4.6,4.6H11.5a2.3,2.3,0,0,0,2.3-2.3ZM26.46,25.31a4.6,4.6,0,0,0,4.6-4.6V17.257a4.6,4.6,0,0,0-4.6-4.6H25.31a2.3,2.3,0,0,0-2.3,2.3v8.053a2.3,2.3,0,0,0,2.3,2.3ZM18.407,0C8.138,0,.329,8.544,0,18.407v1.15a1.15,1.15,0,0,0,1.15,1.15H2.3a1.15,1.15,0,0,0,1.15-1.15v-1.15a14.956,14.956,0,0,1,29.912,0h-.009c.006.175.009,11.916.009,11.916a3.04,3.04,0,0,1-3.04,3.04H23.009a3.451,3.451,0,0,0-3.451-3.451h-2.3a3.451,3.451,0,0,0,0,6.9H30.323a6.491,6.491,0,0,0,6.491-6.491V18.407C36.485,8.544,28.676,0,18.407,0Z" fill="#003157"/>
</svg>
