<svg xmlns="http://www.w3.org/2000/svg" width="57.854" height="57.854" viewBox="0 0 57.854 57.854">
  <path id="Icon_awesome-plus-circle" data-name="Icon awesome-plus-circle" d="M29.489.563A28.926,28.926,0,1,0,58.415,29.489,28.921,28.921,0,0,0,29.489.563Zm16.8,32.192a1.4,1.4,0,0,1-1.4,1.4H34.154V44.885a1.4,1.4,0,0,1-1.4,1.4H26.223a1.4,1.4,0,0,1-1.4-1.4V34.154H14.093a1.4,1.4,0,0,1-1.4-1.4V26.223a1.4,1.4,0,0,1,1.4-1.4H24.823V14.093a1.4,1.4,0,0,1,1.4-1.4h6.532a1.4,1.4,0,0,1,1.4,1.4V24.823H44.885a1.4,1.4,0,0,1,1.4,1.4Z" transform="translate(-0.563 -0.563)" fill="#003157"/>
</svg>
