<svg id="Component_54_1" data-name="Component 54 – 1" xmlns="http://www.w3.org/2000/svg" width="21.264" height="21.264" viewBox="0 0 21.264 21.264">
  <path id="Icon_awesome-question-circle" data-name="Icon awesome-question-circle" d="M21.826,11.194A10.632,10.632,0,1,1,11.194.563,10.631,10.631,0,0,1,21.826,11.194ZM11.48,4.078a5.553,5.553,0,0,0-5,2.733.515.515,0,0,0,.116.7L8.087,8.636A.514.514,0,0,0,8.8,8.545c.766-.971,1.291-1.535,2.457-1.535.876,0,1.959.564,1.959,1.413,0,.642-.53.972-1.395,1.457-1.008.565-2.343,1.269-2.343,3.029v.171a.514.514,0,0,0,.514.514h2.4a.514.514,0,0,0,.514-.514v-.057c0-1.22,3.566-1.271,3.566-4.573C16.475,5.964,13.9,4.078,11.48,4.078ZM11.194,14.71a1.972,1.972,0,1,0,1.972,1.972A1.974,1.974,0,0,0,11.194,14.71Z" transform="translate(-0.563 -0.563)" fill="#7e7e7e"/>
</svg>
