<svg xmlns="http://www.w3.org/2000/svg" width="235.76" height="184.43" viewBox="0 0 235.76 184.43">
  <g id="Group_26525" data-name="Group 26525" transform="translate(-842.12 -256.617)">
    <path id="Path_57727" data-name="Path 57727" d="M503.989,260.749c44.131-28.55,73.858-67.7,74.336-96.237,11.208,29.2-23.6,78.852-78.06,111.3.264-.826.5-1.671.706-2.534l3.018-12.528Z" transform="translate(497.457 111.741)" fill="#003157" fill-rule="evenodd"/>
    <path id="Path_57728" data-name="Path 57728" d="M273.865,315.243H377.11a40.726,40.726,0,0,0,40.644-40.623V171.433a42.336,42.336,0,0,0-.573-6.878c19.7-15.89,37.985-24.751,51.182-21.565C409.478,118.61,336.676,247.89,322.7,273.361L271.32,196.852l47.968,28.12c28.919-37.093,60.2-65.372,87.2-81.551a40.613,40.613,0,0,0-29.381-12.607H273.865a40.721,40.721,0,0,0-40.635,40.62V274.62a40.723,40.723,0,0,0,40.635,40.623Z" transform="translate(608.89 125.804)" fill="#45a6e6" fill-rule="evenodd"/>
  </g>
</svg>
