<svg xmlns="http://www.w3.org/2000/svg" width="22.999" height="18.599" viewBox="0 0 22.999 18.599">
  <path id="Icon_awesome-shipping-fast" data-name="Icon awesome-shipping-fast" d="M21.449,12.1H20.9V8.384a1.65,1.65,0,0,0-.485-1.165L16.98,3.784A1.65,1.65,0,0,0,15.815,3.3H14.3V1.65A1.65,1.65,0,0,0,12.649,0H3.85A1.65,1.65,0,0,0,2.2,1.65V3.3H.275A.276.276,0,0,0,0,3.575v.55A.276.276,0,0,0,.275,4.4H9.624a.276.276,0,0,1,.275.275v.55a.276.276,0,0,1-.275.275H1.375a.276.276,0,0,0-.275.275v.55a.276.276,0,0,0,.275.275h7.15a.276.276,0,0,1,.275.275v.55a.276.276,0,0,1-.275.275H.275A.276.276,0,0,0,0,7.975v.55A.276.276,0,0,0,.275,8.8h7.15a.276.276,0,0,1,.275.275v.55a.276.276,0,0,1-.275.275H2.2v4.4a3.3,3.3,0,1,0,6.6,0h4.4a3.3,3.3,0,0,0,6.6,0h1.65a.552.552,0,0,0,.55-.55v-1.1A.552.552,0,0,0,21.449,12.1ZM5.5,15.949A1.65,1.65,0,1,1,7.15,14.3,1.65,1.65,0,0,1,5.5,15.949Zm11,0a1.65,1.65,0,1,1,1.65-1.65A1.65,1.65,0,0,1,16.5,15.949Zm2.75-7.15H14.3V4.95h1.516l3.434,3.434Z" transform="translate(0.5 0.5)" fill="none" stroke="#003157" stroke-width="1"/>
</svg>
