<svg xmlns="http://www.w3.org/2000/svg" width="26.775" height="26.775" viewBox="0 0 26.775 26.775">
  <g id="Group_23838" data-name="Group 23838" transform="translate(0.388 -92.535)">
    <path id="Vector_1_" data-name="Vector (1)" d="M22.313,8.4a7.755,7.755,0,0,1-2.109.593,3.559,3.559,0,0,0,1.621-2.04,7.28,7.28,0,0,1-2.336.889,3.479,3.479,0,0,0-2.667-1.151,3.66,3.66,0,0,0-3.661,3.661,3.36,3.36,0,0,0,.087.837A10.364,10.364,0,0,1,9.03,10.058a10.377,10.377,0,0,1-3.347-2.7A3.626,3.626,0,0,0,5.177,9.2a3.453,3.453,0,0,0,1.586,3.051A4.318,4.318,0,0,1,5.02,11.8v.035a3.481,3.481,0,0,0,.872,2.327,3.661,3.661,0,0,0,2.144,1.264,3.4,3.4,0,0,1-.889.139,4.909,4.909,0,0,1-.68-.07,3.721,3.721,0,0,0,1.3,1.813,3.479,3.479,0,0,0,2.118.732,7.233,7.233,0,0,1-4.55,1.569,7.027,7.027,0,0,1-.872-.052A10.269,10.269,0,0,0,10.076,21.2a10.665,10.665,0,0,0,3.661-.619,9.429,9.429,0,0,0,2.929-1.656,10.994,10.994,0,0,0,2.1-2.388A10.549,10.549,0,0,0,20.5,10.773a4.629,4.629,0,0,0-.017-.471A7.115,7.115,0,0,0,22.313,8.4ZM26.775,5.02V21.755a5.029,5.029,0,0,1-5.02,5.02H5.02A4.836,4.836,0,0,1,1.473,25.3,4.835,4.835,0,0,1,0,21.755V5.02A4.835,4.835,0,0,1,1.473,1.473,4.835,4.835,0,0,1,5.02,0H21.755A4.835,4.835,0,0,1,25.3,1.473,4.836,4.836,0,0,1,26.775,5.02Z" transform="translate(-0.388 92.535)"/>
  </g>
</svg>
