<svg xmlns="http://www.w3.org/2000/svg" xmlns:xlink="http://www.w3.org/1999/xlink" width="46" height="46" viewBox="0 0 46 46">
  <defs>
    <clipPath id="clip-path">
      <circle id="Ellipse_150" data-name="Ellipse 150" cx="23" cy="23" r="23" transform="translate(-8139.315 5350.685)" fill="#fff" stroke="#707070" stroke-width="1"/>
    </clipPath>
  </defs>
  <g id="Mask_Group_16" data-name="Mask Group 16" transform="translate(8139.315 -5350.685)" clip-path="url(#clip-path)">
    <g id="Group_22951" data-name="Group 22951" transform="translate(-8146.579 5351.087)">
      <g id="Group_22837" data-name="Group 22837">
        <g id="Group_22830" data-name="Group 22830">
          <g id="Group_22829" data-name="Group 22829">
            <g id="Group_22822" data-name="Group 22822" transform="translate(0 13.702)">
              <rect id="Rectangle_6505" data-name="Rectangle 6505" width="72.039" height="3.437" fill="#db2e2e"/>
            </g>
            <g id="Group_22823" data-name="Group 22823" transform="translate(0 6.849)">
              <rect id="Rectangle_6506" data-name="Rectangle 6506" width="72.039" height="3.433" fill="#db2e2e"/>
            </g>
            <g id="Group_22824" data-name="Group 22824">
              <rect id="Rectangle_6507" data-name="Rectangle 6507" width="72.039" height="3.433" fill="#db2e2e"/>
            </g>
            <g id="Group_22825" data-name="Group 22825" transform="translate(0 20.559)">
              <rect id="Rectangle_6508" data-name="Rectangle 6508" width="72.039" height="3.437" fill="#db2e2e"/>
            </g>
            <g id="Group_22826" data-name="Group 22826" transform="translate(0 27.404)">
              <rect id="Rectangle_6509" data-name="Rectangle 6509" width="72.039" height="3.437" fill="#db2e2e"/>
            </g>
            <g id="Group_22827" data-name="Group 22827" transform="translate(0 34.261)">
              <rect id="Rectangle_6510" data-name="Rectangle 6510" width="72.039" height="3.433" fill="#db2e2e"/>
            </g>
            <g id="Group_22828" data-name="Group 22828" transform="translate(0 41.102)">
              <rect id="Rectangle_6511" data-name="Rectangle 6511" width="72.039" height="3.433" fill="#db2e2e"/>
            </g>
          </g>
        </g>
        <g id="Group_22831" data-name="Group 22831" transform="translate(0 10.277)">
          <rect id="Rectangle_6512" data-name="Rectangle 6512" width="72.039" height="3.433" fill="#fff"/>
        </g>
        <g id="Group_22832" data-name="Group 22832" transform="translate(0 3.428)">
          <rect id="Rectangle_6513" data-name="Rectangle 6513" width="72.039" height="3.433" fill="#fff"/>
        </g>
        <g id="Group_22833" data-name="Group 22833" transform="translate(0 17.135)">
          <rect id="Rectangle_6514" data-name="Rectangle 6514" width="72.039" height="3.433" fill="#fff"/>
        </g>
        <g id="Group_22834" data-name="Group 22834" transform="translate(0 23.976)">
          <rect id="Rectangle_6515" data-name="Rectangle 6515" width="72.039" height="3.433" fill="#fff"/>
        </g>
        <g id="Group_22835" data-name="Group 22835" transform="translate(0 30.833)">
          <rect id="Rectangle_6516" data-name="Rectangle 6516" width="72.039" height="3.433" fill="#fff"/>
        </g>
        <g id="Group_22836" data-name="Group 22836" transform="translate(0 37.686)">
          <rect id="Rectangle_6517" data-name="Rectangle 6517" width="72.039" height="3.433" fill="#fff"/>
        </g>
      </g>
      <g id="Group_22838" data-name="Group 22838" transform="translate(0 0.111)">
        <rect id="Rectangle_6518" data-name="Rectangle 6518" width="26.938" height="20.74" fill="#2e4593"/>
      </g>
      <g id="Group_22950" data-name="Group 22950" transform="translate(1.111 0.862)">
        <g id="Group_22847" data-name="Group 22847" transform="translate(19.91 2.082)">
          <g id="Group_22840" data-name="Group 22840">
            <g id="Group_22839" data-name="Group 22839">
              <path id="Path_48972" data-name="Path 48972" d="M119.676,261.1l.285.8-.682-.5,0,0,0,0-.677.5.283-.8.008,0h0l-.7-.472h.844l.232-.809.261.809h.856l-.706.472h0Z" transform="translate(-118.184 -259.81)" fill="#fff"/>
            </g>
          </g>
          <g id="Group_22842" data-name="Group 22842" transform="translate(0 4.188)">
            <g id="Group_22841" data-name="Group 22841">
              <path id="Path_48973" data-name="Path 48973" d="M119.676,263.092l.285.8-.682-.5,0,0,0,0-.677.5.283-.8.008,0h0l-.7-.476h.844l.232-.809.261.809v0l0,0h.854l-.706.476h0Z" transform="translate(-118.184 -261.803)" fill="#fff"/>
            </g>
          </g>
          <g id="Group_22844" data-name="Group 22844" transform="translate(0 8.381)">
            <g id="Group_22843" data-name="Group 22843">
              <path id="Path_48974" data-name="Path 48974" d="M119.676,265.086l.285.8-.682-.5,0,0,0,0-.677.5.283-.8.008-.008h0l-.7-.472h.844l.232-.809.261.809h.856l-.706.472h0Z" transform="translate(-118.184 -263.797)" fill="#fff"/>
            </g>
          </g>
          <g id="Group_22846" data-name="Group 22846" transform="translate(0 12.569)">
            <g id="Group_22845" data-name="Group 22845">
              <path id="Path_48975" data-name="Path 48975" d="M119.676,267.078l.285.8-.682-.5,0,0,0,0-.677.5.283-.8.008,0h0l-.7-.476h.844l.232-.809.261.809v0l0,0h.854l-.706.476h0Z" transform="translate(-118.184 -265.789)" fill="#fff"/>
            </g>
          </g>
        </g>
        <g id="Group_22856" data-name="Group 22856" transform="translate(15.455 2.082)">
          <g id="Group_22849" data-name="Group 22849">
            <g id="Group_22848" data-name="Group 22848">
              <path id="Path_48976" data-name="Path 48976" d="M117.557,261.1l.285.8-.682-.5,0,0,0,0-.682.5.287-.8.006,0h0l-.7-.472h.844l.232-.809.261.809h.852l-.7.472h0Z" transform="translate(-116.065 -259.81)" fill="#fff"/>
            </g>
          </g>
          <g id="Group_22851" data-name="Group 22851" transform="translate(0 4.188)">
            <g id="Group_22850" data-name="Group 22850">
              <path id="Path_48977" data-name="Path 48977" d="M117.557,263.092l.285.8-.682-.5,0,0,0,0-.682.5.287-.8.006,0h0l-.7-.476h.844l.232-.809.261.809,0,0,0,0h.85l-.7.476h0Z" transform="translate(-116.065 -261.803)" fill="#fff"/>
            </g>
          </g>
          <g id="Group_22853" data-name="Group 22853" transform="translate(0 8.381)">
            <g id="Group_22852" data-name="Group 22852">
              <path id="Path_48978" data-name="Path 48978" d="M117.557,265.086l.285.8-.682-.5,0,0,0,0-.682.5.287-.8.006-.008h0l-.7-.472h.844l.232-.809.261.809h.852l-.7.472h0Z" transform="translate(-116.065 -263.797)" fill="#fff"/>
            </g>
          </g>
          <g id="Group_22855" data-name="Group 22855" transform="translate(0 12.569)">
            <g id="Group_22854" data-name="Group 22854">
              <path id="Path_48979" data-name="Path 48979" d="M117.557,267.078l.285.8-.682-.5,0,0,0,0-.682.5.287-.8.006,0h0l-.7-.476h.844l.232-.809.261.809,0,0,0,0h.85l-.7.476h0Z" transform="translate(-116.065 -265.789)" fill="#fff"/>
            </g>
          </g>
        </g>
        <g id="Group_22865" data-name="Group 22865" transform="translate(10.996 2.082)">
          <g id="Group_22858" data-name="Group 22858">
            <g id="Group_22857" data-name="Group 22857">
              <path id="Path_48980" data-name="Path 48980" d="M115.438,261.1l.287.8-.684-.5,0,0v0l-.682.5.283-.8.01,0h-.006l-.7-.472h.846l.23-.809.263.809h.854l-.7.472h0Z" transform="translate(-113.943 -259.81)" fill="#fff"/>
            </g>
          </g>
          <g id="Group_22860" data-name="Group 22860" transform="translate(0 4.188)">
            <g id="Group_22859" data-name="Group 22859">
              <path id="Path_48981" data-name="Path 48981" d="M115.438,263.092l.287.8-.684-.5,0,0v0l-.682.5.283-.8.01,0h-.006l-.7-.476h.846l.23-.809.263.809,0,0,0,0h.852l-.7.476h0Z" transform="translate(-113.943 -261.803)" fill="#fff"/>
            </g>
          </g>
          <g id="Group_22862" data-name="Group 22862" transform="translate(0 8.381)">
            <g id="Group_22861" data-name="Group 22861">
              <path id="Path_48982" data-name="Path 48982" d="M115.438,265.086l.287.8-.684-.5,0,0v0l-.682.5.283-.8.01-.008h-.006l-.7-.472h.846l.23-.809.263.809h.854l-.7.472h0Z" transform="translate(-113.943 -263.797)" fill="#fff"/>
            </g>
          </g>
          <g id="Group_22864" data-name="Group 22864" transform="translate(0 12.569)">
            <g id="Group_22863" data-name="Group 22863">
              <path id="Path_48983" data-name="Path 48983" d="M115.438,267.078l.287.8-.684-.5,0,0v0l-.682.5.283-.8.01,0h-.006l-.7-.476h.846l.23-.809.263.809,0,0,0,0h.852l-.7.476h0Z" transform="translate(-113.943 -265.789)" fill="#fff"/>
            </g>
          </g>
        </g>
        <g id="Group_22874" data-name="Group 22874" transform="translate(6.615 2.082)">
          <g id="Group_22867" data-name="Group 22867">
            <g id="Group_22866" data-name="Group 22866">
              <path id="Path_48984" data-name="Path 48984" d="M113.354,261.1l.283.8-.682-.5v0l-.684.5.285-.8.008,0h0l-.7-.472h.846l.23-.809.263.809h.852l-.7.472h0Z" transform="translate(-111.859 -259.81)" fill="#fff"/>
            </g>
          </g>
          <g id="Group_22869" data-name="Group 22869" transform="translate(0 4.188)">
            <g id="Group_22868" data-name="Group 22868">
              <path id="Path_48985" data-name="Path 48985" d="M113.354,263.092l.283.8-.682-.5v0l-.684.5.285-.8.008,0h0l-.7-.476h.846l.23-.809.263.809,0,0,0,0h.852l-.7.476h0Z" transform="translate(-111.859 -261.803)" fill="#fff"/>
            </g>
          </g>
          <g id="Group_22871" data-name="Group 22871" transform="translate(0 8.381)">
            <g id="Group_22870" data-name="Group 22870">
              <path id="Path_48986" data-name="Path 48986" d="M113.354,265.086l.283.8-.682-.5v0l-.684.5.285-.8.008-.008h0l-.7-.472h.846l.23-.809.263.809h.852l-.7.472h0Z" transform="translate(-111.859 -263.797)" fill="#fff"/>
            </g>
          </g>
          <g id="Group_22873" data-name="Group 22873" transform="translate(0 12.569)">
            <g id="Group_22872" data-name="Group 22872">
              <path id="Path_48987" data-name="Path 48987" d="M113.354,267.078l.283.8-.682-.5v0l-.684.5.285-.8.008,0h0l-.7-.476h.846l.23-.809.263.809,0,0,0,0h.852l-.7.476h0Z" transform="translate(-111.859 -265.789)" fill="#fff"/>
            </g>
          </g>
        </g>
        <g id="Group_22883" data-name="Group 22883" transform="translate(2.23 2.082)">
          <g id="Group_22876" data-name="Group 22876">
            <g id="Group_22875" data-name="Group 22875">
              <path id="Path_48988" data-name="Path 48988" d="M111.266,261.1l.285.8-.682-.5,0,0v0l-.679.5.283-.8.008,0h0l-.7-.472h.846l.23-.809.263.809h.854l-.706.472h0Z" transform="translate(-109.773 -259.81)" fill="#fff"/>
            </g>
          </g>
          <g id="Group_22878" data-name="Group 22878" transform="translate(0 4.188)">
            <g id="Group_22877" data-name="Group 22877">
              <path id="Path_48989" data-name="Path 48989" d="M111.266,263.092l.285.8-.682-.5,0,0v0l-.679.5.283-.8.008,0h0l-.7-.476h.846l.23-.809.263.809v0h.854l-.706.476h0Z" transform="translate(-109.773 -261.803)" fill="#fff"/>
            </g>
          </g>
          <g id="Group_22880" data-name="Group 22880" transform="translate(0 8.381)">
            <g id="Group_22879" data-name="Group 22879">
              <path id="Path_48990" data-name="Path 48990" d="M111.266,265.086l.285.8-.682-.5,0,0v0l-.679.5.283-.8.008-.008h0l-.7-.472h.846l.23-.809.263.809h.854l-.706.472h0Z" transform="translate(-109.773 -263.797)" fill="#fff"/>
            </g>
          </g>
          <g id="Group_22882" data-name="Group 22882" transform="translate(0 12.569)">
            <g id="Group_22881" data-name="Group 22881">
              <path id="Path_48991" data-name="Path 48991" d="M111.266,267.078l.285.8-.682-.5,0,0v0l-.679.5.283-.8.008,0h0l-.7-.476h.846l.23-.809.263.809v0h.854l-.706.476h0Z" transform="translate(-109.773 -265.789)" fill="#fff"/>
            </g>
          </g>
        </g>
        <g id="Group_22894" data-name="Group 22894" transform="translate(22.07)">
          <g id="Group_22885" data-name="Group 22885" transform="translate(0 4.172)">
            <g id="Group_22884" data-name="Group 22884">
              <path id="Path_48992" data-name="Path 48992" d="M120.706,262.094l.283.8-.682-.5v0l-.682.5.283-.8.01-.008h-.006l-.7-.472h.846l.23-.809.261.809v0l0,0h.854l-.7.472h0Z" transform="translate(-119.211 -260.805)" fill="#fff"/>
            </g>
          </g>
          <g id="Group_22887" data-name="Group 22887" transform="translate(0 8.364)">
            <g id="Group_22886" data-name="Group 22886">
              <path id="Path_48993" data-name="Path 48993" d="M120.706,264.088l.283.8-.682-.505h0l-.682.505.283-.8.01-.008h-.006l-.7-.472h.846l.23-.809.261.809h.856l-.7.472h0Z" transform="translate(-119.211 -262.799)" fill="#fff"/>
            </g>
          </g>
          <g id="Group_22889" data-name="Group 22889" transform="translate(0 12.56)">
            <g id="Group_22888" data-name="Group 22888">
              <path id="Path_48994" data-name="Path 48994" d="M120.706,266.08l.283.8-.682-.505v0l-.682.505.283-.8.01,0h-.006l-.7-.476.846,0,.23-.809.261.8v0h0l.854,0-.7.476h0Z" transform="translate(-119.211 -264.795)" fill="#fff"/>
            </g>
          </g>
          <g id="Group_22891" data-name="Group 22891" transform="translate(0 16.757)">
            <g id="Group_22890" data-name="Group 22890">
              <path id="Path_48995" data-name="Path 48995" d="M120.706,268.076l.283.8-.682-.505v0l-.682.505.283-.8.01,0h-.006l-.7-.472h.846l.23-.809.261.809v0l0,0h.854l-.7.472h0Z" transform="translate(-119.211 -266.791)" fill="#fff"/>
            </g>
          </g>
          <g id="Group_22893" data-name="Group 22893">
            <g id="Group_22892" data-name="Group 22892">
              <path id="Path_48996" data-name="Path 48996" d="M120.706,260.11l.283.8-.682-.5v0l-.682.5.283-.8.01-.008h-.006l-.7-.472h.846l.23-.809.261.809v0l0,0h.854l-.7.472h0Z" transform="translate(-119.211 -258.82)" fill="#fff"/>
            </g>
          </g>
        </g>
        <g id="Group_22905" data-name="Group 22905" transform="translate(17.714)">
          <g id="Group_22896" data-name="Group 22896" transform="translate(0 4.172)">
            <g id="Group_22895" data-name="Group 22895">
              <path id="Path_48997" data-name="Path 48997" d="M118.631,262.094l.286.8-.682-.5v0l-.682.5.283-.8.008-.008h0l-.7-.472h.846l.23-.809.261.809v0l0,0h.852l-.7.472h0Z" transform="translate(-117.139 -260.805)" fill="#fff"/>
            </g>
          </g>
          <g id="Group_22898" data-name="Group 22898" transform="translate(0 8.364)">
            <g id="Group_22897" data-name="Group 22897">
              <path id="Path_48998" data-name="Path 48998" d="M118.631,264.088l.286.8-.682-.505h0l-.682.505.283-.8.008-.008h0l-.7-.472h.846l.23-.809.261.809h.854l-.7.472h0Z" transform="translate(-117.139 -262.799)" fill="#fff"/>
            </g>
          </g>
          <g id="Group_22900" data-name="Group 22900" transform="translate(0 12.56)">
            <g id="Group_22899" data-name="Group 22899">
              <path id="Path_48999" data-name="Path 48999" d="M118.631,266.08l.286.8-.682-.505v0l-.682.505.283-.8.008,0h0l-.7-.476.846,0,.23-.809.261.8v0h0l.852,0-.7.476h0Z" transform="translate(-117.139 -264.795)" fill="#fff"/>
            </g>
          </g>
          <g id="Group_22902" data-name="Group 22902" transform="translate(0 16.757)">
            <g id="Group_22901" data-name="Group 22901">
              <path id="Path_49000" data-name="Path 49000" d="M118.631,268.076l.286.8-.682-.505v0l-.682.505.283-.8.008,0h0l-.7-.472h.846l.23-.809.261.809v0l0,0h.852l-.7.472h0Z" transform="translate(-117.139 -266.791)" fill="#fff"/>
            </g>
          </g>
          <g id="Group_22904" data-name="Group 22904">
            <g id="Group_22903" data-name="Group 22903">
              <path id="Path_49001" data-name="Path 49001" d="M118.631,260.11l.286.8-.682-.5v0l-.682.5.283-.8.008-.008h0l-.7-.472h.846l.23-.809.261.809v0l0,0h.852l-.7.472h0Z" transform="translate(-117.139 -258.82)" fill="#fff"/>
            </g>
          </g>
        </g>
        <g id="Group_22916" data-name="Group 22916" transform="translate(13.185)">
          <g id="Group_22907" data-name="Group 22907" transform="translate(0 4.172)">
            <g id="Group_22906" data-name="Group 22906">
              <path id="Path_49002" data-name="Path 49002" d="M116.475,262.094l.287.8-.684-.5,0,0v0l-.679.5.285-.8.006-.008h0l-.7-.472h.842l.234-.809.259.809v0l0,0h.85l-.7.472h0Z" transform="translate(-114.984 -260.805)" fill="#fff"/>
            </g>
          </g>
          <g id="Group_22909" data-name="Group 22909" transform="translate(0 8.364)">
            <g id="Group_22908" data-name="Group 22908">
              <path id="Path_49003" data-name="Path 49003" d="M116.475,264.088l.287.8-.684-.505h0l-.679.505.285-.8.006-.008h0l-.7-.472h.842l.234-.809.259.809h.854l-.7.472h0Z" transform="translate(-114.984 -262.799)" fill="#fff"/>
            </g>
          </g>
          <g id="Group_22911" data-name="Group 22911" transform="translate(0 12.56)">
            <g id="Group_22910" data-name="Group 22910">
              <path id="Path_49004" data-name="Path 49004" d="M116.475,266.08l.287.8-.684-.505,0,0v0l-.679.505.285-.8.006,0h0l-.7-.476.842,0,.234-.809.259.8v0h0l.85,0-.7.476h0Z" transform="translate(-114.984 -264.795)" fill="#fff"/>
            </g>
          </g>
          <g id="Group_22913" data-name="Group 22913" transform="translate(0 16.757)">
            <g id="Group_22912" data-name="Group 22912">
              <path id="Path_49005" data-name="Path 49005" d="M116.475,268.076l.287.8-.684-.505,0,0v0l-.679.505.285-.8.006,0h0l-.7-.472h.842l.234-.809.259.809v0l0,0h.85l-.7.472h0Z" transform="translate(-114.984 -266.791)" fill="#fff"/>
            </g>
          </g>
          <g id="Group_22915" data-name="Group 22915">
            <g id="Group_22914" data-name="Group 22914">
              <path id="Path_49006" data-name="Path 49006" d="M116.475,260.11l.287.8-.684-.5,0,0v0l-.679.5.285-.8.006-.008h0l-.7-.472h.842l.234-.809.259.809v0l0,0h.85l-.7.472h0Z" transform="translate(-114.984 -258.82)" fill="#fff"/>
            </g>
          </g>
        </g>
        <g id="Group_22927" data-name="Group 22927" transform="translate(8.754)">
          <g id="Group_22918" data-name="Group 22918" transform="translate(0 4.172)">
            <g id="Group_22917" data-name="Group 22917">
              <path id="Path_49007" data-name="Path 49007" d="M114.367,262.094l.283.8-.678-.5,0,0v0l-.682.5.285-.8.006-.008h0l-.7-.472h.842l.23-.809.263.809v0h.854l-.7.472h0Z" transform="translate(-112.877 -260.805)" fill="#fff"/>
            </g>
          </g>
          <g id="Group_22920" data-name="Group 22920" transform="translate(0 8.364)">
            <g id="Group_22919" data-name="Group 22919">
              <path id="Path_49008" data-name="Path 49008" d="M114.367,264.088l.283.8-.678-.505h0l-.682.505.285-.8.006-.008h0l-.7-.472h.842l.23-.809.263.809h.854l-.7.472h0Z" transform="translate(-112.877 -262.799)" fill="#fff"/>
            </g>
          </g>
          <g id="Group_22922" data-name="Group 22922" transform="translate(0 12.56)">
            <g id="Group_22921" data-name="Group 22921">
              <path id="Path_49009" data-name="Path 49009" d="M114.367,266.08l.283.8-.678-.505,0,0v0l-.682.505.285-.8.006,0h0l-.7-.476.842,0,.23-.809.263.8v0h0l.854,0-.7.476h0Z" transform="translate(-112.877 -264.795)" fill="#fff"/>
            </g>
          </g>
          <g id="Group_22924" data-name="Group 22924" transform="translate(0 16.757)">
            <g id="Group_22923" data-name="Group 22923">
              <path id="Path_49010" data-name="Path 49010" d="M114.367,268.076l.283.8-.678-.505,0,0v0l-.682.505.285-.8.006,0h0l-.7-.472h.842l.23-.809.263.809v0h.854l-.7.472h0Z" transform="translate(-112.877 -266.791)" fill="#fff"/>
            </g>
          </g>
          <g id="Group_22926" data-name="Group 22926">
            <g id="Group_22925" data-name="Group 22925">
              <path id="Path_49011" data-name="Path 49011" d="M114.367,260.11l.283.8-.678-.5,0,0v0l-.682.5.285-.8.006-.008h0l-.7-.472h.842l.23-.809.263.809v0h.854l-.7.472h0Z" transform="translate(-112.877 -258.82)" fill="#fff"/>
            </g>
          </g>
        </g>
        <g id="Group_22938" data-name="Group 22938" transform="translate(4.414)">
          <g id="Group_22929" data-name="Group 22929" transform="translate(0 4.172)">
            <g id="Group_22928" data-name="Group 22928">
              <path id="Path_49012" data-name="Path 49012" d="M112.305,262.094l.285.8-.682-.5,0,0,0,0-.679.5.285-.8.008-.008h0l-.7-.472h.842l.234-.809.261.809v0l0,0H113l-.7.472h0Z" transform="translate(-110.813 -260.805)" fill="#fff"/>
            </g>
          </g>
          <g id="Group_22931" data-name="Group 22931" transform="translate(0 8.364)">
            <g id="Group_22930" data-name="Group 22930">
              <path id="Path_49013" data-name="Path 49013" d="M112.305,264.088l.285.8-.682-.505h0l-.679.505.285-.8.008-.008h0l-.7-.472h.842l.234-.809.261.809H113l-.7.472h0Z" transform="translate(-110.813 -262.799)" fill="#fff"/>
            </g>
          </g>
          <g id="Group_22933" data-name="Group 22933" transform="translate(0 12.56)">
            <g id="Group_22932" data-name="Group 22932">
              <path id="Path_49014" data-name="Path 49014" d="M112.305,266.08l.285.8-.682-.505,0,0,0,0-.679.505.285-.8.008,0h0l-.7-.476.842,0,.234-.809.261.8v0h0l.852,0-.7.476h0Z" transform="translate(-110.813 -264.795)" fill="#fff"/>
            </g>
          </g>
          <g id="Group_22935" data-name="Group 22935" transform="translate(0 16.757)">
            <g id="Group_22934" data-name="Group 22934">
              <path id="Path_49015" data-name="Path 49015" d="M112.305,268.076l.285.8-.682-.505,0,0,0,0-.679.505.285-.8.008,0h0l-.7-.472h.842l.234-.809.261.809v0l0,0H113l-.7.472h0Z" transform="translate(-110.813 -266.791)" fill="#fff"/>
            </g>
          </g>
          <g id="Group_22937" data-name="Group 22937">
            <g id="Group_22936" data-name="Group 22936">
              <path id="Path_49016" data-name="Path 49016" d="M112.305,260.11l.285.8-.682-.5,0,0,0,0-.679.5.285-.8.008-.008h0l-.7-.472h.842l.234-.809.261.809v0l0,0H113l-.7.472h0Z" transform="translate(-110.813 -258.82)" fill="#fff"/>
            </g>
          </g>
        </g>
        <g id="Group_22949" data-name="Group 22949">
          <g id="Group_22940" data-name="Group 22940" transform="translate(0 4.172)">
            <g id="Group_22939" data-name="Group 22939">
              <path id="Path_49017" data-name="Path 49017" d="M110.207,262.094l.285.8-.68-.5,0,0v0l-.682.5.287-.8.006-.008h0l-.706-.472h.846l.23-.809.263.809v0h.854l-.7.472h0Z" transform="translate(-108.713 -260.805)" fill="#fff"/>
            </g>
          </g>
          <g id="Group_22942" data-name="Group 22942" transform="translate(0 8.364)">
            <g id="Group_22941" data-name="Group 22941">
              <path id="Path_49018" data-name="Path 49018" d="M110.207,264.088l.285.8-.68-.505h0l-.682.505.287-.8.006-.008h0l-.706-.472h.846l.23-.809.263.809h.854l-.7.472h0Z" transform="translate(-108.713 -262.799)" fill="#fff"/>
            </g>
          </g>
          <g id="Group_22944" data-name="Group 22944" transform="translate(0 12.56)">
            <g id="Group_22943" data-name="Group 22943">
              <path id="Path_49019" data-name="Path 49019" d="M110.207,266.08l.285.8-.68-.505,0,0v0l-.682.505.287-.8.006,0h0l-.706-.476.846,0,.23-.809.263.8v0h0l.854,0-.7.476h0Z" transform="translate(-108.713 -264.795)" fill="#fff"/>
            </g>
          </g>
          <g id="Group_22946" data-name="Group 22946" transform="translate(0 16.757)">
            <g id="Group_22945" data-name="Group 22945">
              <path id="Path_49020" data-name="Path 49020" d="M110.207,268.076l.285.8-.68-.505,0,0v0l-.682.505.287-.8.006,0h0l-.706-.472h.846l.23-.809.263.809v0h.854l-.7.472h0Z" transform="translate(-108.713 -266.791)" fill="#fff"/>
            </g>
          </g>
          <g id="Group_22948" data-name="Group 22948">
            <g id="Group_22947" data-name="Group 22947">
              <path id="Path_49021" data-name="Path 49021" d="M110.207,260.11l.285.8-.68-.5,0,0v0l-.682.5.287-.8.006-.008h0l-.706-.472h.846l.23-.809.263.809v0h.854l-.7.472h0Z" transform="translate(-108.713 -258.82)" fill="#fff"/>
            </g>
          </g>
        </g>
      </g>
    </g>
  </g>
</svg>
