<?xml version="1.0" encoding="utf-8"?>
<!-- Generator: Adobe Illustrator 23.0.1, SVG Export Plug-In . SVG Version: 6.00 Build 0)  -->
<svg version="1.1" id="Layer_1" xmlns="http://www.w3.org/2000/svg" xmlns:xlink="http://www.w3.org/1999/xlink" x="0px" y="0px"
	 viewBox="0 0 464.05 488.66" style="enable-background:new 0 0 464.05 488.66;" xml:space="preserve">
<style type="text/css">
	.st0{fill:#FEFEFE;}
	.st1{fill:#737375;}
	.st2{fill:#FDFDFD;}
	.st3{fill:#939398;}
	.st4{fill:#F79C1D;}
	.st5{fill:#484548;}
	.st6{fill:#474447;}
	.st7{fill:#717274;}
	.st8{fill:#757678;}
	.st9{fill:#797A7C;}
	.st10{fill:#F4F4F5;}
	.st11{fill:#F8F8F8;}
	.st12{fill:#DBDBDC;}
	.st13{fill:#FEFCF8;}
	.st14{fill:#95959A;}
</style>
<g>
	<path class="st0" d="M463.94,243.17c0-54.16-0.06-108.33,0.11-162.49c0.01-4.35-1.07-6.27-5.38-7.67
		C385.11,49.14,311.6,25.09,238.11,0.95c-3.85-1.26-7.17-1.27-11.01-0.01C153.45,25.06,79.76,49.1,6.03,72.99
		c-4.18,1.35-5.53,3.12-5.54,7.57c-0.1,51.49,0.25,102.97-0.22,154.46c-0.52,57.49-0.1,114.99-0.18,172.49
		c0,2.87,0.97,4.09,3.67,4.87c5.27,1.53,10.42,3.48,15.62,5.23c69.53,23.34,139.06,46.68,208.59,70.01
		c2.34,0.78,4.47,1.54,7.18,0.63c74.69-25.23,149.41-50.38,224.17-75.41c3.66-1.23,4.72-2.89,4.71-6.68
		C463.9,351.83,463.94,297.5,463.94,243.17z"/>
	<path class="st1" d="M463.94,243.17c0,54.33-0.04,108.66,0.09,162.99c0.01,3.79-1.05,5.45-4.71,6.68
		c-74.76,25.02-149.48,50.18-224.17,75.41c-2.71,0.92-4.84,0.16-7.18-0.63c-69.53-23.34-139.06-46.67-208.59-70.01
		c-5.21-1.75-10.36-3.69-15.62-5.23c-2.7-0.78-3.67-2.01-3.67-4.87c0.08-57.5-0.34-115,0.18-172.49
		c0.47-51.49,0.12-102.97,0.22-154.46c0.01-4.45,1.36-6.22,5.54-7.57C79.76,49.1,153.45,25.06,227.11,0.94
		c3.84-1.26,7.16-1.25,11.01,0.01c73.48,24.14,146.99,48.18,220.56,72.06c4.31,1.4,5.39,3.31,5.38,7.67
		C463.88,134.84,463.94,189,463.94,243.17z M457.8,300.22c0.11-0.99,0.33-1.97,0.33-2.96c0.02-71.32,0-142.65,0.08-213.97
		c0-3-0.89-4.37-3.83-5.26c-9.7-2.96-19.3-6.25-28.94-9.4C362.52,48.08,299.6,27.54,236.71,6.93c-2.84-0.93-5.34-1.02-8.21-0.05
		c-11.34,3.86-22.75,7.47-34.14,11.18C133.8,37.79,73.25,57.55,12.65,77.15c-4.39,1.42-6.26,3.13-6.17,8.16
		c0.32,17.32-0.06,34.65-0.07,51.98c-0.03,52.49-0.01,104.99,0,157.48c0,1.82,0.21,3.64,0.33,5.46c0,34,0.06,67.99-0.09,101.99
		c-0.01,3.45,1.03,4.96,4.29,5.98c8.25,2.57,16.35,5.6,24.55,8.35c63.98,21.48,127.98,42.93,191.95,64.46
		c3.33,1.12,6.34,1.16,9.66,0.01c21.06-7.26,42.14-14.44,63.25-21.54c50.9-17.11,101.8-34.21,152.76-51.15
		c3.65-1.21,4.81-2.8,4.79-6.61C457.74,367.88,457.8,334.05,457.8,300.22z"/>
	<path class="st2" d="M6.74,300.22c-0.11-1.82-0.33-3.64-0.33-5.46c-0.02-52.49-0.03-104.99,0-157.48
		c0.01-17.33,0.39-34.66,0.07-51.98c-0.09-5.03,1.78-6.74,6.17-8.16c60.6-19.59,121.15-39.36,181.72-59.08
		c11.39-3.71,22.8-7.32,34.14-11.18c2.87-0.98,5.37-0.89,8.21,0.05c62.89,20.61,125.81,41.15,188.73,61.7
		c9.64,3.15,19.24,6.44,28.94,9.4c2.93,0.89,3.83,2.26,3.83,5.26c-0.08,71.32-0.06,142.65-0.08,213.97c0,0.99-0.21,1.97-0.33,2.96
		c-102.07-0.02-204.14-0.05-306.2-0.06C103.31,300.16,55.03,300.2,6.74,300.22z M292.17,139.79c0,9.32,0.09,18.64-0.06,27.96
		c-0.04,2.74,0.77,4.16,3.48,5.04c12.47,4.04,24.89,8.25,37.31,12.47c1.78,0.61,3.35,0.84,5.26,0.18
		c12.55-4.34,25.13-8.6,37.76-12.7c2.71-0.88,3.51-2.29,3.5-5.04c-0.11-18.47-0.12-36.95,0.01-55.42c0.02-2.85-0.99-4.09-3.62-4.93
		c-12.35-3.92-24.64-8-36.95-12.04c-1.93-0.63-3.76-0.84-5.8-0.16c-12.45,4.14-24.91,8.22-37.42,12.17
		c-2.68,0.85-3.59,2.23-3.54,5.02C292.27,121.48,292.17,130.63,292.17,139.79z M177.21,132.49c0.37-0.04,0.73-0.08,1.1-0.11
		c2.15,8.96,4.37,17.9,6.45,26.87c2.79,12.07,2.75,11.94,15.02,12.01c3.18,0.02,4.22-1.19,4.98-3.94
		c4.32-15.7,8.79-31.36,13.23-47.03c3.13-11.06,3.14-10.88-8.38-11.07c-3.53-0.06-4.89,1.02-5.65,4.4
		c-2.65,11.78-5.62,23.49-8.49,35.31c-1.44-0.8-1.42-2.03-1.68-3.15c-1.95-8.59-3.96-17.18-5.88-25.78
		c-2.43-10.83-2.41-10.74-13.35-10.75c-2.95,0-4.34,0.6-4.99,3.86c-2.45,12.21-5.32,24.33-8.3,37.7
		c-2.64-10.66-4.99-20.15-7.33-29.64c-2.96-12.02-2.96-11.9-15.11-11.93c-3.42-0.01-4.15,0.63-3.12,4.08
		c4.59,15.45,8.89,30.99,13.32,46.49c3.29,11.51,3.32,11.33,15.26,11.47c3.45,0.04,4.47-1.23,5.13-4.27
		C171.88,155.47,174.59,143.99,177.21,132.49z M135.53,171.16c-0.46-3.11-1-5.56-1.17-8.03c-0.91-12.8-0.25-25.63-0.4-38.44
		c-0.07-5.77-1.97-10.76-7.22-13.3c-11.29-5.45-22.8-5.3-34.07,0.32c-2.7,1.35-4.82,3.54-6.31,6.23c-1.71,3.08-3.92,6.67-2.28,9.77
		c1.27,2.41,5.19,0.61,7.9,0.98c4.05,0.55,6.78,0,8.39-4.89c1.79-5.4,12.67-6.38,16.45-2.1c3.59,4.06,2,9.85-3.34,11.48
		c-6.69,2.05-13.89,1.64-20.52,4.05c-8.53,3.1-12.01,9.35-11.16,19.93c0.63,7.83,5.62,13.38,13.58,15.15
		c8.68,1.93,16.36-0.4,24.25-6.45c-1.13,6.28,2.63,5.32,5.79,5.3C128.72,171.14,132.04,171.16,135.53,171.16z M261.57,127.7
		c1.77,0,2.62-0.11,3.43,0.02c4.7,0.71,5.17-1.3,3.97-5.31c-2.04-6.82-6.32-11.23-13.01-13.24c-7.53-2.27-15.15-2.13-22.62,0.18
		c-8.08,2.51-12.45,8.96-12.53,17.82c-0.07,7.52,3.53,12.19,11.94,15.23c2.65,0.96,5.38,1.69,8.12,2.37
		c3.87,0.97,7.82,1.76,11.32,3.76c4.13,2.36,4.76,6.74,1.58,10c-4.8,4.91-16.22,3.23-18.26-3.24c-1.3-4.12-3.34-4.63-6.77-4.33
		c-1.98,0.17-4.02,0.22-5.99-0.01c-3.06-0.36-3.26,1.29-2.88,3.56c1.37,8.08,5.82,13.71,13.57,16.41
		c7.59,2.65,15.32,2.86,23.05,0.49c9.76-2.99,14.83-9.85,14.82-19.95c0-8.49-4.28-13.46-14.4-16.61c-2.85-0.89-5.77-1.56-8.67-2.3
		c-3.06-0.77-6.2-1.3-8.89-3.09c-3.12-2.07-3.79-5.63-1.55-8.05c3.35-3.62,13.91-3.05,15.56,1.54
		C255.22,128.13,258.44,128.12,261.57,127.7z M355.61,232.39c0,6.33,0.12,12.66-0.05,18.98c-0.08,2.85,0.88,3.78,3.71,3.69
		c5.66-0.18,11.33,0.08,16.98-0.09c9.02-0.27,15.47-5.28,17.99-13.88c1.78-6.05,1.86-12.12-0.18-18.16
		c-2.61-7.74-8.52-12.5-16.62-12.84c-6.15-0.26-12.32,0.02-18.48-0.15c-2.66-0.08-3.45,0.89-3.39,3.46
		C355.71,219.73,355.62,226.06,355.61,232.39z M194.56,233.75c5.83-5.34,7.3-10.11,5.18-15.85c-1.95-5.3-6.35-7.87-13.62-7.9
		c-6.67-0.02-13.33,0.06-20-0.04c-2.29-0.03-3.28,0.64-3.26,3.11c0.09,13,0.08,25.99,0.02,38.99c-0.02,4.48,3.29,2.71,5.38,2.89
		c2.15,0.18,4.91,0.9,4.7-3.06c-0.2-3.82-0.05-7.66-0.03-11.5c0.01-1.33-0.01-2.52,1.77-3.06c8.56-2.54,15.1,1.1,15.68,9.57
		c0.64,9.27,0.35,8.07,9.51,8.06c0.45,0,0.9-0.25,1.68-0.48C198.41,247.81,202.59,238.96,194.56,233.75z M315.16,232.08
		c0,6.32,0.11,12.65-0.05,18.96c-0.08,2.98,0.86,4.09,3.97,4.03c8.98-0.18,17.97-0.27,26.95,0.03c3.9,0.13,3.68-1.89,3.82-4.57
		c0.16-3.11-0.59-4.5-4.06-4.31c-5.47,0.29-10.99-0.2-16.46,0.16c-4.54,0.3-3.69-2.61-3.67-5.14c0.02-2.64-1.03-5.88,3.82-5.55
		c4.8,0.33,9.65-0.07,14.47,0.12c3.11,0.12,3.48-1.47,3.51-4c0.03-2.6-0.47-4.03-3.54-3.88c-4.48,0.22-9-0.23-13.47,0.14
		c-4.12,0.35-4.94-1.29-4.94-5.06c0-3.63,0.83-5.05,4.71-4.79c5.13,0.35,10.32-0.1,15.46,0.15c3.34,0.17,3.83-1.37,3.78-4.16
		c-0.05-2.61-0.14-4.38-3.65-4.3c-8.98,0.22-17.97,0.16-26.95,0.02c-2.8-0.04-3.82,0.81-3.74,3.68
		C315.28,219.77,315.16,225.93,315.16,232.08z M122.77,232.35c0,6.5,0.07,13-0.04,19.5c-0.04,2.34,0.68,3.24,3.12,3.21
		c9.33-0.11,18.67-0.16,28,0.01c4.02,0.07,2.92-2.63,3.08-4.76c0.19-2.38,0.01-4.19-3.29-4.07c-5.66,0.22-11.35-0.25-16.99,0.15
		c-4.87,0.34-3.8-2.76-3.88-5.43c-0.09-2.89-0.51-5.67,4.09-5.27c4.63,0.4,9.33-0.07,13.99,0.14c3.25,0.15,3.86-1.29,3.86-4.17
		c0-2.83-0.87-3.82-3.72-3.7c-4.83,0.19-9.69-0.22-14.49,0.14c-3.97,0.3-3.89-1.94-3.73-4.6c0.14-2.46-1.07-5.52,3.58-5.24
		c5.48,0.33,11-0.1,16.49,0.14c3.24,0.14,3.96-1.18,3.84-4.09c-0.11-2.53,0.02-4.45-3.56-4.37c-8.99,0.22-18,0.15-27,0.02
		c-2.59-0.04-3.49,0.76-3.42,3.4C122.88,219.68,122.77,226.01,122.77,232.35z M97.25,208.99c-12.84,0.04-20.85,8.09-22.03,22.16
		c-1.4,16.57,13.29,28.8,28.82,23.97c7-2.18,11.09-7.09,12.69-14.11c0.26-1.16,0.92-2.63-0.72-3.54c-2.73-1.51-8.18,0.39-9.31,3.31
		c-1.44,3.71-3.87,6.13-8.03,6.5c-4.51,0.39-8.46-0.79-10.7-4.89c-3.49-6.42-3.61-13.19-0.09-19.59c3.64-6.61,13.56-7.75,17.1-1.53
		c2.5,4.38,5.51,3.74,9.01,3.93c2.69,0.15,3.02-0.92,2.39-3.28C114.22,213.91,107.01,208.97,97.25,208.99z M260.9,232.23
		c0,5.99,0.28,12.01-0.1,17.98c-0.26,4.15,1.3,5.02,5.09,4.94c3.61-0.08,6.17-0.14,5.6-4.91c-0.41-3.45,0.03-6.99-0.11-10.48
		c-0.11-2.59,0.89-3.56,3.48-3.46c3.99,0.15,8-0.11,11.99,0.08c2.95,0.15,3.19-1.43,3.13-3.7c-0.05-2.27,0.2-4.38-3.21-4.2
		c-3.65,0.2-7.35-0.24-10.98,0.11c-4.22,0.4-4.55-1.81-4.44-5.09c0.1-2.99-0.24-5.62,4.25-5.26c4.63,0.38,9.33-0.12,13.98,0.14
		c3.92,0.22,3.06-2.35,3.23-4.57c0.2-2.55-0.27-3.98-3.4-3.9c-8.32,0.2-16.65,0.17-24.97,0.01c-2.97-0.06-3.65,1.12-3.59,3.82
		C261,219.9,260.9,226.07,260.9,232.23z M216.91,236.15c0,4.66,0.27,9.34-0.08,13.97c-0.3,3.99,1.05,5.15,4.99,5.01
		c3.52-0.12,5.46-0.41,5.22-4.79c-0.41-7.3-0.11-14.63-0.11-21.95c0-9.78,0-9.97,9.76-9.98c3.56,0,4-1.46,4.02-4.44
		c0.02-2.95-0.72-4.11-3.89-4.04c-9.48,0.19-18.96,0.13-28.44,0.03c-2.93-0.03-4.88-0.06-4.93,4.01c-0.06,4.2,1.77,4.69,5.06,4.37
		c1.65-0.16,3.34,0.1,4.98-0.05c2.59-0.24,3.54,0.78,3.46,3.4C216.8,226.5,216.91,231.33,216.91,236.15z M298.88,232.38
		c0,6.33,0.21,12.67-0.08,18.99c-0.18,3.94,2.08,3.99,4.71,3.64c2.36-0.31,6.02,1.76,5.96-3.38c-0.14-12.83-0.1-25.66-0.02-38.48
		c0.03-4.79-3.46-2.92-5.69-3.12c-2.34-0.2-5.12-0.87-4.95,3.36C299.07,219.71,298.88,226.05,298.88,232.38z M244.77,232.17
		c0,6.48,0.2,12.96-0.07,19.43c-0.2,4.74,3.06,3.24,5.38,3.38c2.43,0.14,4.88,0.7,4.79-3.48c-0.26-12.79-0.2-25.58-0.04-38.37
		c0.06-4.45-2.99-3.02-5.12-3.07c-2.19-0.05-5.18-1.21-5.01,3.18C244.95,219.54,244.77,225.86,244.77,232.17z"/>
	<path class="st3" d="M6.74,300.22c48.29-0.02,96.57-0.06,144.86-0.06c102.07,0.01,204.14,0.04,306.2,0.06
		c0,33.83-0.06,67.66,0.09,101.49c0.02,3.82-1.14,5.4-4.79,6.61c-50.96,16.94-101.86,34.04-152.76,51.15
		c-21.11,7.1-42.2,14.28-63.25,21.54c-3.33,1.15-6.34,1.11-9.66-0.01c-63.97-21.53-127.96-42.98-191.95-64.46
		c-8.19-2.75-16.3-5.78-24.55-8.35c-3.27-1.02-4.31-2.52-4.29-5.98C6.8,368.21,6.74,334.21,6.74,300.22z M78.95,368.19
		c7.55,0,12.09-3.08,12.67-7.65c0.55-4.33-2.38-7.39-8.74-9.07c-1.92-0.51-3.89-0.85-5.8-1.4c-2.07-0.59-3.69-1.75-3.44-4.2
		c0.26-2.58,2.03-3.66,4.43-3.87c3.28-0.28,6.4-0.15,8.03,3.44c0.62,1.37,1.69,2.4,3.08,1.54c1.39-0.86,0.66-2.41,0.18-3.61
		c-1.79-4.45-8.83-6.46-14.39-4.2c-3.41,1.39-5.37,3.72-5.35,7.57c0.02,3.83,2.3,5.66,5.61,6.62c3.02,0.88,6.09,1.58,9.08,2.56
		c1.99,0.66,3.64,1.96,3.31,4.36c-0.29,2.14-1.62,3.45-3.78,4.14c-4.45,1.42-8.74,0.06-10.96-4.18c-0.86-1.64-1.73-2.67-3.3-1.84
		c-1.48,0.78-0.69,2.36-0.19,3.55C71.45,366.8,75.59,368.03,78.95,368.19z M256.36,359.27c4.39-1.2,6.92,0.41,7.76,4.93
		c0.33,1.78,1.33,3.94,3.68,2.82c2.25-1.07,0.39-2.95-0.1-4.25c-2.55-6.85-5.26-13.64-7.96-20.42c-0.59-1.47-0.85-3.16-3.16-3.25
		c-2.54-0.11-2.98,1.64-3.64,3.33c-2.73,6.96-5.48,13.91-8.1,20.9c-0.43,1.16-2.12,2.82,0.03,3.74c2.1,0.9,3.12-0.89,3.42-2.56
		C249.15,359.82,251.76,358.03,256.36,359.27z M309.54,347.95c0-2.23,0.05-3.88-0.01-5.52c-0.05-1.42,0.35-3.3-2.02-3.18
		c-2.01,0.1-1.64,1.77-1.64,3.02c-0.03,7.32-0.03,14.65-0.01,21.97c0,1.46-0.28,3.32,2.02,3.18c1.9-0.11,1.64-1.78,1.65-3.07
		c0.04-3,0-5.99,0.04-8.99c0.04-3.67,2.02-5.49,5.6-5.59c3.9-0.11,4.65,2.38,4.58,5.6c-0.07,3.33-0.01,6.66,0,9.99
		c0,1.04,0.11,2.1,1.43,2.2c1.48,0.12,2.13-0.82,2.11-2.17c-0.07-4.48,0.45-8.98-0.34-13.45c-0.8-4.54-3.89-5.94-8-5.59
		C313.35,346.49,311.8,347.26,309.54,347.95z M348.64,356.9c-0.01,4.66,1.3,8.6,6.04,10.45c3.73,1.46,7.24,0.9,10.1-2.03
		c0.97-1,2.54-2.51,1.35-3.77c-1.36-1.44-2.49,0.16-3.56,1.3c-2.83,3.01-5.84,2.67-8.73,0.03c-1.04-0.95-1.57-2.26-1.17-3.62
		c0.44-1.51,1.9-1.04,2.97-1.07c2.83-0.07,5.66-0.11,8.49,0c2.52,0.1,3.64-0.44,3-3.41c-1.17-5.39-5.15-9-9.99-8.49
		C352.08,346.83,348.67,351.1,348.64,356.9z M221.68,368.07c5.6,0.06,9.59-2.49,9.68-6.06c0.13-4.82-3.65-5.75-7.25-6.73
		c-1.28-0.35-2.56-0.68-3.82-1.07c-1.05-0.32-1.7-1.02-1.75-2.15c-0.06-1.45,1-2.05,2.13-2.38c2.72-0.8,4.82,0.08,6.42,2.45
		c0.74,1.1,2.02,1.34,3.01,0.4c0.89-0.84,0.16-1.86-0.31-2.7c-1.71-3.05-6.68-4.48-10.67-3.08c-2.51,0.88-4.42,2.27-4.48,5.28
		c-0.06,2.98,1.61,4.59,4.21,5.43c2.05,0.66,4.16,1.11,6.2,1.79c1.28,0.43,2.51,1.17,2.48,2.75c-0.04,1.91-1.69,2.46-3.1,2.71
		c-2.74,0.49-5.26,0.01-6.91-2.66c-0.72-1.16-1.97-1.42-3-0.57c-0.99,0.82-0.08,1.88,0.32,2.66
		C216.41,367.18,219.26,367.91,221.68,368.07z M188.92,356.94c-0.06-6.56-3.96-10.79-9.87-10.7c-5.74,0.08-9.98,4.7-10.01,10.88
		c-0.03,6.36,4.5,11.11,10.44,10.95C185.35,367.9,188.98,363.62,188.92,356.94z M94.62,356.99c-0.05,6.67,3.62,10.94,9.49,11.08
		c5.93,0.14,10.45-4.64,10.38-11c-0.06-6.19-4.32-10.77-10.06-10.83C98.54,346.19,94.67,350.42,94.62,356.99z M172.94,406.24
		c3.97-0.93,6.36,0.47,7,4.66c0.21,1.35,1.1,2.71,2.75,2.11c1.98-0.71,0.79-2.21,0.37-3.32c-2.3-6.05-4.71-12.06-7.01-18.11
		c-0.5-1.32-0.95-2.43-2.67-2.44c-1.62-0.01-2.28,0.79-2.82,2.22c-2.34,6.22-4.81,12.38-7.2,18.58c-0.4,1.03-1.25,2.38,0.26,3.01
		c1.77,0.75,2.4-0.89,2.69-2.11C167.16,407.23,168.9,405.11,172.94,406.24z M283.72,357.05c0.04,5.34,1.82,9.06,6.63,10.56
		c4,1.24,7.59,0.32,10.26-3.09c0.9-1.15,2.08-2.76,0.71-3.97c-1.62-1.44-2.51,0.26-3.36,1.53c-2.15,3.19-4.96,3.83-8.07,1.53
		c-2.96-2.19-3.36-9.81-0.55-12.34c2.67-2.41,5.69-2.77,8.28,0.28c1.05,1.24,2.32,2.61,3.61,1.24c1.5-1.58-0.23-3.08-1.4-4.12
		c-3-2.69-6.54-3.2-10.22-1.66C284.93,348.97,283.81,353.03,283.72,357.05z M369.76,355.78c-0.06,6.92,2.27,10.67,6.71,11.89
		c4.04,1.11,7.6,0.2,10.22-3.25c0.88-1.16,2.03-2.81,0.55-3.96c-1.68-1.3-2.52,0.45-3.34,1.73c-1.39,2.18-3.38,3.22-5.94,2.5
		c-2.71-0.76-4.07-2.8-4.27-5.52c-0.12-1.64-0.18-3.37,0.18-4.95c1.07-4.81,5.91-6.32,9.52-2.95c1.23,1.15,2.46,3.14,3.91,1.42
		c1.5-1.77-0.59-3.36-1.94-4.42c-3.16-2.47-6.76-2.77-10.32-1.01C370.96,349.27,369.83,353.03,369.76,355.78z M264.68,409.09
		c0.12,3.96,2.92,5.48,6.03,4.79c3.19-0.7,6.13-1.18,9.23-0.12c1.09-3.36-1.19-6.62-0.32-9.98c0.04-0.16-0.01-0.33,0.01-0.5
		c0.86-8.03-6.13-9.55-11.83-6.88c-1.66,0.78-3.41,2.51-2.16,4.24c1.16,1.6,2.56-0.06,3.47-1.31c0.77-1.06,1.92-1.23,3.11-1.22
		c1.56,0.01,3.15,0.14,3.46,2.06c0.34,2.07-1.39,2.41-2.81,2.8c-1.27,0.35-2.64,0.37-3.9,0.74
		C266.37,404.51,264.55,406.02,264.68,409.09z M192.85,356.79c0,2.49-0.03,4.98,0.01,7.47c0.02,1.29-0.19,2.87,1.79,2.9
		c1.96,0.02,1.85-1.54,1.87-2.85c0.07-3.32-0.08-6.65,0.15-9.95c0.24-3.53,2.92-4.8,5.9-4.83c3.06-0.03,4.18,2.2,4.16,5.08
		c-0.02,3.49,0,6.97,0.03,10.46c0.01,1.03,0.18,2.08,1.53,2.08c1.32,0,1.58-1,1.59-2.05c0.04-3.32,0.06-6.64,0.03-9.96
		c-0.06-8.13-4.15-10.82-11.5-7.58c-0.6,0.26-1.39,1.02-1.71,0.85c-5.84-3.14-3.38,1.97-3.8,3.92
		C192.6,353.75,192.85,355.3,192.85,356.79z M143.92,357.89c0-2.67,0.03-5.33-0.02-8c-0.02-1.1,0.22-2.59-1.44-2.68
		c-2.13-0.12-1.67,1.65-1.7,2.87c-0.08,3,0.09,6-0.08,8.99c-0.22,3.81-2.6,5.83-6.22,5.7c-3.47-0.12-4.04-2.79-3.94-5.76
		c0.11-3.16,0.03-6.33-0.01-9.5c-0.01-1.23-0.23-2.4-1.85-2.39c-1.63,0.01-1.79,1.19-1.79,2.41c-0.01,3.83-0.19,7.67,0.03,11.49
		c0.33,5.78,4.73,8.38,10.22,6.41c1.21-0.43,2.27-2.26,3.4-1.46c4.38,3.12,3.21-0.68,3.38-2.61
		C144.05,361.57,143.93,359.73,143.92,357.89z M219.02,404.66c0,5.37,3.88,9.5,8.87,9.43c4.8-0.07,8.42-3.93,8.6-9.17
		c0.18-5.33-3.61-9.61-8.59-9.68C222.92,395.15,219.03,399.28,219.02,404.66z M193.3,395.12c-3.55,0.32-6.62,0.97-7.39,4.51
		c-0.81,3.68,1.93,4.88,4.85,5.66c0.8,0.22,1.57,0.55,2.38,0.72c1.81,0.38,4.05,0.6,3.48,3.16c-0.6,2.68-3.07,1.96-4.98,1.94
		c-1.25-0.01-2.19-0.67-2.85-1.74c-0.58-0.94-1.44-1.64-2.42-0.88c-1.24,0.97-0.52,2.21,0.29,3.02c2.93,2.93,6.36,3.25,10.09,1.68
		c2.16-0.91,3.81-2.35,3.66-4.8c-0.14-2.32-1.56-3.99-3.88-4.67c-1.91-0.56-3.84-1.05-5.74-1.63c-1-0.31-1.86-0.92-1.71-2.11
		c0.14-1.14,1.05-1.63,2.11-1.76c1.5-0.18,2.97-0.22,4.21,0.94c1.01,0.95,2.34,3.01,3.54,1.32c1.21-1.71-0.63-3.33-2.26-4.22
		C195.55,395.65,194.2,395.41,193.3,395.12z M211.12,413.98c2.23-0.38,5.88-1.05,6.24-5.15c0.32-3.59-2.59-5.02-5.78-5.68
		c-1.3-0.27-2.57-0.65-3.83-1.07c-0.99-0.33-1.85-0.96-1.66-2.15c0.18-1.12,1.09-1.57,2.15-1.73c1.93-0.29,3.59,0.09,4.9,1.7
		c0.75,0.92,1.93,1.81,2.92,0.6c0.87-1.06-0.11-2.31-0.88-3.05c-2.87-2.77-6.2-2.89-9.64-1.16c-1.73,0.87-2.82,2.27-2.78,4.36
		c0.05,2.15,1.31,3.38,3.15,4.02c1.87,0.65,3.82,1.09,5.73,1.64c1.22,0.35,2.15,1.08,2.1,2.42c-0.06,1.6-1.17,2.32-2.66,2.4
		c-1.65,0.09-3.36,0.31-4.71-1.01c-0.96-0.95-1.91-3.22-3.31-1.2c-1.09,1.57,0.67,3.04,2.14,3.9
		C206.65,413.68,208.23,414.23,211.12,413.98z M293.68,404.94c0.05,0.67,0.01,1.68,0.21,2.65c0.67,3.19,2.58,5.37,5.75,6.22
		c2.93,0.79,5.6,0.14,7.83-1.96c0.85-0.8,1.86-1.93,1-2.99c-1.16-1.44-1.99,0.1-2.72,0.85c-1.59,1.65-3.5,1.82-5.51,1.2
		c-1.88-0.58-3.35-1.93-3.26-3.93c0.11-2.67,2.44-1.54,3.87-1.67c1.98-0.17,3.98-0.11,5.97-0.03c3.03,0.12,3.24-1.47,2.52-3.82
		c-1.26-4.11-4.9-6.77-8.49-6.12C296.09,396.19,293.66,399.34,293.68,404.94z M247.99,395.26c-4.82-0.16-8.28,2.84-9.11,7.4
		c-0.96,5.25,1.15,9.64,5.36,11.01c3.11,1.01,5.96,0.38,8.26-1.9c1.09-1.08,2.8-2.79,1.39-4.14c-1.49-1.43-2.38,0.62-3.28,1.78
		c-1.89,2.41-4.22,2.45-6.51,0.68c-2.72-2.1-3.11-7.14-0.84-9.97c1.82-2.27,4.13-2.73,6.58-1.15c1.37,0.89,2.67,3.79,4.16,1.46
		c1.08-1.69-1.52-3.31-3.27-4.24C249.73,395.65,248.56,395.44,247.99,395.26z M154.74,367.26c0.84-0.12,2.21,0.48,2.8-0.93
		c0.36-0.85-0.12-1.42-0.93-1.97c-4.2-2.88-4.06-11.27,0.17-14.45c1.16-0.87,1.43-2.48,0-2.58c-3.8-0.26-2.86-2.87-3.02-5.02
		c-0.07-0.91-0.38-1.64-1.39-1.72c-0.97-0.07-1.68,0.52-1.65,1.43c0.07,2.61-0.24,4.74-3.31,5.67c-0.92,0.28-0.52,2.05,0.66,2.17
		c3.06,0.32,2.54,2.47,2.55,4.39c0.02,2.99,0.03,5.97,0.02,8.96C150.63,365.81,151.76,367.3,154.74,367.26z M342.83,367.25
		c0.82-0.13,2.19,0.48,2.73-1.01c0.14-0.39-0.03-1.29-0.21-1.34c-6.06-1.49-2.93-6.35-3.45-9.74c-0.34-2.17-1.11-5.09,2.95-5.44
		c1.19-0.1,1.34-2.34-0.13-2.44c-3.44-0.22-2.89-2.46-2.94-4.57c-0.02-1.04-0.15-2.11-1.48-2.15c-1.28-0.04-1.66,0.92-1.64,2.01
		c0.05,2.25,0.03,4.17-2.96,4.83c-1.23,0.27-1.09,2.24,0.44,2.45c3.09,0.42,2.44,2.58,2.47,4.46c0.05,2.99,0.03,5.97,0.03,8.96
		C338.65,365.91,339.86,367.33,342.83,367.25z M398.23,367.26c0.58-0.1,1.77,0.3,2.29-0.82c0.37-0.8,0.17-1.85-0.81-2
		c-5.04-0.73-2.86-4.7-2.72-7.06c0.15-2.5-2.66-6.56,2.66-7.54c1.45-0.27,1.47-2.38,0.25-2.49c-3.6-0.3-3.09-2.67-3.14-4.93
		c-0.02-0.86-0.22-1.69-1.27-1.82c-1.3-0.16-1.86,0.68-1.8,1.78c0.15,2.53-1.22,3.59-3.01,5.32c-2.87,2.77,3.8,1.5,2.96,4.44
		c-0.26,0.92-0.02,1.98-0.02,2.97c0.01,2.82,0.02,5.64,0.04,8.46C393.69,366.37,395.33,367.35,398.23,367.26z M271.75,356.82
		c0,0.99-0.23,2.06,0.04,2.97c0.73,2.41-1.93,6.83,1.73,6.92c2.74,0.07,1.12-4.41,1.32-6.83c0.32-3.91,0.45-7.79,4.78-9.5
		c1.53-0.6,3.88-0.62,2.79-2.9c-1.21-2.55-3.03-0.25-4.57,0.18c-1.06,0.3-1.55,2.64-2.87,1.28c-0.73-0.75-0.77-2.32-2.3-1.63
		c-1.58,0.72-0.82,2.33-0.89,3.55C271.66,352.84,271.75,354.83,271.75,356.82z M291.6,396.92c-2.47-0.78-4.46-1.77-3.9-4.68
		c0.2-1.06-1.01-2.35-1.72-1.58c-1.8,1.93-1.51,5.17-3.83,6.95c4.89,2.75,1.98,7.35,2.5,11.08c0.61,4.43,1.57,5.19,6.47,3.67
		C286.31,408.42,286.29,400.07,291.6,396.92z M121.77,353.21c0-3.66,0.05-7.32-0.03-10.97c-0.02-1.18,0.55-2.98-1.62-2.92
		c-1.7,0.05-1.45,1.54-1.45,2.63c-0.03,7.48-0.03,14.96,0,22.44c0,1.09-0.26,2.59,1.42,2.67c2.14,0.1,1.63-1.69,1.65-2.89
		C121.81,360.53,121.77,356.87,121.77,353.21z M164.87,357.46c0-2.67,0.02-5.33-0.01-8c-0.01-0.99-0.02-2.09-1.38-2.24
		c-1.37-0.15-1.68,0.8-1.68,1.88c-0.02,5.33-0.02,10.67,0,16c0,1.03,0.16,2.09,1.58,2.01c1.35-0.08,1.47-1.14,1.48-2.15
		C164.89,362.46,164.87,359.96,164.87,357.46z M331.75,357.55c0-2.83,0.02-5.67-0.01-8.5c-0.01-0.83-0.16-1.69-1.24-1.82
		c-1.32-0.15-1.79,0.68-1.79,1.79c-0.03,5.33-0.03,10.66-0.01,16c0,1.03,0.18,2.08,1.53,2.1c1.39,0.03,1.52-1.05,1.53-2.07
		C331.77,362.55,331.75,360.05,331.75,357.55z M257.89,404.43c0,2.32-0.03,4.64,0.01,6.97c0.02,0.91,0.49,1.63,1.48,1.62
		c1.01-0.01,1.42-0.78,1.42-1.67c0.03-4.48,0.02-8.96-0.01-13.44c-0.01-0.91-0.47-1.65-1.47-1.63c-0.98,0.02-1.42,0.77-1.44,1.68
		C257.86,400.12,257.89,402.28,257.89,404.43z"/>
	<path class="st4" d="M292.17,139.79c0-9.15,0.1-18.31-0.06-27.46c-0.05-2.79,0.86-4.17,3.54-5.02
		c12.51-3.95,24.97-8.03,37.42-12.17c2.04-0.68,3.87-0.47,5.8,0.16c12.31,4.04,24.6,8.12,36.95,12.04c2.63,0.83,3.64,2.07,3.62,4.93
		c-0.13,18.47-0.12,36.95-0.01,55.42c0.02,2.75-0.78,4.16-3.5,5.04c-12.63,4.11-25.21,8.36-37.76,12.7
		c-1.91,0.66-3.48,0.43-5.26-0.18c-12.42-4.21-24.84-8.43-37.31-12.47c-2.71-0.88-3.52-2.3-3.48-5.04
		C292.27,158.43,292.17,149.11,292.17,139.79z M329.92,162.21c1.01-0.93,1.87-1.67,2.67-2.47c7.92-7.84,15.84-15.68,23.74-23.54
		c6.73-6.69,6.61-6.6-0.19-13.21c-2.17-2.11-3.31-1.65-5.14,0.24c-4.86,5.01-9.92,9.83-14.88,14.75c-6.19,6.13-6.18,6.14-12.53-0.2
		c-6.02-6.02-5.96-5.96-12.12,0.18c-1.92,1.91-2.8,3.18-0.36,5.51c5.76,5.52,11.22,11.35,16.82,17.03
		C328.5,161.08,329.16,161.56,329.92,162.21z"/>
	<path class="st5" d="M177.21,132.49c-2.62,11.5-5.34,22.97-7.81,34.5c-0.65,3.04-1.67,4.31-5.13,4.27
		c-11.94-0.14-11.97,0.04-15.26-11.47c-4.44-15.5-8.73-31.03-13.32-46.49c-1.02-3.44-0.3-4.09,3.12-4.08
		c12.15,0.03,12.15-0.09,15.11,11.93c2.34,9.49,4.69,18.99,7.33,29.64c2.98-13.37,5.85-25.49,8.3-37.7
		c0.66-3.26,2.04-3.86,4.99-3.86c10.95,0,10.92-0.09,13.35,10.75c1.93,8.6,3.93,17.18,5.88,25.78c0.25,1.12,0.23,2.35,1.68,3.15
		c2.87-11.82,5.83-23.53,8.49-35.31c0.76-3.38,2.12-4.46,5.65-4.4c11.52,0.19,11.51,0.02,8.38,11.07
		c-4.43,15.67-8.9,31.33-13.23,47.03c-0.76,2.76-1.8,3.96-4.98,3.94c-12.27-0.07-12.22,0.06-15.02-12.01
		c-2.08-8.97-4.29-17.92-6.45-26.87C177.95,132.42,177.58,132.46,177.21,132.49z"/>
	<path class="st6" d="M135.53,171.16c-3.49,0-6.81-0.02-10.12,0c-3.16,0.02-6.91,0.98-5.79-5.3c-7.89,6.05-15.57,8.38-24.25,6.45
		c-7.95-1.77-12.95-7.32-13.58-15.15c-0.85-10.58,2.63-16.83,11.16-19.93c6.63-2.4,13.83-2,20.52-4.05
		c5.34-1.64,6.93-7.43,3.34-11.48c-3.78-4.28-14.67-3.3-16.45,2.1c-1.62,4.88-4.35,5.44-8.39,4.89c-2.71-0.37-6.62,1.43-7.9-0.98
		c-1.64-3.11,0.58-6.69,2.28-9.77c1.49-2.69,3.61-4.88,6.31-6.23c11.27-5.62,22.78-5.76,34.07-0.32c5.26,2.54,7.16,7.52,7.22,13.3
		c0.15,12.82-0.52,25.64,0.4,38.44C134.53,165.6,135.06,168.05,135.53,171.16z M118.39,142.2c-5.54,1.18-10.46,1.99-15.24,3.32
		c-3.92,1.09-6.01,3.96-5.94,8.21c0.05,3.33,1.35,5.72,4.62,6.93c7.23,2.67,14.39-1.1,16.23-8.53
		C118.87,148.86,118.69,145.61,118.39,142.2z"/>
	<path class="st5" d="M261.57,127.7c-3.14,0.43-6.36,0.43-8.22-4.74c-1.65-4.59-12.21-5.16-15.56-1.54
		c-2.23,2.41-1.57,5.98,1.55,8.05c2.69,1.78,5.84,2.31,8.89,3.09c2.9,0.73,5.82,1.41,8.67,2.3c10.12,3.15,14.39,8.13,14.4,16.61
		c0,10.1-5.07,16.96-14.82,19.95c-7.73,2.37-15.47,2.16-23.05-0.49c-7.75-2.71-12.21-8.33-13.57-16.41
		c-0.38-2.28-0.19-3.93,2.88-3.56c1.97,0.23,4,0.18,5.99,0.01c3.44-0.3,5.47,0.21,6.77,4.33c2.05,6.47,13.47,8.15,18.26,3.24
		c3.18-3.26,2.55-7.64-1.58-10c-3.5-2-7.45-2.79-11.32-3.76c-2.73-0.69-5.47-1.42-8.12-2.37c-8.4-3.04-12-7.71-11.94-15.23
		c0.08-8.86,4.45-15.32,12.53-17.82c7.47-2.32,15.09-2.45,22.62-0.18c6.7,2.02,10.98,6.42,13.01,13.24c1.2,4.01,0.73,6.03-3.97,5.31
		C264.19,127.59,263.34,127.7,261.57,127.7z"/>
	<path class="st7" d="M355.61,232.39c0-6.33,0.1-12.66-0.05-18.98c-0.06-2.57,0.73-3.53,3.39-3.46c6.16,0.18,12.33-0.1,18.48,0.15
		c8.1,0.34,14.01,5.1,16.62,12.84c2.04,6.04,1.96,12.11,0.18,18.16c-2.52,8.59-8.97,13.61-17.99,13.88
		c-5.66,0.17-11.33-0.09-16.98,0.09c-2.83,0.09-3.79-0.84-3.71-3.69C355.73,245.05,355.61,238.72,355.61,232.39z M365.63,232.16
		c0,3.66-0.03,7.33,0.02,10.99c0.01,1.09-0.31,2.31,1.08,3.01c3.1,1.56,13.16-0.43,15.53-3.13c3.64-4.14,4.15-14.14,1-19.46
		c-2.36-3.99-10.14-6.48-15.71-5.28c-1.88,0.41-1.9,1.53-1.91,2.88C365.63,224.83,365.63,228.5,365.63,232.16z"/>
	<path class="st1" d="M194.56,233.75c8.02,5.21,3.85,14.06,7.04,20.73c-0.78,0.23-1.23,0.48-1.68,0.48
		c-9.16,0.01-8.87,1.21-9.51-8.06c-0.58-8.47-7.12-12.12-15.68-9.57c-1.79,0.53-1.77,1.72-1.77,3.06c-0.02,3.83-0.17,7.67,0.03,11.5
		c0.2,3.96-2.56,3.24-4.7,3.06c-2.09-0.17-5.4,1.6-5.38-2.89c0.06-13,0.07-25.99-0.02-38.99c-0.02-2.47,0.97-3.14,3.26-3.11
		c6.66,0.1,13.33,0.01,20,0.04c7.27,0.03,11.67,2.6,13.62,7.9C201.86,223.64,200.39,228.41,194.56,233.75z M179.22,218.04
		c-7.43,0.2-6.16-1.72-6.3,8c-0.01,0.67,0.03,1.33,0.02,2c-0.03,1.45,0.67,2.12,2.11,2.11c3.5-0.04,7.02,0.21,10.48-0.16
		c3.57-0.38,5.13-3.03,4.91-6.4c-0.2-3.1-1.76-5.39-5.27-5.54C183.67,217.98,182.17,218.04,179.22,218.04z"/>
	<path class="st7" d="M315.16,232.08c0-6.16,0.12-12.31-0.05-18.46c-0.08-2.87,0.95-3.72,3.74-3.68c8.98,0.14,17.97,0.2,26.95-0.02
		c3.51-0.09,3.59,1.68,3.65,4.3c0.06,2.79-0.44,4.33-3.78,4.16c-5.14-0.26-10.33,0.19-15.46-0.15c-3.88-0.26-4.71,1.16-4.71,4.79
		c0,3.77,0.82,5.41,4.94,5.06c4.46-0.37,8.98,0.08,13.47-0.14c3.07-0.15,3.57,1.27,3.54,3.88c-0.03,2.53-0.4,4.12-3.51,4
		c-4.82-0.19-9.66,0.21-14.47-0.12c-4.85-0.33-3.79,2.9-3.82,5.55c-0.02,2.53-0.87,5.44,3.67,5.14c5.47-0.36,10.99,0.13,16.46-0.16
		c3.48-0.18,4.22,1.21,4.06,4.31c-0.14,2.68,0.09,4.71-3.82,4.57c-8.97-0.31-17.97-0.21-26.95-0.03c-3.11,0.06-4.05-1.05-3.97-4.03
		C315.27,244.73,315.16,238.41,315.16,232.08z"/>
	<path class="st7" d="M122.77,232.35c0-6.33,0.11-12.67-0.05-19c-0.07-2.64,0.83-3.43,3.42-3.4c9,0.13,18,0.2,27-0.02
		c3.58-0.09,3.45,1.83,3.56,4.37c0.12,2.91-0.6,4.23-3.84,4.09c-5.49-0.24-11.01,0.19-16.49-0.14c-4.65-0.28-3.44,2.79-3.58,5.24
		c-0.15,2.66-0.24,4.9,3.73,4.6c4.81-0.36,9.67,0.05,14.49-0.14c2.85-0.11,3.72,0.88,3.72,3.7c0,2.89-0.61,4.32-3.86,4.17
		c-4.66-0.22-9.36,0.26-13.99-0.14c-4.61-0.4-4.18,2.38-4.09,5.27c0.08,2.67-0.99,5.78,3.88,5.43c5.64-0.4,11.33,0.07,16.99-0.15
		c3.3-0.13,3.48,1.68,3.29,4.07c-0.17,2.13,0.93,4.83-3.08,4.76c-9.33-0.17-18.67-0.12-28-0.01c-2.43,0.03-3.16-0.87-3.12-3.21
		C122.84,245.35,122.77,238.85,122.77,232.35z"/>
	<path class="st1" d="M97.25,208.99c9.77-0.03,16.98,4.92,19.13,12.92c0.63,2.36,0.3,3.43-2.39,3.28c-3.5-0.19-6.51,0.45-9.01-3.93
		c-3.54-6.22-13.46-5.08-17.1,1.53c-3.52,6.39-3.4,13.17,0.09,19.59c2.23,4.1,6.19,5.29,10.7,4.89c4.15-0.36,6.58-2.79,8.03-6.5
		c1.13-2.91,6.58-4.81,9.31-3.31c1.65,0.91,0.99,2.39,0.72,3.54c-1.6,7.03-5.69,11.94-12.69,14.11
		c-15.54,4.83-30.22-7.4-28.82-23.97C76.4,217.08,84.41,209.03,97.25,208.99z"/>
	<path class="st8" d="M260.9,232.23c0-6.16,0.1-12.32-0.05-18.48c-0.07-2.7,0.62-3.88,3.59-3.82c8.32,0.17,16.65,0.19,24.97-0.01
		c3.14-0.07,3.6,1.35,3.4,3.9c-0.17,2.22,0.69,4.79-3.23,4.57c-4.65-0.26-9.35,0.24-13.98-0.14c-4.49-0.37-4.15,2.27-4.25,5.26
		c-0.11,3.28,0.22,5.49,4.44,5.09c3.63-0.35,7.33,0.09,10.98-0.11c3.4-0.19,3.15,1.93,3.21,4.2c0.05,2.27-0.18,3.85-3.13,3.7
		c-3.99-0.2-7.99,0.07-11.99-0.08c-2.59-0.1-3.59,0.86-3.48,3.46c0.14,3.49-0.29,7.03,0.11,10.48c0.56,4.77-2,4.84-5.6,4.91
		c-3.79,0.08-5.35-0.79-5.09-4.94C261.18,244.24,260.9,238.22,260.9,232.23z"/>
	<path class="st7" d="M216.91,236.15c0-4.82-0.11-9.65,0.04-14.47c0.08-2.62-0.87-3.63-3.46-3.4c-1.65,0.15-3.34-0.1-4.98,0.05
		c-3.29,0.32-5.12-0.17-5.06-4.37c0.06-4.07,2.01-4.04,4.93-4.01c9.48,0.1,18.96,0.16,28.44-0.03c3.17-0.06,3.92,1.09,3.89,4.04
		c-0.02,2.98-0.46,4.43-4.02,4.44c-9.76,0.01-9.76,0.2-9.76,9.98c0,7.32-0.3,14.65,0.11,21.95c0.24,4.39-1.7,4.67-5.22,4.79
		c-3.94,0.13-5.29-1.02-4.99-5.01C217.18,245.49,216.91,240.81,216.91,236.15z"/>
	<path class="st9" d="M298.88,232.38c0-6.33,0.19-12.67-0.06-18.99c-0.17-4.22,2.61-3.56,4.95-3.36c2.23,0.19,5.72-1.68,5.69,3.12
		c-0.08,12.83-0.12,25.66,0.02,38.48c0.06,5.14-3.6,3.06-5.96,3.38c-2.63,0.35-4.89,0.3-4.71-3.64
		C299.09,245.05,298.88,238.71,298.88,232.38z"/>
	<path class="st7" d="M244.77,232.17c0-6.31,0.18-12.63-0.06-18.93c-0.17-4.38,2.82-3.22,5.01-3.18c2.13,0.05,5.17-1.39,5.12,3.07
		c-0.16,12.79-0.22,25.58,0.04,38.37c0.08,4.19-2.36,3.63-4.79,3.48c-2.32-0.14-5.57,1.36-5.38-3.38
		C244.97,245.13,244.77,238.65,244.77,232.17z"/>
	<path class="st10" d="M78.95,368.19c-3.35-0.16-7.5-1.39-9.55-6.23c-0.5-1.19-1.3-2.77,0.19-3.55c1.57-0.83,2.44,0.2,3.3,1.84
		c2.21,4.23,6.51,5.6,10.96,4.18c2.15-0.69,3.49-2,3.78-4.14c0.33-2.4-1.32-3.71-3.31-4.36c-2.98-0.98-6.06-1.69-9.08-2.56
		c-3.31-0.96-5.59-2.79-5.61-6.62c-0.02-3.85,1.94-6.18,5.35-7.57c5.56-2.26,12.6-0.25,14.39,4.2c0.48,1.2,1.21,2.75-0.18,3.61
		c-1.4,0.87-2.47-0.17-3.08-1.54c-1.62-3.6-4.75-3.72-8.03-3.44c-2.4,0.21-4.17,1.28-4.43,3.87c-0.25,2.45,1.37,3.61,3.44,4.2
		c1.91,0.55,3.88,0.89,5.8,1.4c6.36,1.68,9.29,4.74,8.74,9.07C91.04,365.1,86.49,368.19,78.95,368.19z"/>
	<path class="st11" d="M256.36,359.27c-4.6-1.25-7.22,0.55-8.07,5.23c-0.3,1.67-1.32,3.46-3.42,2.56c-2.15-0.92-0.46-2.58-0.03-3.74
		c2.62-7,5.38-13.95,8.1-20.9c0.66-1.68,1.1-3.43,3.64-3.33c2.31,0.1,2.58,1.78,3.16,3.25c2.7,6.79,5.41,13.58,7.96,20.42
		c0.49,1.31,2.35,3.19,0.1,4.25c-2.35,1.11-3.35-1.04-3.68-2.82C263.28,359.69,260.75,358.07,256.36,359.27z M256.35,342.95
		c-1.26,3.14-2.11,5.64-3.24,7.98c-1.84,3.79-1.07,5.18,3.4,5.05c3.73-0.11,4.83-0.95,3.16-4.52
		C258.47,348.94,257.62,346.25,256.35,342.95z"/>
	<path class="st10" d="M309.54,347.95c2.26-0.69,3.8-1.45,5.4-1.59c4.11-0.35,7.2,1.05,8,5.59c0.79,4.46,0.27,8.96,0.34,13.45
		c0.02,1.35-0.62,2.28-2.11,2.17c-1.32-0.1-1.43-1.16-1.43-2.2c-0.01-3.33-0.06-6.66,0-9.99c0.07-3.22-0.68-5.71-4.58-5.6
		c-3.59,0.1-5.56,1.91-5.6,5.59c-0.03,3,0.01,5.99-0.04,8.99c-0.02,1.29,0.25,2.96-1.65,3.07c-2.3,0.14-2.02-1.72-2.02-3.18
		c-0.02-7.32-0.03-14.65,0.01-21.97c0.01-1.25-0.36-2.92,1.64-3.02c2.37-0.12,1.96,1.76,2.02,3.18
		C309.59,344.07,309.54,345.72,309.54,347.95z"/>
	<path class="st11" d="M348.64,356.9c0.03-5.8,3.44-10.07,8.48-10.6c4.83-0.51,8.81,3.1,9.99,8.49c0.64,2.96-0.47,3.5-3,3.41
		c-2.82-0.11-5.66-0.07-8.49,0c-1.08,0.03-2.53-0.44-2.97,1.07c-0.4,1.36,0.13,2.67,1.17,3.62c2.89,2.64,5.9,2.98,8.73-0.03
		c1.07-1.14,2.21-2.74,3.56-1.3c1.19,1.26-0.37,2.77-1.35,3.77c-2.86,2.93-6.36,3.49-10.1,2.03
		C349.94,365.51,348.62,361.56,348.64,356.9z M363.5,354.96c-0.36-3.78-2.55-5.6-5.83-5.54c-3.12,0.06-5.06,1.99-5.22,5.54
		C356.14,354.96,359.71,354.96,363.5,354.96z"/>
	<path class="st10" d="M221.68,368.07c-2.42-0.16-5.27-0.88-6.83-3.92c-0.4-0.79-1.31-1.85-0.32-2.66c1.03-0.84,2.28-0.59,3,0.57
		c1.65,2.67,4.17,3.15,6.91,2.66c1.41-0.25,3.06-0.8,3.1-2.71c0.03-1.58-1.2-2.32-2.48-2.75c-2.04-0.68-4.16-1.13-6.2-1.79
		c-2.6-0.84-4.27-2.45-4.21-5.43c0.06-3.01,1.97-4.4,4.48-5.28c4-1.4,8.96,0.03,10.67,3.08c0.47,0.85,1.2,1.86,0.31,2.7
		c-1,0.94-2.27,0.7-3.01-0.4c-1.6-2.37-3.7-3.24-6.42-2.45c-1.13,0.33-2.19,0.93-2.13,2.38c0.05,1.12,0.7,1.83,1.75,2.15
		c1.27,0.38,2.55,0.72,3.82,1.07c3.6,0.97,7.38,1.91,7.25,6.73C231.27,365.58,227.28,368.13,221.68,368.07z"/>
	<path class="st10" d="M188.92,356.94c0.06,6.68-3.57,10.96-9.44,11.13c-5.93,0.17-10.46-4.58-10.44-10.95
		c0.02-6.18,4.27-10.8,10.01-10.88C184.96,346.16,188.86,350.38,188.92,356.94z M185.59,357.12c-0.02-4.06-2.87-7.63-6.2-7.76
		c-3.6-0.14-6.59,3.41-6.59,7.82c0,4.38,3.05,7.93,6.65,7.75C182.82,364.76,185.61,361.21,185.59,357.12z"/>
	<path class="st10" d="M94.62,356.99c0.05-6.58,3.91-10.81,9.82-10.75c5.74,0.05,10,4.64,10.06,10.83c0.06,6.36-4.45,11.14-10.38,11
		C98.24,367.94,94.58,363.66,94.62,356.99z M110.74,357.31c0.07-4.38-2.88-8-6.47-7.95c-3.33,0.05-6.23,3.55-6.32,7.65
		c-0.1,4.21,3.04,8.03,6.51,7.94C107.9,364.86,110.67,361.48,110.74,357.31z"/>
	<path class="st12" d="M172.94,406.24c-4.05-1.13-5.78,0.99-6.63,4.6c-0.29,1.22-0.92,2.86-2.69,2.11
		c-1.51-0.64-0.66-1.99-0.26-3.01c2.39-6.19,4.86-12.36,7.2-18.58c0.54-1.43,1.21-2.23,2.82-2.22c1.71,0.01,2.16,1.12,2.67,2.44
		c2.31,6.05,4.71,12.06,7.01,18.11c0.42,1.11,1.61,2.61-0.37,3.32c-1.66,0.59-2.55-0.76-2.75-2.11
		C179.3,406.7,176.92,405.31,172.94,406.24z M173.43,393.3c-1.87,1.8-2.09,3.69-2.56,5.36c-0.39,1.37-2.26,3.22-0.02,4.27
		c1.52,0.72,3.77,0.91,5.22-0.22c1.49-1.17-0.1-2.69-0.51-4C175,397.01,174.26,395.38,173.43,393.3z"/>
	<path class="st10" d="M283.72,357.05c0.09-4.02,1.21-8.08,5.89-10.04c3.68-1.54,7.22-1.03,10.22,1.66c1.16,1.04,2.9,2.53,1.4,4.12
		c-1.29,1.37-2.56,0-3.61-1.24c-2.59-3.04-5.61-2.69-8.28-0.28c-2.81,2.53-2.41,10.15,0.55,12.34c3.11,2.3,5.92,1.66,8.07-1.53
		c0.86-1.27,1.74-2.97,3.36-1.53c1.37,1.21,0.19,2.82-0.71,3.97c-2.66,3.41-6.26,4.33-10.26,3.09
		C285.54,366.11,283.76,362.39,283.72,357.05z"/>
	<path class="st10" d="M369.76,355.78c0.08-2.75,1.2-6.51,5.27-8.52c3.56-1.76,7.16-1.47,10.32,1.01c1.35,1.06,3.43,2.65,1.94,4.42
		c-1.46,1.72-2.68-0.26-3.91-1.42c-3.61-3.37-8.45-1.86-9.52,2.95c-0.35,1.59-0.3,3.31-0.18,4.95c0.2,2.72,1.56,4.76,4.27,5.52
		c2.56,0.72,4.55-0.33,5.94-2.5c0.82-1.28,1.66-3.03,3.34-1.73c1.49,1.15,0.33,2.8-0.55,3.96c-2.61,3.45-6.18,4.36-10.22,3.25
		C372.02,366.45,369.7,362.71,369.76,355.78z"/>
	<path class="st12" d="M264.68,409.09c-0.13-3.07,1.69-4.58,4.3-5.36c1.26-0.38,2.63-0.39,3.9-0.74c1.41-0.39,3.14-0.73,2.81-2.8
		c-0.31-1.92-1.91-2.05-3.46-2.06c-1.2-0.01-2.34,0.16-3.11,1.22c-0.91,1.25-2.31,2.91-3.47,1.31c-1.25-1.73,0.5-3.47,2.16-4.24
		c5.7-2.67,12.68-1.15,11.83,6.88c-0.02,0.16,0.03,0.34-0.01,0.5c-0.87,3.36,1.41,6.61,0.32,9.98c-3.1-1.06-6.03-0.58-9.23,0.12
		C267.6,414.57,264.8,413.05,264.68,409.09z M272.94,405.28c-1.67,0.89-4.83,0.16-5.03,3.32c-0.16,2.47,1.92,2.71,3.83,2.55
		c2.4-0.2,3.99-1.42,4.1-3.98C275.91,405.29,274.61,405.13,272.94,405.28z"/>
	<path class="st10" d="M192.85,356.79c0-1.49-0.25-3.04,0.06-4.47c0.42-1.94-2.04-7.06,3.8-3.92c0.32,0.17,1.11-0.58,1.71-0.85
		c7.35-3.24,11.45-0.55,11.5,7.58c0.02,3.32,0,6.64-0.03,9.96c-0.01,1.05-0.27,2.05-1.59,2.05c-1.35,0-1.52-1.05-1.53-2.08
		c-0.03-3.49-0.05-6.97-0.03-10.46c0.02-2.88-1.1-5.1-4.16-5.08c-2.98,0.03-5.66,1.3-5.9,4.83c-0.23,3.31-0.08,6.64-0.15,9.95
		c-0.03,1.31,0.09,2.87-1.87,2.85c-1.98-0.02-1.77-1.61-1.79-2.9C192.82,361.77,192.85,359.28,192.85,356.79z"/>
	<path class="st10" d="M143.93,357.89c0,1.83,0.13,3.68-0.03,5.5c-0.16,1.93,1.01,5.73-3.38,2.61c-1.13-0.8-2.19,1.03-3.4,1.46
		c-5.48,1.97-9.89-0.64-10.22-6.41c-0.22-3.82-0.05-7.66-0.03-11.49c0-1.23,0.17-2.4,1.79-2.41c1.62-0.01,1.84,1.16,1.85,2.39
		c0.03,3.17,0.11,6.33,0.01,9.5c-0.1,2.97,0.46,5.64,3.94,5.76c3.63,0.13,6.01-1.89,6.22-5.7c0.17-2.99,0-6,0.08-8.99
		c0.03-1.21-0.43-2.98,1.7-2.87c1.67,0.09,1.42,1.58,1.44,2.68C143.96,352.56,143.92,355.23,143.93,357.89z"/>
	<path class="st12" d="M219.02,404.66c0-5.37,3.9-9.51,8.88-9.43c4.98,0.08,8.78,4.35,8.59,9.68c-0.18,5.24-3.81,9.11-8.6,9.17
		C222.9,414.16,219.02,410.03,219.02,404.66z M232.97,404.78c-0.24-3.29-0.69-6.47-4.96-6.63c-4.21-0.16-5.29,2.7-5.35,6.15
		c-0.06,3.52,0.56,6.82,5.12,6.87C232.05,411.21,232.69,408.1,232.97,404.78z"/>
	<path class="st12" d="M193.3,395.12c0.9,0.29,2.24,0.53,3.38,1.14c1.63,0.88,3.47,2.51,2.26,4.22c-1.19,1.69-2.52-0.37-3.54-1.32
		c-1.25-1.16-2.71-1.13-4.21-0.94c-1.05,0.13-1.96,0.62-2.11,1.76c-0.15,1.19,0.71,1.81,1.71,2.11c1.9,0.59,3.83,1.07,5.74,1.63
		c2.33,0.69,3.75,2.35,3.88,4.67c0.15,2.44-1.51,3.89-3.66,4.8c-3.73,1.56-7.16,1.25-10.09-1.68c-0.81-0.81-1.53-2.05-0.29-3.02
		c0.98-0.76,1.84-0.05,2.42,0.88c0.66,1.06,1.6,1.73,2.85,1.74c1.91,0.02,4.38,0.74,4.98-1.94c0.57-2.56-1.67-2.78-3.48-3.16
		c-0.81-0.17-1.58-0.5-2.38-0.72c-2.92-0.79-5.66-1.98-4.85-5.66C186.69,396.1,189.76,395.44,193.3,395.12z"/>
	<path class="st12" d="M211.12,413.98c-2.89,0.25-4.47-0.3-5.91-1.15c-1.47-0.87-3.23-2.33-2.14-3.9c1.41-2.03,2.35,0.24,3.31,1.2
		c1.34,1.33,3.06,1.1,4.71,1.01c1.49-0.08,2.6-0.8,2.66-2.4c0.05-1.35-0.88-2.08-2.1-2.42c-1.91-0.55-3.86-0.99-5.73-1.64
		c-1.85-0.64-3.11-1.87-3.15-4.02c-0.04-2.09,1.05-3.49,2.78-4.36c3.44-1.73,6.77-1.6,9.64,1.16c0.77,0.74,1.75,1.99,0.88,3.05
		c-0.99,1.21-2.16,0.33-2.92-0.6c-1.31-1.61-2.97-2-4.9-1.7c-1.05,0.16-1.97,0.61-2.15,1.73c-0.19,1.18,0.66,1.82,1.66,2.15
		c1.26,0.42,2.54,0.8,3.83,1.07c3.19,0.66,6.09,2.09,5.78,5.68C217,412.93,213.35,413.6,211.12,413.98z"/>
	<path class="st12" d="M293.68,404.94c-0.02-5.6,2.41-8.74,7.17-9.6c3.59-0.65,7.23,2,8.49,6.12c0.72,2.35,0.5,3.94-2.52,3.82
		c-1.99-0.08-3.99-0.14-5.97,0.03c-1.43,0.13-3.76-1-3.87,1.67c-0.08,1.99,1.38,3.35,3.26,3.93c2,0.61,3.91,0.45,5.51-1.2
		c0.73-0.75,1.56-2.29,2.72-0.85c0.86,1.06-0.16,2.19-1,2.99c-2.23,2.1-4.9,2.75-7.83,1.96c-3.17-0.85-5.08-3.03-5.75-6.22
		C293.69,406.62,293.73,405.6,293.68,404.94z M301.71,403.23c1.34-1.06,4.39,1.46,4.45-1.77c0.04-2.29-2.12-3.49-4.61-3.35
		c-2.37,0.13-4.64,1.1-4.42,3.54C297.35,404.29,300.1,402.45,301.71,403.23z"/>
	<path class="st12" d="M247.99,395.26c0.57,0.18,1.74,0.39,2.74,0.92c1.75,0.93,4.35,2.55,3.27,4.24c-1.48,2.33-2.78-0.57-4.16-1.46
		c-2.45-1.58-4.77-1.12-6.58,1.15c-2.27,2.83-1.88,7.87,0.84,9.97c2.29,1.77,4.62,1.73,6.51-0.68c0.9-1.15,1.79-3.2,3.28-1.78
		c1.41,1.35-0.3,3.07-1.39,4.14c-2.3,2.27-5.15,2.91-8.26,1.9c-4.21-1.37-6.32-5.76-5.36-11.01
		C239.71,398.1,243.16,395.1,247.99,395.26z"/>
	<path class="st11" d="M154.74,367.26c-2.98,0.05-4.11-1.45-4.1-4.04c0.01-2.99,0-5.97-0.02-8.96c-0.01-1.93,0.51-4.08-2.55-4.39
		c-1.18-0.12-1.57-1.89-0.66-2.17c3.07-0.94,3.38-3.06,3.31-5.67c-0.03-0.91,0.68-1.5,1.65-1.43c1.01,0.08,1.32,0.81,1.39,1.72
		c0.17,2.15-0.78,4.75,3.02,5.02c1.43,0.1,1.16,1.7,0,2.58c-4.22,3.19-4.36,11.58-0.17,14.45c0.81,0.55,1.28,1.13,0.93,1.97
		C156.95,367.73,155.58,367.13,154.74,367.26z"/>
	<path class="st11" d="M342.83,367.25c-2.96,0.08-4.18-1.34-4.18-3.97c0-2.99,0.02-5.97-0.03-8.96c-0.03-1.88,0.62-4.04-2.47-4.46
		c-1.53-0.21-1.67-2.18-0.44-2.45c2.99-0.66,3-2.58,2.96-4.83c-0.02-1.09,0.35-2.05,1.64-2.01c1.33,0.04,1.45,1.11,1.48,2.15
		c0.05,2.1-0.5,4.35,2.94,4.57c1.46,0.09,1.32,2.33,0.13,2.44c-4.06,0.35-3.29,3.27-2.95,5.44c0.52,3.39-2.61,8.25,3.45,9.74
		c0.18,0.04,0.35,0.95,0.21,1.34C345.01,367.73,343.64,367.12,342.83,367.25z"/>
	<path class="st11" d="M398.23,367.26c-2.9,0.09-4.54-0.89-4.56-3.68c-0.02-2.82-0.03-5.64-0.04-8.46c-0.01-1-0.25-2.06,0.02-2.97
		c0.84-2.94-5.84-1.68-2.96-4.44c1.8-1.73,3.16-2.79,3.01-5.32c-0.07-1.1,0.49-1.94,1.8-1.78c1.05,0.13,1.25,0.96,1.27,1.82
		c0.06,2.26-0.46,4.63,3.14,4.93c1.22,0.1,1.2,2.22-0.25,2.49c-5.32,0.99-2.51,5.04-2.66,7.54c-0.14,2.36-2.32,6.32,2.72,7.06
		c0.97,0.14,1.18,1.19,0.81,2C400,367.56,398.82,367.16,398.23,367.26z"/>
	<path class="st11" d="M271.75,356.82c0-1.99-0.09-3.98,0.03-5.97c0.07-1.22-0.69-2.83,0.89-3.55c1.53-0.7,1.57,0.87,2.3,1.63
		c1.33,1.36,1.81-0.98,2.87-1.28c1.54-0.43,3.36-2.73,4.57-0.18c1.08,2.28-1.27,2.3-2.79,2.9c-4.34,1.71-4.47,5.6-4.78,9.5
		c-0.2,2.42,1.42,6.89-1.32,6.83c-3.66-0.09-1-4.51-1.73-6.92C271.52,358.88,271.75,357.82,271.75,356.82z"/>
	<path class="st12" d="M291.6,396.92c-5.31,3.14-5.29,11.5-0.47,15.43c-4.91,1.52-5.86,0.76-6.47-3.67
		c-0.51-3.73,2.39-8.33-2.5-11.08c2.32-1.78,2.03-5.01,3.83-6.95c0.71-0.77,1.92,0.52,1.72,1.58
		C287.15,395.15,289.13,396.14,291.6,396.92z"/>
	<path class="st0" d="M121.77,353.21c0,3.66,0.04,7.32-0.03,10.97c-0.02,1.19,0.49,2.99-1.65,2.89c-1.68-0.08-1.41-1.58-1.42-2.67
		c-0.03-7.48-0.03-14.96,0-22.44c0-1.09-0.25-2.58,1.45-2.63c2.16-0.06,1.59,1.74,1.62,2.92
		C121.82,345.9,121.77,349.55,121.77,353.21z"/>
	<path class="st0" d="M164.87,357.46c0,2.5,0.02,5-0.01,7.5c-0.01,1.01-0.13,2.07-1.48,2.15c-1.42,0.08-1.57-0.98-1.58-2.01
		c-0.02-5.33-0.02-10.67,0-16c0-1.08,0.31-2.03,1.68-1.88c1.36,0.15,1.37,1.25,1.38,2.24C164.9,352.13,164.87,354.79,164.87,357.46z
		"/>
	<path class="st0" d="M331.75,357.55c0,2.5,0.02,5-0.01,7.5c-0.01,1.02-0.14,2.1-1.53,2.07c-1.35-0.02-1.53-1.07-1.53-2.1
		c-0.02-5.33-0.02-10.67,0.01-16c0.01-1.11,0.47-1.94,1.79-1.79c1.09,0.13,1.23,0.99,1.24,1.82
		C331.77,351.88,331.75,354.71,331.75,357.55z"/>
	<path class="st12" d="M257.89,404.43c0-2.16-0.03-4.31,0.01-6.47c0.02-0.91,0.46-1.66,1.44-1.68c0.99-0.02,1.46,0.72,1.47,1.63
		c0.03,4.48,0.04,8.96,0.01,13.44c-0.01,0.89-0.42,1.66-1.42,1.67c-0.99,0.01-1.46-0.71-1.48-1.62
		C257.87,409.08,257.89,406.76,257.89,404.43z"/>
	<path class="st13" d="M329.92,162.21c-0.76-0.65-1.42-1.13-1.98-1.7c-5.6-5.69-11.06-11.52-16.82-17.03
		c-2.44-2.34-1.56-3.6,0.36-5.51c6.16-6.15,6.1-6.21,12.12-0.18c6.34,6.34,6.33,6.33,12.53,0.2c4.96-4.92,10.02-9.74,14.88-14.75
		c1.83-1.89,2.97-2.35,5.14-0.24c6.8,6.61,6.91,6.52,0.19,13.21c-7.9,7.86-15.82,15.7-23.74,23.54
		C331.79,160.54,330.93,161.28,329.92,162.21z"/>
	<path class="st11" d="M118.39,142.2c0.3,3.41,0.48,6.66-0.33,9.93c-1.83,7.43-8.99,11.2-16.23,8.53c-3.27-1.21-4.57-3.6-4.62-6.93
		c-0.06-4.24,2.03-7.12,5.94-8.21C107.93,144.19,112.85,143.38,118.39,142.2z"/>
	<path class="st2" d="M365.63,232.16c0-3.66-0.01-7.33,0.01-10.99c0.01-1.36,0.03-2.48,1.91-2.88c5.57-1.2,13.36,1.29,15.71,5.28
		c3.15,5.33,2.64,15.33-1,19.46c-2.38,2.7-12.43,4.69-15.53,3.13c-1.39-0.7-1.07-1.92-1.08-3.01
		C365.6,239.48,365.63,235.82,365.63,232.16z"/>
	<path class="st11" d="M179.22,218.04c2.95,0,4.45-0.05,5.95,0.01c3.51,0.15,5.07,2.43,5.27,5.54c0.22,3.37-1.34,6.01-4.91,6.4
		c-3.46,0.37-6.99,0.12-10.48,0.16c-1.44,0.02-2.14-0.66-2.11-2.11c0.01-0.67-0.02-1.33-0.02-2
		C173.06,216.31,171.79,218.23,179.22,218.04z"/>
	<path class="st14" d="M256.35,342.95c1.27,3.31,2.12,5.99,3.31,8.52c1.68,3.57,0.57,4.4-3.16,4.52c-4.46,0.13-5.23-1.26-3.4-5.05
		C254.25,348.58,255.09,346.09,256.35,342.95z"/>
	<path class="st14" d="M363.5,354.96c-3.79,0-7.35,0-11.05,0c0.16-3.55,2.1-5.48,5.22-5.54
		C360.95,349.36,363.13,351.18,363.5,354.96z"/>
	<path class="st14" d="M185.59,357.12c0.02,4.08-2.78,7.64-6.14,7.81c-3.6,0.19-6.65-3.37-6.65-7.75c0-4.41,2.99-7.96,6.59-7.82
		C182.72,349.5,185.58,353.07,185.59,357.12z"/>
	<path class="st14" d="M110.74,357.31c-0.06,4.18-2.84,7.55-6.28,7.64c-3.47,0.09-6.61-3.73-6.51-7.94c0.09-4.09,2.99-7.6,6.32-7.65
		C107.86,349.3,110.8,352.92,110.74,357.31z"/>
	<path class="st14" d="M173.43,393.3c0.82,2.08,1.57,3.72,2.11,5.42c0.42,1.3,2,2.82,0.51,4c-1.44,1.14-3.69,0.94-5.22,0.22
		c-2.23-1.05-0.37-2.9,0.02-4.27C171.35,396.98,171.56,395.1,173.43,393.3z"/>
	<path class="st14" d="M272.94,405.28c1.68-0.15,2.97,0.01,2.89,1.89c-0.11,2.57-1.7,3.78-4.1,3.98c-1.9,0.16-3.99-0.08-3.83-2.55
		C268.11,405.43,271.27,406.17,272.94,405.28z"/>
	<path class="st14" d="M232.97,404.78c-0.28,3.32-0.92,6.43-5.19,6.38c-4.56-0.05-5.18-3.35-5.12-6.87
		c0.06-3.45,1.14-6.31,5.35-6.15C232.28,398.31,232.73,401.48,232.97,404.78z"/>
	<path class="st14" d="M301.71,403.23c-1.61-0.78-4.35,1.06-4.58-1.58c-0.21-2.44,2.05-3.41,4.42-3.54
		c2.49-0.14,4.65,1.06,4.61,3.35C306.1,404.69,303.04,402.17,301.71,403.23z"/>
</g>
</svg>
