<?xml version="1.0" encoding="utf-8"?>
<!-- Generator: Adobe Illustrator 23.0.1, SVG Export Plug-In . SVG Version: 6.00 Build 0)  -->
<svg version="1.1" id="Layer_1" xmlns="http://www.w3.org/2000/svg" xmlns:xlink="http://www.w3.org/1999/xlink" x="0px" y="0px"
	 viewBox="0 0 352 352" style="enable-background:new 0 0 352 352;" xml:space="preserve">
<style type="text/css">
	.st0{fill:#9A9A9A;}
	.st1{fill:#A01414;}
	.st2{fill:#9E0E0E;}
	.st3{fill:#3C6F89;}
	.st4{fill:#9E9E9E;}
	.st5{fill:#9B0606;}
	.st6{fill:#484445;}
	.st7{fill:#444142;}
	.st8{fill:#403D3D;}
	.st9{fill:#4D4A4B;}
	.st10{fill:#363233;}
	.st11{fill:#282526;}
	.st12{fill:#D7D7D7;}
</style>
<g>
	<g>
		<path class="st0" d="M290.49,236.92c4.62-0.3,8.68,0.05,12.39,2.43c2.39,1.54,2.1,2.66-0.14,3.81
			c-4.94,2.55-10.02,4.97-15.67,2.57c-4.49-1.91-6.14,1.48-7.82,4.09c-1.56,2.43,1.14,2.74,2.56,2.83c3.36,0.21,6,1.84,8.63,3.62
			c1.54,1.04,2.17,2.28,0.12,3.37c-5.28,2.79-10.98,4.98-16.71,2.46c-4.23-1.86-6.84-0.74-9.6,2.1c-1.59,1.63-3.3,3.15-5.59,5.32
			c5.84,0.34,11,0.43,15.24,3.76c1.16,0.91,3.01,1.53,2.76,3.21c-0.23,1.52-1.94,2.15-3.35,2.73c-8.35,3.41-16.59,3.76-24.1-1.9
			c-2.6-1.96-3.89-0.44-5.57,0.8c-6.38,4.71-12.93,9.14-20.75,13.49c0.84-8.85,4.56-14.84,11.16-18.84
			c11.69-7.08,22.96-14.73,33.14-23.89c23.86-21.47,41.08-47.31,48.27-78.73c3.88-16.96,5.43-34.49,3.89-52.07
			c-0.13-1.49-0.85-3.29,1.18-5.03c1.67,5.31,2.01,10.51,2.67,15.68c0.23,0.06,0.6,0.28,0.73,0.17c1.57-1.23,3.03-4.31,5.09-2.38
			c1.76,1.64,0.1,4.4-1.33,6.27c-1.93,2.53-5.26,3.99-4.67,8.22c0.41,2.88,0.99,3.5,3.61,2.1c1.5-0.8,3.59-2.4,4.95-0.55
			c1.39,1.88-0.57,3.68-1.6,5.33c-1.09,1.75-2.61,3.07-4.53,3.77c-2.18,0.8-3.06,2.46-3.34,4.55c-0.44,3.25-1.17,6.64,4.34,4.84
			c1.51-0.49,4.14-1.01,4.97,0.79c0.81,1.76-1.45,3.11-2.49,4.52c-1.45,1.97-3.77,2.75-6,3.37c-2.01,0.56-2.99,1.72-3.68,3.61
			c-2.09,5.75-1.9,5.99,4.02,5.98c2.19,0,5.33-0.37,6.13,1.9c0.72,2.04-1.99,3.56-3.5,5.05c-2.23,2.22-5.2,2.86-8.13,3.52
			c-2.68,0.6-7.51,8.13-6.84,10.71c0.34,1.33,1.23,1.27,2.32,1.02c1.29-0.29,2.63-0.63,3.93-0.58c2.25,0.09,5.65-0.94,6.37,1.32
			c0.87,2.7-2.21,4.46-4.33,5.98c-2.92,2.09-6.36,2.86-9.85,3.28c-3.16,0.38-7.05,4.06-7.23,7.02c-0.11,1.93,1.21,1.64,2.32,1.6
			c2-0.08,3.98-0.17,5.93,0.51c2.01,0.7,4.93,0.9,5.18,3.12c0.2,1.8-2.51,2.9-4.18,3.78c-3.1,1.63-6.64,3.28-10.03,2.29
			C295.1,227.96,292.78,231.58,290.49,236.92z"/>
		<path class="st0" d="M128.73,291.46c-7.82-4.01-14.37-8.78-20.92-13.5c-2.35-1.7-3.78-2.15-6.37-0.03
			c-5.92,4.87-17.5,4.89-24.16,0.73c-2.53-1.58-2.75-3.06-0.31-4.87c4.5-3.34,9.61-4.38,15.19-3.88c-3.43-6.59-8.72-9.18-15.08-7.48
			c-5.51,1.47-10.53,0.04-15.38-2.51c-2.1-1.1-2.14-2.38-0.27-3.74c2.88-2.09,5.95-3.69,9.67-3.42c2.99,0.21,3.22-1.16,1.57-3.12
			c-2.44-2.89-4.69-6.03-9.47-3.6c-3.32,1.69-6.85,0.46-10.15-0.91c-2.23-0.92-5.83-1.49-5.48-4.06c0.33-2.43,3.82-3.28,6.4-4
			c0.47-0.13,1.05,0.02,1.48-0.17c1.65-0.76,4.73,1.68,5.02-1.67c0.22-2.6-4.84-6.29-7.29-5.76c-5.58,1.19-10.43-0.27-15.09-3.36
			c-3.37-2.23-2.1-3.51,0.55-4.73c2.79-1.28,5.75-1.58,8.8-1.25c2.07,0.22,2.81-0.51,1.87-2.58c-1.67-3.66-3.03-7.09-8.43-6.54
			c-4.23,0.43-8.08-1.74-11.03-4.96c-0.96-1.05-2.36-2.25-1.68-3.87c0.61-1.44,2.28-1.11,3.56-1.22c2.33-0.21,4.66-0.16,6.93,0.55
			c1.42,0.45,2.21,0.12,2.12-1.61c-0.25-4.56-4.06-9.24-8.63-10.46c-2.78-0.74-5.4-1.77-7.27-4.1c-1.09-1.36-3.5-2.4-2.53-4.39
			c0.79-1.63,3.15-1.56,4.94-1.65c1.14-0.06,2.31,0.2,3.43,0.47c2.72,0.65,2.99-0.28,2.56-2.85c-0.69-4.09-1.86-7.32-6.59-7.94
			c-1.73-0.23-2.95-1.51-4.03-2.79c-1.13-1.33-3.39-2.49-2.26-4.49c0.86-1.52,3.08-0.46,4.64-0.81c1.61-0.36,4.11,2.26,4.63-0.42
			c0.56-2.89,0.83-6.57-2.61-8.4c-2.89-1.53-5.4-3.31-6.7-6.39c-0.44-1.03-0.99-2.31-0.05-3.28c0.94-0.97,2.14-0.34,3.28-0.08
			c1.45,0.33,3.31,2.72,4.23,0.71c1-2.21,1.55-5.41-0.96-7.35c-2.08-1.61-3.53-3.49-4.36-5.9c-0.43-1.26-0.96-2.85,0.05-3.8
			c1.38-1.29,2.26,0.61,3.33,1.15c0.72,0.36,1.31,0.99,2.32,1.78c1.52-5.16,0.96-10.53,3.87-15.23c0,2.52,0.04,5.04-0.01,7.56
			c-0.28,15.5,0.4,30.94,3.54,46.16c4.38,21.2,13.76,40.1,26.69,57.35c14.59,19.46,33.03,34.49,53.71,47.02
			C123.05,276.04,128.35,281.73,128.73,291.46z"/>
		<path class="st1" d="M232.65,163.56c0-8.49,0.1-16.99-0.06-25.48c-0.05-2.85,0.88-3.75,3.7-3.71c10.16,0.13,20.32,0.14,30.47,0
			c3.02-0.04,4.04,0.9,4.01,3.99c-0.03,3.01-1.24,3.62-3.89,3.57c-7.33-0.12-14.66,0.06-21.98-0.1c-2.64-0.06-3.29,0.83-3.38,3.4
			c-0.5,13.9-0.57,13.9,13.32,13.9c3.16,0,6.34,0.17,9.49-0.05c2.92-0.2,4.12,0.54,4.13,3.78c0.01,3.31-1.37,3.84-4.19,3.77
			c-6.32-0.15-12.66,0.06-18.98-0.09c-2.72-0.07-3.93,0.64-3.76,3.59c0.22,3.98,0.2,8,0.01,11.99c-0.13,2.7,0.96,3.4,3.49,3.35
			c6.99-0.13,13.99-0.06,20.98-0.04c2.57,0.01,5.2-0.77,5.21,3.73c0.01,4.2-2.09,3.94-4.92,3.91c-9.66-0.08-19.32-0.19-28.97,0.05
			c-3.6,0.09-4.93-0.68-4.77-4.59C232.88,180.22,232.65,171.88,232.65,163.56z"/>
		<path class="st2" d="M172.4,194.2c-23.29,0.48-31.99-19.43-28.05-38.07c4-18.94,21.6-27.96,39.39-21.13
			c6.68,2.56,10.99,7.32,13,14.1c0.45,1.51,1.95,4.21-0.73,4.48c-2.49,0.25-6.03,2.2-7.79-1.89c-3.92-9.14-8.47-12.16-17.35-11.64
			c-8.13,0.48-14.61,5.57-16.89,13.93c-2.55,9.34-2.48,18.55,3.79,26.63c4.74,6.11,11.27,8.15,18.7,6.51
			c6.72-1.48,10.25-6.34,11.86-12.77c0.74-2.94,6.93-5.15,8.88-3.08c1.21,1.28,0.24,2.89-0.08,4.23
			C194.18,187.71,185.53,194.2,172.4,194.2z"/>
		<path class="st2" d="M80.8,163.72c-0.94-25.68,23.56-36.5,41.76-27.99c5.97,2.79,9.6,7.56,11.33,13.78
			c0.38,1.35,1.59,3.87-0.86,4.1c-2.42,0.23-5.71,1.9-7.41-1.65c-4.58-9.6-8.87-12.5-17.77-11.91c-8.55,0.57-14.6,5.94-17.39,15.44
			C87,167.3,91.5,180.6,100.58,185.36c10.68,5.6,21.99,0.64,25.04-11c0.76-2.89,6.01-4.97,8.36-3.34c1.12,0.78,0.55,1.79,0.4,2.69
			c-1.46,9.06-5.89,16.26-14.88,18.94C99.38,198.66,80.06,188.21,80.8,163.72z"/>
		<path class="st3" d="M80.92,232.09c-11.02-12.97-20.28-27.06-26.16-43.1c-8.93-24.35-11.42-49.47-7.84-75.13
			c1.1-7.89,5.75-13.38,13.91-17.15c-2.67,9.54-4.42,18.3-5.64,27.16c-4.3,31.18,1.5,60.56,15.79,88.4
			c2.42,4.72,5.23,9.26,8.19,13.67c1.33,1.98,0.43,4.3,1.69,6.13L80.92,232.09z"/>
		<path class="st3" d="M272,228c-0.01-2.95,2.47-4.56,3.79-6.76c21.32-35.59,26.7-73.61,17.68-113.89
			c-0.72-3.22-1.42-6.45-2.14-9.76c6.82,1.94,12.72,8.58,13.63,16.62c3.09,27.2,0.91,53.81-9.91,79.32
			c-4.77,11.23-10.79,21.7-18.49,31.19c-1.23,1.51-2.3,3.22-4.55,3.32L272,228z"/>
		<path class="st4" d="M270.78,202.79c-24.47,1.98-48.97,3.59-73.39,6.06c-19.16,1.94-38.13,0.09-57.15-1.23
			c-14.89-1.03-29.75-2.44-44.63-3.67c-5.12-0.42-10.25-0.79-15.38-1.18c0.04-0.44,0.09-0.89,0.13-1.33
			c51.28,0.88,102.56,0.25,153.84,0.39c12.14,0.03,24.29-0.27,36.44-0.42C270.69,201.87,270.74,202.33,270.78,202.79z"/>
		<path class="st4" d="M84.89,125.82c6.88-2.29,14.06-1.97,21.1-2.62c22.84-2.12,45.69-4.21,68.57-5.6
			c8.04-0.49,16.21,1.08,24.32,1.74c19.05,1.55,38.1,3.13,57.15,4.68c2.75,0.22,5.59-0.04,8.98,1.8
			C204.37,125.82,144.63,125.82,84.89,125.82z"/>
		<path class="st5" d="M218.28,163.68c0,8.65-0.2,17.32,0.09,25.96c0.13,3.78-2,3.36-4.36,3.38c-2.39,0.02-4.34,0.38-4.29-3.39
			c0.22-17.14,0.18-34.28,0.02-51.43c-0.03-3.24,1.1-3.97,4.03-3.81c2.65,0.15,4.76-0.14,4.61,3.81
			C218.06,146.7,218.28,155.2,218.28,163.68z"/>
		<path class="st0" d="M150.48,280.01c17.07,4.39,33.83,4.38,51.08,0.99c-1.67,3.67-5.21,4.38-7.72,6.17
			c-4.45,3.18-9.36,5.7-14.02,8.59c-1.5,0.93-2.87,1.66-4.59,0.6c-7.93-4.89-15.87-9.75-23.79-14.66
			C151.09,281.49,150.97,280.92,150.48,280.01z"/>
		<path class="st6" d="M232.56,98.19c0-0.67-0.2-1.41,0.03-1.98c1.06-2.6-2.82-7.18,2.94-7.84c7.98-0.92,12.64,1.75,13.63,7.52
			c1.02,5.96-1.52,10.83-6.26,12c-0.16,0.04-0.33,0.05-0.49,0.08C233.47,109.69,232.56,108.79,232.56,98.19z M235.6,98.46
			c1.59,2.16-2.5,6.97,3.57,6.84c4.46-0.1,6.79-2.41,6.9-6.75c0.12-4.61-2.4-7.21-6.93-7.13C233.27,91.51,237.08,96.14,235.6,98.46z
			"/>
		<path class="st7" d="M116.61,248.16c-4.47,0.09-7.42-0.72-8.76-4.24c-0.3-0.79-1.22-1.93-0.11-2.64c1.05-0.68,2.35-0.55,2.9,0.84
			c1.14,2.89,3.46,3.3,6.12,3.07c1.55-0.13,3.15-0.51,3.37-2.32c0.23-1.87-1.43-2.45-2.81-2.99c-1.85-0.72-3.76-1.28-5.62-1.96
			c-2.65-0.97-4.18-2.82-3.71-5.72c0.46-2.85,2.48-4.08,5.24-4.5c3.4-0.51,6,0.81,8.25,3.16c0.94,0.98,1.17,2.11,0.16,3.05
			c-1.1,1.02-1.68-0.16-2.31-0.86c-0.55-0.61-1.05-1.45-1.75-1.73c-1.5-0.59-3.09-1.42-4.75-0.38c-0.71,0.45-1.38,0.98-1.23,1.96
			c0.31,2.06,2.03,2.41,3.61,2.91c0.63,0.2,1.28,0.34,1.92,0.52c3.55,0.96,7.01,2.26,6.38,6.83
			C122.88,247.69,119.16,248.05,116.61,248.16z"/>
		<path class="st6" d="M182.25,237.63c-0.01-0.33-0.01-0.66-0.01-0.99c0-8.85,1.91-10.37,10.62-8.49c3.85,0.83,6.52,5.79,3.89,8.31
			c-3.24,3.1-1.64,5.25-0.15,7.92c0.57,1.03,2.24,2.28,0.45,3.28c-1.54,0.86-2.71-0.25-3.39-1.88c-0.64-1.52-1.59-2.9-2.34-4.37
			c-0.94-1.85-2.58-1.91-4.26-1.62c-1.96,0.34-1.22,2.02-1.36,3.21c-0.09,0.82,0,1.66-0.04,2.48c-0.05,1.23-0.25,2.44-1.88,2.27
			c-1.23-0.13-1.51-1.11-1.52-2.18C182.25,242.93,182.25,240.28,182.25,237.63z M189.52,236.76c2.14-0.08,4.69-0.01,4.5-3.06
			c-0.21-3.35-3.15-2.56-5.3-2.82c-2.37-0.29-3.08,0.8-3.12,3.1C185.53,237.1,187.49,236.83,189.52,236.76z"/>
		<path class="st7" d="M138.58,97.97c0-0.5-0.05-1.01,0.01-1.5c0.32-2.58-1.32-6.38,0.89-7.51c3.12-1.6,7.2-1.1,10.74,0.02
			c3.46,1.1,5.35,5.79,2.84,8.02c-3.31,2.94-1.71,4.92-0.13,7.5c0.59,0.96,2.07,2.42,0.31,3.36c-1.5,0.8-2.79-0.12-3.46-1.83
			c-0.54-1.39-1.49-2.61-2.06-3.99c-0.81-1.98-2.36-2.05-4.09-1.9c-2.49,0.2-1.46,2.14-1.66,3.43c-0.13,0.81-0.02,1.66-0.04,2.5
			c-0.03,1.09-0.34,1.98-1.67,1.94c-1.33-0.03-1.62-0.97-1.63-2.03c-0.03-2.67-0.01-5.33-0.01-8
			C138.59,97.97,138.58,97.97,138.58,97.97z M145.65,97.09c2.09-0.09,4.78,0.24,4.63-2.87c-0.15-3.3-3.05-2.67-5.26-2.89
			c-2.29-0.22-3.1,0.61-3.19,3.01C141.69,97.59,143.68,97.14,145.65,97.09z"/>
		<path class="st8" d="M166.38,82.4c-3.05-0.18-6.26-0.35-7.77-3.89c-0.36-0.84-1.07-1.93,0.09-2.66c1.19-0.75,2.37-0.37,2.84,0.93
			c1.29,3.55,4.1,3.38,6.98,2.99c1.19-0.16,2.23-0.8,2.42-2.15c0.19-1.34-0.54-2.24-1.72-2.71c-2-0.78-4.05-1.45-6.07-2.21
			c-2.68-1.01-4.66-2.54-4.41-5.82c0.25-3.21,2.8-3.95,5.17-4.55c3.44-0.88,6.6,0.04,8.99,2.72c0.67,0.75,1.62,2.05,0.35,3.04
			c-1.03,0.81-2.3,0.6-2.92-0.7c-0.61-1.29-1.38-2.25-2.86-2.46c-2.01-0.29-4.44-0.64-5.19,1.61c-0.78,2.31,1.7,2.87,3.31,3.55
			c1.36,0.58,2.86,0.85,4.28,1.31c2.95,0.95,5.11,2.71,4.73,6.09c-0.39,3.49-3.14,4.34-6.11,4.69
			C167.85,82.28,167.19,82.32,166.38,82.4z"/>
		<path class="st6" d="M120.56,97.84c0-0.33,0-0.66,0-1c0-8.77,1.89-10.25,10.75-8.54c1.11,0.21,1.96,0.41,1.86,1.73
			c-0.11,1.39-1.16,1.39-2.19,1.4c-1.66,0.01-3.32,0.06-4.98,0.02c-2.13-0.05-2.33,1.28-2.32,2.94c0.01,1.69,0.82,2.13,2.41,2.39
			c2.11,0.34,5.92-1.4,5.98,1.15c0.06,2.57-3.75,1.14-5.81,1.27c-2.41,0.15-2.54,1.4-2.61,3.24c-0.09,2.12,0.65,3.14,2.84,2.89
			c0.16-0.02,0.35-0.05,0.5,0.01c2.08,0.78,6.02-1.7,6.05,1.66c0.02,2.4-3.94,1.04-6.05,1.08c-7.3,0.14-6.32,0.91-6.42-6.23
			C120.54,100.5,120.56,99.17,120.56,97.84z"/>
		<path class="st9" d="M221.02,88.3c0.5,0,1.02-0.11,1.49,0.02c1.58,0.43,4.45-1.21,4.53,1.37c0.1,3.25-3.02,1.35-4.67,1.71
			c-1.92,0.42-4.6-0.72-4.43,2.92c0.15,3.38,2.67,2.11,4.4,2.35c0.81,0.11,1.66,0,2.48,0.04c0.86,0.04,1.73,0.21,1.71,1.31
			c-0.03,1.09-0.92,1.22-1.77,1.25c-1.16,0.04-2.33,0.09-3.48,0.01c-2.15-0.15-3.39,0.36-3.4,2.94c-0.01,2.45,0.95,3.01,3.22,3.17
			c2.04,0.15,5.78-1.4,5.76,1.37c-0.01,2.71-3.77,1.29-5.79,1.32c-7.84,0.1-6.75,1.03-6.84-6.82c-0.02-1.99-0.03-3.98,0-5.97
			C214.32,87.67,213.08,88.36,221.02,88.3z"/>
		<path class="st7" d="M210.5,82.47c-5.9-0.04-9.83-4.11-9.84-10.16c0-5.78,4.29-10.31,9.81-10.37c5.99-0.06,10.02,4.26,9.91,10.6
			C220.28,78.81,216.59,82.51,210.5,82.47z M210.59,79.94c3.6,0.01,6.35-3.12,6.48-7.38c0.13-4.5-2.67-7.93-6.46-7.89
			c-3.81,0.04-6.36,2.94-6.47,7.38C204.01,76.58,206.75,79.93,210.59,79.94z"/>
		<path class="st10" d="M188.54,82.27c-4.19,0.09-7.64-1-9.03-5.03c-1.52-4.39-1.76-8.94,1.92-12.49c3.15-3.03,7.03-3.4,11.09-1.76
			c1.47,0.59,2.56,1.63,3.19,2.99c0.43,0.93,1.29,2.34-0.13,3.05c-1.2,0.61-1.95-0.26-2.61-1.47c-1.9-3.52-5.21-3.69-8.05-1.9
			c-3.79,2.4-3.64,6.49-2.43,10.28c1.06,3.32,3.75,4.55,7.11,3.88c1.9-0.38,3.16-1.67,3.66-3.65c0.29-1.14,1.18-1.65,2.29-1.25
			c1.42,0.52,0.69,1.7,0.44,2.52C194.85,81.25,191.93,82.37,188.54,82.27z"/>
		<path class="st8" d="M134.72,82.38c-3.57,0.14-6.66-2.03-8.01-6.34c-1.41-4.48-0.72-8.77,3-11.83c3.36-2.76,7.34-2.93,11.2-0.81
			c0.96,0.53,1.73,1.53,2.38,2.47c0.63,0.92,1.41,2.22,0.15,3.06c-1.12,0.75-2.08,0.14-2.73-1.17c-1.53-3.1-4.19-3.58-7.19-2.59
			c-3.25,1.08-3.93,3.97-3.99,6.83c-0.06,3.02,0.47,6.1,3.82,7.45c3.35,1.35,5.89,0.24,7.35-3.01c0.58-1.3,1.43-2.06,2.64-1.45
			c1.43,0.73,0.57,2.1,0.16,3.08C142.06,81.47,139.11,82.35,134.72,82.38z"/>
		<path class="st10" d="M159.18,233.22c-1.6,0.06-2.4-0.08-2.95-0.83c-2.49-3.36-5.7-2.59-8.4-0.82c-3.18,2.09-3.22,5.63-2.42,9.01
			c0.83,3.49,3.27,4.59,6.75,4.5c2.43-0.06,3.58-1.03,4.19-3.25c0.23-0.83,0.76-2.26,1.97-1.7c1.3,0.59,0.83,1.9,0.34,2.99
			c-1.3,2.88-3.25,4.74-6.63,5.1c-3.98,0.43-6.82-1.21-8.78-4.38c-4.15-6.74-0.1-15.4,7.65-15.73
			C154.05,227.97,157.24,229.78,159.18,233.22z"/>
		<path class="st9" d="M187.07,98.04c0-0.33,0-0.66,0-0.99c0-9.01,1.92-10.52,11.01-8.74c1.03,0.2,2.03,0.33,1.96,1.67
			c-0.07,1.35-1.12,1.46-2.14,1.48c-1.49,0.03-2.98,0.08-4.47,0.01c-1.85-0.08-2.69,0.61-2.67,2.58c0.02,1.85,0.6,2.83,2.56,2.66
			c0.33-0.03,0.67-0.05,0.99,0.01c1.5,0.31,4.22-0.85,4.25,1.09c0.04,2.6-2.83,1.5-4.33,1.41c-3.04-0.18-3.74,1.2-3.47,3.81
			c0.1,0.98,0,1.99,0,2.98c0,1.11-0.34,1.97-1.6,2.08c-1.48,0.12-2.09-0.69-2.09-2.09c0-2.65,0-5.3,0-7.95
			C187.08,98.04,187.07,98.04,187.07,98.04z"/>
		<path class="st7" d="M126.93,237.88c0-0.5,0-0.99,0-1.49c0-8.33,2.57-10.28,10.9-8.33c0.88,0.21,1.7,0.44,1.65,1.42
			c-0.05,0.92-0.8,1.38-1.74,1.39c-1.66,0.02-3.32,0.09-4.97,0.01c-1.8-0.1-2.7,0.39-2.74,2.45c-0.05,2.22,0.83,2.7,2.9,2.86
			c2.08,0.16,5.87-1.44,5.85,1.49c-0.02,2.92-3.77,1.04-5.81,1.3c-1.89,0.24-3.05,0.3-2.96,2.7c0.08,2.17,0.38,3.25,2.96,3.31
			c2.25,0.06,6.5-1.36,6.4,1.23c-0.13,3.34-4.3,1.16-6.65,1.64c-4.92,1-6.52-1.38-5.82-6.01
			C127.1,240.56,126.93,239.21,126.93,237.88z"/>
		<path class="st6" d="M224.7,228.2c4.77-0.47,5.19,3.28,6.6,5.51c1.77,2.81,2.54,2.78,4.26-0.04c1.34-2.19,2.47-6.88,5.33-5.17
			c2.37,1.41-1.39,4.6-2.66,6.66c-2.01,3.24-3.51,6.34-3.06,10.21c0.15,1.28-0.3,2.36-1.81,2.44c-0.93,0.05-1.83-0.53-1.68-1.43
			C232.83,239.17,227.34,234.49,224.7,228.2z"/>
		<path class="st8" d="M165.88,88.37c0.83,0,1.69-0.12,2.49,0.02c1.83,0.32,4.98-1.08,5.24,1.19c0.35,3.13-2.94,1.43-4.61,1.84
			c-1.77,0.43-1.89,1.55-1.88,2.96c0.02,3.16,0.12,6.33-0.05,9.49c-0.08,1.44,1.04,3.89-1.49,4.02c-2.78,0.15-1.47-2.39-1.58-3.75
			c-0.21-2.48-0.17-5-0.03-7.48c0.18-3.22,0.3-6.17-4.42-5.29c-1.13,0.21-2.02-0.44-1.92-1.67c0.11-1.32,1.24-1.32,2.26-1.32
			C161.88,88.37,163.88,88.37,165.88,88.37z"/>
		<path class="st10" d="M178.04,236.92c0,1-0.01,1.99,0,2.99c0.03,6.33-1.85,8.2-9.72,8.04c-4.33-0.08-5.44-3.69-5.51-7.46
			c-0.07-3.32-0.04-6.64,0-9.96c0.01-0.92-0.22-2.17,1.19-2.3c1.65-0.15,1.8,1.09,1.81,2.31c0.04,3.32-0.03,6.64,0.1,9.96
			c0.11,3.07,0.99,5.73,4.82,5.48c3.71-0.24,4.3-2.85,4.21-5.94c-0.08-2.82-0.08-5.65,0.02-8.46c0.04-1.09-0.74-2.85,1.69-2.64
			c1.88,0.17,1.38,1.43,1.39,2.5C178.05,233.27,178.04,235.09,178.04,236.92z"/>
		<path class="st9" d="M222.26,230.58c-0.19,0.54-1.5,0.44-2.58,0.32c-3.29-0.39-3.94,1.31-3.78,4.14c0.17,3.15,0.07,6.32,0.02,9.47
			c-0.02,1.25,0.41,3.11-1.44,3.17c-2.33,0.08-1.65-2.03-1.7-3.38c-0.09-2.32-0.07-4.65-0.02-6.98c0.07-3.49,0.82-7.42-4.95-6.51
			c-0.43,0.07-1.15-0.58-1.43-1.07c-0.39-0.69,0.15-1.47,0.78-1.48c4.81-0.09,9.62-0.1,14.44-0.04
			C222.22,228.22,222.77,228.8,222.26,230.58z"/>
		<path class="st11" d="M103.7,107.91c-8.14-1.99-8-11.65-4.71-16.35c2.78-3.98,7.17-2.43,10.93-2.76c2.56-0.22,3.62,2,4.6,3.94
			c0.35,0.69,0.85,1.61-0.08,2.19c-0.72,0.46-1.83,0.44-2.24-0.31c-2.81-5.13-6.87-4.8-10.62-1.81c-3.13,2.49-1.48,9.81,2.42,13.18
			C103.9,106.64,103.8,107.27,103.7,107.91z"/>
		<path class="st9" d="M200.27,237.81c0-2.66-0.02-5.32,0.01-7.98c0.01-1.25,0.81-1.76,1.96-1.69c1.02,0.06,1.39,0.81,1.4,1.7
			c0.03,5.32,0.05,10.64,0.03,15.95c0,1.04-0.37,2.02-1.68,1.97c-1.21-0.04-1.72-0.86-1.73-1.99c-0.02-2.66-0.01-5.32-0.01-7.98
			C200.25,237.81,200.26,237.81,200.27,237.81z"/>
		<path class="st6" d="M149.56,72.25c0-2.31,0-4.63,0-6.94c0-1.17-0.12-2.44,1.59-2.5c1.65-0.06,1.77,1.06,1.77,2.33
			c-0.02,4.79,0,9.59-0.02,14.38c0,1.14,0.13,2.42-1.58,2.5c-1.73,0.08-1.74-1.12-1.75-2.32C149.56,77.21,149.57,74.73,149.56,72.25
			z"/>
		<path class="st10" d="M205.52,98.48c0-2.66,0-5.31,0-7.97c0-0.86,0.17-1.8,1.14-1.91c1.27-0.14,1.67,0.8,1.67,1.92
			c0,5.15,0,10.29-0.03,15.44c0,1.08-0.33,2.08-1.66,1.92c-1.03-0.12-1.09-1.11-1.1-1.93c-0.03-2.49-0.01-4.98-0.01-7.47
			C205.54,98.48,205.53,98.48,205.52,98.48z"/>
		<path class="st10" d="M181.2,97.86c0,2.64,0.03,5.29-0.01,7.93c-0.01,0.95,0.04,2.1-1.36,2.16c-1.29,0.06-1.69-0.81-1.69-1.92
			c-0.01-5.29-0.01-10.58,0-15.87c0-0.95,0.51-1.56,1.45-1.66c1.4-0.14,1.6,0.87,1.61,1.91C181.22,92.9,181.2,95.38,181.2,97.86z"/>
		<path class="st10" d="M103.7,107.91c0.1-0.64,0.2-1.27,0.3-1.91c3.28,0.06,6.27-0.61,7.83-3.86c0.6-1.24,1.55-1.42,2.36-1.02
			c1.22,0.6,0.03,1.72-0.15,2.37C112.87,107.74,107.94,109.75,103.7,107.91z"/>
		<path class="st12" d="M270.78,202.79c-0.05-0.46-0.09-0.92-0.14-1.38c1.32-0.27,2.69-0.9,3.96,0.66
			C273.47,203.43,272.08,202.9,270.78,202.79z"/>
		<path class="st12" d="M80.37,201.44c-0.04,0.44-0.09,0.89-0.13,1.33c-1.19,0.21-2.39,0.48-3.59-0.27
			C77.61,200.6,79,201.07,80.37,201.44z"/>
		<path class="st3" d="M80.86,232.07c0.19,0.12,0.37,0.25,0.57,0.36c0.01,0.01,0.12-0.18,0.19-0.28c-0.23-0.02-0.46-0.04-0.69-0.06
			C80.92,232.09,80.86,232.07,80.86,232.07z"/>
		<polygon class="st3" points="272,228.03 271.87,228.14 272.01,228 		"/>
	</g>
</g>
</svg>
