<?xml version="1.0" encoding="utf-8"?>
<!-- Generator: Adobe Illustrator 23.0.1, SVG Export Plug-In . SVG Version: 6.00 Build 0)  -->
<svg version="1.1" id="Layer_1" xmlns="http://www.w3.org/2000/svg" xmlns:xlink="http://www.w3.org/1999/xlink" x="0px" y="0px"
	 viewBox="0 0 352 352" style="enable-background:new 0 0 352 352;" xml:space="preserve">
<style type="text/css">
	.st0{fill:#376881;}
	.st1{fill:#386981;}
	.st2{fill:#366881;}
	.st3{fill:#343031;}
	.st4{fill:#A2A2A2;}
	.st5{fill:#2D2A2B;}
	.st6{fill:#2A2728;}
	.st7{fill:#2B2829;}
	.st8{fill:#313030;}
	.st9{fill:#464445;}
	.st10{fill:#373637;}
	.st11{fill:#3F6B80;}
	.st12{fill:#F2F1F2;}
</style>
<g>
	<g>
		<path class="st0" d="M30.88,166.89c-1.25-8.34-1.74-16.67-0.05-25.01c0.15-0.63,0.31-1.25,0.46-1.88
			c1.25-2.69,2.51-5.39,3.76-8.08c0,0-0.02,0.03-0.02,0.03c0.26-0.35,0.51-0.69,0.77-1.03c0.68-0.66,1.37-1.33,2.05-1.99
			c0.19,1.96,0.38,3.91,0.57,5.87c0.14,0.7,0.27,1.39,0.41,2.09c-0.42,0.69-0.51,1.38,0.04,2.06c0.12,1.99,0.24,3.98,0.36,5.97
			c-0.15,0.33-0.12,0.65,0.1,0.94c0.22,1.35,0.44,2.69,0.66,4.04c-0.08,2.39-0.11,4.78,1.01,7c0.07,0.67,0.13,1.35,0.2,2.02
			c0.18,0.55,0.36,1.11,0.54,1.66c0.14,1.11,0.28,2.23,0.43,3.34c-0.14,0.92-0.07,1.78,0.68,2.44c0.13,0.84,0.25,1.68,0.38,2.52
			c0.37,2.07,0.52,4.2,1.7,6.04c-0.16,1.8,0.66,3.35,1.26,4.96c0.3,1.82,0.59,3.64,1.76,5.16c-0.09,0.32-0.02,0.6,0.2,0.84
			c0.14,1.67,0.67,3.19,1.7,4.52c0.12,0.5,0.25,1.01,0.37,1.51c0.22,0.43,0.45,0.87,0.67,1.3c0.24,2.1,1.15,3.93,2.25,5.69
			c0.24,0.48,0.48,0.97,0.72,1.45c-0.11,0.24-0.04,0.42,0.2,0.53c-0.05,0.83,0.14,1.56,0.92,2.01c0.76,1.67,1.52,3.34,2.28,5.02
			c0.24,0.34,0.49,0.69,0.73,1.03c0,0-0.02-0.03-0.02-0.03c0.83,2.64,1.99,5.1,3.92,7.14c0,0-0.05-0.04-0.05-0.04
			c0.56,1.99,1.6,3.69,3.08,5.13c0.37,0.58,0.73,1.17,1.1,1.75c0.3,0.39,0.59,0.79,0.89,1.18c0,0-0.08-0.05-0.08-0.05
			c0.31,1.3,0.97,2.36,2.09,3.11c0.4,0.58,0.8,1.15,1.2,1.73c0.28,0.39,0.57,0.77,0.85,1.16c0.43,0.62,0.85,1.24,1.28,1.85
			c0.51,1.31,1.35,2.34,2.51,3.12c0.77,0.96,1.54,1.92,2.31,2.88c0.31,0.36,0.61,0.71,0.92,1.07c0,0-0.03-0.03-0.03-0.03
			c0.33,0.37,0.66,0.73,0.99,1.1c0,0-0.07-0.07-0.06-0.07c0.35,0.39,0.7,0.79,1.04,1.18c1.11,1.25,2.21,2.5,3.32,3.75
			c4.97,6.01,10.3,11.66,16.77,16.12c-0.01,1.01-0.03,2.02-0.04,3.03c-0.31-0.03-0.62-0.02-0.93,0.03
			c-0.14-0.25-0.35-0.36-0.64-0.31c-1.47-0.93-2.94-1.86-4.4-2.79c-0.63-0.36-1.27-0.73-1.9-1.09c-0.36-0.31-0.72-0.63-1.09-0.94
			c0,0-0.03-0.02-0.03-0.02c-1.72-3.24-4.8-4.68-7.95-6.04c0,0,0.01,0.01,0.01,0.01c-0.35-0.29-0.7-0.58-1.05-0.88
			c-1.98-1.71-3.96-3.42-5.94-5.12c-0.34-0.33-0.69-0.65-1.03-0.98c0,0-0.01-0.01-0.01-0.01c-0.33-0.33-0.66-0.66-0.99-0.99
			c0,0-0.01-0.01-0.01-0.01c-0.33-0.33-0.66-0.66-0.99-1c0,0,0,0,0,0c-0.33-0.33-0.67-0.66-1-0.99c0,0-0.01-0.01-0.01-0.01
			c-0.33-0.33-0.66-0.67-0.99-1c0,0,0,0,0,0c-1.39-1.96-2.95-3.78-4.93-5.18c-1.05-1.27-2.09-2.53-3.14-3.8
			c-0.31-0.36-0.61-0.72-0.92-1.09c-1.01-1.31-2.03-2.62-3.04-3.93c-0.31-0.39-0.62-0.78-0.93-1.17c-0.22-0.33-0.44-0.65-0.66-0.98
			c-1.43-2.04-2.86-4.08-4.29-6.12c-1.37-2.24-2.74-4.49-4.12-6.73c-0.28-0.49-0.56-0.98-0.85-1.47c-0.45-0.85-0.9-1.71-1.35-2.56
			c-0.24-0.39-0.48-0.78-0.73-1.17c0.05-0.33-0.05-0.61-0.3-0.83c-0.24-0.38-0.47-0.76-0.71-1.14c0.05-0.34-0.04-0.62-0.29-0.86
			c-0.24-0.38-0.48-0.76-0.71-1.14c0.05-0.34-0.05-0.63-0.3-0.86c-0.23-0.38-0.46-0.76-0.7-1.14c0.06-0.33-0.03-0.62-0.28-0.86
			c-0.23-0.4-0.47-0.79-0.7-1.19c0.07-0.31-0.02-0.58-0.25-0.8c-0.24-0.44-0.48-0.87-0.71-1.31c-0.46-1.23-0.92-2.47-1.39-3.7
			c-0.22-0.36-0.45-0.72-0.67-1.08c0,0,0.04,0.05,0.04,0.05c-0.53-2.69-1.48-5.21-2.93-7.54c0.03-1.63-0.64-3.03-1.36-4.43
			c0.1-0.83,0.01-1.6-0.75-2.13c0.09-0.32,0.02-0.61-0.2-0.86c0.11-0.87,0.01-1.66-0.76-2.23c-0.11-0.59-0.22-1.19-0.33-1.78
			c-0.21-0.47-0.41-0.95-0.62-1.42c-0.1-0.52-0.19-1.05-0.29-1.57c0.12-0.92,0.05-1.79-0.71-2.46
			C31.06,167.91,30.97,167.4,30.88,166.89z"/>
		<path class="st1" d="M53.15,172.45c-0.1-0.53-0.21-1.06-0.31-1.59c0.1-0.82,0.06-1.6-0.72-2.12c0,0,0.05,0.04,0.05,0.04
			c-0.12-1.38,0-2.81-0.97-3.98c-0.12-0.65-0.24-1.3-0.35-1.95c0.12-0.91,0.07-1.77-0.68-2.44c-0.11-0.85-0.21-1.71-0.32-2.56
			c0.14-0.91,0.06-1.76-0.68-2.42c-0.12-1.19-0.24-2.39-0.36-3.58c-0.18-0.55-0.36-1.1-0.53-1.65c-0.14-1.45-0.28-2.9-0.41-4.35
			c0.14-2.05,0.18-4.09-0.72-6.02c-0.11-2.32-0.21-4.65-0.32-6.97c0.15-0.33,0.13-0.65-0.07-0.96c0.27-3.35,0.15-6.67-0.55-9.96
			c1.08-1.92,0.61-4,0.61-6.03c0.1-1.33,0.21-2.66,0.31-4c0.74-0.89,0.89-1.93,0.73-3.04c0.1-0.65,0.2-1.3,0.31-1.94
			c2.52-7.32,5.86-14.18,11.21-19.91c0.32,0.01,0.55-0.13,0.7-0.42c0.28-0.25,0.56-0.5,0.85-0.75c0,0,0.08-0.06,0.08-0.06
			c2.1,0.39,0.7,2.1,1.17,3.1c-0.12,0.78-0.23,1.56-0.35,2.34c-0.19,0.55-0.38,1.09-0.58,1.63c-0.11,1.15-0.23,2.3-0.34,3.45
			c-1.15,1.36-0.92,2.99-0.89,4.59c-0.47,0.72-0.68,1.47-0.26,2.3c-0.17,0.56-0.34,1.12-0.51,1.67c-0.27,1.79-0.86,3.56-0.38,5.4
			c-0.81,0.73-0.69,1.66-0.57,2.59c-1.35,12.03-1.5,24.05,0.01,36.08c-0.12,1.19-0.3,2.39,0.61,3.4c0.11,1.53,0.23,3.06,0.34,4.59
			c-0.16,0.9-0.12,1.74,0.65,2.39c0.09,0.86,0.19,1.72,0.28,2.58c0,2.81,0.65,5.49,1.63,8.1c0.17,0.98,0.34,1.96,0.51,2.94
			c0.19,0.48,0.39,0.95,0.58,1.43c-0.11,1.99,0.7,3.75,1.34,5.56c0.21,0.51,0.43,1.02,0.64,1.53c0.1,0.49,0.2,0.98,0.31,1.46
			c-0.09,0.86-0.01,1.65,0.77,2.2c-0.1,0.3-0.03,0.57,0.19,0.8c-0.11,0.88,0.08,1.66,0.79,2.25c-0.08,1.41,0.55,2.58,1.23,3.73
			c0.19,1.6,0.68,3.07,1.75,4.31c0.84,3.48,2.32,6.68,4.19,9.71c0.26,0.49,0.52,0.97,0.78,1.46c-0.09,0.25-0.01,0.43,0.23,0.54
			c0.26,0.48,0.51,0.96,0.77,1.44c0.82,3.19,2.67,5.86,4.41,8.58c0.24,0.35,0.47,0.69,0.71,1.04c0.19,0.36,0.37,0.73,0.56,1.09
			c0.42,0.64,0.84,1.28,1.25,1.92c0.4,0.64,0.8,1.28,1.21,1.92c-0.81,3.1,3.14,4.01,3.12,6.75c-0.38,0.77-0.76,1.55-1.14,2.32
			c-0.62-0.37-1.25-0.75-1.87-1.12c-0.3-1.27-0.88-2.34-2.09-2.96c-0.31-0.4-0.63-0.79-0.94-1.19c-0.44-0.61-0.88-1.22-1.32-1.84
			c-0.25-0.32-0.51-0.64-0.76-0.95c0,0-0.01-0.01-0.01-0.01c-0.31-0.39-0.62-0.78-0.93-1.17c-1.35-1.95-2.7-3.89-4.05-5.84
			c-0.29-0.4-0.59-0.8-0.88-1.2c0,0,0.08,0.06,0.08,0.06c-0.23-1.3-0.91-2.32-1.95-3.1c0,0,0.04,0,0.04,0
			c-0.7-1.95-1.7-3.72-3.13-5.22c-0.29-0.55-0.58-1.09-0.87-1.64c-1.73-3.39-3.45-6.78-5.18-10.17c-0.4-0.91-0.79-1.82-1.19-2.73
			c0.08-0.84-0.25-1.49-0.92-1.98c-0.08-0.34-0.17-0.69-0.25-1.03c-0.22-0.4-0.44-0.8-0.67-1.2c0.07-0.31-0.01-0.57-0.23-0.79
			c-0.2-0.42-0.39-0.85-0.59-1.27c0,0,0.08,0.01,0.08,0.01c-1.09-2.97-2.18-5.93-3.27-8.9c0.09-0.32,0.03-0.6-0.19-0.84
			c0.1-0.87-0.01-1.68-0.77-2.26c0.11-0.29,0.04-0.54-0.19-0.74C54.01,173.96,53.97,173.08,53.15,172.45z"/>
		<path class="st2" d="M265.83,247.84c3.17-2.88,6.74-5.36,9.15-9.02c0.48-0.1,0.97-0.19,0.6-0.88c0.51-0.92,1.01-1.84,1.52-2.76
			c0.34-0.42,0.68-0.83,1.02-1.25c1.32-1.04,2.33-2.3,2.94-3.88c1.08-0.75,1.76-1.77,2.14-3.02c0,0-0.08,0.05-0.08,0.05
			c0.29-0.4,0.59-0.8,0.88-1.2c0.37-0.57,0.74-1.14,1.11-1.72c1.07-0.81,1.79-1.83,2.06-3.16c0,0-0.04,0.03-0.04,0.03
			c1.57-1.36,2.44-3.15,3.1-5.06c1.73-2.07,2.97-4.41,3.81-6.96c0.24-0.37,0.48-0.74,0.72-1.1c0.25-0.24,0.35-0.53,0.3-0.87
			c0.23-0.38,0.46-0.75,0.69-1.13c0.43-1.01,0.86-2.01,1.29-3.02c1.23-1.41,1.87-3.07,2.15-4.89c0,0-0.06,0.05-0.06,0.05
			c0.22-0.38,0.43-0.77,0.65-1.15c1.47-3.02,2.94-6.04,3.42-9.42c0.23-0.53,0.46-1.06,0.69-1.59c0.1-0.46,0.21-0.93,0.31-1.39
			c1.06-1.36,1.41-2.97,1.63-4.63c0.76-1.75,1.42-3.52,1.41-5.46c0.99-2.06,1.61-4.22,1.65-6.52c0.09-0.51,0.18-1.02,0.27-1.53
			c0.75-0.68,0.82-1.54,0.68-2.46c0.15-1.11,0.3-2.22,0.45-3.33c0.17-0.56,0.35-1.11,0.52-1.67c0.11-0.99,0.22-1.98,0.33-2.97
			c1.06-1.56,0.88-3.31,0.78-5.06c0.26-1.68,0.51-3.35,0.77-5.03c0.21-0.3,0.25-0.62,0.1-0.95c0.1-1.93,0.2-3.86,0.3-5.78
			c0.53-0.51,0.55-1.03,0.03-1.56c0,0-0.01-0.35-0.01-0.35c0.59-1.02,0.85-2.08,0.52-3.24c0.05-0.72,0.11-1.44,0.16-2.17
			c3.06-0.99,2.67,3.25,5.03,3.32c0,0-0.06-0.07-0.06-0.07c0.36,1.88,0.99,3.65,2.1,5.22c0.1,0.55,0.21,1.09,0.31,1.64
			c0.2,0.55,0.39,1.1,0.59,1.65c0.07,0.44,0.14,0.89,0.21,1.33c0.16,2.3,0.33,4.6,0.49,6.89c0.01,1.08,0.02,2.15,0.03,3.23
			c-0.11,1.95-0.22,3.9-0.33,5.85c-3.47,17.63-9.55,34.3-18.29,49.99c-0.79,1.42-1.79,2.73-2.69,4.09
			c-0.92,0.34-1.15,1.08-1.17,1.96c0,0,0,0,0,0c-0.29,0.45-0.59,0.9-0.88,1.34c-0.36,0.56-0.73,1.11-1.09,1.67
			c-0.31,0.43-0.62,0.87-0.93,1.3c-0.07,0.75-0.33,1.38-1.08,1.7c-0.31,0.43-0.62,0.85-0.93,1.28c-0.39,0.57-0.78,1.13-1.17,1.7
			c-0.3,0.37-0.59,0.74-0.89,1.11c0,0,0.05-0.06,0.05-0.06c-1.4,0.46-2.06,1.45-2.12,2.89c-0.29,0.37-0.59,0.73-0.88,1.1
			c-0.34,0.38-0.67,0.76-1.01,1.14c0,0,0.09-0.09,0.09-0.09c-0.82,0.19-1.12,0.78-1.18,1.55c-0.98,1.13-1.96,2.26-2.94,3.39
			c-0.34,0.35-0.68,0.7-1.02,1.05c0,0,0.03-0.03,0.03-0.03c-0.33,0.39-0.66,0.78-1,1.16c-2.91,3.72-6.59,6.67-10.07,9.81
			c-2.27-0.08-4,0.49-3.89,3.26c-0.32,0.26-0.65,0.52-0.97,0.78c-0.38,0.31-0.76,0.62-1.14,0.93c-0.51,0.39-1.03,0.78-1.54,1.17
			c-0.46,0.34-0.92,0.69-1.38,1.03c0,0,0.1-0.08,0.09-0.08c-0.39,0.3-0.78,0.61-1.17,0.91c-0.43,0.31-0.87,0.61-1.3,0.92
			c-0.75,0.11-1.39,0.38-1.66,1.18c0,0,0.05-0.03,0.05-0.03c-0.92-0.02-1.73,0.14-1.92,1.25c0,0,0.11-0.12,0.11-0.12
			c-0.42,0.3-0.83,0.6-1.25,0.89c-0.65,0.4-1.29,0.81-1.94,1.21c-0.14-1.22-0.28-2.43-0.42-3.65c0,0-0.01,0.13-0.01,0.13
			c0.72-0.07,1.09-0.48,1.2-1.17c0.29-0.23,0.59-0.46,0.88-0.68c0.4-0.35,0.81-0.7,1.21-1.04c0.05-0.28,0.11-0.55,0.17-0.83
			c0.27,0,0.54-0.02,0.81-0.06c1.25,0.01,1.98-0.56,2.1-1.84c0.36-0.36,0.73-0.73,1.09-1.09c0.89-0.1,1.59-0.43,1.74-1.43
			C264.53,249.61,265.18,248.73,265.83,247.84z"/>
		<path class="st0" d="M294.62,137.88c0-4.34,0.01-8.69,0.01-13.03c0.2-0.31,0.19-0.61-0.04-0.9c-0.21-2.02-0.42-4.04-0.62-6.05
			c0.14-3.06,0.34-6.12-0.79-9.07c-0.12-1.32-0.24-2.63-0.36-3.95c-0.18-0.56-0.36-1.11-0.54-1.67c0.51-0.84,0.18-1.58-0.26-2.31
			c-0.04-0.33-0.07-0.66-0.11-0.99c-0.06-0.68-0.12-1.36-0.18-2.04c-0.18-0.53-0.36-1.06-0.54-1.59c0.02-2.2-0.05-4.38-1.16-6.38
			c-0.17-1-0.34-2.01-0.51-3.01c0.2-0.79,0.73-1.1,1.51-1.09c0.61,0.47,1.23,0.94,1.84,1.41c1.07,1.22,2.14,2.45,3.21,3.67
			c0.29,0.37,0.59,0.74,0.88,1.11c0.41,0.64,0.83,1.29,1.24,1.93c0.25,0.35,0.5,0.7,0.75,1.05c0,0-0.03-0.04-0.03-0.04
			c0.22,1.39,0.91,2.52,1.89,3.49c0.45,1.16,0.89,2.33,1.34,3.49c0.22,0.51,0.45,1.02,0.67,1.53c0.12,0.49,0.23,0.98,0.35,1.47
			c0.21,0.53,0.41,1.07,0.62,1.6c0.12,0.8,0.24,1.6,0.37,2.4c-0.13,0.92-0.06,1.78,0.67,2.46c0.12,1.51,0.24,3.02,0.36,4.53
			c-0.15,0.34-0.12,0.65,0.09,0.95c-0.01,5.02-0.03,10.04-0.04,15.06c-0.2,0.31-0.22,0.63-0.07,0.96c-0.13,2.65-0.26,5.29-0.39,7.94
			c-0.86,1.26-0.73,2.67-0.62,4.08c-0.07,0.99-0.14,1.99-0.21,2.98c-0.89,1.21-0.85,2.59-0.76,3.99c-0.12,1.21-0.24,2.42-0.36,3.63
			c-0.77,0.64-0.82,1.48-0.69,2.37c-0.11,0.86-0.21,1.72-0.32,2.59c-0.76,0.65-0.84,1.5-0.71,2.42c-0.11,0.8-0.22,1.6-0.33,2.41
			c-0.2,0.53-0.4,1.06-0.61,1.59c-0.1,0.59-0.2,1.18-0.31,1.77c-0.77,0.57-0.86,1.37-0.74,2.24c-0.17,0.63-0.33,1.26-0.5,1.9
			c-0.19,0.71-0.39,1.42-0.58,2.13c-0.23,0.2-0.29,0.45-0.18,0.74c-0.76,0.58-0.87,1.37-0.77,2.24c-0.1,0.47-0.21,0.94-0.31,1.42
			c-0.22,0.53-0.45,1.06-0.67,1.58c-0.85,1.18-1.28,2.5-1.36,3.94c-1,1.18-1.44,2.59-1.64,4.09c-0.24,0.2-0.31,0.45-0.24,0.75
			c-0.22,0.41-0.44,0.81-0.66,1.21c-0.09,0.33-0.18,0.66-0.27,1c-0.72,0.49-1,1.17-0.91,2.02c-1,1.48-1.91,3.01-2.14,4.83
			c-0.23,0.38-0.46,0.77-0.69,1.15c-0.25,0.24-0.36,0.53-0.3,0.87c-0.23,0.38-0.47,0.75-0.7,1.13c-0.71,1.02-1.42,2.04-2.13,3.07
			c-0.26,0.44-0.52,0.87-0.77,1.31c0,0,0.1-0.07,0.1-0.07c-1.73,0.21-1.35,1.57-1.47,2.66c0,0-0.02,0.05-0.02,0.05
			c-0.28,0.45-0.56,0.9-0.83,1.36c-0.33,0.57-0.66,1.13-0.98,1.7c-0.33,0.49-0.65,0.98-0.98,1.46c0.02,0.19,0.04,0.38,0.07,0.57
			c-0.58,0.09-1.03,0.3-0.83,1.02c0,0-0.41-0.1-0.41-0.1c-0.79,0.45-0.97,1.2-0.96,2.03c0,0,0.01-0.02,0.01-0.02
			c-0.31,0.43-0.61,0.86-0.92,1.3c0.02,0.23,0.06,0.45,0.14,0.67c-0.66,0.7-1.32,1.41-1.98,2.11c-0.96,0.25-1.23,0.98-1.3,1.86
			c0,0-0.03,0.04-0.03,0.04c-0.33,0.31-0.66,0.63-1,0.94c-1.25-0.31-2.51-0.61-3.76-0.92c-0.03-0.31-0.02-0.62,0.02-0.92
			c1.31-1.08,1.97-2.56,2.55-4.09c2.09-3.66,4.18-7.32,6.27-10.98c0.78-0.42,0.98-1.15,1-1.96l0.01-0.03
			c0.79-0.47,0.96-1.22,0.93-2.06c0,0-0.01,0.03-0.01,0.03c0.91-0.45,1.04-1.26,0.98-2.15c-0.04-0.3-0.09-0.59-0.17-0.88
			c0,0,0.36,0.08,0.36,0.08c0.25-0.47,0.5-0.95,0.74-1.42c-0.09-0.26-0.03-0.47,0.2-0.63c0.78-0.48,0.93-1.24,0.89-2.08
			c-0.04-0.3-0.1-0.59-0.17-0.88c0.13-0.49,0.26-0.98,0.38-1.47c0.24-0.52,0.47-1.03,0.7-1.54c0.43-1.32,0.86-2.64,1.29-3.95
			c0.94-0.79,0.96-1.88,0.99-2.97c0,0-0.04,0.04-0.05,0.04c0.77-0.52,0.85-1.29,0.77-2.12c0.23-0.24,0.29-0.51,0.2-0.83
			c0.71-0.56,0.87-1.32,0.75-2.17c0.13-0.79,0.26-1.58,0.39-2.37c1.11-1.36,1.27-3.03,1.53-4.66c0.16-1.11,0.33-2.22,0.49-3.33
			c0.19-0.55,0.38-1.09,0.57-1.64c0.08-0.67,0.16-1.34,0.23-2.01c0.8-0.86,0.91-1.89,0.76-2.99c0.16-1.45,0.31-2.89,0.47-4.34
			c0.18-0.55,0.36-1.11,0.54-1.66c0.15-1.64,0.3-3.29,0.44-4.93C294.49,147.36,294.37,142.6,294.62,137.88z"/>
		<path class="st3" d="M185.22,173.74c0,7.56,0,15.11,0,22.67c0,3.33-0.06,6.66,0.02,9.99c0.05,1.9-0.16,3.17-2.61,3.14
			c-2.26-0.03-3.29-0.59-3.27-3.1c0.1-13.15,0.03-26.31,0.07-39.46c0-1.2-0.52-3.22,1.49-3.02c3.02,0.31,6.63-1.89,8.95,2.1
			c5.6,9.62,11.36,19.14,17.06,28.7c0.81,1.35,1.63,2.7,3.49,3.79c0-10.21-0.05-20.43,0.05-30.64c0.01-1.52-1.15-3.87,2.02-4.09
			c2.72-0.19,4.23,0.12,4.17,3.59c-0.22,12.48-0.04,24.98-0.14,37.46c-0.01,1.58,1.15,4.26-1.63,4.44
			c-2.87,0.18-6.05,1.36-8.25-2.53c-5.65-9.97-11.75-19.68-17.7-29.49c-0.81-1.33-1.75-2.57-2.63-3.85
			C185.95,173.55,185.59,173.65,185.22,173.74z"/>
		<path class="st4" d="M176.18,148.09c33.31,0,66.62,0,99.93,0c1.33,0,2.67-0.01,3.99,0.08c1.17,0.08,1.77,0.77,1.74,1.97
			c-0.04,1.21-0.71,1.82-1.87,1.86c-1.5,0.05-3,0.05-4.5,0.05c-63.95,0-127.91-0.01-191.86,0.02c-2.99,0-5.98,0.29-8.97,0.34
			c-1.72,0.03-4.06,0.72-4.29-2.02c-0.26-3.03,2.26-2.28,3.91-2.28c10.83-0.05,21.65-0.02,32.48-0.02
			C129.88,148.09,153.03,148.09,176.18,148.09z"/>
		<path class="st5" d="M266.03,209.01c-5.42,1.48-8.34-0.03-9.34-5c-1.1-5.4-4.35-7.78-9.94-6.59c-0.95,0.2-2.02,0.19-2.98,0
			c-7.87-1.55-13.04,1.04-14.61,9.32c-0.63,3.32-3.22,2.65-5.49,2.73c-2.08,0.07-2.2-0.94-1.54-2.49
			c5.88-13.87,11.78-27.74,17.64-41.62c1.15-2.72,3.44-1.09,5.18-1.47c1.81-0.39,3.05,0.23,3.81,2.15
			C254.43,180.31,260.2,194.55,266.03,209.01z M243.75,170.73c-1.47,3.6-2.59,6.34-3.71,9.08c-5.16,12.64-5.16,12.64,8.36,11.92
			c0.16-0.01,0.33-0.02,0.5,0c2.07,0.23,2.75-0.63,2-2.58C248.65,183.33,246.39,177.52,243.75,170.73z"/>
		<path class="st6" d="M130.46,188.07c-0.01-18.67,13.82-29.32,29.71-24.3c5.84,1.84,9.6,5.74,11.26,11.63
			c0.33,1.16,1.49,3.06-0.3,3.29c-1.95,0.25-4.61,1.51-6.14-1.25c-4.37-7.9-8.03-10.24-14.47-9.25
			c-6.97,1.08-11.26,5.71-12.81,13.98c-1.26,6.69-0.23,12.92,4.28,18.24c3.58,4.23,8.4,5.31,13.58,4.33
			c5.09-0.96,8.37-4.51,9.16-9.4c0.69-4.28,3.45-3.69,5.78-3.16c3.07,0.7,1.26,3.18,0.79,4.8c-2.66,9.07-9.74,13.86-19.64,13.45
			c-10.78-0.44-18.6-6.81-20.57-16.87C130.65,191.3,130.55,188.96,130.46,188.07z"/>
		<path class="st7" d="M83.85,186.68c-0.05-17.38,14.37-28.23,30.23-22.78c5.43,1.87,8.98,5.62,10.7,11c0.36,1.15,1.6,3.38-0.3,3.75
			c-1.9,0.36-4.55,1.62-6.1-1.34c-4.16-7.97-8.18-10.31-15.02-8.95c-6.84,1.36-11.52,6.73-12.32,14.47
			c-0.5,4.84-0.43,9.67,1.97,14.13c3.06,5.7,7.82,8.44,14.31,8.01c5.56-0.36,9.17-3.28,10.88-9.93c0.94-3.65,3.28-3.33,5.57-2.92
			c3.41,0.61,1.41,3.3,1.05,4.77c-1.82,7.5-7.71,12.37-15.62,13.34c-9.65,1.19-18.11-2.64-22.21-10.09
			C84.68,195.97,83.8,191.43,83.85,186.68z"/>
		<path class="st4" d="M176.27,225.06c-24.47,0-48.95,0-73.42,0c-1.17,0-2.33-0.01-3.5-0.03c-1.33-0.03-2.26-0.49-2.2-2.03
			c0.07-1.56,1.12-1.86,2.39-1.88c1-0.02,2-0.02,3-0.02c49.28,0,98.56,0,147.84,0c0.83,0,1.67-0.02,2.5,0.01
			c1.32,0.05,2.84-0.09,2.93,1.84c0.11,2.32-1.65,2.1-3.12,2.1c-7.66,0.02-15.32,0.02-22.98,0.02
			C211.9,225.06,194.09,225.06,176.27,225.06z"/>
		<path class="st3" d="M232.78,128.06c0-0.5-0.19-1.11,0.03-1.48c1.55-2.59-3.49-7.92,3.37-8.26c8.5-0.42,12.52,2.13,13.01,8.12
			c0.58,7.02-2.1,10.93-7.92,11.58C232.78,138.97,232.78,138.97,232.78,128.06z M246.14,128.06c-0.06-0.55,0.02-1.59-0.28-2.51
			c-1.23-3.8-4.2-4.87-7.82-4.61c-4.18,0.3-1.75,3.5-2.08,5.33c-0.4,2.25-0.08,4.62-0.09,6.94c-0.01,1.44,0.16,2.42,2.1,2.53
			C242.78,136,245.99,133.3,246.14,128.06z"/>
		<path class="st8" d="M164.38,112.13c-1.99,0.05-4.79-0.77-6.31-3.84c-0.44-0.89-1.46-2.26-0.27-3.09c1.22-0.84,2.5-0.48,3.07,1.23
			c0.25,0.75,0.7,1.61,1.32,2.01c2.05,1.32,4.27,1.75,6.6,0.63c1.12-0.54,2.08-1.24,1.73-2.63c-0.59-2.32-2.77-2.63-4.59-3.35
			c-0.61-0.24-1.3-0.28-1.92-0.5c-2.86-1-5.87-2-5.99-5.74c-0.09-2.99,1.9-4.44,4.57-5.04c3.57-0.8,6.99-0.72,9.43,2.55
			c0.73,0.98,1.88,2.39,0.28,3.4c-0.97,0.61-2.16,0.16-2.72-1.26c-0.66-1.71-2.1-2.49-3.93-2.56c-1.79-0.07-3.54,0.4-4.11,2.15
			c-0.71,2.2,1.36,2.66,2.81,3.27c1.06,0.45,2.21,0.69,3.32,1.04c3.45,1.09,7.07,2.35,6.14,6.94
			C172.95,111.67,169.25,112.09,164.38,112.13z"/>
		<path class="st9" d="M119.33,127.96c0-0.33,0-0.67,0-1c0-8.92,2.15-10.6,11.07-8.77c0.91,0.19,1.66,0.37,1.78,1.34
			c0.19,1.53-0.98,1.43-1.97,1.44c-1.67,0.02-3.34,0.1-5-0.01c-1.97-0.14-2.63,0.68-2.58,2.6c0.05,1.92,0.38,3.01,2.72,3.14
			c2.07,0.11,5.89-1.3,5.84,1.29c-0.05,2.5-3.89,0.96-6.01,1.1c-2.5,0.17-2.52,1.54-2.53,3.32c-0.01,1.8,0.06,3.38,2.56,3.22
			c1.82-0.11,3.66-0.02,5.5,0c0.87,0.01,1.74,0.2,1.79,1.26c0.05,1.12-0.86,1.27-1.71,1.27c-3.16,0.02-6.33-0.01-9.49,0.01
			c-1.95,0.01-1.99-1.3-1.98-2.71C119.35,132.96,119.33,130.46,119.33,127.96z"/>
		<path class="st3" d="M210.56,112.12c-6.21,0.09-10.02-3.83-10.05-10.34c-0.02-6.11,3.84-10.32,9.57-10.45
			c6.02-0.14,9.94,3.98,9.96,10.47C220.07,108.13,216.48,112.03,210.56,112.12z M210.42,93.92c-3.95-0.07-6.5,2.96-6.54,7.77
			c-0.04,4.74,2.48,7.9,6.36,7.99c3.73,0.08,6.66-3.3,6.73-7.79C217.03,97.49,214.16,93.99,210.42,93.92z"/>
		<path class="st3" d="M214.11,128.32c0-0.5,0.01-1,0-1.5c-0.01-8.6,2.47-10.48,11.19-8.51c0.87,0.2,1.65,0.33,1.66,1.4
			c0.01,1.18-0.89,1.19-1.71,1.2c-1.66,0.03-3.33,0.04-4.99,0.01c-1.74-0.03-3.24-0.14-3.11,2.49c0.11,2.22,0.59,3.26,3.07,3.33
			c1.96,0.06,5.66-1.13,5.58,0.96c-0.11,2.77-3.72,1.21-5.74,1.32c-2.63,0.14-2.81,1.46-2.89,3.53c-0.09,2.42,0.9,3.06,3.21,3.2
			c2.25,0.14,6.37-1.28,6.36,1.12c-0.02,2.51-4.08,0.78-6.32,1.22c-5.14,1.02-7.24-1.09-6.34-6.28
			C214.28,130.68,214.11,129.49,214.11,128.32z"/>
		<path class="st8" d="M137.96,128.04c0-0.5-0.07-1.01,0.01-1.49c0.43-2.68-1.47-6.65,1.04-7.81c2.92-1.34,6.86-0.91,10.26,0.11
			c3.54,1.06,5.57,5.57,2.95,7.84c-3.85,3.34-1.26,5.6-0.04,8.38c0.4,0.91,2,1.96,0.36,2.86c-1.28,0.71-2.51,0.04-3.19-1.42
			c-0.77-1.65-1.77-3.2-2.48-4.87c-0.88-2.06-2.58-1.72-4.21-1.69c-2.65,0.05-1.35,2.11-1.6,3.33c-0.17,0.8-0.02,1.66-0.03,2.49
			c-0.02,1.15,0.2,2.43-1.65,2.33c-1.9-0.11-1.37-1.52-1.4-2.57C137.93,133.02,137.96,130.53,137.96,128.04z M144.05,127.04
			c2.67-0.1,5.7,0.44,5.71-2.89c0.01-3.02-2.74-3.21-5.21-3.27c-2.16-0.05-3.76-0.12-3.64,3.02
			C141.01,126.69,141.95,127.47,144.05,127.04z"/>
		<path class="st10" d="M135.27,112.15c-4.62,0-7.66-1.71-9.19-5.54c-1.81-4.53-1.36-8.88,2.09-12.51
			c2.97-3.12,6.74-3.31,10.62-2.04c1.62,0.53,2.84,1.7,3.66,3.23c0.55,1.02,1.36,2.31,0.18,3.13c-1.47,1.03-2.21-0.11-2.9-1.48
			c-1.4-2.8-3.87-3.62-6.72-2.64c-3.78,1.29-4.73,4.64-4.58,8.05c0.14,3.26,1.49,6.3,5.15,7.14c3.02,0.7,5.29-0.71,6.27-3.56
			c0.56-1.63,1.44-2.46,2.81-1.7c1.21,0.67,0.52,2.18,0.07,3.17C141.19,110.81,138.43,112.32,135.27,112.15z"/>
		<path class="st10" d="M95.92,127.99c0.07-4.8,2.04-8.48,6.84-9.8c3.9-1.07,7.71-0.53,10.18,3.22c0.61,0.93,2.05,2.36,0.48,3.45
			c-1.36,0.94-2.35-0.06-3.03-1.46c-1.54-3.19-4.32-3.54-7.19-2.4c-3.43,1.36-4.26,4.49-4.09,7.82c0.16,3.16,1.33,5.97,4.69,6.92
			c3.12,0.88,5.62-0.13,6.77-3.39c0.49-1.39,1.2-2.75,2.74-1.87c1.49,0.86,0.52,2.37-0.01,3.55c-1.69,3.75-5.64,5.46-10.06,4.38
			C98.29,137.2,95.88,133.76,95.92,127.99z"/>
		<path class="st3" d="M187.75,112.11c-4.26,0.11-7.39-1.63-8.91-5.73c-1.7-4.57-1.24-8.9,2.27-12.44
			c3.01-3.04,6.83-3.08,10.66-1.81c1.42,0.47,2.59,1.5,3.31,2.88c0.59,1.13,1.78,2.51,0.34,3.5c-1.4,0.96-2.17-0.22-2.86-1.58
			c-1.39-2.74-3.88-3.68-6.71-2.67c-3.65,1.31-4.73,4.42-4.59,7.99c0.13,3.41,1.46,6.17,5.02,7.16c3.06,0.85,5.24-0.52,6.36-3.3
			c0.57-1.4,1.17-2.73,2.67-1.95c1.51,0.78,0.63,2.3,0.07,3.49C193.85,110.87,191.25,112.26,187.75,112.11z"/>
		<path class="st8" d="M186.97,128.06c0-0.33,0-0.67,0-1c0-9.33,1.12-10.25,10.4-8.77c1.05,0.17,2.15,0.25,2.05,1.55
			c-0.11,1.46-1.44,1.02-2.33,1.07c-1.49,0.07-3.01,0.16-4.49-0.01c-2.47-0.27-2.54,1.12-2.61,3c-0.09,2.18,0.67,2.74,2.81,2.88
			c1.88,0.12,5.23-1.6,5.36,1.27c0.09,1.99-3.36,0.99-5.16,0.97c-2.48-0.02-3.23,0.89-2.98,3.19c0.14,1.32,0,2.66,0.03,3.99
			c0.02,1.13-0.24,1.93-1.62,1.89c-1.46-0.04-1.46-1.01-1.45-2.05C186.97,133.38,186.97,130.72,186.97,128.06z"/>
		<path class="st10" d="M165.35,118.32c1.99,0,3.98-0.01,5.97,0c0.91,0.01,1.64,0.32,1.66,1.38c0.02,1.17-0.9,1.35-1.69,1.2
			c-5.36-1.07-5.37,2.18-5.09,5.99c0.22,2.97,0.03,5.97,0.05,8.95c0.01,1.26-0.05,2.4-1.78,2.23c-1.4-0.13-1.36-1.16-1.36-2.17
			c0.01-3.81-0.17-7.64,0.05-11.44c0.16-2.78-0.66-3.93-3.54-3.58c-0.92,0.11-2.67,0.79-2.72-1.06c-0.06-2.1,1.79-1.46,2.98-1.52
			c1.82-0.08,3.65-0.02,5.47-0.02C165.35,118.29,165.35,118.31,165.35,118.32z"/>
		<path class="st9" d="M177.73,128.6c0-2.64-0.01-5.28,0.01-7.92c0.01-0.97-0.16-2.16,1.2-2.31c1.23-0.14,1.72,0.76,1.72,1.88
			c0.01,5.45,0.01,10.89-0.01,16.34c0,0.98-0.55,1.51-1.52,1.53c-1.05,0.01-1.4-0.65-1.4-1.59
			C177.73,133.88,177.73,131.24,177.73,128.6z"/>
		<path class="st6" d="M148.99,101.46c0-2.48-0.02-4.96,0.01-7.44c0.01-0.95-0.14-2.02,1.33-2.13c1.34-0.1,1.7,0.62,1.69,1.77
			c-0.01,5.46,0,10.91-0.03,16.37c0,0.82-0.17,1.61-1.3,1.69c-1.37,0.09-1.69-0.74-1.69-1.83
			C148.98,107.08,148.99,104.27,148.99,101.46z"/>
		<path class="st6" d="M204.98,127.97c0-2.49-0.01-4.97,0.01-7.46c0.01-1,0-2.03,1.42-2.11c1.41-0.08,1.6,0.86,1.6,1.92
			c0.01,5.3,0,10.61,0.01,15.91c0,1.13-0.32,1.9-1.68,1.81c-1.48-0.09-1.34-1.17-1.35-2.12
			C204.97,133.28,204.98,130.62,204.98,127.97z"/>
		<path class="st11" d="M266.97,231.81c-3.1,1.51-4.04,5.89-8.11,6.11c0.04-0.37,0.08-0.74,0.12-1.11c0.24-0.3,0.47-0.6,0.71-0.89
			c0.44-0.66,0.88-1.32,1.33-1.98c0.3-0.36,0.6-0.72,0.9-1.07c1.89-2.42,4.03-4.68,5.22-7.59c0.29-0.46,0.58-0.93,0.87-1.39
			c0.39-0.33,0.79-0.67,1.18-1c1.25,0.31,2.51,0.61,3.76,0.92l0.14,0.16c-0.04,0.31-0.06,0.61-0.05,0.92c0,0-0.03,0.04-0.03,0.04
			c-0.25,0.31-0.51,0.62-0.76,0.93c-0.76,1-1.51,1.99-2.27,2.99c-0.3,0.35-0.59,0.71-0.89,1.06
			C268.39,230.54,267.68,231.18,266.97,231.81z"/>
		<path class="st11" d="M254.67,258.53c0.14,1.22,0.28,2.43,0.42,3.65c-2.37,1.59-4.73,3.17-7.1,4.76c-0.82,0-1.72-0.21-2.07,0.89
			c0,0,0.04-0.04,0.04-0.04c-0.77,0.17-1.74-0.05-2.06,1.03c0,0,0.03-0.03,0.03-0.03c-1.34,0.04-2.69,0.08-4.03,0.12
			c0.08-0.3,0.13-0.6,0.14-0.9c0.75-0.18,1.66-0.06,1.98-1.05c1.62-1.15,3.72-1.54,4.99-3.23c0.35-0.27,0.69-0.54,1.04-0.81
			c0,0-0.03,0.02-0.03,0.02c0.42-0.32,0.84-0.64,1.25-0.95c0.56-0.4,1.13-0.81,1.69-1.21c0.99-0.22,1.64-0.85,2.12-1.7
			C253.61,258.9,254.14,258.72,254.67,258.53z"/>
		<path class="st11" d="M100,261c0.34-0.07,0.69-0.15,1.03-0.22c0.57,0.4,1.14,0.81,1.72,1.21c1.93,3.68,6.1,4.22,9.07,6.45
			c0.35,0.17,0.69,0.34,1.04,0.51c-0.09,0.58,1.8,1.9-0.51,1.63c-1.09-0.13-2.11-0.79-3.16-1.21c-0.57-0.21-1.13-0.42-1.7-0.62
			c-0.49-0.26-0.98-0.51-1.47-0.77c-1.34-0.69-2.68-1.38-4.01-2.08c-0.32-0.24-0.65-0.49-0.97-0.73c-0.23-0.25-0.52-0.36-0.86-0.33
			c-0.08-0.27-0.15-0.54-0.22-0.81C99.97,263.01,99.98,262.01,100,261z"/>
		<path class="st11" d="M85.98,232.97c0.38-0.77,0.76-1.55,1.14-2.32c0.6,0.17,1.19,0.33,1.79,0.5c0.18,0.31,0.35,0.63,0.53,0.94
			c1.48,2.62,3.17,5.08,5.46,7.08c0.22,0.3,0.44,0.59,0.65,0.89c-0.57,0.87,3.57,2.65-0.54,2.84c-0.33-0.33-0.66-0.67-1-1
			c-1.45-2.15-3.34-3.86-5.37-5.43c0,0-0.18-0.2-0.19-0.2C87.62,235.16,86.8,234.07,85.98,232.97z"/>
		<path class="st11" d="M269.1,252.15c-0.11-2.77,1.62-3.34,3.89-3.26C272.06,250.41,270.62,251.33,269.1,252.15z"/>
		<path class="st11" d="M290.97,229.82c0.06-1.44,0.73-2.43,2.12-2.89C292.71,228.13,292.02,229.1,290.97,229.82z"/>
		<path class="st11" d="M283.79,208.48c-0.29,0.08-0.56,0.2-0.82,0.35c0.12-1.09-0.25-2.46,1.47-2.66
			C284.23,206.94,284.01,207.71,283.79,208.48z"/>
		<path class="st11" d="M259.06,254.04c0.66-0.34,1.32-0.67,1.98-1.01c-0.11,1.28-0.85,1.86-2.1,1.84
			C258.98,254.59,259.02,254.31,259.06,254.04z"/>
		<path class="st11" d="M278.02,216.92c-0.01-0.83,0.17-1.58,0.96-2.03c-0.03,0.58-0.05,1.16-0.08,1.74
			C278.6,216.7,278.3,216.8,278.02,216.92z"/>
		<path class="st11" d="M300,216.89c0.02-0.87,0.25-1.62,1.17-1.96C300.78,215.59,300.39,216.24,300,216.89z"/>
		<path class="st11" d="M273.97,222.83c0.07-0.88,0.34-1.61,1.3-1.86C274.84,221.59,274.4,222.21,273.97,222.83z"/>
		<path class="st11" d="M278.19,205.27c0.29-0.08,0.57-0.19,0.83-0.34c-0.02,0.81-0.22,1.53-1,1.96
			C278.08,206.35,278.14,205.81,278.19,205.27z"/>
		<path class="st11" d="M287.99,233.51c0.06-0.77,0.36-1.36,1.18-1.55C288.78,232.48,288.39,233,287.99,233.51z"/>
		<path class="st11" d="M282.96,195.8c0.04,0.84-0.11,1.59-0.89,2.08c0.02-0.56,0.03-1.12,0.05-1.67
			C282.41,196.09,282.69,195.96,282.96,195.8z"/>
		<path class="st11" d="M260.04,258.98c0.27-0.79,0.91-1.07,1.66-1.18C261.14,258.2,260.59,258.59,260.04,258.98z"/>
		<path class="st11" d="M258.17,260.2c0.19-1.11,1-1.27,1.92-1.25C259.45,259.37,258.81,259.79,258.17,260.2z"/>
		<path class="st11" d="M281.13,211.93c-0.02,0.33-0.02,0.66-0.01,0.99c-0.32,0.16-0.65,0.31-0.97,0.47
			C280.48,212.9,280.81,212.42,281.13,211.93z"/>
		<path class="st11" d="M299.12,218.24c0.29-0.45,0.59-0.9,0.88-1.34C299.71,217.34,299.42,217.79,299.12,218.24z"/>
		<path class="st11" d="M297.11,221.2c0.31-0.43,0.62-0.87,0.93-1.3C297.73,220.33,297.42,220.77,297.11,221.2z"/>
		<path class="st11" d="M272.95,223.81c0.33-0.31,0.66-0.63,1-0.94c0.02,0.28,0.02,0.57,0,0.85c-0.29,0.08-0.57,0.16-0.86,0.24
			C273.08,223.97,272.95,223.81,272.95,223.81z"/>
		<path class="st11" d="M295.1,224.18c0.31-0.43,0.62-0.85,0.93-1.28C295.72,223.32,295.41,223.75,295.1,224.18z"/>
		<path class="st11" d="M293.05,226.99c0.3-0.37,0.59-0.74,0.89-1.11C293.64,226.24,293.34,226.62,293.05,226.99z"/>
		<path class="st11" d="M289.08,232.05c0.34-0.38,0.67-0.76,1.01-1.14C289.75,231.3,289.42,231.67,289.08,232.05z"/>
		<path class="st11" d="M284.34,206.24c0.26-0.44,0.52-0.87,0.77-1.31C284.86,205.36,284.6,205.8,284.34,206.24z"/>
		<path class="st11" d="M284.03,237.95c0.34-0.35,0.68-0.7,1.02-1.05C284.71,237.25,284.37,237.6,284.03,237.95z"/>
		<path class="st11" d="M283.07,239.08c0.33-0.39,0.66-0.78,1-1.16C283.73,238.31,283.4,238.69,283.07,239.08z"/>
		<path class="st11" d="M281.87,198.5c-0.25,0.47-0.5,0.95-0.74,1.42C281.37,199.45,281.62,198.98,281.87,198.5z"/>
		<path class="st11" d="M266.99,253.86c0.38-0.31,0.76-0.62,1.14-0.93C267.75,253.24,267.37,253.55,266.99,253.86z"/>
		<path class="st11" d="M264.07,256.06c0.46-0.34,0.92-0.69,1.38-1.03C264.99,255.37,264.53,255.71,264.07,256.06z"/>
		<path class="st11" d="M257,255.89c0.32-0.04,0.64-0.08,0.96-0.13c-0.4,0.35-0.81,0.7-1.21,1.04
			C256.85,256.51,256.93,256.2,257,255.89z"/>
		<path class="st11" d="M263,256.89c0.39-0.3,0.78-0.61,1.17-0.91C263.78,256.28,263.39,256.58,263,256.89z"/>
		<path class="st11" d="M255.87,257.49c-0.11,0.69-0.49,1.1-1.2,1.17C255.06,258.27,255.46,257.88,255.87,257.49z"/>
		<path class="st11" d="M257.03,260.98c0.41-0.3,0.83-0.6,1.25-0.89C257.86,260.38,257.45,260.68,257.03,260.98z"/>
		<path class="st11" d="M262.14,251.93c0.58-0.48,1.16-0.95,1.74-1.43C263.73,251.5,263.03,251.83,262.14,251.93z"/>
		<path class="st11" d="M280.13,201.01c0.27-0.08,0.54-0.18,0.8-0.29c0.06,0.89-0.07,1.7-0.98,2.15
			C280.01,202.25,280.07,201.63,280.13,201.01z"/>
		<path class="st11" d="M279.04,204.9c-0.02-0.84,0.2-1.56,0.93-2.06C280,203.68,279.83,204.43,279.04,204.9z"/>
		<path class="st11" d="M277.99,217.88c-0.29,0.12-0.58,0.23-0.88,0.31c0.31-0.43,0.61-0.86,0.92-1.3
			C278.01,217.23,278,217.55,277.99,217.88z"/>
		<path class="st11" d="M282.95,208.87c-0.28,0.45-0.56,0.9-0.83,1.36C282.39,209.78,282.67,209.32,282.95,208.87z"/>
		<path class="st12" d="M243.75,170.73c2.64,6.79,4.9,12.61,7.15,18.43c0.75,1.95,0.07,2.8-2,2.58c-0.16-0.02-0.33-0.01-0.5,0
			c-13.52,0.72-13.52,0.72-8.36-11.92C241.16,177.07,242.28,174.33,243.75,170.73z"/>
	</g>
</g>
</svg>
