<?xml version="1.0" encoding="utf-8"?>
<!-- Generator: Adobe Illustrator 23.0.1, SVG Export Plug-In . SVG Version: 6.00 Build 0)  -->
<svg version="1.1" id="Layer_1" xmlns="http://www.w3.org/2000/svg" xmlns:xlink="http://www.w3.org/1999/xlink" x="0px" y="0px"
	 viewBox="0 0 352 352" style="enable-background:new 0 0 352 352;" xml:space="preserve">
<style type="text/css">
	.st0{fill:#AF1F32;}
	.st1{fill:#AF1E31;}
	.st2{fill:#2B5360;}
	.st3{fill:#2B5260;}
	.st4{fill:#2E5562;}
	.st5{fill:#8F8F8F;}
	.st6{fill:#868686;}
	.st7{fill:#858585;}
	.st8{fill:#353132;}
	.st9{fill:#383436;}
	.st10{fill:#3B3738;}
	.st11{fill:#484546;}
	.st12{fill:#3F3B3C;}
	.st13{fill:#4D4A4B;}
</style>
<g>
	<path class="st0" d="M224.8,295.66c28.31-12.37,51-30.75,68.51-55.44c17.28-24.38,27.38-51.69,32.53-82.21
		c6.42,10.67,7.06,20.98,4.53,31.33c-5.26,21.54-16.29,40.27-30.04,57.38c-18.47,22.99-41.61,39.46-69.9,48.35
		C228.87,295.55,227.35,296.41,224.8,295.66z"/>
	<path class="st1" d="M25.77,158.96c11.07,60.44,40.5,107.64,97.3,135.29c-1.84,1.41-3.12,0.42-4.43-0.03
		c-37.01-12.65-63.96-37.2-83.12-70.74c-6.84-11.98-12.99-24.34-15.12-38.25C18.92,175.58,20.95,165.05,25.77,158.96z"/>
	<path class="st2" d="M103.55,269.6c-14.29-8.92-25.8-20.53-35.69-33.83c-19.84-26.69-30.85-56.82-34.5-89.7
		c-1.12-10.1,0.63-19.91,5.6-28.96c1.42-2.59,3.06-5.02,6.18-7.54C40.35,172.25,58.09,225.98,103.55,269.6z"/>
	<path class="st3" d="M249.08,267.76c45-43.31,62.12-96.42,57.28-158.69c7.68,7.82,10.92,16.41,11.65,25.98
		c1.44,18.98-3.6,36.93-9.75,54.54c-10.5,30.02-27.8,55.43-52.76,75.37C253.79,266.32,252.32,268.54,249.08,267.76z"/>
	<path class="st4" d="M188.58,165.57c0,8.89,0,17.79,0,26.68c0,2.5-0.13,5.01,0.04,7.5c0.17,2.46-0.45,3.59-3.24,3.57
		c-2.69-0.02-3.32-0.95-3.3-3.5c0.12-13-0.01-25.99,0.13-38.99c0.02-1.81-1.57-5.05,1.8-5.22c3.13-0.16,6.89-1.87,9.3,2.43
		c4.31,7.69,9,15.16,13.53,22.73c2.39,3.99,4.76,8,8.14,11.95c0-2.83,0-5.65,0-8.48c0-8.5,0.04-17-0.03-25.49
		c-0.02-2.12,0.22-3.41,2.89-3.4c2.57,0.01,3.46,0.72,3.44,3.39c-0.12,13.16,0.02,26.33-0.15,39.49c-0.02,1.61,1.66,4.66-1.51,4.83
		c-2.97,0.16-6.41,1.64-8.76-2.48c-6.02-10.54-12.49-20.83-18.78-31.21c-0.82-1.36-1.66-2.7-2.5-4.05
		C189.25,165.39,188.92,165.48,188.58,165.57z"/>
	<path class="st5" d="M175.91,142.75c-32.15,0-64.3,0-96.45,0c-1.33,0-2.67,0.01-4-0.05c-1.2-0.05-1.75-0.81-1.83-1.94
		c-0.1-1.45,0.61-2.17,2.04-2.19c1-0.02,2-0.03,3-0.03c64.47,0,128.93,0,193.4,0c1.33,0,2.67,0.01,3.99,0.15
		c1.18,0.13,1.65,0.97,1.62,2.11c-0.03,1.19-0.65,1.86-1.83,1.91c-1.33,0.06-2.66,0.05-4,0.05
		C239.87,142.75,207.89,142.75,175.91,142.75z"/>
	<path class="st6" d="M79.08,217.34c-15.59-21.91-23.45-46.26-25.24-72.71c-0.74-10.99-1.15-21.97,1.25-32.79
		c2.27-10.21,7.25-18.81,16.62-24.81C55.57,131.58,57.8,174.98,79.08,217.34z"/>
	<path class="st7" d="M279.98,87.04c9.77,5.46,14.93,14.61,16.46,24.9c5.25,35.41-1.02,68.85-19.5,99.77
		c-0.45,0.75-0.99,1.33-2.2,1.24c-0.79-1.28,0.3-2.32,0.76-3.31c18.07-38.73,19.35-78.21,5.34-118.39c-0.49-1.39-1.33-2.72-0.79-4.3
		L279.98,87.04z"/>
	<path class="st5" d="M176.02,215.25c25.8,0,51.6,0,77.4,0c1.33,0,2.66,0.01,3.99,0.09c1.27,0.08,1.59,0.97,1.61,2.07
		c0.02,1.16-0.43,1.92-1.68,1.98c-1.16,0.05-2.33,0.07-3.49,0.07c-52.1,0-104.2,0-156.3,0c-1,0-2-0.02-3-0.05
		c-1.54-0.05-2.56-0.6-2.42-2.39c0.13-1.61,1.27-1.74,2.49-1.77c1.16-0.02,2.33-0.02,3.5-0.02
		C124.09,215.25,150.05,215.25,176.02,215.25z"/>
	<path class="st2" d="M137.89,179.49c-0.23,4.56,0.8,8.74,3.24,12.45c3.57,5.43,8.84,7.53,15.09,6.66
		c5.97-0.82,9.67-4.8,10.56-10.51c0.71-4.51,3.67-3.21,5.89-3c3.75,0.35,1.36,3.29,1.06,4.58c-3.27,13.87-20.98,19.58-33.58,10.84
		c-8.14-5.65-10.15-14.11-9.57-23.34c0.59-9.44,4.56-17.02,13.61-21.04c11.96-5.31,25.78-0.31,29.26,10.54
		c0.48,1.48,2.03,3.87-0.81,4.32c-2,0.31-4.87,1.66-6.03-2.2c-1.78-5.97-6.26-8.83-12.41-8.9c-6.43-0.07-11.18,2.86-14.1,8.56
		C138.35,171.93,137.62,175.68,137.89,179.49z"/>
	<path class="st2" d="M88.86,179.39c0.01,9.99,4.14,16.6,11.69,18.72c8.26,2.31,15.48-1.4,17.12-9.76c0.9-4.61,3.8-3.7,6.1-3.21
		c3.3,0.71,1.24,3.53,0.8,5.13c-2.42,8.88-9.68,14.1-19.33,14.26c-10.46,0.18-18.97-5.33-22.12-14.62
		c-2.3-6.79-2.42-13.74-0.05-20.57c4.69-13.53,21.44-19.59,33.74-12.25c3.87,2.31,6.49,5.69,7.75,10c0.4,1.36,1.8,3.61-0.85,3.91
		c-1.9,0.22-4.46,1.55-5.91-1.61c-3.5-7.62-6.99-9.84-13.98-9.42c-6.81,0.4-11.59,4.43-13.98,11.55
		C88.98,174.11,88.87,176.73,88.86,179.39z"/>
	<path class="st2" d="M232.14,179.18c0-6.82,0.02-13.64-0.01-20.46c-0.01-1.78-0.02-3.38,2.48-3.29c7.14,0.24,14.31-0.63,21.41,0.46
		c7.67,1.18,11.86,5.86,12,12.92c0.14,7.29-3.56,11.78-11.21,13.67c-4.11,1.02-8.3,0.68-12.41,0.44c-4-0.23-5.78,0.68-5.28,5.07
		c0.41,3.61,0.04,7.31,0.1,10.97c0.04,2.41,0.31,4.44-3.41,4.37c-3.35-0.06-3.77-1.39-3.7-4.19
		C232.25,192.49,232.14,185.83,232.14,179.18z M247.25,176.87c2.16,0,4.37,0.31,6.45-0.07c4.15-0.75,7.1-3.12,7.05-7.65
		c-0.04-4.24-2.67-6.66-6.74-7.36c-2.27-0.39-4.61-0.57-6.92-0.6c-7.92-0.1-7.92-0.06-7.92,7.77
		C239.17,177,239.17,177,247.25,176.87z"/>
	<path class="st8" d="M155.86,127.83c-2.05,0.9-3.38,0.36-4.26-1.77c-0.7-1.68-1.77-3.19-2.54-4.84c-1.06-2.28-3.08-1.7-4.77-1.51
		c-2.05,0.22-0.99,2.06-1.22,3.2c-0.13,0.64,0.1,1.35-0.05,1.98c-0.28,1.21,1.04,3.36-1.63,3.28c-2.54-0.08-1.54-2.15-1.57-3.4
		c-0.11-4.82,0.03-9.64-0.08-14.46c-0.05-2.08,0.54-3.08,2.79-2.93c2.97,0.2,6-0.32,8.92,0.56c3.98,1.2,6.25,5.96,3.43,8.49
		c-3.57,3.2-1.8,5.41-0.23,8.22C155.18,125.6,156.17,126.47,155.86,127.83z M145.81,117.07c3.2-0.27,6.39,0.11,6.4-3.36
		c0.01-3.77-3.32-3.26-5.93-3.54c-2.7-0.29-3.3,0.85-3.34,3.36C142.9,116.31,143.62,117.64,145.81,117.07z"/>
	<path class="st9" d="M239.76,117.91c0-0.83-0.26-1.78,0.04-2.48c1.14-2.64-2.99-7.53,3.12-7.99c8.78-0.67,13.32,2.1,14.19,8.24
		c1.34,9.47-7.05,15.95-16.14,12.56c-1.35-0.5-1.19-1.38-1.2-2.32C239.75,123.24,239.76,120.57,239.76,117.91z M242.89,117.87
		c0,1.83,0,3.66,0,5.49c0,1.09,0.22,1.98,1.58,2.02c3.36,0.1,6.85,0.39,8.57-3.44c1.64-3.65,1.53-7.21-1.61-10.04
		c-2.12-1.91-5.04-2.31-7.53-1.44c-2.05,0.71-0.71,3.23-0.99,4.92C242.77,116.19,242.88,117.04,242.89,117.87z"/>
	<path class="st10" d="M112.95,250.97c-3.55,0.06-6.61-0.88-8.11-4.48c-0.4-0.96-1.4-2.25,0.34-2.92c1.17-0.45,2.29-0.25,2.79,1.22
		c1.27,3.67,4.18,3.8,7.34,3.31c1.41-0.22,2.63-0.83,2.86-2.36c0.24-1.53-0.67-2.54-2.02-3.06c-2.32-0.89-4.7-1.65-7.03-2.52
		c-2.57-0.96-4.28-2.73-4.12-5.59c0.17-2.89,2.15-4.26,4.8-4.99c4.48-1.24,8.89,0.15,10.46,3.48c0.4,0.85,1.23,1.9,0.1,2.63
		c-1.01,0.66-2.22,0.62-3.03-0.61c-0.53-0.81-0.94-1.85-1.69-2.35c-1.79-1.19-3.81-1.1-5.69-0.13c-0.88,0.45-1.59,1.29-1.27,2.44
		c0.52,1.9,2.25,2.3,3.81,2.82c1.42,0.47,2.91,0.74,4.3,1.27c2.95,1.14,5.52,2.79,5.02,6.49c-0.48,3.56-3.22,4.79-6.36,5.32
		C114.63,251.09,113.78,250.97,112.95,250.97z"/>
	<path class="st9" d="M169.09,101c-3.36,0.11-6.33-0.76-7.96-3.94c-0.51-0.98-1.82-2.52,0-3.43c1.34-0.67,2.32-0.05,2.99,1.57
		c1.44,3.45,4.45,3.48,7.58,2.86c1.24-0.25,2.2-0.9,2.45-2.17c0.3-1.52-0.49-2.58-1.86-3.12c-2.16-0.84-4.37-1.55-6.54-2.35
		c-2.87-1.06-5.07-2.81-4.69-6.18c0.35-3.15,2.84-4.31,5.59-4.83c3.65-0.7,7.03-0.16,9.3,3.12c0.61,0.88,1.99,2.35,0.11,3.32
		c-1.01,0.53-2.36,0.41-2.81-1.12c-0.36-1.22-1.17-2.17-2.3-2.43c-2.27-0.51-5.04-1.1-6.03,1.71c-0.92,2.62,1.69,3.15,3.5,3.83
		c1.4,0.52,2.9,0.75,4.29,1.27c2.96,1.11,5.55,2.74,5.13,6.41c-0.44,3.86-3.45,4.94-6.75,5.46C170.43,101.09,169.75,101,169.09,101z
		"/>
	<path class="st8" d="M200.69,250.15c-3.07,1.03-4.02-0.48-4.88-2.23c-0.81-1.63-1.7-3.23-2.58-4.83c-1.07-1.97-2.92-1.12-4.47-1.12
		c-2.18,0.01-1.41,1.81-1.51,2.97c-0.11,1.32-0.01,2.66-0.05,3.99c-0.03,0.93-0.45,1.59-1.5,1.55c-0.96-0.04-1.56-0.53-1.56-1.53
		c-0.01-5.82-0.02-11.65,0.01-17.47c0-0.44,0.16-1.02,0.46-1.31c2.25-2.11,13.92,0.17,15.1,3c0.72,1.73,1.18,4.21-0.16,5.23
		c-4.47,3.4-1.61,6.31,0.07,9.42C200,248.54,200.29,249.28,200.69,250.15z M191.28,238.95c2.63,0.15,5.58-0.03,5.46-3.35
		c-0.13-3.4-3.33-2.86-5.76-3.04c-2.56-0.19-3.84,0.38-3.88,3.44C187.04,239.59,189.19,238.99,191.28,238.95z"/>
	<path class="st11" d="M132.79,229.71c1.69,0.87,5.67-1.66,5.75,1.6c0.06,2.69-3.85,1.07-5.95,1.29c-2.12,0.22-3.81-0.03-3.73,3.07
		c0.07,2.9,1.71,2.69,3.58,2.65c0.67-0.02,1.35-0.1,1.99,0.02c1.29,0.24,3.47-0.87,3.52,1.48c0.05,2.54-2.25,1.03-3.44,1.47
		c-1.8,0.66-4.67-1.59-5.44,1.58c-0.75,3.1-0.17,5.4,4.15,4.98c1.82-0.18,5.56-1.72,5.53,1.52c-0.02,2.62-3.58,0.84-5.51,1.27
		c-0.95,0.21-2.01-0.09-2.98,0.06c-3.91,0.6-5.45-0.88-5-4.91c0.33-2.96,0.06-5.98,0.06-8.98
		C125.32,229.71,125.32,229.71,132.79,229.71z"/>
	<path class="st8" d="M205.96,90.15c0.01-6.8,3.89-11.02,10.13-11.04c6.26-0.02,10.1,4.14,10.13,11
		c0.04,6.92-3.65,10.92-10.09,10.93C209.75,101.05,205.95,96.98,205.96,90.15z M222.97,90.33c0.06-5-2.46-8.25-6.53-8.43
		c-4.3-0.19-7.26,3.19-7.24,8.28c0.02,4.86,2.78,8.17,6.84,8.2C220.19,98.42,222.92,95.25,222.97,90.33z"/>
	<path class="st12" d="M220.08,117.89c0-0.33,0-0.67,0-1c0-10,1.65-11.34,11.71-9.53c1.01,0.18,2.11,0.22,2.02,1.6
		c-0.08,1.42-1.27,1.27-2.23,1.29c-1.83,0.04-3.66,0.11-5.49,0c-2.57-0.15-2.37,1.58-2.48,3.28c-0.12,1.95,0.78,2.32,2.58,2.67
		c2.27,0.44,6.36-2.15,6.44,1.69c0.05,2.34-4.16,1-6.4,1.09c-2.39,0.09-2.72,1.16-2.62,3.09c0.08,1.69-0.19,3.45,2.42,3.31
		c1.82-0.1,3.66-0.04,5.49,0.01c1.12,0.03,2.56-0.21,2.45,1.59c-0.11,1.84-1.64,1.21-2.67,1.28
		C220.08,129.04,220.08,129.03,220.08,117.89z"/>
	<path class="st11" d="M120.32,117.89c0-0.5,0-1,0-1.49c0-9.3,2.25-11.04,11.66-9.07c1.06,0.22,2,0.42,1.89,1.74
		c-0.1,1.07-0.96,1.19-1.82,1.2c-1.82,0.02-3.66,0.16-5.47,0c-2.4-0.22-2.6,1.09-2.67,2.98c-0.09,2.16,0.69,2.68,2.8,2.93
		c2.11,0.25,5.99-1.89,6.01,1.62c0.02,2.58-3.82,1.13-5.84,1.17c-2.53,0.05-3,0.96-3,3.23c0,2.31,0.62,3.38,3.08,3.15
		c1.64-0.15,3.31-0.03,4.97-0.02c1.03,0.01,2.03,0.11,2.1,1.48c0.07,1.46-0.98,1.46-2,1.48c-0.17,0-0.33-0.01-0.5,0.01
		C120.32,129.26,120.32,129.26,120.32,117.89z"/>
	<path class="st9" d="M129.9,90.72c0.08,2.82,0.87,6.07,4.69,7.22c3.75,1.13,6.49-0.12,7.56-4.2c0.29-1.11,1.26-1.57,2.35-1.18
		c1.7,0.6,0.89,1.93,0.59,2.94c-1.46,4.97-8.03,7.2-13.31,4.55c-4.89-2.45-6.86-9.59-4.2-15.25c2.28-4.86,7.94-7.02,13.06-4.85
		c1.17,0.5,2.29,1.34,3.16,2.28c1.1,1.18,2.56,3.02,1.03,4.26c-1.96,1.58-2.57-0.78-3.43-2.11c-1.58-2.44-3.99-2.86-6.58-2.19
		C131.8,82.96,129.94,86.07,129.9,90.72z"/>
	<path class="st12" d="M180.25,237.87c0,1.66,0.07,3.32-0.02,4.98c-0.3,5.62-2.99,8.21-8.42,8.21c-5.52,0-8.2-2.51-8.42-8.16
		c-0.14-3.48-0.04-6.97-0.02-10.46c0.01-1.12-0.27-2.52,1.45-2.63c2.07-0.13,1.81,1.46,1.82,2.76c0.02,3.49-0.05,6.97,0.05,10.46
		c0.1,3.32,1.76,5.35,5.25,5.26c3.48-0.09,5-2.14,5-5.5c0-3.65,0-7.3,0.01-10.96c0-0.99-0.09-2.01,1.39-2.09
		c1.59-0.08,1.98,0.75,1.94,2.14C180.21,233.88,180.26,235.87,180.25,237.87z"/>
	<path class="st10" d="M193.08,101.09c-4.96-0.03-8.2-1.63-9.98-5.57c-2.03-4.48-1.16-10.5,2.06-13.49
		c3.2-2.98,6.98-3.78,11.08-2.11c1.19,0.48,2.41,1.25,3.22,2.22c1.01,1.19,2.64,2.99,1.12,4.31c-1.89,1.65-2.67-0.59-3.51-1.96
		c-1.28-2.07-3.22-2.78-5.56-2.48c-3.76,0.48-5.45,2.97-5.78,6.44c-0.38,3.98-0.05,7.9,4.47,9.47c3.54,1.23,6.25-0.14,7.5-3.72
		c0.47-1.33,1.07-2.15,2.45-1.7c1.65,0.54,1.02,1.93,0.63,2.92C199.29,99.25,196.49,101.22,193.08,101.09z"/>
	<path class="st10" d="M149.4,251.07c-2.44-0.03-5.88-1.7-7.47-5.98c-1.75-4.69-1.45-9.32,2.17-13.02
		c3.04-3.11,6.91-3.75,11.07-2.23c1.45,0.53,2.78,1.28,3.52,2.63c0.73,1.32,2.57,2.98,0.57,4.26c-1.69,1.07-2.31-1-3.2-2.16
		c-2.66-3.46-7.12-3.53-9.79-0.28c-2.36,2.88-2.36,8.77,0,11.67c2.95,3.63,7.69,3.09,10.13-1.25c0.74-1.32,1.17-3.17,3.06-2
		c1.4,0.87,0.46,2.39-0.08,3.58C157.93,249.48,155.33,251.02,149.4,251.07z"/>
	<path class="st9" d="M104.46,128.9c-3.09-0.11-6.39-1.77-7.92-5.83c-1.75-4.63-1.63-9.27,1.9-13.05c2.98-3.19,6.87-3.81,11.03-2.42
		c1.46,0.48,2.81,1.19,3.59,2.54c0.75,1.31,2.64,2.89,0.72,4.21c-1.57,1.08-2.28-0.78-3.21-2.03c-2.9-3.91-8.44-3.27-10.6,1.11
		c-1.4,2.83-1.44,5.77-0.14,8.68c1.11,2.49,2.94,3.93,5.77,4.01c2.69,0.08,4.52-1.14,5.33-3.62c0.54-1.63,1.27-3.05,3.07-2.14
		c1.71,0.86,0.41,2.45-0.05,3.5C112.37,127.43,109.42,128.99,104.46,128.9z"/>
	<path class="st13" d="M191.29,118.05c0-0.5,0-1,0-1.5c0-9.67,1.75-11.07,11.53-9.27c1.02,0.19,2.06,0.26,2.04,1.61
		c-0.02,1.42-1.16,1.37-2.14,1.39c-1.83,0.04-3.66,0.12-5.49,0c-2.52-0.16-2.46,1.46-2.55,3.21c-0.1,1.97,0.79,2.4,2.62,2.62
		c2.09,0.25,5.96-1.48,5.95,1.31c-0.01,3.36-3.91,1.25-6.03,1.56c-1.9,0.27-2.67,0.75-2.53,2.68c0.11,1.49,0,2.99,0.02,4.49
		c0.02,1.1-0.2,2.02-1.51,2.1c-1.57,0.1-1.93-0.85-1.91-2.21C191.33,123.38,191.3,120.72,191.29,118.05z"/>
	<path class="st11" d="M218.74,229.71c2,0,4-0.02,5.99,0.01c0.98,0.02,2.14-0.04,2.12,1.41c-0.01,1.35-1.12,1.7-2.09,1.5
		c-5.42-1.13-4.91,2.46-4.84,5.85c0.07,3.33,0.01,6.66,0.01,9.99c0,1.08-0.26,2.03-1.54,2.13c-1.5,0.12-2.07-0.75-2.07-2.14
		c0-3.83-0.15-7.66,0.03-11.48c0.14-2.98-0.38-4.86-3.98-4.34c-1.22,0.18-3.01,0.37-2.9-1.66c0.09-1.67,1.68-1.23,2.77-1.26
		C214.41,229.67,216.58,229.71,218.74,229.71z"/>
	<path class="st12" d="M166.74,118.93c0-1.33-0.12-2.67,0.02-3.99c0.33-3.13-0.24-5.27-4.15-4.73c-0.98,0.13-2.63,0.63-2.76-1.15
		c-0.16-2.13,1.62-1.67,2.85-1.68c3.99-0.04,7.99-0.02,11.98,0c1.02,0.01,2.11,0.12,2.14,1.47c0.03,1.45-1.19,1.54-2.11,1.37
		c-4.66-0.85-5.15,1.7-4.84,5.4c0.26,3.14,0.11,6.32,0.02,9.48c-0.03,1.17,0.72,2.98-1.41,3.07c-2.59,0.12-1.61-1.99-1.7-3.26
		C166.64,122.93,166.74,120.92,166.74,118.93z"/>
	<path class="st8" d="M229.32,230.17c2.34-0.05,2.34-0.05,9.15,8.56c3.4-2.3,2.85-8.54,8.78-9.02c-0.33,2.77-1.93,4.33-3.04,6.11
		c-2.38,3.81-5.08,7.43-4.22,12.35c0.19,1.07,0.26,2.47-1.6,2.39c-1.32-0.06-1.78-0.89-1.6-1.99
		C238,241.04,231.94,236.57,229.32,230.17z"/>
	<path class="st13" d="M154.7,90.07c-0.01,2.83,0,5.65-0.01,8.48c0,1.12-0.4,2-1.64,2.05c-1.24,0.05-1.74-0.8-1.74-1.93
		c-0.02-5.65,0-11.3-0.03-16.95c0-1.17,0.4-1.94,1.65-1.97c1.64-0.04,1.79,1.06,1.77,2.35C154.68,84.76,154.7,87.42,154.7,90.07z"/>
	<path class="st13" d="M213.95,117.93c0,2.83-0.03,5.66,0.01,8.49c0.02,1.24-0.52,1.85-1.74,1.85c-1.15,0-1.92-0.44-1.91-1.72
		c0.01-5.82,0-11.65,0.04-17.47c0.01-1.2,0.81-1.77,1.98-1.69c1.27,0.08,1.61,0.95,1.61,2.06
		C213.95,112.27,213.95,115.1,213.95,117.93z"/>
	<path class="st13" d="M206.96,239.92c0,2.66,0,5.33,0,7.99c0,1.39,0,2.82-1.97,2.71c-1.58-0.09-1.7-1.29-1.69-2.53
		c0.01-5.33,0.02-10.65-0.01-15.98c-0.01-1.29,0.17-2.32,1.78-2.38c2.06-0.08,1.9,1.34,1.89,2.7
		C206.95,234.93,206.96,237.42,206.96,239.92z"/>
	<path class="st9" d="M181.76,117.84c0-2.66,0-5.32,0-7.98c0-1.19-0.06-2.49,1.7-2.36c1.34,0.09,1.43,1.13,1.43,2.18
		c0,5.48-0.01,10.97,0.01,16.45c0,1.09-0.13,2-1.49,2.06c-1.82,0.09-1.64-1.22-1.64-2.37C181.76,123.15,181.76,120.5,181.76,117.84z
		"/>
	<path class="st7" d="M280.05,86.95c-0.16-0.1-0.33-0.2-0.49-0.3c0.09,0.01,0.21-0.02,0.25,0.03c0.08,0.1,0.11,0.23,0.17,0.35
		C279.98,87.04,280.05,86.95,280.05,86.95z"/>
</g>
</svg>
