<?xml version="1.0" encoding="utf-8"?>
<!-- Generator: Adobe Illustrator 23.0.1, SVG Export Plug-In . SVG Version: 6.00 Build 0)  -->
<svg version="1.1" id="Layer_1" xmlns="http://www.w3.org/2000/svg" xmlns:xlink="http://www.w3.org/1999/xlink" x="0px" y="0px"
	 viewBox="0 0 346.03 345.88" style="enable-background:new 0 0 346.03 345.88;" xml:space="preserve">
<style type="text/css">
	.st0{fill:#007054;}
	.st1{fill:#F6F9F9;}
	.st2{fill:#F3F8F7;}
	.st3{fill:#F5F9F8;}
	.st4{fill:#F8FAFA;}
	.st5{fill:#DFECE9;}
	.st6{fill:#027155;}
	.st7{fill:#E1EEEB;}
	.st8{fill:#1A7E65;}
	.st9{fill:#28866F;}
</style>
<g>
	<path class="st0" d="M172.5,345.88c-46.83,0-93.65,0.01-140.48,0c-18.67,0-31.97-13.01-31.99-31.62
		c-0.06-94.15-0.05-188.3,0-282.45C0.05,13.34,13.53,0.02,32.05,0.02c93.98-0.02,187.97-0.02,281.95,0
		c18.5,0,31.98,13.33,31.99,31.8c0.05,94.15,0.05,188.3,0,282.45c-0.01,18.61-13.32,31.6-32,31.61
		C266.82,345.88,219.66,345.88,172.5,345.88z M111.69,283.7c-5.63,3.62-11.62,5.86-18.02,6.89c-14.12,2.28-27.38-6.22-29.65-18.96
		c-2.6-14.56,5.72-26.86,20.13-29.43c7.61-1.35,14.87,0.25,21.85,3.46c1.68,0.78,3.21,2.27,5.55,1.9c0-2.35-0.1-4.51,0.03-6.67
		c0.12-1.96-0.62-3.09-2.45-3.75c-7.4-2.67-14.89-4.91-22.89-4.15c-14.03,1.32-24.87,7.6-30.13,21.11
		c-4.94,12.68-3.15,24.81,6.28,34.81c11.53,12.23,26.2,13.02,41.17,8.52C113.59,294.42,112.71,295.88,111.69,283.7z M227.47,266.45
		c0,9.65,0.2,19.31-0.09,28.95c-0.14,4.68,2.86,3.33,5.25,3.51c2.64,0.19,4.74,0.32,4.51-3.67c-0.39-6.63,0.08-13.31-0.18-19.96
		c-0.14-3.38,0.62-4.73,4.28-4.46c4.12,0.3,8.28,0.22,12.41-0.71c10.21-2.29,15.67-9.25,14.89-19.23
		c-0.79-10.05-7.68-16.64-18.06-16.97c-6.48-0.21-12.98,0.1-19.46-0.11c-2.93-0.1-3.64,0.96-3.6,3.7
		C227.55,247.14,227.47,256.8,227.47,266.45z M216.22,248.09c0.91-11.44-0.78-13.58-11.23-15.03c-4.03-0.56-8-0.14-11.82,1.23
		c-11.71,4.19-14.99,18.2-6.4,27.22c3.26,3.42,7.32,5.73,11.3,8.17c3.26,2,6.59,3.9,9.17,6.82c2.22,2.51,3.58,5.3,2.29,8.65
		c-1.32,3.44-4.15,5.15-7.64,5.64c-5.83,0.81-10.73-1.37-15.2-4.93c-1.23-0.98-1.92-2.68-3.73-2.99
		c-1.58,11.26,0.23,13.94,10.99,16.06c2.43,0.48,4.96,0.84,7.42,0.74c9.51-0.37,16.46-6.48,17.5-15.33
		c1.01-8.55-2.82-14.82-9.73-19.39c-4.71-3.12-9.68-5.84-14.32-9.05c-2.88-1.99-4.71-4.98-3.51-8.64c1.23-3.76,4.38-5.14,8.14-5.52
		C205.87,241.09,211.01,243.9,216.22,248.09z M172.97,247.98c1.18-11.08,2.09-11.36-9.22-14.52c-3.76-1.05-7.57-0.72-11.36,0.23
		c-6.49,1.62-11.01,5.29-12.77,11.92c-1.81,6.82,0.14,12.59,5.41,17.04c3.16,2.67,6.75,4.83,10.22,7.11c3.06,2,6.27,3.79,8.8,6.5
		c2.28,2.45,3.75,5.31,2.62,8.62c-1.24,3.63-4.24,5.45-7.96,5.94c-5.06,0.66-9.54-0.89-13.55-3.89c-1.76-1.32-3.4-2.81-5.31-4.4
		c-1.19,12.29,0.39,14.46,11.76,16.53c2.12,0.39,4.3,0.7,6.44,0.64c9.71-0.26,16.8-6.42,17.85-15.53c0.95-8.34-2.8-14.52-9.49-19.03
		c-4.54-3.06-9.42-5.63-13.95-8.71c-3.18-2.16-5.52-5.23-4.07-9.33c1.38-3.91,4.78-5.14,8.75-5.39
		C163.21,241.33,168.08,243.94,172.97,247.98z M130.86,266.38c0-9.49-0.28-18.98,0.12-28.45c0.19-4.63-2.37-4.05-5.22-4.09
		c-2.75-0.03-4.93-0.44-4.87,3.84c0.26,19.13,0.26,38.28,0,57.41c-0.06,4.28,2.13,3.87,4.87,3.84c2.86-0.03,5.41,0.53,5.22-4.09
		C130.58,285.36,130.86,275.86,130.86,266.38z M292.06,241.68c0.03-4.62-3.89-8.64-8.47-8.67c-4.51-0.04-8.59,4.01-8.62,8.56
		c-0.03,4.66,3.79,8.49,8.52,8.53C288.27,250.14,292.03,246.44,292.06,241.68z"/>
	<path class="st1" d="M111.69,283.7c1.02,12.18,1.9,10.72-8.13,13.73c-14.97,4.5-29.64,3.72-41.17-8.52
		c-9.43-10-11.22-22.14-6.28-34.81c5.27-13.51,16.1-19.79,30.13-21.11c8-0.75,15.49,1.48,22.89,4.15c1.84,0.66,2.58,1.8,2.45,3.75
		c-0.14,2.15-0.03,4.32-0.03,6.67c-2.33,0.37-3.87-1.13-5.55-1.9c-6.98-3.22-14.24-4.82-21.85-3.46
		c-14.41,2.56-22.73,14.87-20.13,29.43c2.27,12.74,15.53,21.24,29.65,18.96C100.07,289.56,106.07,287.32,111.69,283.7z"/>
	<path class="st2" d="M227.47,266.45c0-9.65,0.08-19.3-0.05-28.95c-0.04-2.74,0.67-3.8,3.6-3.7c6.48,0.21,12.98-0.09,19.46,0.11
		c10.38,0.33,17.27,6.93,18.06,16.97c0.78,9.98-4.68,16.93-14.89,19.23c-4.12,0.93-8.29,1.01-12.41,0.71
		c-3.66-0.27-4.41,1.09-4.28,4.46c0.27,6.64-0.2,13.32,0.18,19.96c0.23,3.99-1.87,3.86-4.51,3.67c-2.39-0.17-5.4,1.17-5.25-3.51
		C227.67,285.75,227.47,276.09,227.47,266.45z M244.25,262.02c0-0.03,0-0.06,0-0.09c1.83,0,3.68,0.16,5.49-0.03
		c5.29-0.56,8.97-4.55,9.05-9.61c0.08-5.15-3.31-9-8.85-9.6c-3.13-0.34-6.33-0.03-9.48-0.31c-3.03-0.27-3.6,1.12-3.49,3.76
		c0.18,4.16,0.17,8.34,0,12.49c-0.1,2.5,0.54,3.77,3.27,3.41C241.57,261.88,242.92,262.02,244.25,262.02z"/>
	<path class="st3" d="M216.22,248.09c-5.21-4.19-10.35-7-16.76-6.35c-3.76,0.38-6.91,1.77-8.14,5.52c-1.2,3.66,0.63,6.65,3.51,8.64
		c4.64,3.21,9.61,5.94,14.32,9.05c6.91,4.57,10.74,10.84,9.73,19.39c-1.05,8.85-8,14.96-17.5,15.33c-2.46,0.1-4.99-0.27-7.42-0.74
		c-10.77-2.12-12.57-4.8-10.99-16.06c1.81,0.3,2.5,2.01,3.73,2.99c4.47,3.56,9.38,5.75,15.2,4.93c3.49-0.49,6.32-2.2,7.64-5.64
		c1.29-3.35-0.07-6.14-2.29-8.65c-2.58-2.92-5.91-4.82-9.17-6.82c-3.97-2.44-8.04-4.75-11.3-8.17c-8.59-9.02-5.31-23.03,6.4-27.22
		c3.81-1.37,7.79-1.79,11.82-1.23C215.44,234.51,217.13,236.65,216.22,248.09z"/>
	<path class="st3" d="M172.97,247.98c-4.89-4.04-9.75-6.65-15.84-6.27c-3.97,0.25-7.37,1.48-8.75,5.39
		c-1.44,4.1,0.89,7.17,4.07,9.33c4.53,3.08,9.41,5.64,13.95,8.71c6.68,4.51,10.44,10.69,9.49,19.03
		c-1.04,9.11-8.13,15.27-17.85,15.53c-2.14,0.06-4.32-0.25-6.44-0.64c-11.38-2.08-12.95-4.24-11.76-16.53
		c1.91,1.59,3.55,3.08,5.31,4.4c4.01,3,8.49,4.55,13.55,3.89c3.73-0.49,6.72-2.3,7.96-5.94c1.13-3.31-0.33-6.17-2.62-8.62
		c-2.53-2.71-5.74-4.5-8.8-6.5c-3.47-2.27-7.06-4.44-10.22-7.11c-5.27-4.45-7.22-10.22-5.41-17.04c1.76-6.63,6.28-10.31,12.77-11.92
		c3.79-0.94,7.6-1.28,11.36-0.23C175.06,236.62,174.15,236.9,172.97,247.98z"/>
	<path class="st4" d="M130.86,266.38c0,9.49-0.28,18.98,0.12,28.45c0.19,4.62-2.36,4.06-5.22,4.09c-2.74,0.03-4.93,0.45-4.87-3.84
		c0.26-19.13,0.26-38.28,0-57.41c-0.06-4.28,2.12-3.88,4.87-3.84c2.86,0.04,5.41-0.54,5.22,4.09
		C130.58,247.4,130.86,256.89,130.86,266.38z"/>
	<path class="st5" d="M292.06,241.68c-0.03,4.76-3.8,8.46-8.57,8.42c-4.73-0.04-8.55-3.87-8.52-8.53c0.03-4.54,4.11-8.6,8.62-8.56
		C288.17,233.04,292.1,237.07,292.06,241.68z M279.98,245.82c-0.6,1.66,0.66,1.89,1.72,2c1.33,0.14,2.03-0.58,1.86-1.98
		c0.97,0.02,1.93,0.04,2.9,0.06c2.85,0.74,3.11-1.66,3.41-3.25c0.45-2.43,0.02-4.83-2.87-5.81c0,0,0.07,0.06,0.07,0.06
		c-2.04-2.88-4.55-1.73-7.03-0.83c-4.16,3.86-4.14,7.5,0.05,9.83L279.98,245.82z"/>
	<path class="st6" d="M244.25,262.02c-1.33,0-2.68-0.14-4,0.03c-2.74,0.35-3.38-0.91-3.27-3.41c0.17-4.16,0.18-8.34,0-12.49
		c-0.11-2.65,0.46-4.03,3.49-3.76c3.14,0.28,6.34-0.03,9.48,0.31c5.54,0.6,8.94,4.45,8.85,9.6c-0.08,5.07-3.76,9.05-9.05,9.61
		c-1.81,0.19-3.66,0.03-5.49,0.03C244.25,261.96,244.25,261.99,244.25,262.02z"/>
	<path class="st7" d="M286.45,245.9c-0.97-0.02-1.93-0.04-2.9-0.06c-1.19-0.01-2.38-0.01-3.58-0.02c0,0,0.1,0.1,0.1,0.1
		c0-2.95,0-5.9-0.01-8.84c2.32-0.6,4.68,1,6.99-0.17c0,0-0.07-0.06-0.07-0.06C286.79,239.86,285.91,242.84,286.45,245.9z"/>
	<path class="st8" d="M286.45,245.9c-0.54-3.06,0.34-6.04,0.54-9.06c2.88,0.98,3.32,3.37,2.87,5.81
		C289.56,244.24,289.3,246.64,286.45,245.9z"/>
	<path class="st9" d="M280.07,237.07c0,2.95,0,5.9,0.01,8.84c-4.19-2.34-4.21-5.98-0.05-9.84
		C280.06,236.41,280.07,236.74,280.07,237.07z"/>
	<path class="st8" d="M280.07,237.07c0-0.33-0.02-0.66-0.04-0.99c2.48-0.9,4.99-2.06,7.03,0.82
		C284.76,238.07,282.39,236.47,280.07,237.07z"/>
	<path class="st9" d="M279.98,245.82c1.19,0.01,2.38,0.01,3.58,0.02c0.17,1.4-0.53,2.12-1.86,1.98
		C280.63,247.71,279.38,247.48,279.98,245.82z"/>
</g>
</svg>
