<?xml version="1.0" encoding="utf-8"?>
<!-- Generator: Adobe Illustrator 23.0.1, SVG Export Plug-In . SVG Version: 6.00 Build 0)  -->
<svg version="1.1" id="Capa_1" xmlns="http://www.w3.org/2000/svg" xmlns:xlink="http://www.w3.org/1999/xlink" x="0px" y="0px"
	 viewBox="0 0 173.22 59.22" style="enable-background:new 0 0 173.22 59.22;" xml:space="preserve">
<style type="text/css">
	.st0{fill:#652058;}
	.st1{fill:#53262F;}
	.st2{fill:#AF82A9;}
	.st3{fill:#6E1E5E;}
	.st4{font-family:'MyriadPro-Regular';}
	.st5{font-size:16px;}
</style>
<g>
	<path class="st0" d="M1.09,22.65c0.98-4.28,3.05-8.02,5.85-11.34C13.2,3.87,21.3,0.02,30.96,0c17.62-0.04,30.16,13.65,31.32,28.61
		c0.27,3.56-0.3,7.02-0.75,10.5c-0.42,3.23-0.67,6.47-0.11,9.7c0.78,4.52,2.83,8,7.96,9.03C62.16,59,55.67,55.83,52.84,49.1
		c-1.5-3.49-2.06-7.18-2.18-10.95c-0.09-2.7,0.12-5.39-0.27-8.09c-1.07-7.46-4.33-13.73-10.11-18.61c-1.35-1.14-2.73-2.31-4.51-2.78
		c-1.13-0.92-2.47-1.36-3.85-1.71c-3.31-1.21-6.76-1.5-10.2-0.97C13.76,7.23,7.78,11.5,3.49,18.27c-0.9,1.41-1.34,3.06-2.41,4.37
		L1.09,22.65z"/>
	<path class="st1" d="M1.09,22.65c1.07-1.31,1.51-2.96,2.41-4.37C7.79,11.52,13.77,7.24,21.73,6c3.44-0.53,6.88-0.25,10.2,0.97
		C31.75,7,31.57,7.03,31.39,7.05C16.8,8.79,7.42,23.75,12.48,37.43c3.07,8.3,9.17,13.2,17.8,15c-0.41,0.33-0.91,0.4-1.39,0.5
		c-8.39,1.76-15.7-0.38-21.95-6.18c-1.25-1.16-2.33-2.51-3.49-3.78L3.4,43.04l0.05-0.07c0.05-0.3-0.09-0.47-0.36-0.57
		c-1.75-2.74-2.49-5.81-2.86-8.98c-0.38-3.33-0.36-6.65,0.63-9.89c0.34-0.23,0.33-0.55,0.25-0.89L1.09,22.65L1.09,22.65z"/>
	<path class="st2" d="M3.45,42.99c1.16,1.26,2.24,2.61,3.49,3.78c6.25,5.79,13.56,7.94,21.95,6.18c0.48-0.1,0.98-0.17,1.39-0.5
		c1.2-0.24,2.32-0.66,3.31-1.39c2.72-1.25,5.15-2.87,6.9-5.37c0.39-0.3,0.85-0.54,1.17-0.9c5.07-5.73,7.65-12.3,6.49-20.01
		c-0.51-3.38-1.93-6.36-4.9-8.36c-0.17-0.42-0.57-0.59-0.91-0.78c-6.9-4.01-16.03-3.77-22.14,2.7c-0.68,0.71-1.12,1.64-2,2.17
		c-0.15-0.34,0.02-0.63,0.18-0.9c3.93-6.62,9.6-10.47,17.41-10.91c1.78,0.47,3.16,1.65,4.51,2.78c5.78,4.88,9.04,11.15,10.11,18.61
		c0.39,2.69,0.18,5.39,0.27,8.09c0.12,3.77,0.68,7.45,2.18,10.95c-1.93,1.51-3.61,3.3-5.62,4.73c-10.56,7.54-25.87,7.08-35.95-1.09
		c-2.83-2.3-5.28-4.93-7.17-8.05c-0.31-0.51-0.87-0.98-0.65-1.71L3.45,42.99z"/>
	<path class="st0" d="M1.11,22.65c0.08,0.34,0.09,0.67-0.25,0.89C0.87,23.22,0.8,22.88,1.11,22.65z"/>
	<path class="st2" d="M3.09,42.43C3.36,42.52,3.5,42.7,3.45,43C3.01,43.02,3.08,42.7,3.09,42.43z"/>
	<path class="st1" d="M43.25,16.41c-4.19-0.52-8.08,0.2-11.56,2.73c-6.99,5.08-9.12,15.49-4.53,22.18c1.92,2.81,4.67,4.55,7.59,6.09
		c-5.67,0.51-10.47-1.28-14.44-5.36c-0.36-0.37-0.63-0.94-1.29-0.89l0,0c0.07-0.48-0.17-0.73-0.62-0.84
		c-3.19-5.36-3.94-10.95-1.68-16.87c0.27-0.7,0.5-1.4,0.92-2.02c0.29-0.1,0.4-0.3,0.34-0.6l0,0c0.22,0,0.27-0.13,0.22-0.33v-0.01
		c0.88-0.53,1.32-1.45,2-2.17c6.11-6.47,15.24-6.7,22.14-2.7c0.34,0.2,0.75,0.36,0.91,0.78L43.25,16.41z"/>
	<path class="st3" d="M19.02,41.15c0.66-0.04,0.93,0.52,1.29,0.89c3.97,4.08,8.78,5.87,14.44,5.36c2.02-0.2,3.92-0.82,5.74-1.71
		c-1.75,2.49-4.18,4.11-6.9,5.37c-5.88-1.22-10.62-4.2-14.16-9.08C19.25,41.73,18.97,41.52,19.02,41.15z"/>
	<path class="st3" d="M18.41,40.31c0.45,0.1,0.69,0.36,0.62,0.84C18.62,41.02,18.56,40.63,18.41,40.31z"/>
	<path class="st2" d="M17.99,20.82c0.07,0.3-0.04,0.5-0.34,0.6C17.64,21.15,17.6,20.87,17.99,20.82z"/>
	<path class="st2" d="M18.2,20.5c0.06,0.19,0,0.32-0.22,0.33C17.92,20.64,17.96,20.5,18.2,20.5z"/>
	<path class="st3" d="M169.45,8.59c2.08,0,3.77,1.69,3.77,3.77s-1.69,3.77-3.77,3.77s-3.77-1.69-3.77-3.77S167.37,8.59,169.45,8.59z
		 M169.45,15.36c1.62,0,2.89-1.35,2.89-3s-1.27-3-2.89-3s-2.89,1.35-2.89,3S167.83,15.36,169.45,15.36z M169.23,12.77h-0.44v1.71
		h-0.82v-4.3h1.51c1.26,0,1.71,0.34,1.71,1.28c0,0.74-0.4,1.17-1.1,1.27l1.15,1.75h-0.93L169.23,12.77z M168.79,12.08h0.82
		c0.46,0,0.77-0.11,0.77-0.64c0-0.46-0.28-0.56-0.79-0.56h-0.8V12.08z"/>
	<g>
		<path class="st0" d="M76.1,8.97h5.57v34.26H76.1V8.97z"/>
		<path class="st0" d="M100.95,13.98c-5.1,0-10.2-0.01-15.3-0.02c0-1.66-0.01-3.33-0.02-4.99c11.99,0,23.98,0,35.97,0l0.04,5.05
			l-14.41-0.04v29.25h-6.28L100.95,13.98L100.95,13.98z"/>
		<path class="st0" d="M125.77,8.97h5.57v34.26h-5.57V8.97z"/>
		<path class="st0" d="M138.22,8.97c1.85,0,3.7-0.01,5.55-0.02c0.02,9.74,0.05,19.49,0.07,29.23c8.53,0,17.06,0.02,25.59,0.02
			c0,1.68,0,3.36,0.01,5.03c-10.41,0-20.82,0-31.23,0V8.97H138.22z"/>
	</g>
</g>
<text transform="matrix(1 0 0 1 75.0987 59.075)" class="st0 st4 st5">Foundation</text>
</svg>
