<?xml version="1.0" encoding="utf-8"?>
<!-- Generator: Adobe Illustrator 23.0.1, SVG Export Plug-In . SVG Version: 6.00 Build 0)  -->
<svg version="1.1" id="Layer_1" xmlns="http://www.w3.org/2000/svg" xmlns:xlink="http://www.w3.org/1999/xlink" x="0px" y="0px"
	 viewBox="0 0 730 418.43" style="enable-background:new 0 0 730 418.43;" xml:space="preserve">
<style type="text/css">
	.st0{fill-rule:evenodd;clip-rule:evenodd;fill:#FFFFFF;}
	.st1{fill:#007DC2;}
	.st2{fill:#0B396D;}
	.st3{fill:#D11349;}
	.st4{fill:#FFFFFF;}
	.st5{font-family:'Poppins-Bold';}
	.st6{font-size:80px;}
</style>
<g>
	<g>
		<path class="st0" d="M682.3,37.52C682.3,16.8,665.5,0,644.78,0H37.52C16.79,0,0,16.8,0,37.52v343.4
			c0,20.72,16.79,37.51,37.52,37.51h607.26c20.72,0,37.52-16.79,37.52-37.51"/>
		<path class="st1" d="M14.82,241.8v136.35c0,13.95,11.32,25.27,25.27,25.27h443.4V241.8"/>
		<path class="st2" d="M498.33,403.43h143.81c13.96,0,25.28-11.32,25.28-25.27V241.8H498.33"/>
		<path class="st3" d="M667.41,40.18c0-13.96-11.32-25.26-25.28-25.26H40.1c-13.95,0-25.28,11.3-25.28,25.26v186.78h652.59"/>
		<polyline class="st4" points="582.43,276.5 594.07,306.05 625.74,307.97 601.24,328.15 609.2,358.88 582.43,341.82 555.66,358.88 
			563.63,328.15 539.13,307.97 570.81,306.05 		"/>
		<path class="st4" d="M98.09,81.72h14.16l33.84,77.86h-19.34l-6.7-16.5h-30.2l-6.48,16.5H64.47 M104.68,104.37l-9.45,24.2h19
			L104.68,104.37z"/>
		<path class="st4" d="M152.34,76.44h16.49v35.41h0.22c3.72-5.16,10.1-7.04,16.91-7.04c15.16,0,24.37,13.65,24.37,28.49
			c0,16.16-10.42,27.59-26.24,27.59c-7.47,0-13.84-4.51-16.37-8.35h-0.22v7.05h-15.16 M180.69,146.37c8.23,0,13.18-5.49,13.18-13.52
			c0-8.02-4.94-13.52-13.18-13.52c-8.24,0-13.19,5.5-13.19,13.52C167.5,140.88,172.45,146.37,180.69,146.37z"/>
		<path class="st4" d="M227.85,79.75c5.27,0,9.55,4.29,9.55,9.57c0,5.27-4.28,9.56-9.55,9.56c-5.29,0-9.56-4.3-9.56-9.56
			C218.29,84.04,222.57,79.75,227.85,79.75 M219.6,106.12h16.48v53.46H219.6V106.12z"/>
		<rect x="248.06" y="76.44" class="st4" width="16.48" height="83.14"/>
		<path class="st4" d="M284.74,79.75c5.28,0,9.57,4.29,9.57,9.57c0,5.27-4.29,9.56-9.57,9.56c-5.28,0-9.55-4.3-9.55-9.56
			C275.18,84.04,279.46,79.75,284.74,79.75 M276.5,106.12h16.47v53.46H276.5V106.12z"/>
		<path class="st4" d="M340.64,119.34h-14.49v17.81c0,5.72,0.65,9.9,7.79,9.9c1.76,0,5.27-0.23,6.7-1.55v13.75
			c-3.62,1.32-7.69,1.65-11.52,1.65c-11,0-19.46-4.5-19.46-16.17v-25.39h-10.54v-13.21h10.54V90.3h16.48v15.82h14.49"/>
		<path class="st4" d="M381.07,168.26c-4.4,11.33-6.91,17.71-22.62,17.71c-4.18,0-8.34-0.66-12.32-1.99l2.2-13.52
			c2.53,1.1,4.95,1.65,7.69,1.65c7.47,0,8.68-3.19,10.99-9.01l1.21-3.08l-23.4-53.89h17.79l13.74,35.3h0.21l11.75-35.3h16.92"/>
		<path class="st4" d="M451.07,79.75c24.27,0,41.96,15.94,41.96,40.9c0,24.97-17.69,40.92-41.96,40.92s-41.96-15.95-41.96-40.92
			C409.11,95.69,426.8,79.75,451.07,79.75 M451.07,145.71c14.61,0,24.17-10.55,24.17-25.07c0-14.52-9.56-25.06-24.17-25.06
			c-14.61,0-24.17,10.54-24.17,25.06C426.9,135.17,436.46,145.71,451.07,145.71z"/>
		<path class="st4" d="M502.8,106.12h15.82v7.27h0.21c2.21-4.18,7.59-8.58,15.61-8.58c16.69,0,19.77,10.99,19.77,25.29v29.48h-16.48
			v-26.18c0-6.16-0.12-14.07-8.57-14.07c-8.57,0-9.89,6.71-9.89,13.63v26.63H502.8"/>
		<path class="st4" d="M615.23,150.35c-5.27,6.7-13.95,10.55-22.51,10.55c-16.48,0-29.66-10.99-29.66-28.04
			c0-17.05,13.18-28.04,29.66-28.04c15.39,0,25.04,10.99,25.04,28.04v5.18h-38.23c1.34,6.26,6.05,10.33,12.42,10.33
			c5.37,0,9.01-2.75,11.75-6.5 M601.29,126.8c0.11-5.48-4.18-10.11-10.1-10.11c-7.25,0-11.2,4.94-11.66,10.11H601.29z"/>
		<polyline class="st2" points="698.22,380.88 695.23,380.88 695.23,362.12 688.37,362.12 688.37,359.49 705.07,359.49 
			705.07,362.12 698.22,362.12 		"/>
		<polyline class="st2" points="718.97,375.93 719.03,375.93 725.34,359.49 730,359.49 730,380.88 727,380.88 727,363 726.95,363 
			719.85,380.88 717.95,380.88 710.88,363 710.81,363 710.81,380.88 707.92,380.88 707.92,359.49 712.57,359.49 		"/>
	</g>
</g>
<text transform="matrix(1 0 0 1 42.824 348.89)" class="st4 st5 st6">PROGRAM</text>
</svg>
