<?xml version="1.0" encoding="utf-8"?>
<!-- Generator: Adobe Illustrator 23.0.1, SVG Export Plug-In . SVG Version: 6.00 Build 0)  -->
<svg version="1.1" id="Layer_1" xmlns="http://www.w3.org/2000/svg" xmlns:xlink="http://www.w3.org/1999/xlink" x="0px" y="0px"
	 viewBox="0 0 498.17 84" style="enable-background:new 0 0 498.17 84;" xml:space="preserve">
<g>
	<path d="M444.67,38.82c-1.64,7.38-7.42,4.62-12.27,5.51c0.32,3.08,0.63,6.08,0.98,9.5c1.99,0,3.84,0.17,5.64-0.04
		c3.8-0.44,4.77,1.5,4.45,5.24c-2.65,0-5.2,0-7.73,0c-0.26,6.76,5.58,14.65,11.68,16.66c3.3,1.09,3.44,3.82,2.61,7.04
		c-10.61,1.24-20.29-1.26-29-7.27c-14.2-9.8-20.51-27.17-16.45-44.03c5.06-21,26.2-34.37,46.36-30.88
		c15.87,2.75,26.62,11.54,32.66,26.36c0.85,2.09,0.73,3.51-1.09,5.18c-1.54,1.41-2.36,3.59-3.51,5.46c-0.02-0.01-0.23-0.03-0.25-0.1
		c-2.51-8.41-2.51-8.41-11.43-8.41c-1.82,0-3.63,0-5.6,0c0,1.95-0.08,3.3,0.02,4.64c0.09,1.31,0.36,2.61,0.59,4.17
		c-1.75,0-3.09,0-4.8,0c-0.44-2.66-0.9-5.43-1.41-8.52c-7.45,0-14.97,0-22.71,0c-0.35,3.1-0.7,6.1-1.08,9.48
		C436.77,38.82,440.71,38.82,444.67,38.82z M454.5,23.55c-1.35-5.99-3.96-10.77-8.25-14.57c-0.54-0.48-2.09-0.67-2.54-0.27
		c-4.48,3.9-7.32,8.75-8.48,14.85C441.86,23.55,447.98,23.55,454.5,23.55z M428.25,29.06c-2.51,0-4.58,0-6.65,0
		c-9.39,0.02-9.39,0.02-10.69,9.14c-0.01,0.09,0.13,0.2,0.29,0.42c5.2,0,10.48,0,15.97,0C427.53,35.48,427.85,32.57,428.25,29.06z
		 M410.77,44.07c0.62,2.89,1.05,5.51,1.81,8.03c0.21,0.71,1.35,1.61,2.09,1.63c4.33,0.15,8.68,0.08,13.53,0.08
		c-0.27-2.47-0.67-4.52-0.67-6.57c0-2.7-1.29-3.31-3.74-3.21C419.68,44.2,415.56,44.07,410.77,44.07z M436.09,74.37
		c-2.28-5.24-4.27-9.84-6.3-14.42c-0.13-0.3-0.56-0.65-0.85-0.65c-4.11-0.04-8.21-0.03-12.99-0.03
		C421.04,67.28,427.47,71.78,436.09,74.37z M453.46,8.54c2.28,5.17,4.13,9.46,6.08,13.72c0.27,0.59,0.97,1.38,1.49,1.4
		c4.01,0.12,8.02,0.06,12.73,0.06C468.59,15.72,462.18,11.17,453.46,8.54z M416.22,23.79c4.37,0,8.18,0.03,12-0.04
		c0.53-0.01,1.34-0.39,1.54-0.82c2.09-4.54,4.08-9.12,6.12-13.75C429.1,9.8,420.49,16.03,416.22,23.79z"/>
	<path d="M225.7,18.12c-9.32,19.77-18.63,39.55-27.95,59.32c-0.48,0.05-0.96,0.09-1.45,0.14c-8.91-19.48-17.83-38.95-26.74-58.43
		c-0.2,0.02-0.41,0.03-0.61,0.05c-0.64,6.47-1.28,12.95-1.91,19.42c-0.94,9.57-2.09,19.12-2.72,28.71
		c-0.25,3.78,0.65,7.63,1.05,11.68c-3.11,0-7.09,0-11.69,0c5.11-5.12,5.01-11.36,5.69-17.35c1.84-16.25,3.75-32.49,5.36-48.76
		c0.18-1.86-1.39-3.89-2.18-5.9c4.68-2.34,9.7-0.96,11.91,3.78c7.63,16.39,15.18,32.82,22.77,49.24c0.51,1.1,1.08,2.18,1.87,3.76
		c6.63-14.18,13.01-27.82,19.38-41.46c2.06-4.41,4.17-8.79,6.06-13.26c0.84-1.99,1.8-3.05,4.14-2.79c2.17,0.24,4.4,0.05,6.92,0.05
		c-3.72,8.56-0.59,16.62,0.1,24.64c1.1,12.68,2.75,25.32,4.53,37.93c0.48,3.42,2.27,6.65,3.49,10.06c-4.09,0-8.94,0-14.05,0
		c4.21-6.84,1.86-13.95,1.21-20.85c-1.23-13.3-2.94-26.55-4.44-39.82C226.19,18.23,225.95,18.17,225.7,18.12z"/>
	<path d="M479.56,65.07c-6.79,0-13.36,0-19.94,0c-6.79,0-6.79,0-8.49-6.76c-0.73-2.89-1.5-5.77-2.2-8.67
		c-0.98-4.04-0.4-4.79,3.89-4.8c9.37-0.04,18.74-0.12,28.11,0.05c3,0.05,4.45-0.66,5-3.89c0.81-4.74,6.46-7.1,10.78-4.74
		c0.78,0.43,1.68,1.99,1.43,2.6c-0.37,0.93-1.8,2.19-2.58,2.06c-4.11-0.64-4.92,1.73-5.69,5c-1.96,8.35-4.39,16.6-6.36,24.95
		c-0.54,2.3-1.55,3.21-3.75,3.2c-7.25-0.02-14.5,0.13-21.74-0.13c-1.27-0.04-2.49-1.69-3.74-2.6c1.21-0.83,2.39-2.34,3.63-2.39
		c5.99-0.25,11.99-0.2,17.99-0.08C478.15,68.92,479.56,68.39,479.56,65.07z M483.61,50.77c-7.01-1.86-9.37-1.02-8.63,3.23
		C477.72,52.73,481.9,56.29,483.61,50.77z M454.38,50.2c0.85,1.56,1.24,3.21,1.89,3.32c2.15,0.34,4.38,0.13,6.9,0.13
		c-0.09-1.28-0.16-2.32-0.24-3.45C460.24,50.2,457.9,50.2,454.38,50.2z M482.03,56.71c-6.75-1.53-7.87-1.04-7.07,3.11
		C477.43,59.25,481.02,61.69,482.03,56.71z M465.45,53.71c2.42,0,4.37,0,6.5,0c0-1.22,0-2.26,0-3.44c-2.19,0-4.13,0-6.28,0
		C465.6,51.4,465.54,52.35,465.45,53.71z M455.96,56.32c0.78,1.46,1.12,3.03,1.82,3.21c1.6,0.4,3.37,0.13,5.39,0.13
		c-0.08-1.28-0.15-2.32-0.22-3.34C460.66,56.32,458.71,56.32,455.96,56.32z M465.75,59.6c2.21,0,4.21,0,6.12,0
		c1.19-3.71-1.05-3.44-3.28-3.54C466.06,55.95,464.74,56.56,465.75,59.6z"/>
	<path d="M97.49,22.97c10.86,0.75,21.89,0.56,32.53,2.53c10.78,2,17.22,13.27,16.04,24.69c-1.85,17.96-14.17,28.74-32.18,28.28
		c-5.6-0.14-11.2-0.02-16.93-0.02c2.94-8,3.05-49.15,0.27-54.05C97.31,23.92,97.4,23.45,97.49,22.97z M104.87,49.72
		c0,6.73-0.03,13.47,0.02,20.2c0.02,2.34,0.42,4.86,3.2,5.2c5.82,0.71,11.71,1.06,17.27-1.5c10.81-4.97,16.48-17.67,13.67-30.65
		c-1.63-7.54-5.92-13.19-13.45-14.99c-5.59-1.33-11.55-1.06-17.34-1.56c-2.62-0.23-3.47,0.89-3.42,3.46
		C104.94,36.5,104.86,43.12,104.87,49.72z"/>
	<path d="M0.05,78.96c0.78-4.06,2.09-7.84,2.14-11.64c0.25-17.73,0.23-35.46,0.07-53.19C2.24,11.72,0.88,9.33,0,6.48
		c0.82-0.06,1.97-0.2,3.12-0.2c10.1-0.02,20.21,0.13,30.31-0.12c3.39-0.08,4.63,0.81,3.92,4.17c-0.32,1.53-0.42,3.1-0.69,5.14
		C29.67,9.06,21.6,9.28,13.49,9.63c-2.53,0.11-3.79,1.08-3.72,3.91c0.17,6.86,0.12,13.73,0.02,20.6c-0.04,2.61,1.02,3.54,3.56,3.5
		c6.59-0.09,13.18-0.03,20.1-0.03c0,1.93,0,3.91,0,6.43c-6.7-3.49-13.49-2.19-20.15-2.44c-2.5-0.09-3.59,0.69-3.53,3.4
		c0.2,7.99-0.05,15.99,0.32,23.96c0.15,3.3,1.42,6.55,2.21,9.99C8.62,78.96,4,78.96,0.05,78.96z"/>
	<path d="M302.88,79.64c-3.22,0-6.65,0-9,0c-1.14-4.29-1.91-8.23-3.23-11.97c-3.32-9.44-3.42-9.4-13.42-9.43
		c-8.62-0.02-8.61-0.02-11.7,7.98c-0.63,1.63-1.46,3.19-1.89,4.87c-0.69,2.64-1.12,5.35-1.75,8.47c-1.79,0-4.46,0-6.48,0
		c7.54-18.23,15.2-36.72,23.23-56.13c0.93,2.05,1.56,3.3,2.09,4.6c5.66,13.97,11.24,27.98,17.01,41.91
		C299.08,73.21,301.05,76.23,302.88,79.64z M269.87,54.97c5.63,0,10.66,0,16.07,0c-2.67-6.92-5.21-13.48-8.09-20.97
		C275.02,41.43,272.53,47.99,269.87,54.97z"/>
	<path d="M78.04,24.06c0,1.96,0,3.91,0,6.52c-5.18-4.82-11.09-4.71-17.06-4.5c-2.44,0.09-3.57,0.91-3.44,3.59
		c0.23,4.48,0.21,8.99,0.13,13.48c-0.05,2.33,0.94,3.04,3.13,2.99c4.73-0.1,9.46-0.03,14.49-0.03c0,1.51,0,2.9,0,3.8
		c-5.01-0.24-9.8-0.44-14.59-0.7c-2.18-0.12-3.17,0.71-3.13,3.03c0.12,5.87,0.08,11.74,0.07,17.61c0,3.28,1.57,5.05,4.84,5.52
		c6.63,0.95,12.9,0.61,17.95-4.71c1.6,5.79,0.19,7.68-5.35,7.65c-8.36-0.04-16.72-0.01-24.32-0.01c0.39-4.51,1.05-8.95,1.11-13.39
		c0.16-11.11,0.11-22.23,0-33.34c-0.02-2.39-0.67-4.77-1.07-7.5C59.41,24.06,68.51,24.06,78.04,24.06z"/>
	<path d="M314.93,79.88c0.64-3.33,1.58-6.06,1.61-8.81c0.15-13.11,0.1-26.22-0.03-39.33c-0.02-1.96-0.86-3.91-1.38-6.09
		c2.85,0,5.96,0,8.54,0c-0.43,2.97-1.14,5.68-1.16,8.4c-0.12,12.11-0.08,24.22-0.04,36.33c0.02,5.26,0.97,6.15,6.33,6.55
		c6.07,0.46,11.53-1.09,16.29-5.2c1.58,6.29,0.21,8.14-5.5,8.14C331.26,79.87,322.92,79.88,314.93,79.88z"/>
	<path d="M358.23,25.63c2.82,0,5.85,0,8.3,0c-0.41,3.38-1.11,6.69-1.15,10.01c-0.14,11.6-0.08,23.2-0.02,34.8
		c0.03,5.08,1.05,6.13,6.05,6.45c5.48,0.36,10.7-0.42,15.13-4.06c0.37-0.3,0.86-0.46,1.31-0.65c0.08-0.04,0.23,0.07,0.35,0.11
		c1.21,6.27,0.19,7.58-5.81,7.57c-8.32-0.01-16.63,0-24.3,0c0.5-3.72,1.34-7.18,1.38-10.64c0.13-12.47,0.05-24.94-0.09-37.41
		C359.36,29.83,358.66,27.85,358.23,25.63z"/>
	<path d="M459.92,83.98c-1.19-1.56-2.54-2.6-2.39-3.31c0.22-1.02,1.53-1.82,2.38-2.71c0.83,0.79,2.33,1.58,2.33,2.38
		C462.25,81.34,461.03,82.35,459.92,83.98z"/>
	<path d="M477.63,84c-1.03-1.68-2.18-2.73-2.13-3.72c0.04-0.81,1.5-1.54,2.34-2.31c0.82,0.91,2.11,1.73,2.29,2.75
		C480.27,81.44,478.89,82.44,477.63,84z"/>
</g>
</svg>
