<?xml version="1.0" encoding="utf-8"?>
<!-- Generator: Adobe Illustrator 23.0.1, SVG Export Plug-In . SVG Version: 6.00 Build 0)  -->
<svg version="1.1" id="Layer_1" xmlns="http://www.w3.org/2000/svg" xmlns:xlink="http://www.w3.org/1999/xlink" x="0px" y="0px"
	 width="18px" height="21.6px" viewBox="0 0 18 21.6" enable-background="new 0 0 18 21.6" xml:space="preserve">
<g>
	<path fill="#4A494A" d="M9.4,0C9.6,0,9.8,0.1,10,0.1C12.2,0.7,13.5,2,14,4.2c0.6,3.1-1.5,5.6-4.1,6.1C7.4,10.8,5,9.5,4.1,7.2
		C3.3,5.3,3.6,3,5.3,1.4C6.1,0.7,7.1,0.2,8.2,0c0,0,0.1,0,0.1,0C8.7,0,9,0,9.4,0z"/>
	<path fill="#4A494A" d="M9,21.6c-1.8,0-3.6,0-5.4,0c-0.8,0-1.5-0.2-2.2-0.7c-0.8-0.6-1.3-1.4-1.4-2.4c-0.2-1.8,0-3.5,0.7-5.2
		c0.4-1,1-1.9,2-2.4c0.6-0.3,1.3-0.5,2-0.5c0.2,0,0.4,0.1,0.6,0.2C5.7,10.8,6,11,6.3,11.2c0.9,0.6,1.9,0.9,3.1,0.8
		c0.8-0.1,1.6-0.3,2.3-0.8c0.2-0.1,0.5-0.3,0.7-0.5c0.6-0.5,1.2-0.5,1.9-0.3c1.2,0.3,2.1,1,2.7,2.1c0.6,1.1,0.9,2.3,1,3.5
		c0.1,0.7,0.1,1.3,0.1,2c0,1.8-1.4,3.3-3.2,3.4c-0.3,0-0.6,0-0.8,0C12.3,21.6,10.7,21.6,9,21.6C9,21.6,9,21.6,9,21.6z"/>
</g>
</svg>
