<?xml version="1.0" encoding="utf-8"?>
<!-- Generator: Adobe Illustrator 23.0.1, SVG Export Plug-In . SVG Version: 6.00 Build 0)  -->
<svg version="1.1" id="Layer_1" xmlns="http://www.w3.org/2000/svg" xmlns:xlink="http://www.w3.org/1999/xlink" x="0px" y="0px"
	 viewBox="0 0 359.82 360.25" style="enable-background:new 0 0 359.82 360.25;" xml:space="preserve">
<style type="text/css">
	.st0{fill:#165075;}
</style>
<g>
	<path class="st0" d="M305.78,113.66c18.07,0,35.77,0,53.73,0c0,4.13,0,7.94,0,11.79c-1.1,0.82-2.39,0.44-3.59,0.44
		c-24.74,0.02-49.49-0.05-74.23,0.05c-9.65,0.04-17.8-3.17-24.49-10.14c-2.94-3.06-5.96-6.06-9.03-9
		c-3.49-3.34-7.69-4.93-12.56-4.91c-13.12,0.05-26.24,0-39.37,0.02c-6.26,0.01-10.38,3.51-10.42,8.79
		c-0.04,5.25,4.02,8.96,10.28,9.03c10.87,0.11,21.75,0.03,32.62,0.04c1.49,0,2.99,0,4.77,0c0,3.99,0,7.79,0,11.7
		c-1.28,0.86-2.82,0.41-4.26,0.41c-45.99,0.03-91.98,0.02-137.97,0.02c-1,0-2,0.02-3,0c-2.55-0.03-4.09,1.36-4.35,3.73
		c-0.25,2.29,1.22,3.73,3.36,4.32c3.72,1.02,7.47,1.94,11.21,2.92c24.35,6.35,48.63,13.01,73.07,18.97
		c33.17,8.09,66.51,7.9,99.84,0.66c1.82-0.39,3.7-0.72,5.55-0.72c26.62-0.05,53.24-0.03,79.86-0.02c0.85,0,1.7,0.11,2.75,0.19
		c0.39,3.94,0.3,7.74,0.07,11.49c-1.49,0.76-2.89,0.43-4.22,0.43c-20.37,0.02-40.75,0.3-61.11-0.09c-12.32-0.23-24.33,1.31-36.4,3.4
		c-19.55,3.37-39.25,3.59-58.99,1.6c-28.34-2.86-55.22-12.07-82.68-18.79c-10.17-2.49-20.27-5.26-30.41-7.84
		c-8.06-2.05-13.21-7.25-13.95-14.26c-0.78-7.42,2.53-13.18,10.22-16.98c1.89-0.93,1.73-2.15,1.73-3.6
		c0.01-10.75,0.01-21.5,0.01-32.24c0-22.12-0.01-44.24,0.01-66.36c0.01-11.2,7.59-18.72,18.86-18.72C164.03,0,225.4,0,286.76,0.01
		c11.53,0,19.01,7.44,19.02,18.94c0.02,29.99,0.01,59.99,0.01,89.98C305.78,110.39,305.78,111.86,305.78,113.66z M125.79,11.97
		c-7.38,0-14.34-0.01-21.31,0c-6.79,0.01-8.69,1.89-8.69,8.66c0,31.61-0.01,63.22,0.02,94.83c0,1.32-0.39,2.73,0.45,4.03
		c26.3,0,52.57,0,79.08,0c-0.32-1.25-0.55-2.19-0.8-3.13c-3.48-13.28,5.62-26.09,19.36-26.45c14.61-0.38,29.23-0.15,43.85,0.01
		c7.16,0.08,13.33,2.99,18.51,7.86c3.55,3.34,6.94,6.84,10.38,10.29c2.43,2.44,5.25,4.38,8.61,5.03c6.03,1.17,12.13,0.63,18.56,0.56
		c0-1.57,0-2.79,0-4.01c0-29.61,0-59.22,0-88.84c0-7.01-1.84-8.84-8.89-8.84c-35.61,0-71.22-0.01-106.83,0.02
		c-1.33,0-2.73-0.35-4.4,0.56c0,19.63,0,39.41,0,59.12c-16.19,0-31.97,0-47.9,0C125.79,51.76,125.79,32.16,125.79,11.97z
		 M137.95,59.74c8.08,0,15.87,0,23.56,0c0-16.05,0-31.84,0-47.56c-8,0-15.7,0-23.56,0C137.95,28.07,137.95,43.76,137.95,59.74z"/>
	<path class="st0" d="M125.99,311.91c0-4.29,0-8,0-12.14c5.14,0,10.1,0,15.06,0c7.62,0,15.25,0.15,22.87-0.06
		c7.3-0.2,11.51-5.84,9.18-11.98c-1.38-3.61-4.06-5.75-7.95-5.78c-14.37-0.08-28.75-0.12-43.12,0.04c-4.27,0.05-7.91,2.1-10.94,5.11
		c-3.28,3.26-6.53,6.55-9.83,9.79c-5.98,5.86-13.2,8.95-21.56,8.98c-25.75,0.07-51.49,0.03-77.24,0.03c-0.73,0-1.45-0.08-2.41-0.13
		c0-3.97,0-7.76,0-11.57c1.51-0.75,3.02-0.42,4.48-0.42c23.87-0.02,47.75-0.15,71.62,0.06c7.62,0.07,13.58-2.4,19.06-7.77
		c5.03-4.93,7.49-9.32,7-17.17c-2.33-37.73,21.46-67.93,58.38-75.72c3.66-0.77,7.38-1.2,11.15-1.19
		c10.87,0.04,21.75-0.03,32.62,0.02c35.82,0.16,66.05,26.84,70.78,62.35c1.98,14.81-0.5,28.82-7.06,42.17
		c-0.42,0.86-0.82,1.74-1.54,3.29c2.29,0,4.11-0.09,5.92,0.02c7.91,0.46,14.41,6.44,15.25,13.95c0.91,8.11-3.57,15.42-11.42,17.59
		c-14.65,4.05-29.38,7.81-44.11,11.58c-16.77,4.3-33.38,9.3-50.38,12.66c-24.96,4.94-50.15,6.37-75.24,2.08
		c-18.33-3.14-36.63-4.13-55.12-3.84c-15.74,0.25-31.5,0.06-47.24,0.03c-1.34,0-2.73,0.31-4.21-0.4c0-3.67,0-7.37,0-11.13
		c1.16-1.02,2.59-0.56,3.9-0.56c25.87-0.03,51.74-0.06,77.62,0c7.79,0.02,15.22,2.56,22.87,3.66c20.03,2.89,40.05,3.28,60.12,0.68
		c27.07-3.52,52.88-12.34,79.27-18.72c9.08-2.2,18.08-4.75,27.13-7.05c2.62-0.67,5.06-1.64,4.75-4.75
		c-0.33-3.34-2.97-3.73-5.86-3.73c-46.37,0.04-92.74,0.03-139.11,0.03C129.21,311.91,127.73,311.91,125.99,311.91z M184.17,299.57
		c1.53,0.08,2.73,0.19,3.93,0.2c10.12,0.01,20.24-0.08,30.35,0.07c2.57,0.04,4.13-0.77,5.45-2.93c12.24-20.07,13.62-40.8,2.38-61.49
		c-11.18-20.58-29.3-31.03-52.61-31.32c-29.12-0.37-54.46,21.45-59,50.1c-0.86,5.45-1.78,11.04-0.01,16.62
		c2.35-0.32,4.43-0.84,6.51-0.85c14.99-0.09,29.98-0.29,44.96,0c9.19,0.18,16.48,6.56,18.95,15.4
		C186.41,290.09,185.69,294.68,184.17,299.57z M216.89,205.81c10.89,8.77,19.18,19.47,24.21,32.58c0.51,1.32,1.3,1.63,2.54,1.62
		c4.83-0.03,9.66-0.01,15.1-0.01C249.98,221.69,236.23,210.44,216.89,205.81z M262.41,275.8c1.79-7.98,1.89-15.8-0.01-23.54
		c-5.97,0-11.63,0-17.52,0c1.36,7.97,1.12,15.65,0.1,23.54C250.77,275.8,256.34,275.8,262.41,275.8z M258.52,287.98
		c-5.33,0-10.26,0-15.2,0c-0.92,0-1.64,0.18-2.06,1.19c-1.41,3.38-2.9,6.73-4.57,10.59c4.86,0,9.29-0.01,13.72,0.01
		c0.94,0,1.68-0.32,2.22-1.1C254.88,295.42,256.98,292.1,258.52,287.98z"/>
	<path class="st0" d="M67.19,55.24c0.54,0.79,0.84,1.36,1.25,1.83c2.07,2.34,4.16,4.65,6.52,7.28
		C40.05,97.56,22.61,138.22,24,186.43c0.84,29.4,10.91,55.82,21.12,71.44c0.98-4.53,1.88-8.66,2.79-12.82
		c4.19,0.12,7.81,1.44,11.85,2.06c-2.4,12.01-4.74,23.7-7.19,35.97c-12.01-2.39-23.79-4.73-35.95-7.14
		c0.78-4.04,1.51-7.78,2.3-11.84c5.65,1.06,11.08,2.09,17.11,3.22c-23.43-40.25-30.13-82.53-19.43-127.15
		C24.54,107.01,41.47,78.89,67.19,55.24z"/>
	<path class="st0" d="M333.58,205.82c-4.39,3.24-8.09,5.97-12.2,9.01c-2.44-3.23-4.79-6.35-7.26-9.63
		c10.14-7.61,20.01-15.01,30.36-22.77c5.03,12.54,9.9,24.7,14.85,37.04c-3.42,2.29-7.22,3.07-11.05,4.84
		c-1.24-2.96-2.42-5.78-3.96-9.47c-3.81,16.56-9.27,31.63-17.06,45.8c-7.81,14.19-17.38,27.06-28.78,38.28
		c-2.76-2.8-5.43-5.5-8.44-8.55C312.87,267.21,327.6,239.23,333.58,205.82z"/>
</g>
</svg>
