<svg width="15" height="15" viewBox="0 0 15 15" fill="none" xmlns="http://www.w3.org/2000/svg">
<g clip-path="url(#clip0_20_414)">
<path d="M3.5 0V5M11.5 0V5M5 8.5L7 10.5L10.5 6.5M1.5 2.5H13.5C13.7652 2.5 14.0196 2.60536 14.2071 2.79289C14.3946 2.98043 14.5 3.23478 14.5 3.5V13.5C14.5 13.7652 14.3946 14.0196 14.2071 14.2071C14.0196 14.3946 13.7652 14.5 13.5 14.5H1.5C1.23478 14.5 0.98043 14.3946 0.792893 14.2071C0.605357 14.0196 0.5 13.7652 0.5 13.5V3.5C0.5 3.23478 0.605357 2.98043 0.792893 2.79289C0.98043 2.60536 1.23478 2.5 1.5 2.5Z" stroke="#3190D2"/>
</g>
<rect x="0.5" y="0.5" width="14" height="14" stroke="#3190D2"/>
<defs>
<clipPath id="clip0_20_414">
<rect width="15" height="15" fill="white"/>
</clipPath>
</defs>
</svg>
