<svg width="15" height="12" viewBox="0 0 15 12" fill="none" xmlns="http://www.w3.org/2000/svg">
<path d="M15 1.34667V10.3208C15 10.7042 14.8717 11.0244 14.615 11.2817C14.3583 11.5389 14.0381 11.6672 13.6542 11.6667H1.34583C0.9625 11.6667 0.6425 11.5383 0.385833 11.2817C0.129167 11.025 0.000555556 10.7044 0 10.32V1.34667C0 0.962778 0.128611 0.6425 0.385833 0.385833C0.643056 0.129167 0.963055 0.000555556 1.34583 0H13.6542C14.0375 0 14.3575 0.128611 14.6142 0.385833C14.8708 0.643055 14.9994 0.963333 15 1.34667ZM0.833333 3.17333H14.1667V1.34667C14.1667 1.21833 14.1133 1.10056 14.0067 0.993333C13.9 0.886111 13.7825 0.832778 13.6542 0.833333H1.34583C1.21806 0.833333 1.10056 0.886667 0.993333 0.993333C0.886111 1.1 0.832778 1.21778 0.833333 1.34667V3.17333ZM0.833333 5.16V10.3208C0.833333 10.4486 0.886667 10.5661 0.993333 10.6733C1.1 10.7806 1.2175 10.8339 1.34583 10.8333H13.6542C13.7819 10.8333 13.8994 10.78 14.0067 10.6733C14.1139 10.5667 14.1672 10.4492 14.1667 10.3208V5.16H0.833333Z" fill="#3190D2"/>
</svg>
