<svg width="25" height="24" viewBox="0 0 25 24" fill="none" xmlns="http://www.w3.org/2000/svg">
<g clip-path="url(#clip0_2_3)">
<path d="M24.6361 4.31582C24.431 4.93821 24.3147 5.58797 24.1574 6.21721C23.8154 7.57828 23.5623 8.95987 23.152 10.3004C22.7484 11.6136 21.7909 12.3386 20.4435 12.4891C17.8787 12.7832 15.307 13.0362 12.7422 13.303C11.4426 13.4398 10.1431 13.5834 8.84361 13.6928C8.529 13.7202 8.41272 13.8638 8.31013 14.1237C8.00919 14.8624 8.2007 15.6216 8.83677 16.0662C9.12404 16.2645 9.45234 16.3124 9.80115 16.3124C13.3577 16.3124 16.9075 16.3124 20.464 16.3124C20.594 16.3124 20.7239 16.3192 20.847 16.3466C21.1069 16.3945 21.2779 16.6065 21.2848 16.8732C21.2916 17.1331 21.1343 17.3657 20.8812 17.4272C20.7718 17.4546 20.6624 17.4546 20.5461 17.4546C16.9553 17.4546 13.3577 17.4546 9.76696 17.4546C7.74245 17.4546 6.45661 15.4916 7.27736 13.6313C7.43467 13.2688 7.45518 12.9679 7.33207 12.5848C6.16251 9.16506 5.03398 5.73844 3.89862 2.31183C3.63871 1.53212 3.14626 1.16962 2.31868 1.16962C1.76467 1.16962 1.21067 1.17646 0.656667 1.16962C0.171058 1.16278 -0.0956846 0.834482 0.0274274 0.430948C0.0958229 0.218922 0.239454 0.0616118 0.45148 0.0547723C1.3201 0.0274141 2.18873 -0.0751793 3.04367 0.102649C4.00121 0.307836 4.63045 0.930235 4.95875 1.85358C5.10238 2.27079 5.24601 2.688 5.36912 3.11205C5.42384 3.30356 5.50591 3.37196 5.7111 3.37196C8.71366 3.40615 11.7094 3.45403 14.712 3.49507C17.7761 3.53611 20.8402 3.58398 23.9043 3.62502C24.2326 3.63186 24.472 3.74813 24.643 4.02855C24.6361 4.11747 24.6361 4.22006 24.6361 4.31582ZM5.84105 4.50732C5.86157 4.5894 5.86841 4.64411 5.88209 4.69199C6.72335 7.25682 7.57146 9.81482 8.41272 12.3797C8.4606 12.5164 8.51532 12.5643 8.66579 12.5506C9.6712 12.4412 10.6766 12.3455 11.682 12.2429C14.5546 11.9419 17.4204 11.641 20.293 11.3469C21.2711 11.2443 21.8935 10.7108 22.126 9.75326C22.4201 8.56318 22.7074 7.3731 22.9947 6.18301C23.1041 5.71792 23.2204 5.25283 23.3366 4.76723C17.5025 4.67831 11.6889 4.59624 5.84105 4.50732Z" fill="black"/>
<path d="M7.85197 24C6.42935 24 5.2803 22.8441 5.28714 21.4284C5.28714 20.0126 6.44986 18.8567 7.85881 18.8567C9.26092 18.8567 10.4373 20.0331 10.4305 21.4352C10.4236 22.8441 9.26092 24.0069 7.85197 24ZM7.86565 22.8578C8.6522 22.851 9.28828 22.2081 9.28144 21.4284C9.28144 20.6487 8.63168 20.0057 7.85197 20.0057C7.05858 20.0057 6.42251 20.6555 6.42935 21.4489C6.44302 22.2354 7.0791 22.8647 7.86565 22.8578Z" fill="black"/>
<path d="M21.2847 21.4421C21.2779 22.8647 20.1288 24.0069 18.7062 24.0001C17.2836 24.0001 16.1414 22.8442 16.1482 21.4216C16.1551 20.0058 17.3178 18.8499 18.7267 18.8567C20.1357 18.8636 21.2916 20.0331 21.2847 21.4421ZM18.6925 22.8579C19.4859 22.8715 20.1357 22.2355 20.1494 21.4421C20.1562 20.676 19.5064 20.0126 18.7336 20.0058C17.9607 19.9989 17.3109 20.6282 17.2904 21.4147C17.2631 22.1807 17.906 22.8373 18.6925 22.8579Z" fill="black"/>
</g>
<defs>
<clipPath id="clip0_2_3">
<rect width="24.6361" height="24" fill="white"/>
</clipPath>
</defs>
</svg>
