<?xml version="1.0" encoding="utf-8"?>
<!-- Generator: Adobe Illustrator 23.0.1, SVG Export Plug-In . SVG Version: 6.00 Build 0)  -->
<svg version="1.1" id="Layer_1" xmlns="http://www.w3.org/2000/svg" xmlns:xlink="http://www.w3.org/1999/xlink" x="0px" y="0px"
	 width="30px" height="18px" viewBox="0 0 30 18" style="enable-background:new 0 0 30 18;" xml:space="preserve">
<path d="M15.5,6c-0.1,0-0.3,0.1-0.3,0.2l-2.6,2.6l-1.6-1.6c-0.5-0.5-1.2,0.3-0.7,0.7l2,2c0.2,0.2,0.5,0.2,0.7,0l3-3
	C16.2,6.5,15.9,6,15.5,6L15.5,6z M0.5,10h3C3.8,10,4,10.2,4,10.5S3.8,11,3.5,11h-3C0.2,11,0,10.8,0,10.5S0.2,10,0.5,10z M0.5,6h3
	C3.8,6,4,6.2,4,6.5S3.8,7,3.5,7h-3C0.2,7,0,6.8,0,6.5S0.2,6,0.5,6z M0.5,2h3C3.8,2,4,2.2,4,2.5S3.8,3,3.5,3h-3C0.2,3,0,2.8,0,2.5
	S0.2,2,0.5,2z M24.5,13c-1.4,0-2.5,1.1-2.5,2.5s1.1,2.5,2.5,2.5s2.5-1.1,2.5-2.5S25.9,13,24.5,13z M24.5,14c0.8,0,1.5,0.7,1.5,1.5
	S25.3,17,24.5,17S23,16.3,23,15.5S23.7,14,24.5,14z M11.5,13C10.1,13,9,14.1,9,15.5s1.1,2.5,2.5,2.5s2.5-1.1,2.5-2.5
	S12.9,13,11.5,13z M11.5,14c0.8,0,1.5,0.7,1.5,1.5S12.3,17,11.5,17S10,16.3,10,15.5S10.7,14,11.5,14z M6.5,0C5.7,0,5,0.7,5,1.5v11
	C5,13.3,5.7,14,6.5,14h2c0.7,0,0.7-1,0-1h-2C6.2,13,6,12.8,6,12.5v-11C6,1.2,6.2,1,6.5,1h13C19.8,1,20,1.2,20,1.5V13h-5.5
	c-0.7,0-0.6,1,0,1h7c0.7,0,0.7-1,0-1H21V4h4.2L29,9.9v2.6c0,0.3-0.2,0.5-0.5,0.5h-1c-0.7,0-0.7,1,0,1h1c0.8,0,1.5-0.7,1.5-1.5V9.8
	c0-0.1,0-0.2-0.1-0.3l-4-6.3C25.8,3.1,25.7,3,25.5,3H21V1.5C21,0.7,20.3,0,19.5,0H6.5z"/>
</svg>
