<svg width="50" height="50" viewBox="0 0 50 50" fill="none" xmlns="http://www.w3.org/2000/svg">
<g clip-path="url(#clip0_3_477)">
<path d="M0.0649414 42.8385C0.0649414 42.2852 0.0649414 41.7318 0.0649414 41.1784C0.0935574 41.0859 0.13388 40.9961 0.150789 40.901C0.7049 37.7344 2.53242 35.6784 5.56572 34.6706C5.67889 34.6328 5.83757 34.6719 5.89741 34.5065C3.29465 32.4714 2.10969 29.8216 2.855 26.569C3.64585 23.1237 6.01057 21.2396 9.48092 20.6328C9.48092 20.4531 9.48092 20.276 9.48092 20.099C9.48092 18.0651 9.46791 16.03 9.49132 13.9961C9.49652 13.5703 9.38206 13.375 8.96583 13.2357C6.64273 12.4544 4.33003 11.6432 2.01733 10.8333C1.27462 10.5729 0.890904 10.0495 0.888303 9.35417C0.887002 8.66276 1.28633 8.125 2.01473 7.8724C5.95464 6.50261 9.89585 5.13802 13.8371 3.77214C13.9593 3.73047 14.0842 3.6849 14.2104 3.66927C14.598 3.6237 14.8815 3.77604 15.0038 4.15756C15.1248 4.53776 14.983 4.83203 14.6461 5.02084C14.4783 5.11459 14.2858 5.16797 14.1024 5.23177C10.3459 6.53386 6.58809 7.83464 2.83289 9.13933C2.67941 9.19271 2.483 9.19011 2.38674 9.41797C4.74366 10.2344 7.08107 11.043 9.42628 11.8542C9.72805 10.3802 10.0714 10.0286 11.3253 9.80599C14.1765 9.29948 17.0473 8.97657 19.9388 8.82162C25.3992 8.52995 30.822 8.84766 36.207 9.78255C37.574 10.0195 37.9734 10.4544 38.1698 11.862C40.5319 11.043 42.8823 10.2266 45.234 9.41146C45.104 9.25521 45.0025 9.20703 44.8972 9.17058C38.2114 6.85287 31.5244 4.53776 24.8412 2.21485C24.1336 1.96875 23.4533 1.97136 22.7483 2.22396C21.2057 2.77735 19.6539 3.30729 18.1047 3.84245C17.8615 3.92709 17.6183 4.03125 17.349 3.91537C17.046 3.78516 16.8795 3.54948 16.8834 3.23308C16.8886 2.84506 17.1305 2.625 17.4895 2.50131C19.04 1.97006 20.5969 1.45573 22.1344 0.886722C23.2374 0.47917 24.3066 0.473962 25.4161 0.859378C32.098 3.1862 38.7863 5.4974 45.4708 7.81771C46.3982 8.13933 46.7143 8.58334 46.7182 9.55729C46.7221 11.0872 46.7286 12.6172 46.7117 14.1471C46.7078 14.457 46.8092 14.5925 47.0941 14.7109C48.8605 15.4505 49.477 17.4805 48.4286 19.1029C48.2842 19.3255 48.2725 19.4922 48.3688 19.724C48.8657 20.9245 49.3638 22.125 49.8321 23.3372C50.4083 24.8294 49.4523 26.2266 47.8628 26.2409C46.8066 26.25 45.7491 26.2292 44.6929 26.2474C43.9151 26.2617 43.1581 26.2474 42.5389 25.5872C41.9341 27.4766 41.9718 29.2734 42.5936 31.0664C42.6716 31.293 42.8433 31.2813 43.0189 31.3086C44.1818 31.4857 44.9856 32.4466 44.9557 33.6263C44.9492 33.8607 44.9076 34.0938 44.8802 34.3464C45.022 34.3542 45.1339 34.3594 45.2457 34.3659C46.5374 34.4427 47.4466 35.2904 47.5493 36.513C47.6456 37.6589 46.8235 38.6758 45.5748 38.9076C45.3355 38.9518 45.2509 39.0547 45.1846 39.2565C44.5902 41.0625 44.5915 42.8646 45.1911 44.6706C45.2666 44.8984 45.3797 45.0052 45.6204 45.056C46.873 45.3203 47.6716 46.3385 47.5454 47.4831C47.4076 48.7357 46.4554 49.5742 45.1495 49.5742C32.6469 49.5755 20.1443 49.5794 7.64038 49.5729C4.20906 49.5716 1.2434 47.2786 0.339395 43.9648C0.235337 43.5938 0.154692 43.2148 0.0649414 42.8385ZM30.727 38.9362C30.463 38.9362 30.2861 38.9362 30.1092 38.9362C22.7444 38.9362 15.3797 38.9362 8.01369 38.9362C7.8511 38.9362 7.68721 38.9284 7.52592 38.9427C6.26421 39.0482 5.33419 39.6628 4.85943 40.8398C4.38596 42.0143 4.59928 43.1159 5.45646 44.0547C6.11073 44.7721 6.9549 45.013 7.91744 45.0117C17.2983 45.0013 26.6791 45.0052 36.06 45.0065C36.2707 45.0065 36.4879 44.9935 36.6909 45.0404C37.0928 45.1328 37.3035 45.4062 37.2606 45.8242C37.2202 46.2161 36.9809 46.4349 36.5855 46.4635C36.4073 46.4766 36.2278 46.4701 36.0496 46.4701C26.7338 46.4701 17.418 46.4701 8.10214 46.4701C7.90703 46.4701 7.71192 46.4701 7.51681 46.4648C4.4614 46.3737 2.38934 43.3151 3.43773 40.444C4.11931 38.5781 5.77774 37.4727 7.91484 37.4727C20.2223 37.4714 32.5298 37.4727 44.8373 37.4714C45.0155 37.4714 45.1976 37.487 45.3732 37.4596C45.796 37.3919 46.0522 37.1224 46.0756 36.7044C46.099 36.2878 45.8857 35.9792 45.463 35.8828C45.2444 35.8333 45.0116 35.8346 44.7853 35.8346C32.5428 35.832 20.3004 35.8333 8.05792 35.8333C7.87972 35.8333 7.70022 35.832 7.52202 35.8398C4.23378 35.9792 1.61411 38.5651 1.53346 41.7487C1.44371 45.2917 4.18825 48.1107 7.74834 48.112C20.1534 48.1159 32.5584 48.1133 44.9635 48.1133C45.1092 48.1133 45.2614 48.1289 45.4005 48.0977C45.8142 48.0078 46.0665 47.737 46.0769 47.3164C46.0873 46.9219 45.8805 46.6276 45.4825 46.526C45.2965 46.4792 45.0975 46.474 44.9037 46.4727C43.3103 46.4688 41.7169 46.4727 40.1235 46.4688C39.5642 46.4674 39.2637 46.2214 39.2481 45.7747C39.2325 45.3125 39.5538 45.0143 40.117 45.0091C41.1576 44.9987 42.1981 45.0091 43.2387 45.0026C43.3909 45.0013 43.56 45.0612 43.7226 44.9167C43.1178 42.9479 43.1282 40.9609 43.7252 38.9674C41.3553 38.9674 39.0387 38.9674 36.6739 38.9674C36.6739 39.1732 36.6739 39.349 36.6739 39.5247C36.6739 40.6471 36.6804 41.7708 36.6713 42.8932C36.6648 43.6276 36.2291 43.9271 35.5475 43.6732C35.0298 43.4818 34.5173 43.2773 34.0088 43.0638C33.7993 42.9766 33.6133 42.9779 33.4039 43.0651C32.9096 43.2708 32.4102 43.4661 31.9094 43.6549C31.1771 43.9297 30.7413 43.6289 30.7296 42.8385C30.7205 42.2852 30.7283 41.7318 30.7283 41.1784C30.727 40.4492 30.727 39.7201 30.727 38.9362ZM41.0899 25.2292C33.6511 25.2292 26.2811 25.2292 18.8696 25.2292C18.8696 25.4401 18.8696 25.6159 18.8696 25.793C18.8696 26.8997 18.8787 28.0065 18.8657 29.1133C18.8566 29.8438 18.3649 30.2266 17.7431 29.8867C16.4853 29.1979 15.3043 29.1888 14.0426 29.8815C13.4091 30.2292 12.9304 29.8542 12.9252 29.1224C12.9161 28 12.9252 26.8763 12.92 25.7539C12.9187 25.582 12.9773 25.3971 12.8134 25.1914C11.7767 25.2292 10.7023 25.0951 9.6409 25.2708C8.07483 25.53 6.97311 27.1393 7.24886 28.707C7.52332 30.2695 8.72649 31.2695 10.3823 31.2799C12.284 31.2917 14.187 31.28 16.0886 31.2852C16.6726 31.2865 16.9848 31.5547 16.9796 32.0182C16.9744 32.4622 16.6661 32.7422 16.1224 32.7435C14.1557 32.7513 12.1864 32.793 10.221 32.7344C6.80271 32.6315 4.70074 29.1732 6.2421 26.2005C7.1383 24.4714 8.64194 23.7279 10.5618 23.7292C20.8207 23.7344 31.0782 23.7318 41.3371 23.7318C41.4827 23.7318 41.6297 23.7305 41.7754 23.7305C41.8912 23.7305 42.0121 23.7279 42.0616 23.5977C42.245 23.1211 42.4245 22.6432 42.6248 22.1133C42.375 22.1133 42.1981 22.1133 42.0199 22.1133C31.5348 22.1133 21.0483 22.1133 10.5631 22.1133C10.3355 22.1133 10.1079 22.1146 9.88024 22.125C6.26421 22.2786 3.49886 25.8021 4.20906 29.3503C4.8126 32.3646 7.27358 34.3672 10.4005 34.3672C21.0483 34.3711 31.6974 34.3685 42.3451 34.3685C42.4908 34.3685 42.6391 34.3737 42.7835 34.3555C43.2088 34.3034 43.4885 33.9844 43.4898 33.5638C43.4911 33.1419 43.2179 32.8216 42.79 32.7682C42.5975 32.7435 42.4011 32.75 42.2059 32.75C34.8581 32.7487 27.509 32.75 20.1612 32.7487C19.9505 32.7487 19.7346 32.7565 19.5303 32.7148C19.144 32.6354 18.9411 32.3737 18.9606 31.9792C18.9788 31.5859 19.1987 31.3464 19.5954 31.3021C19.7879 31.2799 19.9843 31.2865 20.1794 31.2865C26.9263 31.2852 33.6732 31.2865 40.42 31.2826C40.623 31.2826 40.8389 31.3398 41.0834 31.1888C40.4734 29.224 40.5007 27.2396 41.0899 25.2292ZM36.6622 16.655C36.6622 15.1042 36.6622 13.625 36.6622 12.1458C36.6622 11.3294 36.6609 11.3385 35.8441 11.2031C33.1021 10.7487 30.3459 10.4284 27.5675 10.2852C22.1747 10.0065 16.8196 10.319 11.4996 11.2552C11.0652 11.332 10.9351 11.5234 10.939 11.9336C10.952 13.3659 10.9429 14.7969 10.9455 16.2292C10.9455 16.3555 10.9208 16.4896 11.0496 16.6576C11.1992 16.6576 11.3904 16.6576 11.5816 16.6576C17.1565 16.6576 22.7314 16.6576 28.3064 16.6576C28.4846 16.6576 28.6667 16.6458 28.8423 16.6719C29.2091 16.7253 29.4263 16.9505 29.4588 17.3203C29.49 17.6888 29.3209 17.9583 28.9671 18.0664C28.7863 18.1211 28.5834 18.1198 28.3909 18.1198C22.7835 18.1224 17.176 18.1211 11.5686 18.1237C11.3787 18.1237 11.1797 18.0781 10.9781 18.1823C10.9781 18.9831 10.9781 19.7865 10.9781 20.6133C19.5499 20.6133 28.0878 20.6133 36.631 20.6133C36.631 19.7721 36.631 18.9675 36.631 18.1211C35.2548 18.1211 33.9086 18.1211 32.5623 18.1211C31.7806 18.1211 31.4294 17.8828 31.4424 17.3646C31.4554 16.8646 31.7793 16.6576 32.5545 16.6576C33.9008 16.6536 35.247 16.655 36.6622 16.655ZM38.2192 20.6458C38.3519 20.6458 38.5262 20.6458 38.7005 20.6458C39.9349 20.6458 41.1693 20.6563 42.4037 20.6432C43.452 20.6315 43.1425 20.8203 43.5613 19.8516C43.6497 19.6471 43.7902 19.4609 43.6172 19.1797C42.5116 17.3893 43.0891 15.5234 44.9895 14.6693C45.1222 14.6094 45.2588 14.582 45.2575 14.3828C45.2509 13.2656 45.2549 12.1484 45.2549 11.0065C45.1404 11.0234 45.0753 11.0234 45.0168 11.0443C42.8264 11.8034 40.6386 12.5716 38.4429 13.3177C38.1581 13.4141 38.123 13.5677 38.123 13.8203C38.1295 15.9505 38.1256 18.0807 38.1282 20.2096C38.1269 20.3359 38.0956 20.4701 38.2192 20.6458ZM44.9765 20.2604C44.4796 21.4883 43.997 22.6576 43.534 23.8359C43.3324 24.349 43.5379 24.7604 44.0192 24.7695C45.3342 24.793 46.6518 24.7904 47.9669 24.7708C48.3948 24.7643 48.6602 24.3802 48.5067 23.9818C48.0293 22.7422 47.5181 21.5169 47.0134 20.2656C46.3253 20.4544 45.6698 20.4622 44.9765 20.2604ZM32.2333 38.9505C32.2333 39.9714 32.2333 40.944 32.2333 42.056C33.2335 41.2891 34.1974 41.3789 35.169 41.987C35.169 40.9167 35.169 39.9401 35.169 38.9505C34.1752 38.9505 33.2231 38.9505 32.2333 38.9505ZM14.4146 28.2474C15.4161 27.5195 16.3943 27.6276 17.3711 28.2096C17.3711 27.1497 17.3711 26.2005 17.3711 25.224C16.3735 25.224 15.4096 25.224 14.4146 25.224C14.4146 26.1979 14.4146 27.1484 14.4146 28.2474ZM44.5251 17.4453C44.5212 18.2773 45.1716 18.9466 45.9885 18.9505C46.8001 18.9544 47.47 18.2852 47.4752 17.4609C47.4804 16.6354 46.8222 15.9648 46.0041 15.9609C45.1781 15.9583 44.5277 16.6107 44.5251 17.4453Z" fill="#3190D2"/>
</g>
<defs>
<clipPath id="clip0_3_477">
<rect width="50" height="50" fill="white"/>
</clipPath>
</defs>
</svg>
