<svg width="50" height="51" viewBox="0 0 50 51" fill="none" xmlns="http://www.w3.org/2000/svg">
<path d="M13.8441 50.0138C13.1981 49.7994 12.5598 49.5797 12.0555 49.0844C11.4263 48.4669 11.048 47.739 10.9947 46.8538C10.9804 46.6107 10.9765 46.3663 10.9765 46.1232C10.9752 41.038 10.9752 35.9527 10.9752 30.8675C10.9752 28.9345 10.97 27.0029 10.9765 25.0699C10.9843 22.8275 12.3921 21.4327 14.6371 21.4301C16.635 21.4288 18.633 21.4301 20.6323 21.4301C20.8077 21.4301 20.9845 21.4301 21.134 21.4301C21.2822 21.2313 21.2289 21.0467 21.2302 20.8738C21.2354 19.8014 21.2224 18.7289 21.2367 17.6565C21.2575 16.068 22.3975 14.9228 23.986 14.9189C28.2913 14.9085 32.5966 14.9085 36.9019 14.9189C38.4995 14.9228 39.6551 16.0966 39.6707 17.7007C39.6824 18.8862 39.6759 20.073 39.6785 21.2586C39.6785 21.2898 39.6928 21.3223 39.7019 21.3586C39.8566 21.4821 40.0425 21.4249 40.2141 21.4249C42.2445 21.4288 44.275 21.4249 46.3068 21.4288C48.4958 21.4327 49.9153 22.8652 49.9153 25.0764C49.9166 32.1596 49.9166 39.2428 49.9153 46.326C49.9153 48.22 49.021 49.4042 47.205 49.9332C47.1621 49.9462 47.127 49.9852 47.0893 50.0112C36.0076 50.0138 24.9259 50.0138 13.8441 50.0138ZM12.5754 32.5548C12.4961 32.6627 12.5364 32.8121 12.5364 32.9525C12.5338 37.4372 12.5312 41.9206 12.5364 46.4053C12.5377 47.7247 13.2787 48.4526 14.5968 48.4526C25.1572 48.4539 35.719 48.4539 46.2795 48.4526C47.6158 48.4526 48.3554 47.7104 48.3567 46.3715C48.358 41.8868 48.3567 37.4034 48.3567 32.9187C48.3567 32.7822 48.3567 32.6458 48.3567 32.4547C47.7951 32.7407 47.2947 32.9603 46.7487 33.0643C44.0722 33.5765 41.3957 34.0952 38.7192 34.6112C37.3231 34.8803 35.9257 35.1481 34.4984 35.4237C34.4984 35.98 34.5153 36.4987 34.4958 37.0161C34.4113 39.2428 32.6226 40.9639 30.4141 40.9535C28.2341 40.9431 26.4714 39.2116 26.4038 37.0017C26.3883 36.4844 26.4013 35.9657 26.4013 35.4367C26.2479 35.3899 26.1283 35.3392 26.0048 35.3158C24.0601 34.9466 22.1077 34.6151 20.1708 34.2056C17.6412 33.6701 15.0413 33.4478 12.5754 32.5548ZM26.3974 33.804C26.3974 32.9603 26.3948 32.1843 26.3987 31.4069C26.4039 30.2994 26.9719 29.7262 28.0755 29.7223C29.6029 29.7171 31.129 29.7197 32.6564 29.721C33.9797 29.7223 34.5036 30.2513 34.5049 31.5863C34.5049 32.3247 34.5049 33.063 34.5049 33.8339C37.8755 33.1878 41.1721 32.56 44.4674 31.9204C45.3409 31.7501 46.2379 31.6695 47.0737 31.3367C47.9953 30.9689 48.3554 30.4203 48.3567 29.4337C48.358 28.0363 48.3567 26.6402 48.3567 25.2428C48.3567 23.6517 47.6977 22.9835 46.1209 22.9835C42.1574 22.9822 38.194 22.9835 34.2319 22.9835C27.7831 22.9835 21.3342 22.9835 14.8854 22.9835C14.6904 22.9835 14.4954 22.9809 14.3004 22.9913C13.3489 23.0433 12.578 23.7401 12.5585 24.6929C12.5221 26.3815 12.5598 28.0701 12.5572 29.7587C12.5572 30.3592 12.8731 30.7635 13.332 31.0859C13.7245 31.3614 14.1756 31.4953 14.641 31.5837C17.6685 32.1596 20.6973 32.7342 23.7247 33.3074C24.597 33.4738 25.4679 33.6324 26.3974 33.804ZM24.5177 18.1479C28.4967 18.1479 32.4159 18.1479 36.3884 18.1479C36.3884 19.2411 36.3884 20.3018 36.3884 21.3729C36.9877 21.3729 37.5311 21.3729 38.1056 21.3729C38.1056 20.0769 38.129 18.8121 38.0952 17.5499C38.0783 16.9052 37.5623 16.4801 36.8759 16.4788C32.5901 16.4736 28.3056 16.4723 24.0198 16.4788C23.2607 16.4801 22.807 16.9351 22.7953 17.6903C22.7823 18.5339 22.7914 19.3789 22.7914 20.2225C22.7914 20.6047 22.7914 20.9856 22.7914 21.3755C23.3985 21.3755 23.9275 21.3755 24.5164 21.3755C24.5177 20.2823 24.5177 19.219 24.5177 18.1479ZM27.9793 31.3043C27.9793 33.3126 27.978 35.2742 27.9819 37.2344C27.9819 37.3293 28.0105 37.4268 28.0352 37.5204C28.3576 38.7449 29.4937 39.521 30.7559 39.3819C31.9662 39.248 32.9229 38.1886 32.9385 36.9069C32.9593 35.1871 32.945 33.466 32.9424 31.7449C32.9424 31.6045 32.984 31.4524 32.8722 31.3029C31.2668 31.3042 29.6497 31.3043 27.9793 31.3043ZM34.7714 21.4132C34.7714 20.8075 34.7714 20.2511 34.7714 19.7065C31.8609 19.7065 28.9907 19.7065 26.1192 19.7065C26.1192 20.294 26.1192 20.8491 26.1192 21.4132C29.0232 21.4132 31.8791 21.4132 34.7714 21.4132Z" fill="#3190D2"/>
<path d="M0 1.94987C0.339276 1.05813 0.867039 0.358779 1.86407 0.154693C2.08375 0.109196 2.31514 0.100097 2.54132 0.100097C9.77011 0.0974971 17.0002 0.100097 24.229 0.0935974C24.9062 0.0935974 25.4769 0.327581 25.9267 0.804647C27.9324 2.9313 29.9278 5.06965 31.9206 7.2106C32.2871 7.60447 32.4756 8.08673 32.4769 8.6288C32.4808 9.91181 32.486 11.1961 32.4782 12.4791C32.4756 12.9874 32.1701 13.3176 31.7321 13.3332C31.2888 13.3488 30.93 12.9939 30.9222 12.4804C30.9079 11.4743 30.9183 10.4682 30.9183 9.48414C30.7324 9.32685 30.5466 9.38664 30.375 9.38534C29.2219 9.37884 28.0676 9.38534 26.9146 9.38144C24.9361 9.37364 23.6882 8.12833 23.6856 6.15767C23.683 4.68097 23.6856 3.20428 23.6856 1.74058C23.5023 1.60019 23.3178 1.65739 23.1462 1.65739C16.323 1.65349 9.49973 1.65479 2.67651 1.65479C1.78347 1.65479 1.55859 1.88097 1.55859 2.77921C1.55859 15.6132 1.55859 28.4472 1.55859 41.2812C1.55859 42.1716 1.79127 42.4056 2.67911 42.4069C4.57958 42.4082 6.48004 42.4056 8.38181 42.4082C9.04216 42.4082 9.38664 42.6877 9.37494 43.2038C9.36324 43.6977 9.02656 43.9629 8.39221 43.9629C6.44235 43.9655 4.49378 43.9642 2.54392 43.9629C1.28041 43.9616 0.527763 43.4273 0.0831942 42.2249C0.0675952 42.1859 0.028598 42.1534 0 42.117C0 28.728 0 15.3389 0 1.94987ZM29.7913 7.80466C28.2496 6.13297 26.7898 4.55228 25.2494 2.8832C25.2494 4.16491 25.2338 5.29973 25.2546 6.43455C25.2676 7.1417 25.7941 7.76176 26.4739 7.79296C27.5373 7.84105 28.6045 7.80466 29.7913 7.80466Z" fill="#3190D2"/>
<path d="M45.4657 5.58833C45.1057 5.22695 44.7872 4.90717 44.431 4.5497C43.7512 4.99037 43.0622 5.40894 42.4044 5.8743C41.9586 6.18888 41.5686 6.19668 41.1097 5.9016C40.4104 5.45184 39.6421 5.13206 38.8258 4.96047C38.3097 4.85128 38.0537 4.5627 37.9627 4.04793C37.8249 3.26669 37.6403 2.49454 37.4713 1.6912C36.9734 1.6912 36.4964 1.6912 35.9946 1.6912C35.8243 2.50364 35.6566 3.31219 35.485 4.11943C35.3576 4.71609 35.0067 4.98907 34.5101 4.88377C34.0551 4.78758 33.8355 4.37941 33.9537 3.81135C34.1617 2.81042 34.3853 1.81339 34.5933 0.812461C34.696 0.321095 34.9898 0.0949113 35.485 0.0975111C36.3131 0.101411 37.1424 0.0936114 37.9705 0.100111C38.5177 0.104011 38.7764 0.313296 38.8908 0.843659C39.0598 1.621 39.2327 2.39705 39.3757 3.17829C39.4212 3.42788 39.5356 3.53967 39.763 3.60466C40.3415 3.76975 40.8979 3.99854 41.4217 4.29362C41.6557 4.42491 41.8299 4.40021 42.0418 4.25592C42.6735 3.82695 43.3157 3.41488 43.9552 3.00021C44.4791 2.66093 44.7703 2.68303 45.2084 3.1133C45.7881 3.68266 46.3601 4.25982 46.9281 4.84088C47.3168 5.23735 47.3454 5.53763 47.0412 6.016C46.6318 6.65945 46.2223 7.3042 45.7881 7.93206C45.6191 8.17644 45.5853 8.37143 45.7413 8.63661C46.0312 9.12668 46.2366 9.65964 46.3939 10.2056C46.4706 10.4747 46.5928 10.6008 46.88 10.6515C47.6301 10.7841 48.3723 10.9595 49.1185 11.1207C49.7151 11.2494 49.914 11.4873 49.9179 12.0931C49.9218 12.9055 49.9179 13.718 49.9192 14.5304C49.9205 15.0205 49.7034 15.3246 49.2069 15.4247C48.4438 15.5781 47.6847 15.7536 46.9203 15.9005C46.6383 15.9551 46.4758 16.0604 46.39 16.3633C46.1703 17.1471 45.8219 17.8816 45.389 18.5731C45.0849 19.0593 44.6481 19.2023 44.2464 18.9566C43.8382 18.707 43.7629 18.2741 44.0631 17.7672C44.5207 16.9937 44.8834 16.1813 45.081 15.3038C45.1876 14.8268 45.4774 14.6045 45.9493 14.52C46.7448 14.377 47.5326 14.1911 48.3411 14.0208C48.3411 13.5308 48.3411 13.0641 48.3411 12.5519C47.5365 12.379 46.7344 12.1867 45.9246 12.0385C45.4449 11.9514 45.1746 11.7057 45.0706 11.2377C44.8808 10.3733 44.5376 9.56865 44.0683 8.8225C43.8201 8.42733 43.833 8.07635 44.0917 7.69418C44.5519 7.00523 44.9952 6.30718 45.4657 5.58833Z" fill="#3190D2"/>
<path d="M43.1103 13.402C43.1285 14.1183 42.9595 14.906 42.6566 15.6677C42.4148 16.2761 42.0183 16.5179 41.5582 16.3411C41.1799 16.1968 40.9472 15.7301 41.1929 15.1114C42.3498 12.2048 40.6352 9.1149 37.5791 8.53254C37.2945 8.47795 36.9968 8.48835 36.7082 8.44935C36.2077 8.38175 35.9296 8.05158 35.9673 7.59661C36.0037 7.17284 36.3156 6.91416 36.8096 6.90246C40.2063 6.82186 43.1194 9.77786 43.1103 13.402Z" fill="#3190D2"/>
<path d="M14.4147 12.1684C12.6949 12.1684 10.9739 12.1684 9.25408 12.1697C9.04219 12.1697 8.82771 12.1775 8.63662 12.0709C8.32335 11.8954 8.15956 11.6224 8.22065 11.265C8.28045 10.914 8.49623 10.6813 8.86281 10.6267C8.9902 10.6072 9.12149 10.615 9.25148 10.615C12.7079 10.615 16.1644 10.615 19.6209 10.615C19.7014 10.615 19.7833 10.6124 19.8639 10.6176C20.3072 10.6449 20.614 10.9283 20.6439 11.3339C20.6738 11.7407 20.3605 12.106 19.9146 12.158C19.7066 12.1827 19.4935 12.1684 19.2829 12.1684C17.6606 12.1684 16.037 12.1684 14.4147 12.1684Z" fill="#3190D2"/>
<path d="M14.3757 8.62115C12.7041 8.62115 11.0337 8.62245 9.36199 8.61985C9.1683 8.61985 8.96812 8.62375 8.78223 8.57825C8.40266 8.48466 8.20767 8.20518 8.21287 7.82821C8.21677 7.47463 8.40396 7.20295 8.76273 7.11326C8.96422 7.06386 9.18 7.06386 9.39059 7.06386C12.7496 7.06126 16.1072 7.06126 19.4662 7.06256C20.2604 7.06256 20.64 7.31214 20.6478 7.83211C20.6556 8.35597 20.2695 8.62115 19.487 8.62115C17.7828 8.62245 16.0786 8.62115 14.3757 8.62115Z" fill="#3190D2"/>
<path d="M11.8318 15.6964C10.9388 15.6964 10.0445 15.699 9.15142 15.6951C8.57296 15.6925 8.21938 15.4026 8.20638 14.9373C8.19339 14.4576 8.56516 14.1391 9.16312 14.1378C10.9661 14.1339 12.7691 14.1339 14.5733 14.1378C15.1635 14.1391 15.4976 14.4212 15.5093 14.8996C15.521 15.4013 15.1791 15.6925 14.5629 15.6951C13.6504 15.699 12.7405 15.6964 11.8318 15.6964Z" fill="#3190D2"/>
<path d="M4.97212 15.6927C4.63544 15.7174 4.31696 15.6901 4.08558 15.4015C3.8243 15.0765 3.8594 14.628 4.16747 14.3473C4.49245 14.0522 5.43489 14.0418 5.77546 14.3304C6.08744 14.5929 6.14204 15.0609 5.89505 15.3846C5.65847 15.6927 5.32179 15.7187 4.97212 15.6927Z" fill="#3190D2"/>
<path d="M4.9567 10.6111C5.19328 10.6267 5.40776 10.5825 5.60665 10.6865C5.94983 10.8672 6.09931 11.1531 6.03562 11.5314C5.96152 11.976 5.60665 12.1736 4.9307 12.1684C4.34444 12.1645 3.99866 11.9539 3.92587 11.5249C3.86217 11.1466 4.01946 10.8633 4.36134 10.6839C4.56022 10.5799 4.77601 10.6319 4.9567 10.6111Z" fill="#3190D2"/>
<path d="M4.98264 8.61965C4.65506 8.62225 4.32879 8.62225 4.0935 8.33367C3.82832 8.01 3.85432 7.56673 4.1598 7.27945C4.47048 6.98697 5.42981 6.96617 5.76779 7.24565C6.08236 7.50563 6.14216 7.9697 5.90298 8.29468C5.66899 8.61316 5.32972 8.62875 4.98264 8.61965Z" fill="#3190D2"/>
<path d="M31.2095 36.8225C31.2004 37.254 30.8586 37.5803 30.4231 37.5699C29.9967 37.5595 29.6509 37.2033 29.6626 36.7848C29.6743 36.3649 30.0331 36.0282 30.4595 36.036C30.8924 36.0451 31.2186 36.387 31.2095 36.8225Z" fill="#3190D2"/>
</svg>
