<?xml version="1.0" encoding="utf-8"?>
<!-- Generator: Adobe Illustrator 23.0.1, SVG Export Plug-In . SVG Version: 6.00 Build 0)  -->
<svg version="1.1" id="Layer_1" xmlns="http://www.w3.org/2000/svg" xmlns:xlink="http://www.w3.org/1999/xlink" x="0px" y="0px"
	 width="30px" height="30px" viewBox="0 0 30 30" style="enable-background:new 0 0 30 30;" xml:space="preserve">
<g>
	<path d="M25.1,0c0.5,0.2,0.9,0.4,1.2,0.8c0.2,0.3,0.3,0.7,0.3,1.1c0,4.2,0,8.4,0,12.7c0,0.1,0,0.2,0,0.4c0.1-0.2,0.2-0.3,0.3-0.4
		c0.5-0.6,1.3-0.9,2-0.6c0.7,0.2,1.1,0.9,1.1,1.6c0,0.4-0.1,0.7-0.4,1.1c-2.2,2.9-4.4,5.8-6.6,8.8c-0.7,1-2.1,1-2.8,0
		c-1-1.2-1.9-2.5-2.8-3.7c-0.6-0.8-0.4-1.9,0.3-2.4c0.8-0.6,1.8-0.4,2.5,0.4c0.4,0.5,0.8,1.1,1.2,1.6c0.1,0.1,0.1,0.1,0.2,0.2
		c1-1.3,1.9-2.5,2.9-3.8c0.4-0.5,0.8-0.9,1-1.4c0.2-0.5,0.1-1.2,0.1-1.8c0-4.2,0-8.4,0-12.6c0-0.6-0.2-0.9-0.7-1c-0.1,0-0.2,0-0.2,0
		c-6.6,0-13.2,0-19.9,0c-0.7,0-1,0.3-1,1c0,1.3,0,2.6,0,3.9c0,0.1,0,0.1,0,0.2c0,0.4-0.2,0.6-0.5,0.6C3,6.6,2.8,6.4,2.8,6
		c0-0.9,0-1.9,0-2.8c0-0.1,0-0.2,0-0.3c-0.5,0-0.9,0-1.3,0C1.2,2.9,1,3.2,1,3.6c0,0.1,0,0.2,0,0.3c0,7.4,0,14.9,0,22.3
		c0,0.2,0,0.5,0.2,0.7c0.1,0.2,0.3,0.3,0.5,0.3c0.4,0,0.8,0,1.2,0c0-0.1,0-0.3,0-0.4c0-6.1,0-12.2,0-18.3c0-0.1,0-0.3,0-0.4
		c0-0.2,0.2-0.4,0.4-0.4c0.2,0,0.4,0.1,0.5,0.3c0,0.1,0,0.3,0,0.4c0,6.6,0,13.1,0,19.7c0,0.2,0,0.3,0,0.5C3.9,28.8,4.2,29,4.5,29
		c0.1,0,0.2,0,0.3,0c6.6,0,13.2,0,19.8,0c0.2,0,0.5-0.1,0.7-0.2c0.3-0.2,0.3-0.5,0.3-0.8c0-1.5,0-3,0-4.6c0-0.1,0-0.2,0-0.3
		c0-0.3,0.2-0.5,0.5-0.5c0.2,0,0.4,0.2,0.5,0.4c0,0.1,0,0.1,0,0.2c0,1.6,0,3.2,0,4.7c0,1.2-0.7,1.9-1.9,1.9c-6.6,0-13.2,0-19.8,0
		c-1.2,0-1.8-0.5-2-1.7c0,0,0-0.1,0-0.2c-1.2,0.1-2.4,0-2.8-1.4c0-7.8,0-15.5,0-23.3c0.5-1.2,0.9-1.4,2.2-1.4c0.2,0,0.4,0,0.5,0
		C2.9,1.4,3,1.1,3.2,0.7C3.4,0.3,3.9,0.1,4.3,0C11.2,0,18.1,0,25.1,0z M21.6,25.3C21.6,25.3,21.6,25.3,21.6,25.3
		c0.4-0.1,0.6-0.3,0.8-0.6c2.1-2.8,4.1-5.5,6.2-8.3c0.1-0.2,0.2-0.3,0.3-0.5c0.3-0.5,0-1.1-0.5-1.2c-0.4-0.1-0.7,0.1-0.9,0.4
		c-1.8,2.4-3.6,4.7-5.3,7.1c-0.4,0.6-0.7,0.6-1.1,0c-0.5-0.7-1.1-1.5-1.6-2.2c-0.3-0.4-0.8-0.5-1.1-0.2c-0.3,0.2-0.4,0.7-0.1,1.1
		c0.9,1.3,1.9,2.5,2.8,3.7C21.1,25.1,21.4,25.2,21.6,25.3z"/>
	<path d="M14.7,6.6c-2.2,0-4.5,0-6.7,0c-0.1,0-0.2,0-0.3,0c-0.2,0-0.4-0.2-0.4-0.4c0-0.2,0.1-0.4,0.4-0.5c0.1,0,0.2,0,0.3,0
		c4.5,0,9,0,13.5,0c0.1,0,0.2,0,0.3,0C22,5.8,22.1,6,22.1,6.2c0,0.2-0.2,0.4-0.4,0.4c-0.1,0-0.2,0-0.3,0C19.1,6.6,16.9,6.6,14.7,6.6
		z"/>
	<path d="M12.8,12c1.6,0,3.2,0,4.8,0c0.1,0,0.2,0,0.3,0c0.2,0,0.4,0.2,0.4,0.4c0,0.2-0.1,0.4-0.3,0.5c-0.1,0-0.2,0-0.3,0
		c-3.2,0-6.4,0-9.6,0c0,0-0.1,0-0.1,0c-0.4,0-0.6-0.2-0.6-0.5c0-0.3,0.2-0.5,0.6-0.5C9.5,12,11.2,12,12.8,12z"/>
	<path d="M12.8,15.5c-1.6,0-3.2,0-4.8,0c-0.1,0-0.2,0-0.3,0c-0.2-0.1-0.4-0.2-0.4-0.5c0-0.2,0.1-0.4,0.4-0.5c0.1,0,0.2,0,0.3,0
		c3.2,0,6.4,0,9.6,0c0.1,0,0.1,0,0.2,0c0.3,0,0.5,0.2,0.5,0.5c0,0.3-0.2,0.5-0.5,0.5c-0.8,0-1.7,0-2.5,0
		C14.4,15.5,13.6,15.5,12.8,15.5z"/>
	<path d="M11.2,21.5c1.1,0,2.1,0,3.2,0c0.1,0,0.2,0,0.3,0c0.2,0,0.4,0.2,0.4,0.4c0,0.2-0.1,0.4-0.3,0.5c-0.1,0-0.2,0-0.3,0
		c-2.2,0-4.3,0-6.5,0c0,0-0.1,0-0.1,0c-0.3,0-0.6-0.2-0.6-0.5c0-0.3,0.2-0.5,0.6-0.5C9,21.5,10.1,21.5,11.2,21.5
		C11.2,21.5,11.2,21.5,11.2,21.5z"/>
	<path d="M14.7,9.2c-1.1,0-2.2,0-3.2,0c-0.1,0-0.2,0-0.3,0c-0.2,0-0.4-0.2-0.4-0.4c0-0.2,0.1-0.4,0.3-0.5c0.1,0,0.2,0,0.4,0
		c2.2,0,4.4,0,6.5,0c0.4,0,0.7,0.2,0.7,0.5c0,0.3-0.2,0.5-0.7,0.5C16.9,9.2,15.8,9.2,14.7,9.2z"/>
	<path d="M9,24c0.4,0,0.8,0,1.2,0c0.3,0,0.5,0.2,0.5,0.5c0,0.3-0.2,0.5-0.5,0.5c-0.8,0-1.6,0-2.4,0c-0.3,0-0.6-0.2-0.6-0.5
		c0-0.3,0.2-0.5,0.6-0.5C8.2,24,8.6,24,9,24z"/>
	<path d="M21.3,12c0.1,0,0.2,0,0.3,0c0.3,0,0.4,0.2,0.4,0.4c0,0.3-0.1,0.4-0.4,0.5c-0.3,0-0.5,0-0.8,0c-0.3,0-0.4-0.2-0.4-0.5
		c0-0.2,0.2-0.4,0.4-0.4C21.1,12,21.2,12,21.3,12z"/>
	<path d="M21.3,15.5c-0.1,0-0.2,0-0.3,0c-0.3,0-0.4-0.2-0.4-0.4c0-0.2,0.2-0.5,0.4-0.5c0.2,0,0.5,0,0.7,0c0.3,0,0.4,0.2,0.4,0.5
		c0,0.3-0.2,0.5-0.4,0.5C21.5,15.5,21.4,15.5,21.3,15.5C21.3,15.5,21.3,15.5,21.3,15.5z"/>
</g>
</svg>
