<svg width="50" height="50" viewBox="0 0 50 50" fill="none" xmlns="http://www.w3.org/2000/svg">
<g clip-path="url(#clip0_3_466)">
<path d="M1.76822 50C1.14981 49.731 0.600261 49.3866 0.306648 48.7369C-0.313058 47.3658 0.128661 45.6881 1.36288 44.833C1.57724 44.6849 1.53307 44.5029 1.53437 44.3197C1.53826 42.5003 1.53567 40.681 1.53697 38.8616C1.53697 38.6992 1.53307 38.5354 1.55645 38.3756C1.61232 37.9766 1.87345 37.7674 2.25281 37.7596C2.61008 37.7531 2.87511 37.9441 2.95566 38.3119C2.99334 38.4834 2.99594 38.6667 2.99594 38.8434C2.99854 40.5809 2.99724 42.3197 2.99724 44.0572C2.99724 44.2313 2.99724 44.4055 2.99724 44.6043C3.63253 44.6043 4.20807 44.6043 4.7771 44.6043C4.88234 44.4003 4.84076 44.2014 4.84206 44.0104C4.84466 41.2333 4.83557 38.4548 4.84726 35.6777C4.85635 33.7869 5.97234 32.2989 7.66257 31.8766C10.1128 31.2645 12.3474 33.0617 12.3617 35.6816C12.3773 38.4587 12.3643 41.2372 12.3682 44.0143C12.3682 44.204 12.3227 44.4016 12.4305 44.6043C13.4725 44.6043 14.5196 44.6043 15.5615 44.6043C15.6564 44.3951 15.6161 44.1975 15.6161 44.0078C15.6187 41.1982 15.6044 38.3873 15.6226 35.5777C15.6369 33.3658 17.331 31.7245 19.5071 31.7674C21.4208 31.8051 23.0773 33.3723 23.1097 35.2944C23.1578 38.1845 23.1279 41.0773 23.1318 43.9675C23.1318 44.1611 23.1318 44.3535 23.1318 44.5887C24.2231 44.5887 25.282 44.5887 26.3551 44.5887C26.4655 44.4198 26.4096 44.2196 26.4096 44.0312C26.4148 41.1722 26.3928 38.3132 26.4239 35.4542C26.4408 33.9207 27.1943 32.7849 28.5741 32.1287C29.9408 31.4789 31.2699 31.6452 32.4677 32.5601C33.459 33.3177 33.9215 34.3626 33.9228 35.6088C33.9241 38.4185 33.9228 41.2294 33.9228 44.039C33.9228 44.2144 33.9228 44.3899 33.9228 44.5965C35.0089 44.5965 36.056 44.5965 37.1161 44.5965C37.2487 44.4341 37.1889 44.2313 37.1889 44.0455C37.1928 41.2684 37.185 38.4899 37.1941 35.7128C37.2006 33.7882 38.3114 32.2937 40.0198 31.8727C42.4557 31.2723 44.6877 33.0513 44.7072 35.6413C44.728 38.4185 44.7124 41.1969 44.7124 43.974C44.7124 44.1676 44.7124 44.3613 44.7124 44.5913C45.5127 44.5913 46.2805 44.5913 47.0847 44.5913C47.0847 39.423 47.0847 34.2651 47.0847 29.0669C32.4196 29.0669 17.7507 29.0669 3.06479 29.0669C2.94267 29.2099 2.99984 29.3957 2.99984 29.566C2.99464 31.3203 2.99854 33.0747 2.99464 34.8291C2.99464 35.0228 2.98944 35.2255 2.93358 35.4061C2.82964 35.7401 2.57111 35.8947 2.22293 35.8792C1.87215 35.8623 1.637 35.6751 1.57074 35.3333C1.52787 35.1137 1.53826 34.8811 1.53826 34.6537C1.53567 32.8993 1.53177 31.1449 1.54216 29.3905C1.54476 29.0734 1.4824 28.8759 1.168 28.6979C0.469045 28.3015 0.119567 27.6556 0.11437 26.8434C0.109174 25.8856 0.106575 24.9266 0.11437 23.9688C0.124764 22.7031 1.0186 21.7895 2.28009 21.7453C2.55422 21.7362 2.82964 21.744 3.09857 21.744C3.25707 21.4945 3.18172 21.2463 3.18951 21.0124C3.23109 19.6621 4.09244 18.7979 5.43968 18.7914C7.37155 18.7823 9.30472 18.7797 11.2366 18.7979C11.5731 18.8005 11.7121 18.6992 11.8082 18.3756C12.3565 16.5484 13.2698 14.9149 14.5079 13.4633C14.9782 12.9123 15.4121 12.794 15.7772 13.1189C16.1306 13.4334 16.0825 13.8571 15.6278 14.3912C13.9688 16.3366 13.0074 18.5848 12.706 21.1202C12.6839 21.3086 12.6436 21.5023 12.719 21.7167C20.9427 21.7167 29.1665 21.7167 37.4344 21.7167C37.4072 20.5679 37.1642 19.4841 36.7991 18.4276C34.193 10.898 25.269 7.7297 18.5003 11.9311C18.3626 12.0169 18.23 12.1209 18.0806 12.1741C17.7182 12.3028 17.3986 12.217 17.1907 11.8817C16.9802 11.5426 17.0543 11.2255 17.3401 10.9617C17.4466 10.8642 17.5766 10.7914 17.7 10.7135C19.5916 9.53347 21.6443 8.83172 23.8711 8.66927C24.2218 8.64328 24.3388 8.53672 24.3362 8.17545C24.3206 5.85316 24.3362 3.52957 24.3219 1.20728C24.3193 0.761541 24.3933 0.379474 24.7636 0.0974731C27.8816 0.0974731 30.9996 0.0974731 34.1176 0.0974731C34.6412 0.644582 34.6633 0.833016 34.2696 1.48929C33.9617 2.00391 33.6681 2.52892 33.3342 3.02665C33.1614 3.28526 33.1835 3.47369 33.3446 3.71931C33.6733 4.22093 33.9682 4.74465 34.2826 5.25537C34.4762 5.56856 34.6451 5.88305 34.4437 6.25342C34.2385 6.62899 33.8812 6.63419 33.5122 6.63289C31.1269 6.62899 28.7404 6.62899 26.3551 6.63289C26.181 6.63289 25.9991 6.5861 25.7899 6.71476C25.7899 7.19169 25.8081 7.69202 25.7834 8.19234C25.7679 8.52762 25.8952 8.62639 26.2213 8.66537C32.2858 9.37883 36.2977 12.6589 38.3127 18.4016C38.4283 18.7317 38.5842 18.8018 38.9012 18.8005C40.8656 18.7875 42.8286 18.7823 44.793 18.8005C45.9765 18.8109 46.834 19.6634 46.9158 20.8434C46.9353 21.1306 46.869 21.4269 46.9717 21.7037C47.0132 21.7193 47.0431 21.7375 47.073 21.7401C47.1704 21.7466 47.2679 21.7544 47.3653 21.7479C48.6866 21.6595 49.5778 22.2196 50 23.4919C50 24.7589 50 26.026 50 27.2931C49.7675 27.9545 49.4206 28.525 48.7515 28.8278C48.5528 28.9175 48.5813 29.0825 48.5813 29.2398C48.58 34.2989 48.58 39.358 48.58 44.4159C48.58 44.577 48.5593 44.7433 48.7528 44.8278C49.4076 45.1137 49.7415 45.6751 50 46.2976C50 46.9799 50 47.6621 50 48.3444C49.6973 49.1462 49.1439 49.6972 48.3436 50.0013C32.8185 50 17.2933 50 1.76822 50ZM25.0585 27.5712C32.4781 27.5712 39.8977 27.5712 47.3172 27.5712C47.4628 27.5712 47.6096 27.5764 47.7551 27.5699C48.2773 27.5426 48.5294 27.2996 48.5359 26.7771C48.5463 25.8519 48.5463 24.9253 48.5359 24C48.5307 23.4828 48.2734 23.2385 47.7512 23.2112C47.6381 23.206 47.5238 23.2099 47.4108 23.2099C32.5067 23.2099 17.6025 23.2099 2.69843 23.2099C2.60099 23.2099 2.50355 23.2073 2.40611 23.2112C1.82928 23.2307 1.57984 23.4776 1.57594 24.0546C1.56944 24.8499 1.57464 25.6465 1.57464 26.4419C1.57464 27.4074 1.73834 27.5725 2.70362 27.5725C10.1544 27.5712 17.6064 27.5712 25.0585 27.5712ZM25.0572 46.0936C17.6207 46.0936 10.1843 46.0936 2.7478 46.0936C2.60229 46.0936 2.45548 46.0884 2.30997 46.0949C1.84487 46.117 1.60063 46.3574 1.57724 46.8239C1.56685 47.0189 1.57464 47.2138 1.57464 47.4087C1.57464 48.3821 1.72924 48.538 2.69843 48.538C17.5064 48.538 32.3144 48.538 47.1224 48.538C48.4995 48.538 48.5424 48.4951 48.5398 47.1176C48.5385 46.2729 48.3605 46.0936 47.5134 46.0936C40.0276 46.0936 32.5417 46.0936 25.0572 46.0936ZM21.6105 44.6043C21.6352 44.5445 21.6573 44.5159 21.6573 44.486C21.6586 41.4204 21.6846 38.3548 21.6417 35.2905C21.6274 34.3262 21.0194 33.666 20.1177 33.3476C18.6003 32.8109 17.0881 33.9519 17.0829 35.6361C17.0725 38.4912 17.079 41.345 17.0803 44.2001C17.0803 44.3262 17.0946 44.4522 17.1024 44.603C18.6146 44.6043 20.0996 44.6043 21.6105 44.6043ZM32.4274 44.6199C32.4417 44.5211 32.4586 44.46 32.4586 44.399C32.4599 41.4139 32.4599 38.4276 32.4573 35.4425C32.4573 35.0617 32.3404 34.707 32.1533 34.3782C31.6401 33.4815 30.5943 33.0357 29.6147 33.2892C28.591 33.5556 27.8842 34.4224 27.8803 35.4841C27.8686 38.4042 27.8751 41.3255 27.8764 44.2456C27.8764 44.3691 27.8348 44.5081 27.9687 44.6186C29.4302 44.6199 30.9035 44.6199 32.4274 44.6199ZM10.8494 44.603C10.8715 44.5328 10.8962 44.4873 10.8962 44.4419C10.8975 41.4412 10.9196 38.4406 10.8845 35.4412C10.8728 34.4237 10.3077 33.6946 9.3398 33.3489C7.87563 32.8239 6.34001 33.883 6.31922 35.4854C6.28025 38.4367 6.30623 41.3892 6.30623 44.3405C6.30623 44.4341 6.29584 44.538 6.39847 44.6043C7.87953 44.603 9.36449 44.603 10.8494 44.603ZM38.7037 44.59C40.2303 44.59 41.7269 44.59 43.2313 44.59C43.2404 44.4522 43.2508 44.3574 43.2508 44.2612C43.2521 41.3905 43.2521 38.5198 43.2495 35.6491C43.2495 35.5036 43.2365 35.3567 43.2145 35.2138C43.03 34.0039 42.0582 33.193 40.8409 33.2294C39.6898 33.2645 38.692 34.1832 38.6777 35.3762C38.6388 38.4081 38.6635 41.4412 38.6647 44.4743C38.6647 44.5042 38.6842 44.5341 38.7037 44.59ZM32.4989 1.59585C30.2175 1.59585 28.018 1.59585 25.8185 1.59585C25.8185 2.79533 25.8185 3.95842 25.8185 5.13711C28.0427 5.13711 30.237 5.13711 32.4976 5.13711C32.2273 4.68617 31.9961 4.28201 31.7467 3.88825C31.5232 3.53477 31.5167 3.19949 31.7479 2.84341C32.0013 2.45355 32.2299 2.04679 32.4989 1.59585ZM11.182 21.7193C11.2327 21.2346 11.2795 20.7758 11.3314 20.269C9.27095 20.269 7.25073 20.2612 5.23052 20.2768C4.90702 20.2794 4.69915 20.5198 4.67057 20.8499C4.64589 21.1332 4.66538 21.4204 4.66538 21.718C6.86488 21.7193 9.01111 21.7193 11.182 21.7193ZM45.4347 21.7193C45.4464 21.592 45.4568 21.5127 45.4594 21.4321C45.4854 20.4029 45.3412 20.256 44.298 20.256C42.7104 20.256 41.1228 20.2534 39.5352 20.2586C39.2975 20.2599 39.0519 20.2105 38.7856 20.3171C38.8323 20.7758 38.8804 21.2359 38.9298 21.7193C41.1033 21.7193 43.2495 21.7193 45.4347 21.7193Z" fill="#3190D2"/>
</g>
<defs>
<clipPath id="clip0_3_466">
<rect width="50" height="50" fill="white"/>
</clipPath>
</defs>
</svg>
