<svg width="50" height="50" viewBox="0 0 50 50" fill="none" xmlns="http://www.w3.org/2000/svg">
<g clip-path="url(#clip0_3_470)">
<path d="M49.9999 38.0208C49.6464 39.0677 48.8147 39.6146 47.8738 40.0313C46.252 40.75 44.5249 41.0417 42.7783 41.2331C41.6633 41.3555 40.5431 41.3998 39.4216 41.4037C38.8017 41.4063 38.4261 41.1172 38.4144 40.6524C38.4014 40.168 38.79 39.8516 39.4229 39.8438C41.5866 39.8164 43.7374 39.6693 45.8374 39.0925C46.3547 38.9505 46.8602 38.7761 47.3462 38.5495C48.4209 38.0482 48.4976 37.918 48.4196 36.6628C47.779 36.9623 47.1474 37.2344 46.4859 37.4245C44.2351 38.0716 41.9245 38.25 39.597 38.2904C39.0694 38.2995 38.7133 37.974 38.7016 37.5261C38.6886 37.0547 39.0304 36.7474 39.6087 36.7344C41.8218 36.6849 44.0194 36.53 46.1545 35.8841C46.6055 35.7474 47.0473 35.5859 47.4697 35.3789C48.4157 34.9167 48.5067 34.7487 48.4131 33.6276C47.2033 34.2266 45.931 34.582 44.6198 34.8203C42.8225 35.1458 41.0096 35.2448 39.189 35.2591C38.5769 35.2643 38.2078 34.9583 38.2065 34.4844C38.2052 34.0052 38.5678 33.7057 39.1786 33.7005C41.4242 33.681 43.6568 33.5417 45.8361 32.9414C46.4313 32.7774 47.0135 32.5755 47.5632 32.2904C48.4339 31.8386 48.5327 31.638 48.391 30.5912C47.1292 31.2357 45.7855 31.5873 44.4092 31.8203C42.1077 32.2096 39.7907 32.2761 37.4645 32.1524C36.981 32.1263 36.6445 31.7643 36.664 31.3399C36.6847 30.9037 37.0304 30.5807 37.5243 30.5977C39.1812 30.655 40.8368 30.6719 42.4885 30.5013C44.0259 30.3425 45.5424 30.082 46.9901 29.5117C47.2163 29.4232 47.4385 29.319 47.6516 29.2044C48.4404 28.78 48.5444 28.5456 48.3807 27.5599C46.8927 28.3073 45.3046 28.6927 43.6763 28.8854C39.6607 29.3607 35.6711 29.3464 31.7738 28.0755C31.0304 27.8333 30.3274 27.4961 29.7322 26.9701C29.2046 26.5039 28.933 25.9375 28.9408 25.2123C28.9589 23.3412 28.9628 21.4688 28.9395 19.5977C28.9291 18.7917 29.2487 18.1836 29.8595 17.7044C30.8836 16.9024 32.0934 16.5274 33.3319 16.25C36.7289 15.487 40.1571 15.4596 43.5996 15.8789C44.1987 15.9518 44.4937 16.2044 44.5275 16.6341C44.5691 17.1576 44.1324 17.5195 43.5126 17.4375C41.5736 17.181 39.6282 17.1185 37.6789 17.2266C35.7452 17.3346 33.8335 17.5886 32.009 18.2891C31.5684 18.4583 31.137 18.6511 30.7744 18.9609C30.4222 19.2617 30.4235 19.4479 30.7822 19.7487C31.2383 20.1302 31.7829 20.3503 32.3365 20.5378C34.6263 21.3112 36.9953 21.5208 39.393 21.5261C41.74 21.5313 44.0636 21.3425 46.3196 20.6367C46.955 20.4375 47.5814 20.2031 48.1155 19.7891C48.5301 19.4688 48.534 19.2695 48.1298 18.944C47.5229 18.4557 46.8004 18.2083 46.0662 17.9935C45.7413 17.8984 45.4554 17.7552 45.3436 17.4063C45.1825 16.9063 45.5827 16.3242 46.0999 16.4271C47.4697 16.7005 48.7627 17.1706 49.6646 18.3359C49.8102 18.5234 49.8881 18.763 49.9973 18.9779C49.9999 25.3255 49.9999 31.6732 49.9999 38.0208ZM48.4079 21.599C42.4443 23.6524 36.4911 23.6198 30.5301 21.6042C30.4365 22.5912 30.5314 22.7708 31.4801 23.2292C32.3027 23.6263 33.1747 23.8776 34.0662 24.0599C37.1656 24.6966 40.2884 24.7149 43.4138 24.319C44.8472 24.138 46.2611 23.8359 47.5684 23.1745C48.4417 22.7305 48.5405 22.5169 48.4079 21.599ZM48.4027 24.6445C42.4391 26.6901 36.4846 26.6771 30.5262 24.6354C30.4534 25.6784 30.5236 25.8073 31.5061 26.2787C32.3001 26.6602 33.1422 26.9037 34.0012 27.0807C37.1513 27.7331 40.3222 27.75 43.4983 27.3399C44.9161 27.1563 46.3144 26.8503 47.6035 26.1927C48.4417 25.7643 48.5444 25.53 48.4027 24.6445Z" fill="#3190D2"/>
<path d="M0.0974121 29.3294C0.307938 28.2982 0.404105 27.2474 0.67571 26.2279C1.94926 21.4609 4.18968 17.2578 7.82451 13.8633C8.50287 13.2292 9.24881 12.6823 10.0324 12.1836C10.7277 11.7422 10.8187 11.332 10.3859 10.6445C9.40735 9.08984 8.45609 7.51953 7.75303 5.81511C7.52301 5.25781 7.34108 4.6862 7.24231 4.08984C7.04218 2.89063 7.78812 1.97266 9.00449 2.05078C10.0779 2.11979 11.1591 2.16927 12.1767 2.50521C14.5652 3.29557 16.9304 3.19531 19.3151 2.51953C20.317 2.23568 21.3463 2.09636 22.3898 2.06771C23.4567 2.03776 24.0857 2.72526 23.9467 3.79818C23.8635 4.44662 23.6595 5.0638 23.4177 5.66927C22.7719 7.29037 21.9207 8.80469 21.0448 10.3073C20.4132 11.3919 20.4561 11.5794 21.4749 12.2747C24.3339 14.2279 26.573 16.737 28.1806 19.8099C28.2261 19.8958 28.278 19.9805 28.3118 20.0703C28.4639 20.4727 28.3105 20.8893 27.9506 21.0703C27.5919 21.2513 27.1565 21.1354 26.9343 20.7656C26.5899 20.1953 26.2897 19.599 25.9311 19.0378C24.5003 16.8021 22.6731 14.9518 20.4691 13.4779C19.4061 12.7669 19.137 12.2982 19.0539 11.0352C18.9044 10.8984 18.7173 10.9609 18.5471 10.9596C17.0201 10.9544 15.4931 10.9609 13.9662 10.9544C13.4048 10.9518 13.0786 10.6771 13.0526 10.2175C13.024 9.71224 13.3645 9.39844 13.9701 9.39584C15.7244 9.39063 17.4788 9.38412 19.2332 9.40235C19.6153 9.40625 19.8388 9.3086 20.0324 8.95313C20.8161 7.51172 21.6231 6.08203 22.1728 4.52734C22.269 4.25391 22.356 3.97787 22.3703 3.64193C21.4009 3.64063 20.4756 3.8099 19.5737 4.0638C16.9772 4.79297 14.3976 4.86719 11.8063 4.02865C10.8472 3.71875 9.844 3.61328 8.79007 3.63542C8.74978 4.14583 8.93822 4.57813 9.10586 5.00521C9.73874 6.61589 10.6211 8.09636 11.5464 9.54948C11.9558 10.1927 12.317 10.8372 12.1806 11.6185C12.3664 11.7734 12.5523 11.7148 12.7238 11.7161C14.2014 11.7214 15.6803 11.7188 17.1578 11.7201C17.3034 11.7201 17.4515 11.7161 17.5958 11.7292C18.0415 11.7708 18.3274 12.069 18.3326 12.4831C18.3378 12.8971 18.0636 13.2201 17.6192 13.2643C17.2813 13.2982 16.9382 13.2813 16.5964 13.2813C14.9239 13.2826 13.2501 13.2852 11.5776 13.2786C11.3242 13.2773 11.115 13.3411 10.8979 13.4805C7.41645 15.7161 5.18253 18.9609 3.52691 22.6589C2.48987 24.974 1.76863 27.3919 1.67896 29.9427C1.51262 34.6393 3.61788 38.0599 7.70235 40.2734C10.2625 41.6602 13.05 42.1159 15.9298 42.1107C16.1078 42.1107 16.2871 42.0977 16.4652 42.1029C16.9772 42.1159 17.3086 42.3971 17.3333 42.8346C17.358 43.2747 17.0149 43.6315 16.4938 43.6589C16.0246 43.6836 15.5516 43.6849 15.0812 43.6667C11.7959 43.5443 8.68351 42.806 5.89988 40.9805C2.62113 38.8281 0.628926 35.8451 0.174085 31.8971C0.164988 31.8203 0.123403 31.7474 0.0974121 31.6732C0.0974121 30.8919 0.0974121 30.1107 0.0974121 29.3294Z" fill="#3190D2"/>
<path d="M17.4905 37.7096C17.5399 35.1601 18.4925 32.7591 20.4288 30.7643C20.8121 30.3685 21.2527 30.3372 21.5919 30.6523C21.9272 30.9648 21.9181 31.418 21.5659 31.8203C21.4905 31.9062 21.4099 31.9857 21.3333 32.0703C18.4366 35.2708 18.278 40.0299 20.9564 43.3945C23.1474 46.1458 26.8109 47.3021 30.1949 46.3099C33.5542 45.3255 36.0311 42.3906 36.3651 38.8958C36.6939 35.4596 35.4294 32.6732 32.5873 30.75C29.7608 28.8372 26.7368 28.7383 23.6724 30.2591C23.5854 30.3021 23.5035 30.3555 23.4151 30.3971C22.9577 30.6146 22.5379 30.5013 22.3222 30.1055C22.1078 29.7122 22.239 29.2825 22.6744 29.0312C23.8115 28.3724 25.0383 27.9583 26.3365 27.7825C31.5191 27.0794 36.3456 30.3489 37.6478 35.4349C39.1565 41.3242 35.1669 47.2708 29.1539 48.0963C22.9603 48.9453 17.4749 44.1667 17.4905 37.7096Z" fill="#3190D2"/>
<path d="M28.3691 42.6315C28.3691 43.1224 28.3782 43.5768 28.3665 44.03C28.3548 44.5404 28.0572 44.8568 27.6075 44.8646C27.1566 44.8711 26.8356 44.5599 26.8161 44.0573C26.7979 43.5885 26.8122 43.1198 26.8122 42.6406C26.5653 42.6068 26.3587 42.5872 26.1559 42.5482C24.9149 42.3125 24.0494 41.3724 23.9142 40.1172C23.8557 39.5755 24.1338 39.1641 24.5965 39.1068C25.0422 39.0521 25.3723 39.3503 25.4581 39.8906C25.5841 40.6719 25.987 41.0286 26.7719 41.0391C27.3398 41.0469 27.909 41.0495 28.4769 41.0378C29.2151 41.0221 29.7232 40.5417 29.7232 39.8802C29.7232 39.2214 29.2151 38.7409 28.4769 38.7253C27.8596 38.7122 27.2424 38.7331 26.6264 38.7161C25.1618 38.6758 24.013 37.5495 23.9714 36.1315C23.9285 34.6406 24.9578 33.4648 26.4353 33.3164C26.5458 33.3047 26.655 33.2865 26.8109 33.2656C26.8109 32.8112 26.8057 32.3763 26.8122 31.9414C26.8213 31.3776 27.1358 31.0143 27.5984 31.0156C28.0637 31.0182 28.3626 31.375 28.3691 31.9479C28.3743 32.3698 28.3704 32.793 28.3704 33.1888C28.5094 33.3411 28.6654 33.3021 28.8057 33.3151C30.1104 33.4336 31.1423 34.444 31.2748 35.737C31.3346 36.3151 31.0929 36.7018 30.6303 36.7695C30.1286 36.8425 29.8103 36.5508 29.7219 35.9388C29.6257 35.2721 29.2255 34.8932 28.5471 34.8724C27.9142 34.8529 27.28 34.8516 26.6472 34.8737C25.961 34.8984 25.5101 35.3737 25.514 36.0208C25.5179 36.6641 25.9805 37.1341 26.6641 37.1536C27.2475 37.1706 27.8336 37.1563 28.4171 37.1602C30.0143 37.1706 31.219 38.2617 31.28 39.7539C31.3437 41.2826 30.2404 42.4635 28.6212 42.6016C28.5588 42.6068 28.4951 42.6172 28.3691 42.6315Z" fill="#3190D2"/>
</g>
<defs>
<clipPath id="clip0_3_470">
<rect width="50" height="50" fill="white"/>
</clipPath>
</defs>
</svg>
