<svg width="15" height="15" viewBox="0 0 15 15" fill="none" xmlns="http://www.w3.org/2000/svg">
<g clip-path="url(#clip0_242_123)">
<path d="M5.8625 4.00623C4.44375 4.00623 3.03125 4.00623 1.6125 4.00623C0.68125 3.99998 0 3.36873 0 2.50623C0 1.64373 0.675 1.00623 1.60625 1.00623C4.46875 1.00623 7.33125 1.00623 10.1938 1.00623C10.3938 1.00623 10.5313 0.956226 10.675 0.799976C11.65 -0.237524 13.25 -0.268774 14.25 0.718726C15.2437 1.69998 15.25 3.29373 14.2563 4.27498C13.2563 5.26873 11.6562 5.23748 10.6812 4.19998C10.5375 4.04998 10.4 3.98748 10.2 3.99373C8.75625 4.00623 7.30625 4.00623 5.8625 4.00623ZM10.0312 2.04373C9.925 1.98123 9.81875 2.00623 9.71875 2.00623C7.04375 2.00623 4.36875 2.00623 1.6875 2.00623C1.59375 2.00623 1.5 1.99998 1.40625 2.01873C1.19375 2.06248 1.05625 2.19998 1.0125 2.41248C0.96875 2.61248 1.05 2.78123 1.20625 2.90623C1.33125 2.99998 1.475 3.00623 1.61875 3.00623C4.3375 3.00623 7.05625 3.00623 9.775 3.00623C9.85625 3.00623 9.94375 3.02498 10.025 2.96873C9.99375 2.65623 9.9875 2.34998 10.0312 2.04373ZM12.5125 1.00623C11.6937 0.999976 11.0188 1.66248 11.0063 2.48123C10.9938 3.31248 11.6687 3.99998 12.4937 4.00623C13.325 4.00623 14 3.32498 14 2.49998C13.9937 1.68123 13.325 1.01248 12.5125 1.00623Z" fill="#3190D2"/>
<path d="M9.15645 9.0062C7.7002 9.0062 6.24395 9.01245 4.78145 8.99995C4.5877 8.99995 4.4627 9.0562 4.3252 9.19995C3.3502 10.2437 1.75645 10.2812 0.750197 9.2937C-0.262303 8.3062 -0.256053 6.69995 0.750197 5.71245C1.76895 4.7312 3.3627 4.7687 4.3377 5.81245C4.4752 5.9562 4.6002 6.0062 4.79395 6.0062C7.6752 5.99995 10.5627 5.99995 13.4439 6.0062C14.5189 6.0062 15.2439 6.96245 14.9377 7.9562C14.7439 8.58745 14.1689 9.0062 13.4689 9.0062C12.0314 9.0062 10.5939 9.0062 9.15645 9.0062ZM4.96895 7.98745C5.06895 7.9937 5.1627 7.99995 5.25645 7.99995C7.95645 7.99995 10.6502 7.99995 13.3502 7.99995C13.4314 7.99995 13.5189 8.0062 13.6002 7.98745C13.8127 7.9437 13.9502 7.8062 13.9939 7.5937C14.0377 7.37495 13.9502 7.2062 13.7689 7.0812C13.6439 6.9937 13.4939 6.99995 13.3502 6.99995C10.6627 6.99995 7.9752 6.99995 5.2877 6.99995C5.1877 6.99995 5.08145 6.97495 4.9752 7.03745C5.0127 7.34995 5.0127 7.6562 4.96895 7.98745ZM4.0002 7.4937C4.0002 6.67495 3.3252 6.0062 2.5127 5.99995C1.68145 5.99995 1.0002 6.6812 1.00645 7.51245C1.00645 8.3312 1.68145 8.99995 2.49395 9.0062C3.3252 9.0062 4.0002 8.32495 4.0002 7.4937Z" fill="#3190D2"/>
<path d="M5.88151 11C7.30651 11 8.73151 10.9937 10.1628 11.0062C10.3815 11.0062 10.544 10.9562 10.7003 10.7875C11.5065 9.93124 12.7565 9.75624 13.7565 10.3375C14.7378 10.9062 15.2128 12.0687 14.919 13.1562C14.619 14.2687 13.6003 15.0312 12.4315 15C11.7315 14.9812 11.1378 14.7062 10.669 14.1937C10.5378 14.0437 10.4003 14 10.2128 14C7.33151 14.0062 4.44401 14.0062 1.56276 14C0.500255 14 -0.218495 13.0687 0.0627554 12.0812C0.250255 11.4312 0.825255 11.0062 1.53776 11C2.98151 11 4.43151 11 5.88151 11ZM10.0315 12.0437C9.93776 11.9875 9.84401 12.0062 9.75026 12.0062C7.05026 12.0062 4.35651 12.0062 1.65651 12.0062C1.58151 12.0062 1.50651 12 1.43776 12.0125C1.16901 12.0625 1.00651 12.2312 1.00651 12.5062C1.00651 12.7812 1.17526 12.9437 1.43776 13C1.50651 13.0125 1.58151 13.0062 1.65651 13.0062C4.35651 13.0062 7.05026 13.0062 9.75026 13.0062C9.84401 13.0062 9.93776 13.0312 10.0378 12.9625C9.98151 12.6562 10.0003 12.35 10.0315 12.0437ZM14.0003 12.5062C14.0003 11.6875 13.3378 11.0125 12.519 11.0062C11.6878 11 11.0065 11.675 11.0065 12.5C11.0065 13.3187 11.6753 13.9937 12.4878 14C13.3128 14.0062 14.0003 13.3312 14.0003 12.5062Z" fill="#3190D2"/>
</g>
<defs>
<clipPath id="clip0_242_123">
<rect width="15.0063" height="15" fill="white"/>
</clipPath>
</defs>
</svg>
