<svg xmlns="http://www.w3.org/2000/svg" xmlns:xlink="http://www.w3.org/1999/xlink" version="1.1" id="Layer_1" x="0px" y="0px" style="enable-background:new 0 0 720 720;" xml:space="preserve" viewBox="64.4 270.2 598.6 179.6">
<style type="text/css">
	.st0{fill-rule:evenodd;clip-rule:evenodd;fill:#FFFFFF;}
	.st1{fill:url(#SVGID_1_);}
	.st2{fill:none;stroke:url(#SVGID_2_);stroke-width:15;stroke-miterlimit:10;}
	.st3{fill:#318232;}
	.st4{fill:#FFFFFF;}
	.st5{font-family:'Poppins-ExtraBold';}
	.st6{font-size:44.0072px;}
	.st7{font-size:47.8339px;}
	.st8{fill:#333333;}
</style>
<g>
	<linearGradient id="SVGID_1_" gradientUnits="userSpaceOnUse" x1="64.4368" y1="360" x2="228.3007" y2="360">
		<stop offset="0" style="stop-color:#2B7F32"/>
		<stop offset="1" style="stop-color:#6C9D31"/>
	</linearGradient>
	<polygon class="st1" points="183.3,270.2 228.3,270.2 136.9,449.8 64.4,401.5 86.9,373.3 120.3,394.2  "/>
	<linearGradient id="SVGID_2_" gradientUnits="userSpaceOnUse" x1="161.7644" y1="360.506" x2="663.0632" y2="360.506">
		<stop offset="0" style="stop-color:#2B7F32"/>
		<stop offset="1" style="stop-color:#6C9D31"/>
	</linearGradient>
	<path class="st2" d="M244.3,278.9H574c44.9,0,81.5,36.7,81.5,81.6v0c0,44.9-36.7,81.6-81.5,81.6H161.8"/>
	<polygon class="st3" points="248.3,271.4 240.8,271.4 232.4,286.5 251.6,286.5 251.6,271.4  "/>
	<polygon class="st3" points="169.4,434.6 160.1,434.6 152.3,449.6 169.4,449.6  "/>
	<text transform="matrix(1 0 0 1 243.1401 345.985)" class="st4 st5 st6">DMCA.com</text>
	<text transform="matrix(1 0 0 1 207.4956 404.8365)" class="st4 st5 st7">COMPLIANT</text>
	<path class="st8" d="M565.9,310.9c-27.5,0-49.8,22.3-49.8,49.8s22.3,49.8,49.8,49.8s49.8-22.3,49.8-49.8S593.4,310.9,565.9,310.9z    M565.9,400.8c-22.2,0-40.2-18-40.2-40.2c0-22.2,18-40.2,40.2-40.2c22.2,0,40.2,18,40.2,40.2C606.1,382.9,588.1,400.8,565.9,400.8z    M587.5,380.5c-1.9,2-9.1,8.3-20.9,8.3c-16.6,0-28.2-12.3-28.2-28.4c0-15.9,12.1-28,28.1-28c11.2,0,17.8,5.3,19.6,7   c0.9,0.8,1,2.1,0.4,3.1l-3.6,5.6c-0.8,1.2-2.4,1.5-3.5,0.6c-1.7-1.4-6.4-4.5-12.4-4.5c-9.7,0-15.6,7.1-15.6,16.1   c0,8.4,5.4,16.8,15.7,16.8c6.6,0,11.4-3.8,13.2-5.5c1.1-1,2.7-0.8,3.6,0.3l4,5.5C588.4,378.4,588.3,379.7,587.5,380.5L587.5,380.5z   "/>
</g>
</svg>