<svg width="50" height="50" viewBox="0 0 50 50" fill="none" xmlns="http://www.w3.org/2000/svg">
<path d="M21.9401 22.0052C21.9401 20.7513 21.9388 19.5651 21.9401 18.3789C21.9414 17.5729 22.1888 17.319 22.9765 17.3177C24.375 17.3151 25.7747 17.3151 27.1731 17.3177C27.9309 17.319 28.1862 17.5807 28.1888 18.3516C28.1914 19.5521 28.1888 20.7513 28.1888 22.0039C29.3802 22.0039 30.5299 22.0039 31.6796 22.0039C32.6757 22.0039 32.8763 22.2044 32.8763 23.1992C32.8763 24.5495 32.8789 25.8997 32.875 27.25C32.8737 27.9844 32.608 28.25 31.8763 28.2526C30.6731 28.2552 29.47 28.2539 28.2773 28.2539C28.1302 28.4063 28.1914 28.5781 28.1914 28.7318C28.1849 29.806 28.1914 30.8789 28.1875 31.9531C28.1849 32.6602 27.9153 32.9375 27.2226 32.9401C25.7747 32.944 24.3268 32.9453 22.8789 32.9401C22.2187 32.9375 21.9414 32.6524 21.9388 31.9779C21.9349 30.7591 21.9375 29.5417 21.9375 28.3386C21.7708 28.2031 21.6015 28.2578 21.4466 28.2565C20.3398 28.2513 19.2343 28.2604 18.1276 28.25C17.5507 28.2448 17.2565 27.9505 17.2526 27.3724C17.2448 25.8763 17.2448 24.3789 17.2526 22.8828C17.2565 22.2891 17.5586 22.0078 18.1757 22.0052C19.4127 22.0013 20.6458 22.0052 21.9401 22.0052ZM23.5026 18.8997C23.5026 20.1068 23.5026 21.2604 23.5026 22.4141C23.5026 23.3477 23.2851 23.5677 22.3619 23.5677C21.1953 23.5677 20.0299 23.5677 18.8437 23.5677C18.8437 24.6276 18.8437 25.6406 18.8437 26.6927C19.0299 26.6927 19.1901 26.6927 19.3502 26.6927C20.4231 26.6927 21.4961 26.6888 22.569 26.694C23.2096 26.6979 23.4948 26.9792 23.5013 27.6133C23.5091 28.3281 23.5026 29.0443 23.5026 29.7591C23.5026 30.2891 23.5026 30.819 23.5026 31.3425C24.5807 31.3425 25.5937 31.3425 26.6276 31.3425C26.6276 30.0873 26.6237 28.8685 26.6289 27.6498C26.6315 26.9766 26.9075 26.6966 27.5729 26.6927C28.6627 26.6875 29.7513 26.694 30.8411 26.6875C30.9948 26.6862 31.1666 26.75 31.2877 26.6276C31.2877 25.6068 31.2877 24.6055 31.2877 23.5651C31.1002 23.5651 30.9414 23.5651 30.7825 23.5651C29.7096 23.5651 28.6367 23.569 27.5638 23.5638C26.9218 23.5599 26.6393 23.2787 26.6315 22.6445C26.625 22.0912 26.6302 21.5391 26.6302 20.9857C26.6302 20.293 26.6302 19.6003 26.6302 18.8971C25.5625 18.8998 24.5599 18.8997 23.5026 18.8997Z" fill="#3190D2"/>
<path d="M23.6406 47.0052C22.3294 46.9544 20.7161 47.0912 19.1093 46.9349C17.8645 46.8138 16.6966 46.431 15.5768 45.888C13.8385 45.043 12.0989 44.1979 10.3593 43.3555C8.90101 42.6498 7.36064 42.3047 5.73955 42.3164C4.68226 42.3242 3.62366 42.3216 2.56637 42.3164C1.98695 42.3138 1.63929 42.0196 1.63278 41.5469C1.62627 41.0716 1.97653 40.7474 2.54684 40.7604C4.3333 40.7982 6.12627 40.6263 7.90491 40.9362C9.03382 41.1328 10.1054 41.4961 11.1354 41.9961C12.8593 42.8334 14.5872 43.6641 16.3112 44.5052C17.5885 45.1289 18.9323 45.4505 20.3567 45.4466C22.8619 45.4388 25.3685 45.4427 27.8737 45.4466C28.1224 45.4466 28.3528 45.4102 28.5833 45.3138C30.608 44.4727 32.6315 43.6276 34.6666 42.8099C35.052 42.655 35.1393 42.4466 35.0729 42.0703C34.9414 41.319 34.5273 40.8789 33.776 40.7513C32.7981 40.586 31.8711 40.8607 30.9466 41.1107C30.4453 41.2461 29.9544 41.4193 29.4583 41.5755C28.8554 41.7656 28.4414 41.6198 28.2825 41.1576C28.1198 40.6849 28.3515 40.2969 28.9401 40.1029C30.2044 39.6836 31.4713 39.267 32.8125 39.1576C33.4531 39.1055 34.0794 39.1563 34.6862 39.3789C36.1289 39.905 36.9466 41.5026 36.5351 42.9805C36.3815 43.5326 36.0612 43.9245 35.5208 44.1459C33.2955 45.056 31.0742 45.9753 28.8528 46.8946C28.6211 46.9909 28.3828 47.0078 28.1367 47.0078C26.7369 47.0039 25.3372 47.0052 23.6406 47.0052Z" fill="#3190D2"/>
<path d="M26.4556 3.25522C27.7824 3.3073 29.41 3.16798 31.0337 3.32683C32.2108 3.44272 33.3254 3.78256 34.3879 4.29558C36.2616 5.19793 38.1275 6.11589 40.0064 7.00782C41.3632 7.65235 42.8046 7.94532 44.3072 7.94402C45.3814 7.94272 46.4556 7.94142 47.5285 7.94532C48.1418 7.94793 48.4999 8.2422 48.4973 8.72918C48.4947 9.21485 48.1353 9.51694 47.5207 9.50392C45.7668 9.46616 44.0064 9.63152 42.2603 9.33204C41.1145 9.13543 40.0272 8.76694 38.983 8.26043C37.2147 7.40105 35.4465 6.54298 33.6757 5.68881C32.4556 5.10027 31.1666 4.81511 29.8098 4.81772C27.2877 4.82293 24.7655 4.82162 22.2434 4.81642C21.9934 4.81642 21.7655 4.85938 21.535 4.95574C19.5246 5.79037 17.5181 6.63282 15.4973 7.44011C15.0975 7.60027 14.9791 7.79688 15.0559 8.20444C15.1965 8.95183 15.6106 9.38673 16.3645 9.51303C17.3267 9.67449 18.2382 9.40365 19.1483 9.16407C19.6822 9.02345 20.2004 8.82944 20.7291 8.66668C21.289 8.4935 21.7056 8.66407 21.8502 9.11589C21.9986 9.57813 21.7772 9.95964 21.2226 10.1471C19.914 10.5912 18.5975 11.0104 17.2069 11.1185C15.6015 11.2448 14.3111 10.5586 13.7499 9.27605C13.4869 8.67319 13.4413 8.04428 13.5637 7.41017C13.6809 6.80079 14.0207 6.35938 14.6236 6.11459C16.8202 5.22267 19.0103 4.31251 21.2017 3.40496C21.4478 3.30339 21.6926 3.25392 21.9582 3.25522C23.358 3.25782 24.7577 3.25522 26.4556 3.25522Z" fill="#3190D2"/>
<path d="M24.983 8.80862C24.7421 9.85419 25.0455 10.6836 25.7499 11.3841C26.2278 11.8607 26.8059 12.1927 27.4257 12.4505C28.9687 13.0951 30.5103 13.7422 32.0585 14.375C32.3319 14.487 32.5285 14.6446 32.6535 14.9089C33.4986 16.6992 34.9817 17.5977 36.8775 17.9037C38.2252 18.1224 39.5325 17.9284 40.8072 17.4675C41.0377 17.3841 41.2629 17.3125 41.5155 17.3125C43.5325 17.3177 45.5494 17.319 47.5663 17.3125C47.9817 17.3112 48.3033 17.4414 48.453 17.8516C48.6496 18.3893 48.2434 18.8737 47.5806 18.875C45.7095 18.8815 43.8397 18.8802 41.9687 18.8737C41.6718 18.8724 41.3957 18.9258 41.1132 19.0183C38.3111 19.9362 35.6366 19.8021 33.1861 18C32.483 17.4831 31.9205 16.8308 31.4908 16.0716C31.3632 15.8464 31.1965 15.7084 30.9582 15.6107C29.5168 15.017 28.0754 14.4232 26.6457 13.8021C25.6184 13.3555 24.7095 12.7305 24.0611 11.7917C23.0976 10.3985 23.1431 8.92711 23.7825 7.43232C23.9817 6.96747 24.384 6.86461 24.9387 7.09377C26.7095 7.82424 28.4778 8.56252 30.2473 9.2969C31.3567 9.75784 32.4661 10.2188 33.578 10.6758C33.9569 10.8308 34.22 11.0729 34.2004 11.5091C34.1744 12.0886 33.6184 12.3841 33.0077 12.1328C31.19 11.3867 29.3775 10.6289 27.5624 9.87633C26.7226 9.53127 25.884 9.18232 24.983 8.80862Z" fill="#3190D2"/>
<path d="M25.1471 41.4349C25.3932 40.4219 25.0924 39.5938 24.3919 38.8893C23.8671 38.362 23.22 38.0182 22.5416 37.7344C21.0585 37.1133 19.5742 36.4948 18.0859 35.8893C17.8333 35.7865 17.6262 35.6615 17.5065 35.4089C16.5078 33.2904 14.7187 32.4206 12.4934 32.2761C11.4427 32.207 10.4179 32.3893 9.43224 32.7552C9.07547 32.888 8.7213 32.9518 8.33979 32.9492C6.43614 32.9401 4.5338 32.9466 2.63015 32.944C1.98692 32.9427 1.61583 32.6406 1.63146 32.1406C1.64578 31.6576 1.99995 31.3828 2.62625 31.3828C4.48041 31.3802 6.33588 31.3789 8.19005 31.3854C8.4713 31.3867 8.73172 31.336 8.99734 31.2461C11.4322 30.4193 13.8203 30.4362 16.1171 31.7005C17.164 32.2761 17.9999 33.0912 18.6015 34.125C18.7695 34.4141 18.9882 34.5755 19.2851 34.6966C20.6236 35.2435 21.957 35.7982 23.289 36.3607C24.3216 36.7969 25.2525 37.3867 25.9414 38.2904C27.0195 39.7031 27.0195 41.2331 26.3567 42.8073C26.1575 43.2826 25.7539 43.3998 25.2109 43.1758C23.1393 42.3203 21.0716 41.457 19.0026 40.5951C18.2083 40.2643 17.4127 39.9336 16.6184 39.6016C16.0221 39.3529 15.7929 38.944 15.9908 38.4857C16.1796 38.0482 16.6275 37.9206 17.1953 38.155C19.7617 39.2162 22.3255 40.2826 24.8906 41.3451C24.9661 41.375 25.0429 41.3984 25.1471 41.4349Z" fill="#3190D2"/>
<path d="M41.4648 25.1927C41.4284 28.7253 40.3971 31.9336 38.319 34.7995C38.1419 35.043 37.9544 35.2591 37.6289 35.2852C37.3268 35.3099 37.0859 35.194 36.918 34.9466C36.737 34.6797 36.7239 34.3919 36.8945 34.1198C37.0833 33.8164 37.3047 33.5339 37.4974 33.2331C39.625 29.9089 40.3385 26.3021 39.651 22.418C39.6315 22.306 39.612 22.1927 39.6042 22.0807C39.5677 21.5742 39.8255 21.2253 40.2721 21.168C40.6784 21.1159 41.0417 21.3841 41.1367 21.8529C41.3268 22.7943 41.4401 23.7448 41.4622 24.7057C41.4687 24.8672 41.4648 25.03 41.4648 25.1927Z" fill="#3190D2"/>
<path d="M8.65618 25.0417C8.70435 21.5274 9.72909 18.3333 11.7981 15.4844C12.1419 15.0117 12.5221 14.8854 12.914 15.1003C13.3606 15.3464 13.4465 15.8646 13.0911 16.3542C12.1002 17.7201 11.3411 19.2005 10.8567 20.8177C10.164 23.1315 10.0325 25.4766 10.4791 27.8529C10.4817 27.8685 10.4856 27.8841 10.4895 27.9011C10.6262 28.6315 10.4309 29.0573 9.9218 29.1419C9.39185 29.2305 9.08065 28.918 8.94914 28.1914C8.75904 27.1498 8.65357 26.1016 8.65618 25.0417Z" fill="#3190D2"/>
<path d="M15.0533 12.5807C15.4804 12.5872 15.8125 12.9297 15.8099 13.362C15.8073 13.8047 15.3841 14.2331 14.9427 14.2396C14.5052 14.2461 14.1315 13.8672 14.151 13.4362C14.1692 13.0065 14.6263 12.5742 15.0533 12.5807Z" fill="#3190D2"/>
<path d="M36.1002 36.8594C36.1028 37.2695 35.6705 37.6784 35.2382 37.6758C34.8189 37.6732 34.4621 37.3203 34.4608 36.9063C34.4582 36.4766 34.8632 36.0938 35.3202 36.0925C35.733 36.0938 36.0975 36.4518 36.1002 36.8594Z" fill="#3190D2"/>
</svg>
