<?xml version="1.0" encoding="utf-8"?>
<!-- Generator: Adobe Illustrator 23.0.1, SVG Export Plug-In . SVG Version: 6.00 Build 0)  -->
<svg version="1.1" id="Layer_1" xmlns="http://www.w3.org/2000/svg" xmlns:xlink="http://www.w3.org/1999/xlink" x="0px" y="0px"
	 viewBox="0 0 407.68 338.11" style="enable-background:new 0 0 407.68 338.11;" xml:space="preserve">
<style type="text/css">
	.st0{fill:#165075;}
</style>
<g>
	<path class="st0" d="M31.26,136.15c0,7.66,0,14.46,0,21.26c0,16.99,0.03,33.98-0.04,50.96c-0.01,2.47,0.58,4.01,2.89,5.49
		c11.46,7.33,12.76,22.11,2.76,31.49c-2.06,1.93-2.2,3.41-1.38,5.81c3.8,11.17,7.57,22.34,11.1,33.6
		c2.94,9.38,0.76,17.76-6.29,24.55c-6.82,6.57-15.14,8.12-24.02,5.3c-11.96-3.79-18.89-16.5-15.35-28.62
		c3.39-11.6,7.4-23.02,11.31-34.47c0.92-2.7,0.81-4.35-1.53-6.51c-9.59-8.83-8.31-23.84,2.64-30.9c2.61-1.69,3.17-3.43,3.17-6.19
		c-0.07-30.34,0.07-60.67-0.1-91.01c-0.07-11.82,4.73-20.08,15.32-25.6C87.72,62.14,143.62,32.79,199.51,3.41
		c8.47-4.45,16.62-4.59,25.12-0.12c56.42,29.63,112.89,59.15,169.32,88.75c8.58,4.5,13.61,11.51,13.73,21.4
		c0.13,10.06-4.68,17.36-13.48,21.99c-56.68,29.77-113.38,59.51-170.09,89.24c-8.3,4.35-16.47,3.9-24.74-0.45
		c-54.41-28.61-108.86-57.13-163.31-85.67C34.75,137.84,33.4,137.21,31.26,136.15z"/>
	<path class="st0" d="M357.7,171.01c0,21.48,0,42.24,0,63.01c0,5-0.11,10.01,0.02,15.01c0.3,11.25-4.95,18.89-14.78,23.98
		c-19.89,10.29-39.68,20.77-59.51,31.17c-19.16,10.05-38.4,19.95-57.46,30.2c-9.38,5.04-18.18,4.95-27.6-0.05
		c-38.92-20.63-77.94-41.06-117.01-61.39c-10.26-5.34-14.97-13.45-14.9-24.89c0.14-23.96,0.04-47.91,0.04-71.87
		c0-1.47,0-2.94,0-5.14c2.45,1.19,4.33,2.05,6.16,3c39.94,20.92,79.91,41.8,119.79,62.82c13.09,6.9,26.01,7.04,39.07,0.2
		c40.48-21.23,80.97-42.46,121.45-63.68C354.29,172.68,355.63,172.04,357.7,171.01z"/>
</g>
</svg>
