<svg width="41" height="40" viewBox="0 0 41 40" fill="none" xmlns="http://www.w3.org/2000/svg">
<g clip-path="url(#clip0_5_506)">
<path d="M14.8541 0C15.5728 0.125 16.2916 0.1875 16.9999 0.364583C21.3228 1.48958 24.5728 5.1875 25.1041 9.625C25.2395 10.75 25.2291 11.8854 25.1562 13.0208C25.0937 14.0417 24.4999 14.7708 23.552 15.1354C23.2395 15.2604 23.177 15.4062 23.1874 15.6979C23.2082 16.3854 23.1978 17.0729 23.1978 17.7708C23.1874 20.4375 21.5103 22.3438 18.8437 22.6875C18.9999 22.9688 19.2812 23.0417 19.5416 23.1146C21.177 23.5729 22.8228 24.0312 24.4687 24.4583C25.7916 24.8021 26.8853 25.4688 27.6562 26.6146C27.7707 26.7917 27.9166 26.8021 28.0832 26.7917C29.1249 26.7917 30.1666 26.7917 31.2082 26.7917C32.3332 26.7917 33.0103 27.4583 33.0207 28.5833C33.0312 31.1042 33.0312 33.6354 33.0207 36.1562C33.0207 36.4583 33.0832 36.6042 33.4062 36.6979C34.1249 36.9062 34.5728 37.5938 34.5624 38.3333C34.5416 39.0521 34.0624 39.6875 33.3749 39.9062C33.2812 39.9375 33.177 39.9688 33.0832 40C22.6353 40 12.1978 40 1.7499 40C1.6874 39.9792 1.63532 39.9375 1.57282 39.9271C0.63532 39.6667 0.0415699 38.9375 0.0311532 37.9688C0.0207366 35.1042 -9.6784e-05 32.2396 0.0311532 29.375C0.0519866 27.7604 0.76032 26.4479 2.02074 25.4375C2.82282 24.8021 3.78115 24.5625 4.72907 24.3021C6.14574 23.9167 7.5624 23.5208 8.97907 23.125C9.2499 23.0521 9.54157 22.9792 9.71865 22.6771C8.4999 22.5625 7.47907 22.0833 6.65615 21.2292C5.83324 20.375 5.41657 19.3229 5.33324 18.1458C5.2499 18.1354 5.20824 18.125 5.15615 18.125C3.86449 18.0833 3.33324 17.5417 3.33324 16.2292C3.33324 15.0938 3.32282 13.9687 3.33324 12.8333C3.34365 11.6979 3.29157 10.5729 3.44782 9.4375C4.03115 5.01042 7.42699 1.28125 11.7812 0.302083C12.3853 0.166667 13.0103 0.125 13.6249 0C14.0207 0 14.4374 0 14.8541 0ZM15.3853 36.5625C20.8853 36.5625 26.3332 36.5625 31.802 36.5625C31.8124 36.4896 31.8332 36.4479 31.8332 36.3958C31.8332 33.7812 31.8437 31.1667 31.8332 28.5417C31.8332 28.1042 31.6562 27.9583 31.1874 27.9583C26.1353 27.9583 21.0832 27.9583 16.0312 27.9583C15.5416 27.9583 15.3853 28.1146 15.3853 28.6146C15.3853 29.5729 15.3853 30.5417 15.3853 31.5C15.3853 31.9479 15.1562 32.2292 14.7916 32.2292C14.427 32.2292 14.2187 31.9583 14.2082 31.5C14.2082 31.0729 14.2082 30.6458 14.2082 30.2188C13.8853 30.1979 13.6145 30.1771 13.3437 30.1562C12.2187 30.0729 11.1353 29.8021 10.1041 29.3542C8.21865 28.5417 6.6874 27.2917 5.52074 25.5938C5.41657 25.4479 5.33324 25.3229 5.11449 25.3958C4.65615 25.5417 4.1874 25.6354 3.72907 25.8021C2.2499 26.3333 1.1874 27.7604 1.17699 29.3125C1.15615 32.1771 1.16657 35.0417 1.17699 37.9062C1.17699 38.4792 1.4999 38.8021 2.08324 38.8021C2.86449 38.8125 3.64574 38.8021 4.42699 38.8021C4.48949 38.8021 4.5624 38.8021 4.63532 38.6979C4.63532 37.6979 4.6249 36.6562 4.63532 35.6146C4.63532 35.1979 4.88532 34.9271 5.22907 34.9271C5.57282 34.9271 5.80199 35.1875 5.80199 35.6146C5.8124 36.5208 5.80199 37.4375 5.80199 38.3438C5.80199 38.4792 5.76032 38.625 5.85407 38.7604C6.30199 38.8229 12.4062 38.8021 12.7082 38.7396C12.7187 38.7188 12.7291 38.6875 12.7291 38.6667C12.6145 37.5625 12.9791 36.9688 14.0207 36.625C14.2082 36.5625 14.2187 36.4583 14.2187 36.3125C14.2187 35.6875 14.2187 35.0625 14.2187 34.4375C14.2187 34.1042 14.3645 33.8854 14.6874 33.8125C15.0728 33.7292 15.3749 34 15.3853 34.4479C15.3957 35.1458 15.3853 35.8333 15.3853 36.5625ZM11.7916 8.32292C10.927 9.80208 10.5832 10.0938 8.97907 10.6354C8.79157 10.6979 8.79157 10.8125 8.79157 10.9688C8.80199 12.1875 8.8124 13.4167 8.83324 14.6354C8.84365 15.0729 8.94782 15.5 9.10407 15.9062C10.0416 15.9062 10.9478 15.8958 11.8645 15.9062C12.9791 15.9271 13.7395 16.8542 13.5207 17.9271C13.3749 18.6354 12.8957 19.0417 12.1562 19.2604C12.9062 19.6562 13.6145 20.0208 14.4374 19.9479C15.5937 19.8438 16.552 19.2604 17.4478 18.5625C18.7291 17.5625 19.5937 16.2812 19.6874 14.6146C19.7499 13.3646 19.7082 12.1146 19.7082 10.8646C19.7082 10.8333 19.6874 10.7917 19.6562 10.7292C18.7603 10.7292 17.8645 10.7188 16.9687 10.7292C15.0207 10.75 13.3957 10.0208 12.052 8.64583C11.9478 8.55208 11.8853 8.4375 11.7916 8.32292ZM21.9582 25C21.1145 24.7604 20.3124 24.5312 19.4895 24.3125C17.8124 23.8646 17.0728 22.9062 17.0624 21.1562C17.0624 20.8646 17.0624 20.5729 17.0624 20.1875C15.1562 21.3958 13.3124 21.3854 11.427 20.1875C11.427 20.7708 11.4478 21.2292 11.427 21.6771C11.3541 22.875 10.5832 23.8437 9.4374 24.2083C9.05199 24.3333 8.66657 24.4271 8.27074 24.5312C7.70824 24.6875 7.14574 24.8542 6.5624 25.0104C8.44782 27.8125 11.9478 29.1667 14.2187 28.9688C14.2187 28.8646 14.2187 28.7604 14.2187 28.6667C14.2291 27.4167 14.8645 26.7917 16.1249 26.7917C17.427 26.7917 18.7291 26.7917 20.0312 26.7917C20.1666 26.7917 20.3124 26.8229 20.4374 26.7083C20.9999 26.2083 21.5207 25.6667 21.9582 25ZM21.8437 9.51042C21.8228 9.38542 21.802 9.25 21.7707 9.125C20.7395 4.94792 16.4374 2.39583 12.2812 3.5C11.4791 3.70833 11.427 3.78125 11.4687 4.625C11.5937 7.13542 13.7707 9.39583 16.3332 9.53125C18.1249 9.625 19.9166 9.55208 21.7187 9.55208C21.7603 9.54167 21.802 9.52083 21.8437 9.51042ZM5.32282 14.0208C5.32282 13.0208 5.32282 12.0833 5.32282 11.1458C5.32282 10.6354 5.34365 10.125 5.4374 9.625C6.20824 5.22917 9.63532 2.23958 14.0937 2.07292C18.4166 1.91667 22.427 5.25 23.0624 9.53125C23.2603 10.8542 23.1562 12.1771 23.1874 13.5104C23.1874 13.6562 23.1457 13.8125 23.2291 13.9583C23.6874 13.7708 23.9895 13.3854 23.9895 12.8854C23.9999 11.8333 24.0624 10.7812 23.927 9.72917C23.1562 3.79167 17.3332 -0.104167 11.5728 1.58333C6.60407 3.04167 3.90615 7.44792 4.53115 13.0417C4.58324 13.4687 4.85407 13.7812 5.32282 14.0208ZM23.5624 38.8125C26.5416 38.8125 29.5207 38.8125 32.5103 38.8125C32.6353 38.8125 32.7707 38.8229 32.8957 38.8021C33.1666 38.75 33.3541 38.5938 33.3645 38.3021C33.3749 38 33.1978 37.8229 32.9062 37.7708C32.7916 37.75 32.677 37.75 32.552 37.75C26.5937 37.75 20.6249 37.75 14.6666 37.75C14.5416 37.75 14.4062 37.75 14.2812 37.7812C14.0207 37.8333 13.8749 38.0208 13.8749 38.2812C13.8749 38.5417 14.0207 38.7292 14.2812 38.7812C14.4166 38.8125 14.5624 38.8021 14.7082 38.8021C17.6457 38.8125 20.6041 38.8125 23.5624 38.8125ZM18.2395 21.4688C18.3332 21.4896 18.3645 21.5104 18.4062 21.5104C20.1666 21.5729 21.7707 20.2083 21.9687 18.4479C22.0624 17.5938 21.9999 16.7292 22.0103 15.875C22.0103 15.6979 22.0624 15.5104 21.9374 15.3229C21.6249 15.3229 21.302 15.3333 20.9791 15.3229C20.8124 15.3125 20.7499 15.4062 20.7291 15.5521C20.4062 17.0625 19.5728 18.2604 18.4374 19.2604C18.3332 19.3437 18.2499 19.4271 18.2499 19.5833C18.2395 20.2083 18.2395 20.8229 18.2395 21.4688ZM10.2812 4.32292C8.30199 5.59375 7.10407 7.28125 6.6249 9.54167C7.22907 9.54167 7.77074 9.5625 8.3124 9.54167C9.44782 9.5 10.4062 8.75 10.7291 7.66667C10.802 7.40625 10.927 7.125 10.8124 6.86458C10.4999 6.08333 10.302 5.27083 10.2812 4.32292ZM10.2707 21.4792C10.2707 20.9167 10.2707 20.375 10.2707 19.8333C10.2707 19.3021 10.2499 19.2708 9.72907 19.2812C8.95824 19.2812 8.36449 19.0104 8.01032 18.3021C7.96865 18.2188 7.94782 18.1354 7.82282 18.1354C7.38532 18.1354 6.94782 18.1354 6.52074 18.1354C6.61449 20.125 8.35407 21.6875 10.2707 21.4792ZM21.9895 10.7396C21.5937 10.7292 21.2499 10.6979 20.8957 10.7604C20.8957 11.8958 20.8957 13.0208 20.8957 14.1354C21.2707 14.1354 21.6249 14.1354 21.9895 14.1354C21.9895 13 21.9895 11.8854 21.9895 10.7396ZM6.52074 10.75C6.52074 11.9062 6.52074 13.0104 6.52074 14.1354C6.90615 14.1562 7.26032 14.1771 7.61449 14.125C7.61449 12.9896 7.61449 11.875 7.61449 10.75C7.22907 10.75 6.88532 10.75 6.52074 10.75ZM26.2291 26.7708C26.1874 26.6979 26.177 26.6667 26.1562 26.6562C25.3749 25.8333 24.3124 25.6354 23.2812 25.3646C23.2082 25.3438 23.1562 25.3542 23.1145 25.4167C22.7812 25.8542 22.4582 26.3021 22.1041 26.7708C23.4999 26.7708 24.8437 26.7708 26.2291 26.7708ZM10.7187 17.0729C10.3437 17.0729 9.96865 17.0625 9.59365 17.0729C9.23949 17.0833 9.01032 17.2812 9.03115 17.5833C9.05199 17.9062 9.2499 18.0833 9.5624 18.0938C10.3228 18.1042 11.0937 18.1042 11.8541 18.0938C12.1666 18.0833 12.3749 17.9167 12.3749 17.5833C12.3749 17.25 12.1666 17.0938 11.8541 17.0833C11.4687 17.0729 11.0937 17.0729 10.7187 17.0729ZM6.51032 16.9479C6.95824 16.9479 7.3749 16.9583 7.79157 16.9479C8.07282 16.9375 8.14574 16.7604 8.07282 16.5312C7.95824 16.1354 7.82282 15.75 7.70824 15.3542C7.3124 15.3542 6.91657 15.3542 6.51032 15.3542C6.51032 15.8958 6.51032 16.3958 6.51032 16.9479ZM4.48949 14.9479C4.48949 15.4062 4.48949 15.8333 4.48949 16.2708C4.48949 16.9271 4.60407 17.0208 5.30199 16.9167C5.30199 16.3646 5.30199 15.8229 5.30199 15.2812C5.04157 15.1771 4.80199 15.0729 4.48949 14.9479Z" fill="#3190D2"/>
<path d="M30.3228 0C30.3957 0.0520833 30.4582 0.104167 30.5311 0.166667C30.729 0.34375 30.7811 0.5625 30.6873 0.802083C30.604 1.02083 30.4373 1.16667 30.1873 1.17708C29.8123 1.1875 29.4373 1.17708 29.0519 1.1875C27.7915 1.20833 26.8853 2.11458 26.8748 3.36458C26.8644 4.44792 26.8644 5.52083 26.8748 6.60417C26.8853 7.63542 27.4373 8.375 28.4269 8.69792C29.2707 8.96875 29.604 9.41667 29.604 10.3021C29.604 10.6354 29.604 10.9792 29.604 11.3229C29.7707 11.3125 29.8019 11.1771 29.8644 11.0938C30.2603 10.5625 30.6561 10.0313 31.0311 9.47917C31.3748 8.98958 31.8332 8.76042 32.4269 8.77083C33.7811 8.78125 35.1353 8.77083 36.4894 8.77083C37.9686 8.77083 38.8332 7.89583 38.8436 6.41667C38.8436 5.41667 38.8436 4.41667 38.8436 3.40625C38.8332 2.11458 37.9269 1.19792 36.6248 1.1875C35.4373 1.17708 34.2603 1.17708 33.0728 1.1875C32.7186 1.1875 32.4061 1.14583 32.3019 0.760417C32.1978 0.375 32.4269 0.15625 32.7498 0C34.1873 0 35.6144 0 37.0519 0C37.1248 0.0729167 37.2186 0.0625 37.3019 0.0833333C38.479 0.333333 39.3123 1.01042 39.7811 2.11458C39.8853 2.36458 39.9478 2.63542 40.0207 2.88542C40.0207 4.29167 40.0207 5.69792 40.0207 7.10417C39.9582 7.30208 39.9061 7.5 39.8436 7.69792C39.4061 8.97917 38.2394 9.89583 36.8853 9.92708C35.4582 9.96875 34.0207 9.94792 32.5936 9.9375C32.2811 9.9375 32.0936 10.0312 31.9165 10.2812C31.3123 11.1458 30.6873 11.9896 30.0623 12.8438C29.7394 13.2813 29.4373 13.4167 29.0415 13.2917C28.6457 13.1667 28.4582 12.875 28.4582 12.3438C28.4582 11.6667 28.4478 10.9896 28.4582 10.3125C28.4582 10.0417 28.3853 9.89583 28.104 9.80208C26.5623 9.32292 25.7082 8.14583 25.6978 6.5625C25.6873 5.52083 25.6873 4.47917 25.6978 3.4375C25.7082 1.65625 26.7707 0.395833 28.5415 0.0625C28.5936 0.0520833 28.6353 0.0208333 28.6873 0C29.229 0 29.7707 0 30.3228 0Z" fill="#3190D2"/>
<path d="M32.854 3.11461C33.9165 3.11461 34.9894 3.11461 36.0519 3.11461C36.5102 3.11461 36.7811 3.33337 36.7706 3.69795C36.7706 4.05212 36.4894 4.28128 36.0415 4.28128C33.9061 4.28128 31.7811 4.28128 29.6456 4.28128C29.1665 4.28128 28.8956 4.0417 28.9061 3.6667C28.9165 3.31253 29.1769 3.11461 29.6456 3.11461C30.729 3.1042 31.7915 3.11461 32.854 3.11461Z" fill="#3190D2"/>
<path d="M32.854 5.6875C33.9165 5.6875 34.9895 5.6875 36.052 5.6875C36.5103 5.6875 36.7811 5.90625 36.7811 6.26042C36.7811 6.61458 36.4999 6.85417 36.0624 6.85417C33.9166 6.85417 31.7707 6.85417 29.6249 6.85417C29.177 6.85417 28.9061 6.61458 28.9165 6.25C28.927 5.90625 29.177 5.6875 29.6145 5.6875C30.6978 5.6875 31.7707 5.6875 32.854 5.6875Z" fill="#3190D2"/>
</g>
<defs>
<clipPath id="clip0_5_506">
<rect width="40.0104" height="40" fill="white"/>
</clipPath>
</defs>
</svg>
