<svg width="49" height="40" viewBox="0 0 49 40" fill="none" xmlns="http://www.w3.org/2000/svg">
<g clip-path="url(#clip0_5_512)">
<path d="M0 37.0616C0.132701 36.7962 0.236967 36.5119 0.398104 36.2749C0.862559 35.5735 1.52607 35.1848 2.37915 35.1659C2.95735 35.1564 3.54502 35.1659 4.11374 35.1659C4.22749 34.9479 4.18009 34.7583 4.18009 34.5687C4.18009 29.8957 4.18009 25.2227 4.18009 20.5403C4.18009 18.654 5.23223 17.6019 7.09953 17.5924C8.96682 17.5924 10.8246 17.5924 12.6919 17.5924C12.8626 17.5924 13.0332 17.5924 13.1943 17.5924C13.327 17.3839 13.2701 17.1943 13.2701 17.0047C13.2701 12.2938 13.2701 7.59242 13.2701 2.88152C13.2701 1.09005 14.3507 0 16.1517 0C21.1943 0 26.2275 0 31.2701 0C33.0142 0 34.1137 1.09953 34.1232 2.83412C34.1232 4.72986 34.1232 6.62559 34.1232 8.52133C34.1232 8.63507 34.1327 8.73934 34.1137 8.85308C34.0569 9.25119 33.7441 9.51659 33.3554 9.48815C32.9479 9.45024 32.7109 9.21327 32.7014 8.81517C32.6825 8.22749 32.6919 7.64929 32.6919 7.06161C32.6919 5.65877 32.6919 4.24645 32.6919 2.8436C32.6919 1.91469 32.2085 1.44076 31.2891 1.44076C30.218 1.43128 29.1469 1.44076 28.0853 1.44076C27.9242 1.61137 27.9905 1.79147 27.9905 1.96209C27.981 2.69194 28 3.41232 27.981 4.14218C27.9526 5.00474 27.2986 5.6872 26.4455 5.69668C24.5308 5.71564 22.6256 5.71564 20.7109 5.69668C19.8294 5.6872 19.1754 4.96682 19.1659 4.03791C19.1564 3.18483 19.1659 2.34123 19.1659 1.45972C18 1.45972 16.8815 1.43128 15.7725 1.46919C15.2038 1.48815 14.8057 1.96209 14.7299 2.53081C14.7109 2.64455 14.7204 2.74882 14.7204 2.86256C14.7204 7.63033 14.7204 12.3981 14.7204 17.1754C14.7204 17.2986 14.7299 17.4218 14.7393 17.545C14.9289 17.6682 15.128 17.6209 15.3081 17.6209C17.5545 17.6209 19.7915 17.6398 22.0379 17.6209C22.9005 17.6114 23.6682 17.782 24.3223 18.4455C25.109 17.6019 26.1327 17.6019 27.1659 17.6209C28.8246 17.6398 30.4834 17.6303 32.1422 17.6303C32.3128 17.6303 32.4834 17.6303 32.6256 17.6303C32.7488 17.4218 32.7014 17.2417 32.7109 17.0711C32.7109 15.5071 32.7109 13.9431 32.7109 12.3791C32.7109 11.782 32.9668 11.4692 33.4313 11.4692C33.8863 11.4787 34.1422 11.7915 34.1422 12.3886C34.1422 14.1137 34.1422 15.8294 34.1422 17.5355C34.3412 17.6682 34.5403 17.6209 34.7204 17.6209C36.9479 17.6209 39.1754 17.6872 41.4028 17.6019C43.4123 17.5355 44.5118 18.9479 44.4834 20.6635C44.4265 25.2891 44.4645 29.9147 44.4645 34.5498C44.4645 34.7393 44.4645 34.9289 44.4645 35.1848C44.9573 35.1848 45.4218 35.1848 45.8863 35.1848C47.2417 35.1848 47.9905 35.7156 48.4645 36.9763C48.4834 37.0142 48.5213 37.0427 48.5498 37.0806C48.5498 37.3934 48.5498 37.7156 48.5498 38.0284C47.9336 39.5261 47.2796 40.019 45.9147 40.019C31.4976 40.019 17.0711 40.019 2.65403 40.019C2.41706 40.019 2.18009 40.0095 1.95261 39.9621C0.872038 39.7156 0.303318 38.9953 0 38.0095C0 37.6967 0 37.3744 0 37.0616ZM5.6019 35.1659C7.82938 35.1659 9.97156 35.1659 12.1232 35.1659C12.2844 35.1659 12.4455 35.1469 12.5972 35.1754C12.9953 35.2512 13.2133 35.4976 13.2038 35.8957C13.1943 36.2749 12.9763 36.5118 12.6066 36.5782C12.455 36.6066 12.2938 36.5877 12.1327 36.5877C9.0237 36.5877 5.90521 36.5877 2.79621 36.5877C1.92417 36.5877 1.45024 36.9289 1.44076 37.5545C1.4218 38.1991 1.91469 38.5687 2.80569 38.5687C17.1185 38.5687 31.4313 38.5687 45.7441 38.5687C45.9147 38.5687 46.0948 38.5782 46.2654 38.5498C46.7678 38.4645 47.1185 38.0379 47.109 37.5545C47.0995 37.0711 46.7204 36.6635 46.218 36.5972C46.0284 36.5782 45.8389 36.5877 45.6493 36.5877C35.8389 36.5877 26.0284 36.5877 16.218 36.5877C16.0474 36.5877 15.8673 36.6066 15.6967 36.5782C15.327 36.5118 15.0995 36.2844 15.09 35.9052C15.0806 35.5071 15.3081 35.2607 15.6967 35.1754C15.8294 35.1469 15.981 35.1659 16.1232 35.1659C18.4455 35.1659 20.7678 35.1659 23.09 35.1659C23.2512 35.1659 23.4408 35.2227 23.5829 35.0995C23.5924 35.0616 23.6019 35.0332 23.6019 35.0047C23.6019 30.1043 23.6019 25.2133 23.6019 20.3128C23.6019 20.1422 23.564 19.9621 23.5071 19.8009C23.346 19.3934 23.0332 19.0806 22.5972 19.0711C21.3839 19.0427 20.1706 19.0616 18.9005 19.0616C18.9005 19.8673 18.9005 20.6351 18.9005 21.4028C18.9005 22.6825 18.2844 23.2891 17.0142 23.2986C15.3839 23.2986 13.763 23.2986 12.1327 23.2986C10.6445 23.2986 10.0663 22.7204 10.0663 21.2417C10.0663 20.5213 10.0663 19.8009 10.0663 19.0521C9.05213 19.0521 8.10427 19.0521 7.16588 19.0521C6.03791 19.0521 5.61137 19.4692 5.61137 20.5877C5.61137 25.2796 5.61137 29.9716 5.61137 34.6635C5.6019 34.7962 5.6019 34.9479 5.6019 35.1659ZM42.9858 35.1469C42.9953 34.9668 43.0047 34.8246 43.0047 34.6919C43.0047 29.9716 43.0047 25.2512 43.0047 20.5308C43.0047 20.3602 42.9953 20.1801 42.9668 20.0095C42.872 19.5071 42.5024 19.0806 42.0284 19.0711C40.8057 19.0332 39.5735 19.0616 38.3697 19.0616C38.3412 19.128 38.3128 19.1564 38.3128 19.1754C38.3033 19.9337 38.3033 20.6919 38.3033 21.4502C38.2938 22.654 37.6588 23.2891 36.455 23.2891C34.7678 23.2891 33.0711 23.2891 31.3839 23.2891C30.0948 23.2891 29.4692 22.6635 29.4692 21.3744C29.4692 20.6066 29.4692 19.8389 29.4692 19.0427C28.4265 19.0427 27.4502 19.0427 26.4739 19.0427C25.4408 19.0427 25.0142 19.4787 25.0142 20.5213C25.0142 25.2417 25.0142 29.9621 25.0142 34.6825C25.0142 34.8341 24.9668 34.9953 25.0806 35.1564C31.0332 35.1469 36.9858 35.1469 42.9858 35.1469ZM20.5877 1.45972C20.5877 2.32227 20.5877 3.14692 20.5877 3.98104C20.5877 4.20853 20.7393 4.2654 20.9384 4.2654C22.6919 4.2654 24.4455 4.2654 26.1896 4.2654C26.3507 4.2654 26.5403 4.2654 26.5403 4.04739C26.5498 3.18483 26.5403 2.32227 26.5403 1.45972C24.5308 1.45972 22.5782 1.45972 20.5877 1.45972ZM30.91 19.0616C30.91 19.9052 30.9194 20.6919 30.91 21.4787C30.91 21.7441 31.0237 21.8483 31.2796 21.8483C33.0332 21.8483 34.7867 21.8483 36.5308 21.8483C36.7204 21.8483 36.8815 21.8104 36.8815 21.5735C36.8815 20.7393 36.8815 19.9147 36.8815 19.0711C34.8626 19.0616 32.91 19.0616 30.91 19.0616ZM11.4976 19.0616C11.4976 19.9147 11.4976 20.7488 11.4976 21.5735C11.4976 21.8104 11.6777 21.8389 11.8673 21.8389C13.6209 21.8389 15.3649 21.8389 17.1185 21.8389C17.2796 21.8389 17.4502 21.8294 17.4597 21.6019C17.4692 20.7583 17.4597 19.9147 17.4597 19.0521C15.4408 19.0616 13.4976 19.0616 11.4976 19.0616Z" fill="#3190D2"/>
</g>
<defs>
<clipPath id="clip0_5_512">
<rect width="48.5308" height="40" fill="white"/>
</clipPath>
</defs>
</svg>
