<svg width="41" height="40" viewBox="0 0 41 40" fill="none" xmlns="http://www.w3.org/2000/svg">
<g clip-path="url(#clip0_3_500)">
<path d="M40.1668 33.5752C40.0589 33.8107 39.8824 33.9676 39.6568 34.0853C38.7249 34.5855 37.8029 35.1054 36.8711 35.6057C36.6455 35.7234 36.5572 35.8607 36.567 36.1157C36.5866 37.1652 36.5768 38.205 36.5768 39.2545C36.5768 39.9313 36.1453 40.1765 35.5665 39.8332C33.4577 38.5973 31.3586 37.3516 29.2595 36.1059C28.8574 35.8705 28.7789 35.6057 28.9751 35.1839C29.2203 34.664 29.4655 34.154 29.7205 33.6243C29.2105 33.3398 28.7004 33.1535 28.1904 32.9475C27.9942 32.869 27.9059 33.0162 27.798 33.1142C25.9834 34.919 23.9138 36.3805 21.5793 37.4301C19.7451 38.254 20.4317 38.254 18.617 37.4399C16.2826 36.3904 14.2129 34.9387 12.4081 33.1241C12.2218 32.9377 12.0648 32.8984 11.8294 33.0162C11.4665 33.1927 11.0839 33.3398 10.7112 33.4968C10.6425 33.5262 10.5739 33.5654 10.466 33.6243C10.7112 34.1442 10.9564 34.6444 11.1918 35.1446C11.4174 35.6351 11.3488 35.8705 10.8878 36.1451C8.81813 37.3712 6.74848 38.5875 4.67884 39.8136C4.03147 40.1961 3.6195 39.9607 3.6195 39.1957C3.6195 38.1755 3.60969 37.1554 3.62931 36.1353C3.62931 35.8607 3.54103 35.7234 3.29581 35.5958C2.37379 35.1054 1.46158 34.5954 0.549365 34.0951C-0.127437 33.7224 -0.147054 33.2516 0.490513 32.8298C1.74603 31.9862 3.01136 31.1427 4.28649 30.2893C4.1786 29.9362 3.98242 29.6419 3.82548 29.3379C3.53122 28.7592 3.56065 28.5924 4.03146 28.1412C4.91425 27.3075 5.90493 26.6405 6.96428 26.0618C7.09179 25.9931 7.20949 25.9244 7.36643 25.8362C7.15064 25.3261 6.94466 24.8161 6.73867 24.3158C5.59105 21.5007 4.91425 18.5875 4.50228 15.5958C4.44343 15.1937 4.64942 14.8896 5.00253 14.8406C5.32622 14.8013 5.59105 15.0171 5.64991 15.4291C5.87551 16.9004 6.13053 18.3717 6.49346 19.8136C7.39586 23.4232 8.81813 26.7974 11.0447 29.7989C13.3498 32.8984 16.2826 35.2035 19.8333 36.7337C20.0589 36.8317 20.2257 36.7631 20.4219 36.6748C25.287 34.5757 28.8181 31.0838 31.2115 26.4051C32.8397 23.227 33.801 19.8332 34.3503 16.3119C34.723 13.9284 34.8897 11.535 34.8799 9.12208C34.8799 8.56299 34.8309 7.99408 34.8309 7.43498C34.8309 7.17996 34.7524 7.08187 34.4778 7.04263C32.0844 6.73856 29.7598 6.15004 27.5038 5.29668C24.9633 4.34523 22.5602 3.10933 20.3532 1.52032C20.157 1.383 20.0295 1.35357 19.8137 1.5007C16.1158 4.12944 12.0256 5.83616 7.58223 6.71895C6.93485 6.86608 6.27766 6.95436 5.62048 7.05244C5.4145 7.08187 5.33603 7.16034 5.32622 7.37613C5.24775 9.024 5.25756 10.6719 5.36545 12.3197C5.38507 12.5453 5.40469 12.7611 5.39488 12.9867C5.39488 13.3693 5.13985 13.6439 4.80635 13.6341C4.49248 13.6341 4.25707 13.3889 4.21783 13.0162C4.19821 12.8102 4.1884 12.5944 4.1786 12.3884C4.06089 10.4855 4.04127 8.5728 4.19821 6.6699C4.23745 6.17947 4.4042 6.02253 4.87502 5.97348C9.25952 5.48305 13.3498 4.09021 17.1457 1.85382C17.9795 1.36338 18.7936 0.833707 19.5587 0.245183C19.9608 -0.0588873 20.157 -0.068696 20.5396 0.225566C23.8647 2.70717 27.5724 4.36485 31.594 5.33591C32.7809 5.62037 33.9775 5.81654 35.184 5.96367C35.7627 6.03233 35.9 6.15985 35.9491 6.74837C36.1354 8.88667 36.0864 11.0348 35.9098 13.1731C35.694 15.8509 35.2625 18.4894 34.5268 21.0691C34.105 22.5404 33.6048 23.9823 32.9966 25.385C32.9378 25.5223 32.8397 25.6596 32.8495 25.8558C33.5165 26.2285 34.2031 26.6111 34.8407 27.0721C35.3606 27.4448 35.851 27.8568 36.312 28.308C36.5866 28.5728 36.6259 28.8573 36.4493 29.1907C36.263 29.5341 36.0864 29.8872 35.9098 30.2207C35.9687 30.3874 36.1158 30.4365 36.2335 30.5149C37.3419 31.2604 38.4503 32.0059 39.5587 32.7415C39.7843 32.8886 40.0001 33.0554 40.1668 33.281C40.1668 33.3693 40.1668 33.4772 40.1668 33.5752ZM7.59203 34.0461C8.72004 33.1339 9.94613 32.5159 11.2605 31.9666C9.93632 30.3874 8.81813 28.7101 7.86668 26.8955C6.79753 27.4644 5.78723 28.0824 4.90444 28.9161C5.79704 30.613 6.67982 32.3001 7.59203 34.0461ZM32.5749 34.0363C33.4773 32.3099 34.3699 30.613 35.2625 28.9161C34.3601 28.0824 33.3694 27.4546 32.2904 26.9053C31.3684 28.7494 30.2208 30.3972 28.8966 31.9764C30.2404 32.5061 31.4469 33.1535 32.5749 34.0363ZM9.02411 35.8705C8.4552 35.7724 7.98438 35.6841 7.50376 35.6155C7.18007 35.5664 6.95447 35.4193 6.80734 35.1152C6.51307 34.5169 6.18939 33.9382 5.88531 33.3496C5.5322 32.6827 5.1889 32.0157 4.82597 31.3192C3.78625 32.0157 2.77595 32.6925 1.7166 33.4085C2.6092 33.8989 3.43313 34.3698 4.27668 34.8111C4.6298 34.9975 4.78674 35.2525 4.77693 35.6547C4.75731 36.4394 4.76712 37.2241 4.77693 38.0088C4.77693 38.1167 4.71808 38.2442 4.8554 38.3423C6.21881 37.5282 7.58223 36.7239 9.02411 35.8705ZM35.39 38.3815C35.39 38.1854 35.39 38.0578 35.39 37.9303C35.39 37.1554 35.3998 36.3904 35.39 35.6155C35.3802 35.2427 35.5273 34.9975 35.851 34.8308C36.4886 34.4973 37.1163 34.1442 37.7343 33.791C37.9501 33.6635 38.2051 33.5752 38.4013 33.3693C37.3713 32.6827 36.3512 32.0059 35.3213 31.3094C34.6543 32.5846 34.0069 33.8008 33.3792 35.0368C33.2026 35.3899 32.9672 35.5762 32.5749 35.6155C32.1237 35.6645 31.6823 35.7724 31.1428 35.8607C32.6043 36.7337 33.9677 37.538 35.39 38.3815ZM9.38703 34.203C9.19086 34.3403 9.0143 34.458 8.83774 34.5659C9.1222 34.6542 9.35761 34.7817 9.63225 34.7327C9.61263 34.5463 9.50474 34.3992 9.38703 34.203ZM31.3488 34.6444C31.1526 34.4286 30.9564 34.3207 30.7603 34.2128C30.6524 34.3992 30.5445 34.5463 30.5249 34.7425C30.8093 34.7719 31.0447 34.664 31.3488 34.6444Z" fill="#3190D2"/>
<path d="M31.1623 10.0736C29.8774 9.8872 28.6219 9.64198 27.3958 9.27906C24.8847 8.52379 22.5404 7.45464 20.3923 5.94409C20.2158 5.81658 20.0883 5.71849 19.8529 5.88524C16.6454 8.12163 13.0848 9.47524 9.22019 10.0343C9.16134 10.0441 9.09268 10.054 9.0044 10.0736C8.91612 10.819 8.93574 11.5645 8.94555 12.3002C9.02402 15.743 9.52426 19.1172 10.7504 22.3541C11.3095 23.845 12.0255 25.2771 12.9181 26.6013C12.9867 26.6994 13.0554 26.7975 13.1143 26.8955C13.3791 27.2879 13.3497 27.6116 13.0554 27.8274C12.771 28.0334 12.4276 27.9451 12.153 27.5723C11.4468 26.6111 10.8681 25.5714 10.3678 24.4924C8.94555 21.4419 8.19028 18.2148 7.89602 14.87C7.74888 13.1633 7.70965 11.4566 7.82735 9.74007C7.86659 9.16136 8.00391 8.99461 8.56301 8.92595C12.2217 8.48456 15.5763 7.24866 18.666 5.24767C18.9799 5.04169 19.2938 4.81609 19.588 4.59049C19.9215 4.33546 20.2158 4.34527 20.5493 4.6003C22.4816 6.05199 24.6199 7.10152 26.8857 7.87641C28.4061 8.39628 29.9755 8.72977 31.5743 8.92595C32.1236 8.99461 32.2609 9.17117 32.3001 9.70084C32.3982 11.0054 32.3982 12.31 32.3198 13.6145C32.2903 14.0853 32.0255 14.3306 31.6331 14.2619C31.2996 14.203 31.1231 13.9382 31.1525 13.4772C31.2114 12.4963 31.2114 11.5155 31.1721 10.5346C31.1917 10.3973 31.1721 10.2403 31.1623 10.0736Z" fill="#3190D2"/>
<path d="M18.5484 19.3918C18.6661 19.2251 18.7348 19.0975 18.8427 18.9995C20.4513 17.3908 22.0501 15.7724 23.6686 14.1736C24.7672 13.0848 26.415 13.3202 27.0526 14.6542C27.3959 15.38 27.3272 16.1059 26.8564 16.7631C26.7387 16.92 26.6014 17.0671 26.4641 17.2045C24.365 19.3035 22.2659 21.4026 20.1669 23.5017C19.0879 24.5806 17.9305 24.5806 16.8515 23.5017C15.8118 22.4619 14.7721 21.4418 13.752 20.3923C12.7024 19.3133 12.9771 17.6655 14.2914 17.0377C15.0761 16.665 15.9785 16.8219 16.6652 17.4987C17.2733 18.0774 17.8618 18.6954 18.5484 19.3918ZM15.2037 18.0186C14.7623 18.0284 14.4484 18.2638 14.3307 18.6267C14.1934 19.0485 14.3895 19.3624 14.674 19.637C15.6843 20.6473 16.6848 21.6576 17.6951 22.6581C18.2934 23.2564 18.725 23.2466 19.3331 22.6483C21.4322 20.5492 23.5313 18.4502 25.6303 16.3511C25.6892 16.2923 25.748 16.2432 25.7971 16.1844C26.1502 15.7724 26.1698 15.2525 25.8265 14.9092C25.4734 14.5463 24.9535 14.5659 24.5318 14.9485C24.4533 15.0171 24.3846 15.0956 24.3062 15.1741C22.5602 16.92 20.8142 18.6758 19.0585 20.4217C18.6465 20.8337 18.3621 20.8337 17.9501 20.4217C17.2733 19.7449 16.5965 19.0681 15.9197 18.4011C15.7137 18.1951 15.4783 18.0088 15.2037 18.0186Z" fill="#3190D2"/>
<path d="M32.1139 16.2236C31.9373 17.7047 31.6332 19.1957 31.2213 20.6768C30.466 23.3448 29.338 25.8264 27.6607 28.0333C25.748 30.5542 23.3154 32.3786 20.3924 33.5753C20.1668 33.6635 19.9608 33.6537 19.745 33.5655C17.5479 32.663 15.6058 31.3977 13.9481 29.7008C13.6146 29.3673 13.5852 29.0338 13.85 28.769C14.0952 28.5238 14.4581 28.5434 14.7818 28.8769C16.2139 30.3286 17.8618 31.4566 19.7254 32.2805C19.9706 32.3884 20.1668 32.408 20.4218 32.2903C24.2963 30.5542 27.0133 27.6704 28.7985 23.8646C29.9167 21.4811 30.5445 18.9504 30.9074 16.3511C30.927 16.2334 30.9466 16.1157 30.9662 16.0078C31.0447 15.6645 31.2703 15.4978 31.6234 15.537C31.9471 15.5664 32.1237 15.8116 32.1139 16.2236Z" fill="#3190D2"/>
</g>
<defs>
<clipPath id="clip0_3_500">
<rect width="40.1668" height="40" fill="white"/>
</clipPath>
</defs>
</svg>
