<svg width="37" height="40" viewBox="0 0 37 40" fill="none" xmlns="http://www.w3.org/2000/svg">
<g clip-path="url(#clip0_5_515)">
<path d="M18.2293 39.9893C16.3946 39.9893 14.5493 39.9893 12.7146 39.9893C11.4239 39.9893 10.6026 39.1893 10.6026 37.8987C10.5919 36.064 10.5919 34.2187 10.6026 32.384C10.6239 30.016 12.3093 28.3307 14.6773 28.32C17.0453 28.3093 19.4239 28.3093 21.7919 28.32C24.1599 28.3307 25.8453 30.0267 25.8559 32.384C25.8666 34.2187 25.8559 36.064 25.8559 37.8987C25.8559 39.1893 25.0453 39.9787 23.7546 39.9893C21.8986 40 20.0639 39.9893 18.2293 39.9893ZM22.6453 38.9547C23.0613 38.9547 23.4239 38.9547 23.7866 38.9547C24.4693 38.944 24.8106 38.6027 24.8106 37.9093C24.8106 36.0427 24.8213 34.176 24.8106 32.3093C24.7999 30.624 23.5733 29.376 21.8879 29.3653C19.4453 29.344 17.0133 29.344 14.5706 29.3653C12.9599 29.376 11.7119 30.5173 11.6586 32.1173C11.5946 34.0907 11.6266 36.064 11.6373 38.0373C11.6373 38.5173 11.9573 38.9013 12.3946 38.9333C12.8533 38.976 13.3119 38.944 13.8026 38.944C13.8026 38.1227 13.8026 37.3333 13.8026 36.544C13.8026 36.0747 13.9839 35.84 14.3146 35.8293C14.6559 35.8293 14.8266 36.0533 14.8266 36.5333C14.8266 36.8 14.8266 37.0667 14.8266 37.3333C14.8266 37.8667 14.8266 38.3893 14.8266 38.9333C17.1093 38.9333 19.3386 38.9333 21.6106 38.9333C21.6106 38.7627 21.6106 38.624 21.6106 38.4747C21.6106 37.7813 21.6106 37.088 21.6106 36.3947C21.6106 36.0853 21.7599 35.872 22.0693 35.84C22.3679 35.7973 22.5493 35.9573 22.6346 36.2347C22.6666 36.352 22.6559 36.4693 22.6559 36.5973C22.6453 37.3653 22.6453 38.1333 22.6453 38.9547Z" fill="#3190D2"/>
<path d="M32.256 35.616C32.256 34.7307 32.2453 33.9094 32.256 33.0774C32.256 32.7254 32.48 32.4907 32.7787 32.4907C33.0773 32.4907 33.28 32.7254 33.2907 33.088C33.2907 33.216 33.2907 33.3547 33.2907 33.4827C33.2907 34.176 33.2907 34.8694 33.2907 35.584C33.792 35.616 34.272 35.6374 34.7413 35.5734C35.1787 35.52 35.456 35.136 35.456 34.6027C35.456 32.6934 35.456 30.7947 35.456 28.8854C35.456 28.7147 35.4453 28.5334 35.4027 28.3734C35.1147 26.9867 34.0053 26.0694 32.5653 26.0267C32.1387 26.016 31.712 26.0267 31.2853 26.0267C29.312 26.0267 27.3387 26.0374 25.3653 26.0267C24.4053 26.0267 23.5947 26.336 22.9547 27.0614C22.6987 27.36 22.3787 27.392 22.1547 27.1787C21.9307 26.976 21.9307 26.656 22.1867 26.368C22.8587 25.6 23.6907 25.1414 24.704 25.024C25.4507 24.9387 26.1973 24.9814 26.944 24.9814C28.9173 24.9814 30.8907 24.9387 32.864 25.024C34.8907 25.1094 36.4693 26.8054 36.4907 28.832C36.512 30.7947 36.5013 32.7467 36.4907 34.7094C36.48 35.7867 35.6693 36.6187 34.592 36.6294C32.2347 36.64 29.8773 36.64 27.5093 36.6294C27.1147 36.6294 26.88 36.4267 26.8907 36.1174C26.8907 35.808 27.1253 35.6054 27.5307 35.6054C28.928 35.5947 30.3253 35.6054 31.7333 35.6054C31.8827 35.616 32.0427 35.616 32.256 35.616Z" fill="#3190D2"/>
<path d="M4.29865 35.616C4.57598 35.616 4.86398 35.616 5.15198 35.616C6.34665 35.616 7.55198 35.616 8.74665 35.616C8.86398 35.616 8.99198 35.6053 9.10931 35.6373C9.39731 35.6906 9.55731 35.872 9.54665 36.1706C9.52531 36.4693 9.35465 36.64 9.06665 36.6506C8.62931 36.6613 8.19198 36.6613 7.74398 36.6613C5.86665 36.6613 3.98931 36.6613 2.10131 36.6613C0.79998 36.6506 -2.00011e-05 35.8613 -2.00011e-05 34.5706C-2.00011e-05 32.736 -0.0106867 30.8906 -2.00011e-05 29.056C0.0106467 26.784 1.54665 25.088 3.82931 25.024C6.36798 24.9493 8.91731 24.992 11.4666 25.0133C12.576 25.024 13.504 25.4933 14.2506 26.304C14.56 26.6453 14.592 26.9546 14.3466 27.1786C14.1013 27.4133 13.8026 27.36 13.4933 27.008C12.9066 26.3573 12.1706 26.0266 11.296 26.0266C8.84265 26.0266 6.38931 26.0053 3.93598 26.0266C2.26131 26.048 1.05598 27.2853 1.04531 28.96C1.03465 30.8266 1.04531 32.6933 1.04531 34.56C1.04531 35.2746 1.37598 35.5946 2.10131 35.6053C2.45331 35.6053 2.81598 35.6053 3.21065 35.6053C3.21065 34.7946 3.21065 34.016 3.21065 33.248C3.21065 33.1306 3.19998 33.0026 3.22131 32.8853C3.28531 32.6186 3.47731 32.4586 3.74398 32.48C4.07465 32.5013 4.23465 32.7146 4.24531 33.0453C4.24531 33.7386 4.24531 34.432 4.24531 35.1253C4.24531 35.2853 4.21331 35.4346 4.29865 35.616Z" fill="#3190D2"/>
<path d="M32.1814 8.27733C32.1814 9.024 31.488 9.44 30.8267 9.10933C30.2507 8.832 29.6854 8.52267 29.1307 8.224C28.9494 8.128 28.8 8.11733 28.6187 8.224C28.0854 8.52267 27.5414 8.8 26.9974 9.07733C26.624 9.28 26.2507 9.30133 25.9094 9.03467C25.5787 8.77867 25.504 8.43733 25.5787 8.032C25.696 7.43467 25.7814 6.82667 25.8987 6.21867C25.9414 6.02667 25.888 5.89867 25.7494 5.76C25.3014 5.344 24.8747 4.896 24.4267 4.48C24.1174 4.192 23.9787 3.84 24.1067 3.43467C24.2347 3.01867 24.576 2.848 24.992 2.79467C25.568 2.72 26.1547 2.61333 26.7307 2.56C26.976 2.53867 27.104 2.42133 27.2 2.208C27.456 1.664 27.7334 1.13067 27.9894 0.597333C28.1707 0.234667 28.4374 0 28.8534 0C29.2694 0 29.5467 0.224 29.728 0.586667C30.0054 1.152 30.2827 1.70667 30.56 2.272C30.6454 2.44267 30.752 2.528 30.944 2.56C31.5414 2.63467 32.128 2.73067 32.7254 2.80533C33.152 2.85867 33.4827 3.04 33.632 3.47733C33.7707 3.904 33.5894 4.224 33.2907 4.512C32.8854 4.896 32.5014 5.312 32.0854 5.67467C31.8507 5.87733 31.808 6.09067 31.8614 6.37867C31.9787 6.96533 32.064 7.56267 32.1707 8.14933C32.1814 8.192 32.1814 8.24533 32.1814 8.27733ZM25.3227 3.81867C25.7387 4.256 26.1227 4.69333 26.5387 5.09867C26.9014 5.45067 27.0294 5.824 26.9227 6.31467C26.8054 6.88 26.72 7.456 26.6134 8.096C27.2 7.78667 27.744 7.53067 28.256 7.232C28.672 6.99733 29.0454 6.99733 29.4614 7.232C29.9734 7.52 30.5067 7.78667 31.104 8.096C30.9974 7.49867 30.9334 6.976 30.816 6.464C30.6774 5.86667 30.8054 5.408 31.2747 5.00267C31.68 4.65067 32.0214 4.23467 32.416 3.81867C31.8934 3.744 31.392 3.63733 30.8907 3.60533C30.2507 3.56267 29.824 3.30667 29.5787 2.688C29.3867 2.19733 29.1094 1.728 28.8427 1.19467C28.5334 1.81333 28.256 2.35733 27.9894 2.912C27.8187 3.27467 27.552 3.488 27.136 3.54133C26.5494 3.616 25.9307 3.72267 25.3227 3.81867Z" fill="#3190D2"/>
<path d="M4.31999 8.16C4.40532 7.63733 4.51199 7.008 4.62932 6.37867C4.69332 6.08 4.63999 5.86667 4.39466 5.65333C3.96799 5.29067 3.58399 4.87467 3.18932 4.49067C2.89066 4.20267 2.73066 3.872 2.87999 3.456C3.02932 3.04 3.34932 2.86933 3.76532 2.816C4.34132 2.73067 4.92799 2.63467 5.50399 2.57067C5.74932 2.54933 5.87732 2.432 5.97332 2.21867C6.22932 1.67467 6.50666 1.14133 6.76266 0.608C6.93332 0.234667 7.19999 0 7.61599 0C8.03199 0 8.30932 0.224 8.49066 0.586667C8.76799 1.152 9.04532 1.70667 9.31199 2.272C9.39732 2.44267 9.50399 2.528 9.70666 2.54933C10.304 2.624 10.8907 2.72 11.488 2.79467C11.904 2.848 12.2347 3.008 12.3733 3.424C12.512 3.85067 12.3627 4.20267 12.0427 4.50133C11.6053 4.90667 11.1893 5.344 10.752 5.74933C10.6027 5.89867 10.56 6.02667 10.6027 6.24C10.72 6.848 10.816 7.47733 10.9227 8.08533C10.9867 8.45867 10.8907 8.77867 10.592 9.01333C10.2827 9.25867 9.93066 9.28 9.57866 9.09867C9.03466 8.82133 8.49066 8.544 7.95732 8.24533C7.70132 8.096 7.50932 8.11733 7.26399 8.256C6.73066 8.55467 6.18666 8.84267 5.64266 9.10933C4.98132 9.44 4.29866 9.00267 4.31999 8.16ZM11.1893 3.81867C10.5813 3.73333 9.99466 3.62667 9.39732 3.56267C8.91732 3.50933 8.62932 3.264 8.43732 2.83733C8.19199 2.304 7.92532 1.78133 7.62666 1.19467C7.38132 1.696 7.13599 2.112 6.96532 2.54933C6.69866 3.24267 6.23999 3.57333 5.50399 3.616C5.03466 3.648 4.54399 3.69067 4.12799 3.82933C4.54399 4.27733 4.93866 4.72533 5.35466 5.152C5.65332 5.44 5.79199 5.76 5.70666 6.18667C5.58932 6.79467 5.50399 7.41333 5.38666 8.096C5.98399 7.78667 6.52799 7.50933 7.05066 7.21067C7.43466 6.99733 7.79732 6.98667 8.18132 7.2C8.71465 7.49867 9.25866 7.76533 9.85599 8.08533C9.74932 7.46667 9.68532 6.89067 9.55732 6.34667C9.43999 5.824 9.57866 5.42933 9.97332 5.06667C10.4 4.69333 10.7627 4.26667 11.1893 3.81867Z" fill="#3190D2"/>
<path d="M20.5973 14.4C20.4267 14.4106 20.256 14.3253 20.0853 14.24C19.5413 13.952 18.9973 13.6746 18.464 13.376C18.2933 13.28 18.1547 13.28 17.984 13.376C17.44 13.6746 16.8747 13.9626 16.3307 14.2506C15.968 14.4426 15.616 14.464 15.2747 14.2186C14.944 13.9733 14.848 13.632 14.9227 13.2266C15.04 12.608 15.1253 11.9893 15.2427 11.3813C15.2747 11.2 15.2427 11.0826 15.104 10.9653C14.6453 10.5386 14.208 10.08 13.76 9.65329C13.4507 9.35463 13.3227 9.01329 13.4613 8.60796C13.6 8.21329 13.9093 8.04263 14.3147 7.98929C14.8907 7.91463 15.4773 7.81863 16.0533 7.74396C16.2987 7.71196 16.448 7.60529 16.5653 7.37063C16.8107 6.82663 17.088 6.29329 17.3547 5.75996C17.536 5.38663 17.8133 5.18396 18.2293 5.18396C18.6347 5.18396 18.9013 5.40796 19.072 5.74929C19.3387 6.28263 19.616 6.81596 19.8613 7.35996C19.9787 7.61596 20.1387 7.71196 20.4053 7.74396C20.9813 7.80796 21.568 7.90396 22.144 7.98929C22.5493 8.04263 22.8373 8.23463 22.976 8.62929C23.104 9.01329 22.9867 9.33329 22.7093 9.61063C22.272 10.0373 21.8453 10.4746 21.3867 10.8906C21.2053 11.0506 21.152 11.2213 21.2053 11.456C21.3227 12.0426 21.4187 12.6293 21.5147 13.2266C21.6213 13.9093 21.2373 14.4106 20.5973 14.4ZM15.9787 13.2693C16.576 12.9493 17.1093 12.6826 17.632 12.3946C18.0267 12.1706 18.4107 12.1706 18.8053 12.3946C19.328 12.6826 19.8613 12.9493 20.4587 13.2693C20.352 12.6186 20.2773 12.0426 20.1493 11.4773C20.0427 10.976 20.1813 10.6026 20.5547 10.2613C20.9813 9.86663 21.3653 9.43996 21.792 8.99196C21.184 8.89596 20.608 8.78929 20.032 8.73596C19.5413 8.68263 19.232 8.44796 19.0293 8.01063C18.784 7.46663 18.5067 6.94396 18.2187 6.36796C17.92 6.97596 17.632 7.51996 17.376 8.07463C17.184 8.47996 16.896 8.68263 16.448 8.73596C15.8507 8.81063 15.2533 8.90663 14.6773 9.00263C15.104 9.45063 15.4987 9.89863 15.9147 10.2933C16.2667 10.6346 16.384 11.008 16.2773 11.4773C16.1707 12.0426 16.0853 12.6186 15.9787 13.2693Z" fill="#3190D2"/>
<path d="M28.8533 14.2933C31.3173 14.2933 33.3013 16.2667 33.3119 18.7307C33.3119 21.184 31.3279 23.1893 28.8746 23.1893C26.4319 23.1893 24.4159 21.1947 24.4159 18.7413C24.4053 16.2987 26.3999 14.304 28.8533 14.2933ZM32.2773 18.7413C32.2773 16.8533 30.7626 15.3387 28.8746 15.328C26.9866 15.328 25.4613 16.8427 25.4506 18.72C25.4399 20.608 26.9866 22.1547 28.8746 22.1547C30.7519 22.1547 32.2773 20.6187 32.2773 18.7413Z" fill="#3190D2"/>
<path d="M3.17859 18.7413C3.17859 16.2773 5.16259 14.2933 7.62659 14.2933C10.0799 14.2933 12.0853 16.288 12.0853 18.7307C12.0853 21.1733 10.0799 23.1893 7.63726 23.1893C5.17326 23.1893 3.18926 21.1947 3.17859 18.7413ZM4.21326 18.7413C4.22392 20.6187 5.74926 22.144 7.62659 22.144C9.51459 22.144 11.0613 20.5867 11.0399 18.6987C11.0293 16.8213 9.49326 15.3067 7.60526 15.3173C5.72792 15.3387 4.21326 16.864 4.21326 18.7413Z" fill="#3190D2"/>
<path d="M22.6667 22.0907C22.656 24.5547 20.6507 26.5494 18.208 26.5387C15.7547 26.5174 13.76 24.512 13.7707 22.0694C13.7813 19.6267 15.7973 17.6107 18.24 17.6214C20.6933 17.632 22.6773 19.6267 22.6667 22.0907ZM21.632 22.0694C21.6213 20.192 20.096 18.656 18.2187 18.656C16.3307 18.656 14.7947 20.2134 14.8053 22.112C14.816 23.9787 16.384 25.5254 18.24 25.504C20.128 25.472 21.6427 23.9467 21.632 22.0694Z" fill="#3190D2"/>
</g>
<defs>
<clipPath id="clip0_5_515">
<rect width="36.5013" height="40" fill="white"/>
</clipPath>
</defs>
</svg>
