<svg width="39" height="40" viewBox="0 0 39 40" fill="none" xmlns="http://www.w3.org/2000/svg">
<g clip-path="url(#clip0_5_526)">
<path d="M18.0104 40C17.2812 39.8959 16.5416 39.8229 15.8124 39.6875C12.6041 39.1146 9.71869 37.8021 7.16661 35.7604C6.77077 35.4375 6.70827 35.0521 6.99994 34.7709C7.24994 34.5313 7.53119 34.5521 7.90619 34.8542C9.24994 35.9271 10.7083 36.7917 12.2916 37.4479C14.5208 38.3646 16.8333 38.8229 19.2916 38.8229C19.2187 38.5729 19.1458 38.3646 19.0937 38.1459C18.8645 37.1771 19.0833 36.3438 19.8958 35.7084C20.6041 35.1459 20.6979 33.9479 20.0937 33.2709C19.8229 32.9688 19.5416 32.6875 19.2708 32.3854C18.4791 31.5209 18.3854 30.4167 19.0208 29.4479C19.0937 29.3229 19.1874 29.2084 19.2604 29.0938C19.677 28.4063 19.4166 27.6146 18.6562 27.3438C17.8333 27.0521 17.0104 26.7813 16.177 26.5209C15.677 26.3646 15.3124 26.0729 15.052 25.6146C14.5104 24.6667 13.9583 23.7188 13.4062 22.7813C13.1041 22.2604 12.7604 22.2604 12.4374 22.7604C12.3229 22.9479 12.2083 23.1354 12.0833 23.3229C11.6145 24.0209 10.802 24.2709 10.0624 23.9479C9.34369 23.6354 8.93744 22.8646 9.13535 22.0834C9.43744 20.8542 9.76036 19.6459 10.0937 18.4271C10.2187 17.9584 10.5104 17.625 10.9374 17.4063C11.5208 17.1146 12.0937 16.8125 12.6666 16.5104C13.0729 16.3021 13.1458 16.1042 12.9687 15.6875C12.7708 15.2396 12.4374 14.9584 11.9583 14.8542C11.6562 14.7917 11.3437 14.7396 11.0416 14.6875C10.3437 14.5729 9.67702 14.3646 9.07286 13.9792C8.29161 13.4896 7.49994 13 6.70827 12.5417C5.80202 12.0104 5.16661 11.2709 4.87494 10.2604C4.85411 10.1979 4.82286 10.1459 4.78119 10.0521C4.18744 10.8125 3.69786 11.6146 3.26036 12.4375C-0.239644 19.0729 0.760356 27.2292 5.77077 32.8125C5.87494 32.9271 5.97911 33.0417 6.08327 33.1667C6.34369 33.4792 6.33327 33.8021 6.08327 34.0313C5.83327 34.2604 5.48952 34.2292 5.21869 33.9479C4.37494 33.0521 3.62494 32.0938 2.97911 31.0521C0.718689 27.4792 -0.281311 23.5729 0.0728561 19.3959C0.593689 13.1771 3.49994 8.30211 8.6666 4.79169C8.93744 4.60419 9.09369 4.43752 9.14577 4.07294C9.51036 1.60419 11.4791 -0.0833088 13.8854 2.45092e-05C15.0833 0.0416912 16.1249 0.489608 16.9479 1.36461C17.2187 1.65627 17.4791 1.73961 17.8645 1.70836C20.8958 1.45836 23.802 1.96877 26.5937 3.12502C27.1874 3.36461 27.3645 3.64586 27.2083 4.02086C27.052 4.38544 26.7187 4.44794 26.1354 4.19794C23.6979 3.17711 21.1562 2.72919 18.5208 2.81252C18.3958 2.81252 18.2604 2.83336 18.1354 2.84377C18.1041 2.84377 18.0624 2.87502 17.9999 2.89586C18.2604 3.66669 18.3645 4.45836 18.2708 5.27086C18.1249 6.59377 17.6354 7.78127 16.9583 8.90627C16.4895 9.67711 15.9479 10.3854 15.3437 11.0521C14.4479 12.0313 13.0729 12.0938 12.1666 11.125C10.7812 9.65627 9.72911 7.98961 9.26036 5.98961C9.24994 5.95836 9.22911 5.91669 9.21869 5.89586C9.13536 5.85419 9.08327 5.90627 9.04161 5.94794C7.88536 6.73961 6.83327 7.64586 5.89577 8.67711C5.76036 8.83336 5.72911 8.96877 5.77077 9.16669C6.01036 10.3542 6.61452 11.2396 7.72911 11.7813C8.11452 11.9688 8.47911 12.1979 8.83327 12.4479C9.81244 13.1459 10.8854 13.5313 12.0729 13.6771C13.1666 13.8125 14.0416 14.6771 14.2187 15.6667C14.3541 16.4375 14.052 17.0938 13.3645 17.4688C12.802 17.7709 12.2395 18.0625 11.6666 18.3438C11.3958 18.4688 11.2499 18.6563 11.177 18.9479C10.9062 20.0209 10.6249 21.0834 10.3437 22.1563C10.2708 22.4375 10.2395 22.7188 10.5624 22.8542C10.8749 22.9896 11.0729 22.7917 11.2187 22.5313C11.3333 22.3438 11.4479 22.1459 11.5624 21.9688C12.2604 20.9375 13.677 20.9479 14.3229 22.0104C14.9062 22.9688 15.4583 23.9375 16.0104 24.9063C16.1666 25.1771 16.3541 25.3334 16.6562 25.4271C17.4166 25.6563 18.1666 25.9063 18.9166 26.1667C20.5624 26.7188 21.1354 28.3854 20.177 29.8334C19.6249 30.6667 19.6666 31.0625 20.3541 31.7917C20.5104 31.9584 20.6666 32.1459 20.8333 32.3021C21.7291 33.1354 21.7499 34.1771 21.5624 35.2709C21.4687 35.8125 21.1249 36.2292 20.6979 36.5729C20.0937 37.0625 20.0312 38.1146 20.5729 38.6667C20.7187 38.8229 20.927 38.7292 21.0937 38.7084C23.177 38.4792 25.177 37.9271 27.0624 37C30.5104 35.3021 33.1562 32.7813 35.0104 29.4167C35.0729 29.3021 35.1249 29.1875 35.2083 29.0417C34.3645 28.3959 33.5208 27.7396 32.6458 27.0729C32.3645 27.7604 32.0729 28.4167 31.6979 29.0209C31.2291 29.7917 30.6874 30.5 30.0833 31.1667C29.1666 32.1667 27.7708 32.1875 26.8541 31.1875C25.427 29.6146 24.302 27.875 23.9374 25.7188C23.8958 25.4584 23.8749 25.2084 23.8437 24.9584C23.7187 24.8646 23.6041 24.9584 23.4999 24.9688C22.9999 25.0417 22.5416 24.9688 22.1249 24.6563C21.6874 24.3334 21.2291 24.0209 20.802 23.6875C20.0104 23.0938 19.8645 22.1042 20.4479 21.3021C20.9166 20.6459 21.3958 19.9896 21.8958 19.3646C22.4374 18.6875 22.552 17.8854 22.7187 17.0834C23.0729 15.3542 24.052 14.2084 25.7812 13.7604C26.177 13.6563 26.5729 13.625 26.9791 13.6771C27.9479 13.7813 28.2812 13.6042 28.7395 12.75C28.927 12.4063 29.1041 12.0625 29.302 11.7188C29.6874 11.0417 30.2708 10.6146 31.0416 10.5313C31.6562 10.4688 32.0416 10.1563 32.3124 9.63544C32.4374 9.39586 32.5729 9.15627 32.7083 8.88544C31.802 7.83336 30.7604 6.91669 29.6249 6.10419C29.3124 5.88544 28.9999 5.68752 28.6874 5.47919C28.302 5.21877 28.1874 4.91669 28.3749 4.60419C28.5624 4.28127 28.9166 4.23961 29.3229 4.50002C33.4687 7.13544 36.2708 10.8021 37.6354 15.5313C40.427 25.2188 35.177 35.9479 24.8854 39.0938C23.5416 39.5 22.1666 39.8021 20.7604 39.9063C20.6562 39.9167 20.5624 39.9479 20.4583 39.9688C19.6249 40 18.8124 40 18.0104 40ZM33.552 9.91669C33.4895 9.96877 33.4583 9.97919 33.4479 10C33.4062 10.0625 33.3541 10.125 33.3229 10.1979C32.8749 11.0834 32.1979 11.6354 31.1666 11.7188C30.7499 11.75 30.4583 12.0104 30.2604 12.3854C30.0104 12.8438 29.7708 13.3021 29.5104 13.75C29.1354 14.3854 28.5833 14.75 27.8541 14.8542C27.5104 14.8959 27.177 14.8959 26.8437 14.8646C25.6562 14.7709 24.5312 15.4584 24.0729 16.5625C23.927 16.9167 23.8437 17.2813 23.7812 17.6563C23.6145 18.6979 23.2395 19.625 22.552 20.4375C22.1458 20.9271 21.7812 21.4479 21.4062 21.9688C21.1562 22.3125 21.1874 22.5625 21.5104 22.8125C21.927 23.125 22.3437 23.4375 22.7708 23.7292C23.1874 24.0104 23.9062 23.7604 24.0729 23.2917C24.8229 21.0625 27.0833 19.7396 29.302 20.2084C31.7916 20.7396 33.3437 22.9896 32.9687 25.5209C32.9479 25.6667 32.8749 25.8229 33.0416 25.9479C33.9166 26.6146 34.7916 27.2917 35.7187 28.0104C38.2187 21.5625 37.4999 15.5729 33.552 9.91669ZM13.7083 1.16669C11.5833 1.16669 9.96869 3.13544 10.3124 5.30211C10.6249 7.30211 11.6979 8.89586 13.0208 10.3438C13.4062 10.7709 14.0104 10.75 14.4062 10.3229C14.7083 10 14.9895 9.65627 15.2499 9.30211C16.2291 7.97919 16.9895 6.56252 17.1145 4.87502C17.2708 2.89586 15.6874 1.16669 13.7083 1.16669ZM25.0104 24.9167C25.0208 25.0209 25.0312 25.2084 25.0416 25.3854C25.052 25.4792 25.0624 25.5625 25.0833 25.6563C25.4479 27.5521 26.4791 29.0834 27.7395 30.4688C28.1354 30.8959 28.7291 30.8854 29.1249 30.4584C30.2395 29.2396 31.1562 27.8854 31.6249 26.2813C31.8333 25.5625 31.9374 24.8229 31.7916 24.0834C31.4374 22.2709 29.8333 21.125 27.9791 21.3334C26.3124 21.5 24.9895 23.0625 25.0104 24.9167Z" fill="#3190D2"/>
<path d="M13.6562 6.64584C12.5312 6.63542 11.6354 5.71876 11.6354 4.59376C11.6354 3.44792 12.552 2.54167 13.6979 2.55209C14.8437 2.56251 15.75 3.46876 15.7395 4.62501C15.7395 5.76042 14.8125 6.65626 13.6562 6.64584ZM14.5729 4.59376C14.5729 4.09376 14.1666 3.71876 13.6666 3.72917C13.1875 3.73959 12.8125 4.12501 12.8125 4.61459C12.8125 5.09376 13.1979 5.47917 13.677 5.47917C14.177 5.47917 14.5729 5.09376 14.5729 4.59376Z" fill="#3190D2"/>
<path d="M26.3645 24.7397C26.3541 23.6042 27.2811 22.6667 28.4165 22.6667C29.5415 22.6667 30.4895 23.6042 30.4895 24.7292C30.4895 25.8438 29.5728 26.7709 28.4582 26.7917C27.3332 26.8022 26.3749 25.8647 26.3645 24.7397ZM28.4374 23.8334C27.9686 23.823 27.5624 24.2188 27.5415 24.6876C27.5207 25.1667 27.927 25.5938 28.4165 25.6042C28.8957 25.6147 29.3228 25.1876 29.3124 24.7084C29.3124 24.2501 28.9061 23.8438 28.4374 23.8334Z" fill="#3190D2"/>
</g>
<defs>
<clipPath id="clip0_5_526">
<rect width="38.3542" height="40" fill="white"/>
</clipPath>
</defs>
</svg>
