<?xml version="1.0" encoding="utf-8"?>
<!-- Generator: Adobe Illustrator 23.0.1, SVG Export Plug-In . SVG Version: 6.00 Build 0)  -->
<svg version="1.1" id="Layer_1" xmlns="http://www.w3.org/2000/svg" xmlns:xlink="http://www.w3.org/1999/xlink" x="0px" y="0px"
	 width="30px" height="23.6px" viewBox="0 0 30 23.6" style="enable-background:new 0 0 30 23.6;" xml:space="preserve">
<g>
	<g>
		<g>
			<path d="M26.3,0H1.6C0.7,0,0,0.7,0,1.6v16.1c0,0.9,0.7,1.6,1.6,1.6h17.2c0.3,0,0.5-0.2,0.5-0.5s-0.2-0.5-0.5-0.5H1.6
				C1.3,18.3,1,18,1,17.7V1.6C1,1.3,1.3,1,1.6,1h24.7c0.3,0,0.6,0.3,0.6,0.6v7c0,0.3,0.2,0.5,0.5,0.5c0.3,0,0.5-0.2,0.5-0.5v-7
				C27.9,0.7,27.1,0,26.3,0z"/>
		</g>
	</g>
	<g>
		<g>
			<path d="M8.6,3.8H4.3c-0.6,0-1,0.5-1,1V8c0,0.6,0.5,1,1,1h4.3c0.6,0,1-0.5,1-1V4.8C9.6,4.2,9.1,3.8,8.6,3.8z M5.4,8.1H4.3
				c0,0,0,0,0,0V4.8c0,0,0,0,0,0h1.1V8.1z M8.6,8C8.6,8,8.6,8.1,8.6,8l-2.2,0V6.9h0.6c0.3,0,0.5-0.2,0.5-0.5S7.2,5.9,6.9,5.9H6.4
				V4.8h2.2c0,0,0,0,0,0V8z"/>
		</g>
	</g>
	<g>
		<g>
			<path d="M21.7,3.2c-0.6,0-1.1,0.2-1.6,0.5c-0.5-0.3-1-0.5-1.6-0.5c-1.6,0-2.9,1.3-2.9,2.9s1.3,2.9,2.9,2.9c0.6,0,1.1-0.2,1.6-0.5
				c0.5,0.3,1,0.5,1.6,0.5c1.6,0,2.9-1.3,2.9-2.9S23.3,3.2,21.7,3.2z M19.3,7.9c-0.3,0.1-0.5,0.2-0.9,0.2c-1.1,0-1.9-0.9-1.9-1.9
				s0.9-1.9,1.9-1.9c0.3,0,0.6,0.1,0.9,0.2c-0.3,0.5-0.6,1.1-0.6,1.7C18.8,6.8,19,7.4,19.3,7.9z M21.7,8.1c-0.3,0-0.6-0.1-0.9-0.2
				c0.3-0.5,0.6-1.1,0.6-1.7c0-0.3-0.2-0.5-0.5-0.5c-0.3,0-0.5,0.2-0.5,0.5c0,0.4-0.1,0.7-0.3,1c-0.2-0.3-0.3-0.7-0.3-1
				c0-1.1,0.9-1.9,1.9-1.9s1.9,0.9,1.9,1.9S22.8,8.1,21.7,8.1z"/>
		</g>
	</g>
	<g>
		<g>
			<path d="M8,11.8H3.7c-0.3,0-0.5,0.2-0.5,0.5c0,0.3,0.2,0.5,0.5,0.5H8c0.3,0,0.5-0.2,0.5-0.5C8.5,12,8.3,11.8,8,11.8z"/>
		</g>
	</g>
	<g>
		<g>
			<path d="M19.3,15H3.7c-0.3,0-0.5,0.2-0.5,0.5c0,0.3,0.2,0.5,0.5,0.5h15.6c0.3,0,0.5-0.2,0.5-0.5C19.8,15.3,19.6,15,19.3,15z"/>
		</g>
	</g>
	<g>
		<g>
			<path d="M14.5,11.8h-4.3c-0.3,0-0.5,0.2-0.5,0.5c0,0.3,0.2,0.5,0.5,0.5h4.3c0.3,0,0.5-0.2,0.5-0.5C15,12,14.7,11.8,14.5,11.8z"/>
		</g>
	</g>
	<g>
		<g>
			<path d="M19.8,11.8h-3.2c-0.3,0-0.5,0.2-0.5,0.5c0,0.3,0.2,0.5,0.5,0.5h3.2c0.3,0,0.5-0.2,0.5-0.5C20.3,12,20.1,11.8,19.8,11.8z"
				/>
		</g>
	</g>
	<g>
		<g>
			<path d="M28.9,15.7v-2.3c0-2.1-1.7-3.7-3.7-3.7s-3.7,1.7-3.7,3.7v2.3c-0.6,0.2-1.1,0.8-1.1,1.5V22c0,0.9,0.7,1.6,1.6,1.6h6.4
				c0.9,0,1.6-0.7,1.6-1.6v-4.8C30,16.5,29.5,15.9,28.9,15.7z M22.5,13.4c0-1.5,1.2-2.7,2.7-2.7s2.7,1.2,2.7,2.7v2.2h-5.4L22.5,13.4
				L22.5,13.4z M29,22c0,0.3-0.3,0.6-0.6,0.6H22c-0.3,0-0.6-0.3-0.6-0.6v-4.8c0-0.3,0.3-0.6,0.6-0.6h6.4c0.3,0,0.6,0.3,0.6,0.6V22z"
				/>
		</g>
	</g>
	<g>
		<g>
			<path d="M25.2,17.7c-0.7,0-1.3,0.6-1.3,1.3c0,0.5,0.3,1,0.8,1.2v0.7c0,0.3,0.2,0.5,0.5,0.5s0.5-0.2,0.5-0.5v-0.7
				c0.5-0.2,0.8-0.7,0.8-1.2C26.5,18.3,25.9,17.7,25.2,17.7z M25.2,19.3c-0.2,0-0.3-0.1-0.3-0.3c0-0.2,0.1-0.3,0.3-0.3
				c0.2,0,0.3,0.1,0.3,0.3S25.4,19.3,25.2,19.3z"/>
		</g>
	</g>
</g>
</svg>
