<?xml version="1.0" encoding="utf-8"?>
<!-- Generator: Adobe Illustrator 23.0.1, SVG Export Plug-In . SVG Version: 6.00 Build 0)  -->
<svg version="1.1" id="Layer_1" xmlns="http://www.w3.org/2000/svg" xmlns:xlink="http://www.w3.org/1999/xlink" x="0px" y="0px"
	 viewBox="0 0 360.05 359.79" style="enable-background:new 0 0 360.05 359.79;" xml:space="preserve">
<style type="text/css">
	.st0{fill:#165075;}
</style>
<g>
	<path class="st0" d="M240.34,21.13c-3.61,2.08-6.84,3.93-10.26,5.9c-4.36-6.71-10.01-11.65-17.74-13.62
		c-3.11-0.79-6.39-1.33-9.59-1.34c-39-0.09-78-0.08-117-0.05c-18.87,0.02-31.72,12.91-31.73,31.83c-0.02,70.75-0.01,141.5,0,212.25
		c0,1.3,0.13,2.61,0.25,4.99c1.27-2.02,2.01-3.1,2.66-4.23c5.94-10.26,11.75-20.6,17.82-30.78c5.39-9.05,15.01-13.26,25.29-11.44
		c9.11,1.62,16.88,9.03,18.72,18.7c0.73,3.81,0.12,7.87,0.12,12.44c5.69-6.49,13.16-5.84,20.52-5.76
		c5.62,0.06,11.25-0.03,16.87,0.02c9.95,0.1,17.73,8.02,17.73,17.97c0,9.95-7.78,17.89-17.72,17.98
		c-7.87,0.07-15.75,0.04-23.62,0.01c-11.01-0.03-18.46-7.48-18.62-18.59c-0.01-0.59-0.05-1.18-0.13-2.99
		c-6.73,11.65-12.91,22.34-19.31,33.42c1.27,0.09,1.97,0.18,2.67,0.18c35.37,0.01,70.75,0.07,106.12-0.03
		c14.29-0.04,25.82-8.77,29.37-22.19c0.91-3.45,1.15-7.14,1.22-10.73c0.17-8.85,0.05-17.71,0.05-26.8c4.04,0,7.82,0,12.69,0
		c-0.76,13.82-0.1,27.73-2.6,41.04c-3.34,17.82-20.94,30.6-39.15,30.65c-35.12,0.11-70.25,0.04-105.37,0.04c-1.35,0-2.71,0-4.78,0
		c1.95,3.32,3.5,6.24,5.31,8.99c5.66,8.62,8.35,17.97,7.92,28.34c-0.3,7.35-0.06,14.73-0.06,22.38c-3.95,0-7.74,0-11.97,0
		c0-6.34-0.31-12.69,0.07-19c0.62-10.27-1.9-19.46-7.77-27.91c-3.13-4.5-5.62-9.44-8.6-14.05c-2.08-3.22-2.01-6.12-0.09-9.4
		c8.63-14.76,17.18-29.57,25.67-44.42c3.76-6.58,1.87-13.77-4.29-17.08c-5.95-3.2-12.63-1.16-16.31,5.16
		c-8.35,14.35-16.61,28.75-24.9,43.13c-0.56,0.97-1.09,1.97-1.73,2.89c-3,4.28-8.07,4.16-10.67-0.42
		c-3.51-6.18-5.37-12.85-5.37-20.01c0.02-25.75,0.01-51.5,0.01-77.25c0-1.09,0-2.18,0-3.28c-0.18-0.06-0.36-0.11-0.54-0.17
		c-0.54,1.04-1.12,2.06-1.61,3.13c-7.47,16.19-14.9,32.41-22.41,48.59c-3.74,8.07-5.5,16.51-5.49,25.39
		c0.04,33.37,0.02,66.75,0.02,100.12c0,1.48,0,2.96,0,4.65c-3.97,0-7.67,0-11.97,0c0-1.34,0-2.77,0-4.2
		c0-33.87,0.07-67.75-0.04-101.62c-0.03-10.31,2.15-20.02,6.46-29.33c8.68-18.79,17.17-37.68,26.11-56.34
		c1.75-3.65,5.3-6.4,7.83-9.72c0.86-1.13,1.57-2.72,1.57-4.1c0.1-18.12,0.07-36.25,0.07-54.37c0-19.12-0.03-38.25,0.01-57.37
		C42.09,18.41,60.4,0.07,84.71,0.05c40-0.03,80-0.13,120,0.06c14.8,0.07,26.28,6.89,34.58,19.09
		C239.62,19.7,239.86,20.25,240.34,21.13z M143.89,264.04c3.86,0,7.72,0.09,11.58-0.03c3.79-0.12,6.43-2.6,6.52-5.85
		c0.09-3.39-2.65-6.06-6.63-6.11c-7.59-0.1-15.19-0.1-22.78,0.01c-3.8,0.05-6.43,2.58-6.51,5.84c-0.09,3.38,2.65,6,6.63,6.12
		C136.42,264.13,140.16,264.04,143.89,264.04z"/>
	<path class="st0" d="M263.9,29.38c47.06,0.55,86.6,33.91,94.72,80.43c9.11,52.22-26,101.98-78.29,110.75
		c-29.14,4.89-55.1-2.41-78.09-20.86c-1.32-1.06-3.65-1.66-5.32-1.37c-11.3,1.94-22.54,4.19-33.81,6.29
		c-3.14,0.59-6.32,0.89-8.4-2.34c-1.94-3.02-0.61-5.66,0.99-8.34c5.94-9.97,11.86-19.95,17.61-30.02c0.73-1.28,1.01-3.35,0.53-4.71
		c-19.64-56.08,12.22-114.09,70.09-127.13C250.46,30.6,257.24,30.25,263.9,29.38z M171.8,190.58c8.98-1.65,17.35-2.93,25.59-4.79
		c4.52-1.02,7.75,0.06,11.2,3.04c19.95,17.25,43.06,24.07,69.18,19.86c44.92-7.24,76.11-49.82,69.42-94.54
		c-7.05-47.09-50.63-78.72-97.51-70.78c-52,8.81-83.14,63.58-63.85,112.67c1.92,4.88,1.61,8.62-1.16,12.9
		C180.24,175.82,176.28,183,171.8,190.58z"/>
	<path class="st0" d="M121.32,79.32c3.27,3.45,5.9,6.23,9.12,9.64c-2.29,2.04-4.67,4.24-7.13,6.33c-1.64,1.4-1.96,2.56-0.84,4.73
		c9.31,18.13-0.45,39.29-20.31,43.49c-11.85,2.51-22.13-1.12-29.72-10.67c-7.67-9.65-8.87-20.56-3.6-31.65
		c5.13-10.8,14.08-16.91,26.12-16.94c5.04-0.01,10.21,1.77,15.08,3.43c2.21,0.76,3.36,0.68,4.74-0.94
		C116.87,84.28,119.05,81.88,121.32,79.32z M103.77,98.12c-8.82-3.99-18.1-1.19-22.86,6.38c-4.85,7.7-3.31,17.36,3.71,23.3
		c6.56,5.56,16.41,5.39,23.07-0.15c5.11-4.26,8.8-14.47,3.71-21.27c-5.82,5.91-11.57,11.74-16.88,17.13
		c-2.86-2.59-5.69-5.14-8.78-7.94C91.73,109.77,97.54,104.14,103.77,98.12z"/>
	<path class="st0" d="M120.28,24.23c15.79,0,31.46,0,47.43,0c0,3.71,0,7.49,0,11.53c-15.68,0-31.43,0-47.43,0
		C120.28,31.98,120.28,28.2,120.28,24.23z"/>
	<path class="st0" d="M161.83,107.87c-7.93,0-15.61,0-23.53,0c0-3.86,0-7.63,0-11.62c7.82,0,15.59,0,23.53,0
		C161.83,100.09,161.83,103.78,161.83,107.87z"/>
	<path class="st0" d="M138.22,131.77c0-3.99,0-7.68,0-11.54c7.86,0,15.53,0,23.5,0c0,3.73,0,7.51,0,11.54
		C154.02,131.77,146.26,131.77,138.22,131.77z"/>
	<path class="st0" d="M96.35,24.13c3.91,0,7.5,0,11.37,0c0,3.84,0,7.61,0,11.64c-3.71,0-7.48,0-11.37,0
		C96.35,31.86,96.35,28.01,96.35,24.13z"/>
	<path class="st0" d="M240.18,90.05c-0.96-9.59,0.84-18.03,8.28-24.33c4.87-4.12,10.55-6.06,16.97-5.66
		c7.43,0.46,13.34,3.75,17.88,9.6c4.58,5.9,5.12,12.8,4.63,20.39c5.75,0,11.2-0.01,16.65,0c5.45,0.02,7.42,1.98,7.43,7.44
		c0.01,23.37,0.03,46.74-0.01,70.12c-0.02,10.7-7.72,18.38-18.45,18.4c-19.75,0.03-39.5,0.04-59.24,0
		c-10.47-0.02-18.24-7.77-18.26-18.21c-0.04-23.5-0.02-46.99-0.01-70.49c0-5.24,2.01-7.23,7.23-7.26
		C228.74,90.03,234.21,90.05,240.18,90.05z M299.86,102.23c-4.15,0-7.85,0-11.96,0c0,4,0,7.8,0,11.59c-4.12,0-7.81,0-11.92,0
		c0-3.97,0-7.77,0-11.53c-8.21,0-16,0-24.07,0c0,3.98,0,7.68,0,11.47c-4.07,0-7.86,0-12.05,0c0-4.04,0-7.84,0-11.54
		c-4.12,0-7.82,0-11.6,0c0,16,0,31.78,0,47.54c24.03,0,47.81,0,71.61,0C299.86,133.79,299.86,118.1,299.86,102.23z M228.02,162.22
		c0,1.91-0.08,3.64,0.02,5.35c0.22,3.94,2.45,6.41,6.36,6.42c19.75,0.09,39.49,0.09,59.24,0c3.91-0.02,6.14-2.49,6.37-6.42
		c0.1-1.71,0.02-3.44,0.02-5.35C275.92,162.22,252.13,162.22,228.02,162.22z M275.87,89.89c0.61-6.76,0.16-12.77-6.22-16.32
		c-4.48-2.49-8.97-2-12.95,1.09c-5.08,3.95-5.11,9.47-4.42,15.23C260.24,89.89,267.92,89.89,275.87,89.89z"/>
</g>
</svg>
