<svg width="24" height="24" viewBox="0 0 24 24" fill="none" xmlns="http://www.w3.org/2000/svg">
<g clip-path="url(#clip0_156_16)">
<path d="M17.8944 24C17.559 23.9441 17.2174 23.9006 16.882 23.8385C15.5776 23.5963 14.354 23.1056 13.1739 22.5218C11.2298 21.5652 9.42854 20.3975 7.80743 18.9628C4.55898 16.0932 1.99376 12.7329 0.546556 8.5963C0.192519 7.57145 -0.0248722 6.52176 -2.75081e-05 5.4348C0.0248172 4.38512 0.366432 3.45965 1.10556 2.7081C1.76395 2.03729 2.4037 1.34785 3.10556 0.732942C4.24842 -0.260847 5.41612 -0.248425 6.5155 0.782631C7.6273 1.82611 8.70805 2.89443 9.73289 4.02487C10.5714 4.95033 10.5652 6.16151 9.75153 7.10561C9.1801 7.764 8.54656 8.37269 7.90681 8.96897C7.77637 9.08698 7.77016 9.17394 7.84469 9.323C8.46581 10.6211 9.36022 11.7143 10.3354 12.7578C11.323 13.8199 12.4099 14.764 13.6335 15.5466C13.9565 15.7516 14.3043 15.9131 14.6335 16.1118C14.7639 16.1926 14.8447 16.1739 14.9503 16.0683C15.4658 15.5404 15.9938 15.0124 16.5217 14.4907C16.9317 14.0808 17.3913 13.7516 17.9813 13.6584C18.7764 13.528 19.4472 13.7826 20.0062 14.3354C21.0248 15.3354 22.031 16.3478 23.0372 17.3603C24.118 18.4472 24.2112 19.6833 23.2049 20.8385C22.5093 21.6398 21.7453 22.3789 20.9751 23.1056C20.4285 23.6211 19.7391 23.8758 18.9876 23.9628C18.9317 23.969 18.882 23.9938 18.8323 24.0062C18.5155 24 18.2049 24 17.8944 24ZM1.21736 5.44723C1.22358 6.73915 1.52792 7.764 1.91302 8.77642C2.98134 11.6274 4.70184 14.0621 6.75153 16.2795C8.75153 18.4348 11.0807 20.1553 13.7267 21.4472C15.0435 22.0932 16.3975 22.6149 17.8695 22.7702C18.764 22.8634 19.6149 22.7578 20.2919 22.1118C20.9813 21.4472 21.6521 20.7578 22.3043 20.0497C22.8261 19.4783 22.8199 18.8944 22.2795 18.3416C21.236 17.2733 20.1801 16.2236 19.118 15.1801C18.6894 14.7578 18.1304 14.7516 17.6521 15.1242C17.5403 15.2112 17.441 15.3106 17.3416 15.41C16.7577 15.9876 16.1863 16.5714 15.6025 17.1491C15.2236 17.5218 14.8136 17.5901 14.3416 17.3478C14 17.1739 13.6584 17 13.3354 16.8013C11.7888 15.8758 10.4472 14.7019 9.24221 13.3727C8.236 12.2671 7.31674 11.0994 6.69563 9.72052C6.37264 9.01244 6.42854 8.69567 6.99997 8.16772C7.61488 7.59008 8.22358 7.00623 8.78879 6.3789C9.27327 5.84474 9.27327 5.29816 8.77637 4.77642C8.0124 3.97518 7.22358 3.19878 6.44097 2.40996C6.15525 2.12425 5.86954 1.83232 5.56519 1.56524C5.07451 1.14288 4.53413 1.13667 4.03724 1.52797C3.93786 1.60251 3.84469 1.68946 3.75774 1.77642C3.21736 2.31679 2.6832 2.86338 2.13041 3.39754C1.49687 4.01244 1.19252 4.75779 1.21736 5.44723Z" fill="black"/>
</g>
<defs>
<clipPath id="clip0_156_16">
<rect width="23.9006" height="24" fill="white"/>
</clipPath>
</defs>
</svg>
