<?xml version="1.0" encoding="utf-8"?>
<!-- Generator: Adobe Illustrator 23.0.1, SVG Export Plug-In . SVG Version: 6.00 Build 0)  -->
<svg version="1.1" id="Layer_1" xmlns="http://www.w3.org/2000/svg" xmlns:xlink="http://www.w3.org/1999/xlink" x="0px" y="0px"
	 viewBox="0 0 101.99 125.53" style="enable-background:new 0 0 101.99 125.53;" xml:space="preserve">
<g>
	<path d="M56.38,0c2.34,0.33,4.69,0.58,7.01,1c7.32,1.33,14.11,4.01,20.19,8.33c9.87,7.03,16.23,16.4,17.89,28.5
		c1.8,13.04-1.04,25.2-8.46,36.09c-5.75,8.45-13.66,14.09-23.69,16.41c-6.52,1.51-13.03,1.57-19.29-1.3
		c-3.06-1.4-5.71-3.3-7.74-6.35c-0.82,2.99-1.56,5.75-2.35,8.5c-1.55,5.4-2.7,10.92-5.07,16.06c-2.85,6.18-6.41,11.92-10.25,17.51
		c-0.24,0.35-0.75,0.52-1.14,0.77c-0.28-0.5-0.73-0.98-0.81-1.51c-1.71-11.05-2.22-22,0.93-32.99c2.92-10.22,5.2-20.62,7.73-30.95
		c0.13-0.54,0.04-1.21-0.15-1.74c-2.54-6.9-2.94-13.78,0.28-20.57c1.53-3.22,3.82-5.82,7.14-7.3c7.04-3.13,15.36,0.16,15.12,9.89
		c-0.11,4.43-1.58,8.55-2.84,12.73c-1.19,3.94-2.48,7.85-3.56,11.82c-1.78,6.51,1.74,12.39,8.35,13.81
		c5.82,1.24,11.09-0.35,15.77-3.86c5.26-3.95,8.43-9.37,10.32-15.55c2.35-7.69,3.14-15.53,1.12-23.41
		c-2.31-8.99-7.91-15.34-16.28-19.21c-7.18-3.32-14.75-3.9-22.51-2.78c-7.44,1.08-13.99,4.04-19.44,9.26
		c-10.17,9.75-13.43,25.69-5.59,38.42c0.11,0.17,0.18,0.39,0.33,0.52c2.12,1.86,1.95,4.05,1.11,6.46c-0.61,1.76-0.95,3.62-1.43,5.43
		c-0.54,2.03-1.27,2.35-3.2,1.43c-3.16-1.51-5.79-3.7-7.89-6.47c-6.51-8.58-9-18.22-7.55-28.91c0.83-6.06,2.7-11.73,5.87-16.97
		c5.13-8.51,12.4-14.53,21.5-18.39c6.1-2.59,12.49-3.99,19.09-4.45c0.4-0.03,0.79-0.15,1.19-0.23C50.82,0,53.6,0,56.38,0z"/>
</g>
</svg>
