<?xml version="1.0" encoding="utf-8"?>
<!-- Generator: Adobe Illustrator 23.0.1, SVG Export Plug-In . SVG Version: 6.00 Build 0)  -->
<svg version="1.1" id="Layer_1" xmlns="http://www.w3.org/2000/svg" xmlns:xlink="http://www.w3.org/1999/xlink" x="0px" y="0px"
	 width="18px" height="16.2px" viewBox="0 0 18 16.2" enable-background="new 0 0 18 16.2" xml:space="preserve">
<path fill="#494949" d="M15.3,4.5H2.7C1.2,4.5,0,5.7,0,7.2v5.4h3.6v3.6h10.8v-3.6H18V7.2C18,5.7,16.8,4.5,15.3,4.5z M12.6,14.4H5.4
	V9.9h7.2V14.4z M15.3,8.1c-0.5,0-0.9-0.4-0.9-0.9s0.4-0.9,0.9-0.9s0.9,0.4,0.9,0.9S15.8,8.1,15.3,8.1z M14.4,0H3.6v3.6h10.8V0z"/>
<path fill="none" d="M-15-15.9h48v48h-48V-15.9z"/>
</svg>
