<?xml version="1.0" encoding="utf-8"?>
<!-- Generator: Adobe Illustrator 23.0.1, SVG Export Plug-In . SVG Version: 6.00 Build 0)  -->
<svg version="1.1" id="Layer_1" xmlns="http://www.w3.org/2000/svg" xmlns:xlink="http://www.w3.org/1999/xlink" x="0px" y="0px"
	 viewBox="0 0 361.67 361.67" style="enable-background:new 0 0 361.67 361.67;" xml:space="preserve">
<style type="text/css">
	.st0{fill:#165075;}
</style>
<g>
	<path class="st0" d="M167.41,361.67c-6.69-2.45-11.92-6.42-13.77-13.61c-13.7,0.14-20.43-4.2-24.7-15.93
		c-2.8,0-5.75,0.36-8.57-0.07c-8-1.22-13.4-5.96-16.35-13.39c-0.69-1.74-1.33-2.34-3.27-2.1c-8.47,1.05-15.32-2.03-20.1-9.02
		c-4.78-7-4.95-14.49-1.06-22.04c0.43-0.84,0.89-1.66,1.51-2.8c-11.8-7.92-24.6-13.3-38.83-16.03c-2.2,8.83-8.34,11.18-16.36,10.78
		c-4.23-0.21-8.47,0.01-12.71-0.05c-8.29-0.11-13.19-5.02-13.19-13.2C0,238.79,0,213.36,0.01,187.94c0-8.24,4.85-13.16,13.11-13.28
		c4.47-0.06,8.95-0.01,13.42-0.01c10.05,0,13.13,2.24,16.12,11.89c7.68,0,15.41,0,23.66,0c0-1.59,0-3.07,0-4.56
		c0-55.68,0-111.36,0.02-167.04c0-2.11-0.07-4.29,0.45-6.3c1.34-5.2,5.99-8.63,11.54-8.63C133.06-0.01,187.79,0,242.53,0
		c4.7,0,8.79,1.68,12.09,4.95c11.95,11.85,23.85,23.76,35.72,35.69c3.99,4.01,5.06,9.01,5.05,14.55
		c-0.08,40.38-0.04,80.75-0.04,121.13c0,1.38,0,2.77,0,4.33c8.09,0,15.81,0,23.68,0c0.44-1.48,0.73-3.11,1.4-4.55
		c2.11-4.52,5.6-7.19,10.73-7.27c4.83-0.07,9.68,0.31,14.47-0.11c7.37-0.65,12.77,1.84,16.04,8.58c0,28.26,0,56.51,0,84.77
		c-2.66,6.78-7.57,9.71-14.88,9.23c-5.16-0.33-10.36-0.01-15.54-0.08c-5.16-0.07-9.55-3.34-11.18-8.21
		c-0.36-1.08-0.7-2.16-1.01-3.15c-8.5-0.27-20.82,2.23-25.51,5.15c2.21,5.65,2.59,11.39,0.21,17.12c-2.42,5.86-6.9,9.64-12.75,11.98
		c2.64,7.42,1.74,14.19-2.73,20.3c-4.48,6.12-10.84,8.69-18.21,8.56c-2.57,13.62-6.66,17.6-20.41,20.93
		c-2.55,4.41-4.11,8.6-6.91,11.66c-6.1,6.66-15.72,7.08-23.46,1.62c-5.82-4.11-11.52-8.38-17.52-12.77
		c-3.97,7.64-8.11,14.59-16.58,17.25C172.59,361.67,170,361.67,167.41,361.67z M283.12,54.33c-1.4,0-2.55,0-3.7,0
		c-8.36,0-16.71,0.02-25.07-0.01c-8.34-0.03-13.31-5.04-13.37-13.45c-0.03-4.12,0-8.24,0-12.36c0-5.38,0-10.76,0-16.29
		c-54.35,0-108.31,0-162.42,0c0,58.16,0,116.13,0,174.25c5.07,0.62,9.68,0.38,13.69-3.14c2.2-1.93,4.64-3.62,7.08-5.25
		c12.08-8.08,25.04-14.28,39.75-14.91c9.82-0.43,19.7,0.67,29.55,0.99c1.28,0.04,2.83-0.13,3.84-0.82
		c11.51-7.92,23.46-8.84,35.95-2.56c10.7,5.38,21.51,10.54,32.06,16.2c5.37,2.88,10.75,4.17,16.82,3.95
		c8.54-0.32,17.11-0.08,25.82-0.08C283.12,138.6,283.12,96.74,283.12,54.33z M159.89,286.83c0.39,0.05,0.84,0.11,1.29,0.15
		c11.34,1.06,17.61,6.48,20.59,17.51c0.25,0.93,1.72,1.97,2.78,2.18c8.01,1.57,13.85,5.85,15.42,13.98
		c0.82,4.26-0.23,8.88-0.43,13.34c-0.69,0.26-0.48,0.55-0.21,0.76c5.59,4.11,11.15,8.26,16.79,12.31c3.31,2.38,7.02,1.88,9.03-1.03
		c1.92-2.78,1.16-6.15-2.05-8.57c-2.91-2.19-5.98-4.19-8.81-6.47c-1.22-0.99-2.44-2.33-2.96-3.77c-0.9-2.52-0.16-4.91,2.09-6.57
		c2.37-1.75,4.83-1.68,7.2,0c4.32,3.06,8.52,6.29,12.93,9.21c5.94,3.92,13.34,0.56,14.09-6.33c0.43-3.9-1.51-6.71-4.58-8.93
		c-6.48-4.68-12.98-9.35-19.36-14.18c-3.07-2.32-3.52-5.99-1.42-8.7c2.01-2.59,5.49-3.06,8.54-1.09c0.99,0.64,1.9,1.38,2.85,2.08
		c7.31,5.35,14.55,10.8,21.94,16.03c6.28,4.45,14.23,0.98,14.67-6.35c0.29-4.85-2.94-7.64-6.48-10.17
		c-6.7-4.78-13.51-9.43-19.96-14.52c-1.52-1.2-2.73-4.17-2.38-5.99c0.35-1.81,2.62-3.93,4.5-4.54c1.61-0.53,4.16,0.43,5.76,1.52
		c5.84,3.96,11.4,8.32,17.16,12.39c3.42,2.41,7.96,2.27,10.87-0.03c2.98-2.35,4.44-6.38,2.91-9.74c-0.92-2.02-2.47-4.06-4.28-5.33
		c-27.53-19.32-55.16-38.51-82.77-57.72c-0.74-0.51-1.55-0.91-2.36-1.37c-10.25,9.51-20.3,18.92-30.43,28.24
		c-8.9,8.19-21.94,7.97-30.19-0.41c-8.29-8.41-8.25-21.28,0.14-30.16c8.16-8.65,16.35-17.26,24.53-25.89
		c0.79-0.83,1.53-1.71,2.83-3.17c-8.29,0-15.94-0.72-23.4,0.16c-13.91,1.64-25.8,8.37-36.61,16.99c-5.49,4.38-11.55,6.52-18.55,6.46
		c-11.77-0.09-23.54-0.03-35.31-0.03c-1.24,0-2.48,0-3.76,0c0,18.7,0,36.89,0,55.1c16.17,3.11,31.01,9.04,45.09,18.15
		c4.14-8.33,9.47-15.36,19.36-16.34c9.99-0.99,17.15,3.66,21.84,12.29C145.4,263.08,154.07,268.26,159.89,286.83z M319.19,192.86
		c-1.54,0-2.81,0-4.08,0c-21.3,0-42.59,0.13-63.89-0.12c-3.72-0.04-7.72-1.03-11.09-2.63c-12.3-5.83-24.37-12.14-36.56-18.2
		c-10.52-5.23-19.45-3.69-27.5,4.72c-6.84,7.13-13.63,14.31-20.44,21.48c-4.78,5.03-9.66,9.98-14.29,15.15
		c-4.82,5.38-2.64,13.33,4.05,15.31c3.76,1.11,6.88-0.18,9.65-2.77c9.46-8.83,18.94-17.65,28.43-26.44
		c6.6-6.11,11.43-6.45,18.86-1.28c24.61,17.12,49.33,34.07,73.7,51.52c5.65,4.04,10.54,6.41,16.84,2.28c0.37-0.24,0.88-0.3,1.34-0.4
		c8.23-1.7,16.46-3.39,24.98-5.14C319.19,229.1,319.19,211.25,319.19,192.86z M331.91,180.92c0,26.27,0,52.19,0,78.05
		c6.03,0,11.74,0,17.44,0c0-26.17,0-52.09,0-78.05C343.42,180.92,337.78,180.92,331.91,180.92z M29.87,187.27
		c-5.99,0-11.78,0-17.55,0c0,26.04,0,51.82,0,77.54c6,0,11.71,0,17.55,0C29.87,238.85,29.87,213.14,29.87,187.27z M123.53,320.15
		c0.19,0.3,0.38,0.59,0.57,0.89c2.34-1.51,5.48-2.49,6.89-4.61c5.39-8.11,10.37-16.5,15.23-24.95c2.38-4.15,0.71-9.29-3.22-11.71
		c-4.05-2.48-9.22-1.66-11.84,2.46c-5.29,8.32-10.49,16.72-15.27,25.34C112.74,313.23,117.11,319.98,123.53,320.15z M98.54,305.37
		c2.25-1.47,5.21-2.45,6.61-4.49c4.38-6.38,8.31-13.08,12.15-19.81c2.39-4.19,0.85-9.24-3.09-11.74c-3.93-2.49-9.24-1.71-11.89,2.34
		c-4.31,6.57-8.49,13.27-12.19,20.2C86.98,297.78,91.41,304.51,98.54,305.37z M160.45,298.59c-2.18,1.39-5.07,2.28-6.41,4.25
		c-4.47,6.59-8.58,13.45-12.44,20.42c-2.24,4.03-0.46,8.98,3.38,11.35c3.69,2.27,9.23,1.49,11.67-2.25
		c4.35-6.67,8.6-13.45,12.31-20.49C172.09,305.94,167.54,299.28,160.45,298.59z M189.16,324.15c-1.45-1.54-2.74-3.83-4.67-4.74
		c-2.81-1.33-5.5-0.14-7.2,2.67c-3.52,5.82-7.07,11.63-10.56,17.48c-2.33,3.91-1.78,7.28,1.39,9.22c3.13,1.92,6.41,0.83,8.8-3.06
		c3.44-5.6,6.84-11.23,10.19-16.88C187.81,327.65,188.23,326.3,189.16,324.15z M274.45,41.98c-7.03-7.36-13.51-14.16-20-20.96
		c-0.3,0.29-0.6,0.58-0.89,0.87c0,6.64,0,13.28,0,20.09C260.37,41.98,266.92,41.98,274.45,41.98z"/>
	<path class="st0" d="M114.37,125.01c0-11.8,0-23.32,0-35.06c-6.23-1.66-11.82-4.49-16.17-9.36c-14.82-16.54-7.81-42.35,13.4-49.13
		c1.67-0.53,2.75-0.96,3.21-2.98c0.62-2.75,2.76-4.39,5.69-4.38c3.05,0.01,4.86,1.72,6,4.57c0.45,1.12,1.77,2.27,2.94,2.66
		c12.36,4.14,20.67,14.84,21.2,27.56c0.18,4.43-1.97,7.26-5.67,7.45c-3.61,0.19-6.16-2.51-6.45-6.83
		c-0.52-7.59-5.3-14.02-11.73-15.54c0,11.63,0,23.21,0,34.83c11.88,3.3,19.94,10.43,23.04,22.51c3.88,15.15-4.66,30.68-19.52,35.73
		c-1.94,0.66-3.61,1.05-4.35,3.75c-0.45,1.67-3.23,3.32-5.24,3.78c-2.58,0.6-5.08-1.1-5.63-3.72c-0.55-2.65-2.23-3.13-4.23-3.81
		c-12-4.08-20.47-15.61-20.42-27.7c0.02-4.17,2.28-6.81,5.9-6.87c3.51-0.06,5.74,2.24,6.13,6.3
		C103.22,116.89,107.29,122.58,114.37,125.01z M126.75,125.07c7.71-2.82,12.12-9.72,11.74-17.8c-0.32-6.88-5.4-13.51-11.74-15.15
		C126.75,103.02,126.75,113.88,126.75,125.07z M114.47,76.74c0-5.57,0-11.07,0-16.56c0-5.44,0-10.88,0-16.52
		c-7.48,2.72-12.3,9.87-11.99,17.13C102.8,68.16,107.71,74.81,114.47,76.74z"/>
	<path class="st0" d="M213.92,132.72c-14.36,0-28.71,0.01-43.07-0.02c-1.39,0-2.85-0.1-4.15-0.53c-2.81-0.92-4.19-3.18-3.96-5.99
		c0.24-2.93,1.93-5.03,5.06-5.48c1.27-0.18,2.58-0.2,3.87-0.2c28.24-0.01,56.49-0.01,84.73-0.01c0.71,0,1.41-0.02,2.12,0.02
		c4.14,0.22,6.81,2.66,6.76,6.14c-0.05,3.51-2.78,6-6.88,6.05c-6,0.07-12,0.02-18,0.02C231.57,132.72,222.74,132.72,213.92,132.72z"
		/>
	<path class="st0" d="M213.95,102.44c-14.94,0-29.89-0.01-44.83,0c-3.27,0-5.38-1.55-6.21-4.66c-0.77-2.89,0.46-5.12,2.91-6.54
		c1.04-0.6,2.46-0.79,3.7-0.79c29.65-0.04,59.3-0.04,88.96-0.02c4.08,0,6.82,2.5,6.8,6.02c-0.02,3.52-2.72,5.96-6.86,5.97
		C243.6,102.46,228.78,102.44,213.95,102.44z"/>
	<path class="st0" d="M199.21,60.14c9.75,0,19.51-0.05,29.26,0.03c3.87,0.03,6.52,2.53,6.67,5.89c0.15,3.49-2.47,6.05-6.56,6.35
		c-0.82,0.06-1.64,0.03-2.47,0.03c-18.1,0-36.2,0-54.3,0c-0.82,0-1.65,0.03-2.47-0.03c-4.1-0.28-6.8-2.8-6.7-6.25
		c0.09-3.46,2.86-5.98,6.95-6C179.47,60.09,189.34,60.14,199.21,60.14z"/>
	<path class="st0" d="M195.9,42.29c-8.83,0-17.65,0.05-26.48-0.02c-4.02-0.03-6.81-2.71-6.77-6.18c0.04-3.36,2.63-5.74,6.56-5.99
		c1.06-0.07,2.12-0.03,3.18-0.03c15.77,0,31.54,0,47.31,0c0.94,0,1.89-0.03,2.82,0.03c4.07,0.25,6.42,2.44,6.47,5.97
		c0.05,3.66-2.49,6.17-6.62,6.2C213.55,42.35,204.72,42.29,195.9,42.29z"/>
</g>
</svg>
