<?xml version="1.0" encoding="utf-8"?>
<svg version="1.1" id="Layer_1" xmlns="http://www.w3.org/2000/svg" xmlns:xlink="http://www.w3.org/1999/xlink" x="0px" y="0px"
	 width="18px" height="18px" viewBox="0 0 18 18" enable-background="new 0 0 18 18" xml:space="preserve">
<g>
	<path d="M0,9.6c0-0.4,0-0.8,0-1.1c0-0.1,0-0.1,0-0.2c0-0.4,0.1-0.9,0.2-1.3c1.1-4.8,5.8-7.8,10.7-6.8c4,0.8,7,4.4,7.1,8.5
		c0.1,2.4-0.7,4.5-2.2,6.3c-1.4,1.6-3.1,2.6-5.2,2.9c-0.3,0.1-0.7,0.1-1,0.1c-0.4,0-0.8,0-1.1,0c0,0-0.1,0-0.1,0
		c-1.8-0.1-3.4-0.8-4.8-1.9c-1.8-1.4-2.9-3.3-3.3-5.6C0.1,10.2,0,9.9,0,9.6z M8.8,4.5c-0.3,0-0.7,0.1-1.1,0.2
		C7.2,4.9,6.8,5.2,6.6,5.8c-0.1,0.4,0,0.7,0.3,0.9c0.3,0.2,0.6,0.1,0.8-0.3C8.2,5.8,8.9,5.6,9.5,6c0.3,0.1,0.4,0.4,0.4,0.7
		c0,0.3-0.1,0.5-0.4,0.7C9.4,7.6,9.2,7.7,9,7.9C8.3,8.4,8.1,9,8.1,9.8c0,0.7,0.2,0.8,0.9,0.7c0,0,0.1,0,0.1,0
		c0.2-0.1,0.4-0.2,0.4-0.5c0-0.1,0-0.2,0-0.3c0-0.4,0.1-0.7,0.4-0.9c0.1-0.1,0.2-0.2,0.3-0.3c0.4-0.3,0.7-0.7,1-1.1
		c0.6-1,0.2-2.1-0.9-2.6C9.8,4.6,9.4,4.5,8.8,4.5z M8.7,11.4c-0.5,0-0.9,0.4-0.9,0.9c0,0.5,0.4,0.9,0.9,0.9c0.5,0,0.9-0.4,0.9-0.9
		C9.6,11.8,9.2,11.4,8.7,11.4z" fill="#4a494a"/>
</g>
</svg>
