<svg width="20" height="20" viewBox="0 0 20 20" fill="none" xmlns="http://www.w3.org/2000/svg">
<g clip-path="url(#clip0_264_889)">
<path d="M0 2.03109C0.10414 1.63525 0.2239 1.24984 0.484249 0.921712C0.94767 0.343587 1.54647 0.0102539 2.28586 0.00504557C4.89977 -0.00537109 7.51887 -0.00016276 10.1328 -0.00016276C10.3671 -0.00016276 10.565 0.0831706 10.7264 0.249837C12.2781 1.80192 13.8297 3.354 15.3762 4.90609C15.5428 5.07275 15.6209 5.27067 15.6157 5.50505C15.6157 5.92171 15.6157 6.33838 15.6157 6.75505C15.6105 7.21338 15.2773 7.56234 14.8399 7.56755C14.3973 7.57276 14.0588 7.21859 14.0536 6.74984C14.0536 6.59359 14.0536 6.43734 14.0536 6.2863C13.9807 6.23421 13.9078 6.25505 13.8401 6.25505C13.1424 6.25505 12.4499 6.25505 11.7521 6.25505C10.3983 6.24984 9.37256 5.21859 9.37256 3.86442C9.37256 3.10921 9.37256 2.354 9.37256 1.604C9.30487 1.54671 9.23197 1.57275 9.16428 1.57275C6.92007 1.57275 4.67587 1.57275 2.42645 1.57275C1.87972 1.56234 1.56209 1.88005 1.56209 2.42171C1.56209 7.4738 1.56209 12.5259 1.56209 17.578C1.56209 18.1196 1.87972 18.4425 2.42124 18.4425C3.53554 18.4425 4.64462 18.4425 5.75892 18.4425C6.22754 18.4425 6.53996 18.6821 6.61807 19.0988C6.68576 19.4842 6.47227 19.8071 6.0453 19.979C6.03489 19.9842 6.02447 19.9946 6.01406 20.005C4.68628 20.005 3.3585 20.005 2.03072 20.005C1.99948 19.9634 1.94741 19.9738 1.90575 19.9634C1.21843 19.8175 0.687321 19.4425 0.317626 18.8384C0.156209 18.5675 0.0885186 18.2655 0 17.9686C0 12.6561 0 7.34359 0 2.03109ZM10.9399 2.71338C10.9399 3.15088 10.9242 3.58838 10.9451 4.01546C10.9607 4.33317 11.2158 4.60921 11.5387 4.65609C11.9917 4.7238 12.4499 4.67692 12.9133 4.68213C12.252 4.02067 11.6064 3.37484 10.9399 2.71338Z" fill="#333333"/>
<path d="M8.86818 20C8.54014 19.875 8.30062 19.6614 8.25896 19.2916C8.24334 19.1354 8.2902 18.9843 8.32145 18.8281C8.436 18.2656 8.54014 17.7083 8.6599 17.1458C8.82132 16.401 9.1806 15.7604 9.71692 15.2239C11.9507 12.9843 14.1897 10.75 16.4235 8.5156C16.7828 8.15622 17.2358 8.16143 17.6003 8.52081C18.3084 9.22914 19.0166 9.93747 19.7247 10.6458C20.0944 11.0156 20.0996 11.4687 19.7299 11.8333C17.4961 14.0729 15.2676 16.3021 13.0338 18.5312C12.3777 19.1875 11.581 19.5312 10.675 19.6927C10.1855 19.776 9.69088 19.8541 9.21184 20C9.10249 20 8.98273 20 8.86818 20ZM10.0502 18.2031C10.7739 18.1146 11.4404 17.9271 11.9767 17.3854C13.9658 15.3802 15.9653 13.3854 17.9648 11.3906C18.0116 11.3437 18.0689 11.3125 18.0793 11.2708C17.7096 10.901 17.3451 10.5364 16.9702 10.1614C16.9442 10.1927 16.913 10.2396 16.8713 10.2812C14.8979 12.2552 12.9348 14.2396 10.9458 16.1979C10.373 16.7604 10.1387 17.4323 10.0502 18.2031Z" fill="#333333"/>
<path d="M7.81597 9.06242C6.51944 9.06242 5.22811 9.06242 3.93157 9.06242C3.36401 9.06242 2.9839 8.53638 3.17135 8.02075C3.28591 7.70304 3.57229 7.50513 3.94198 7.50513C5.11876 7.50513 6.29554 7.50513 7.47231 7.50513C8.8782 7.50513 10.2841 7.50513 11.6848 7.50513C12.0232 7.50513 12.2731 7.65096 12.4189 7.95825C12.5595 8.26034 12.5127 8.54679 12.2992 8.79679C12.1326 8.99471 11.9139 9.06763 11.6587 9.06763C10.3778 9.06242 9.09689 9.06242 7.81597 9.06242Z" fill="#333333"/>
<path d="M7.05106 10.625C8.10287 10.625 9.15989 10.625 10.2117 10.625C10.5606 10.625 10.8469 10.8333 10.9563 11.151C11.0604 11.4635 10.9615 11.8073 10.7064 12.0104C10.5658 12.125 10.3991 12.1823 10.2169 12.1823C8.11328 12.1823 6.01487 12.1823 3.91125 12.1823C3.46345 12.1823 3.125 11.8385 3.125 11.4062C3.125 10.9688 3.46866 10.625 3.92687 10.625C4.96827 10.625 6.00966 10.625 7.05106 10.625Z" fill="#333333"/>
<path d="M5.60287 13.75C6.13398 13.75 6.6703 13.75 7.20141 13.75C7.69087 13.75 8.03973 14.0781 8.03973 14.5312C8.03973 14.9844 7.69087 15.3125 7.1962 15.3125C6.11836 15.3125 5.04052 15.3125 3.95746 15.3125C3.46801 15.3125 3.11914 14.9844 3.11914 14.5312C3.11914 14.0781 3.46801 13.7552 3.96267 13.75C4.51461 13.75 5.06134 13.75 5.60287 13.75Z" fill="#333333"/>
</g>
<defs>
<clipPath id="clip0_264_889">
<rect width="20" height="20" fill="white"/>
</clipPath>
</defs>
</svg>
