<?xml version="1.0" encoding="utf-8"?>
<!-- Generator: Adobe Illustrator 23.0.1, SVG Export Plug-In . SVG Version: 6.00 Build 0)  -->
<svg version="1.1" id="Layer_1" xmlns="http://www.w3.org/2000/svg" xmlns:xlink="http://www.w3.org/1999/xlink" x="0px" y="0px"
	 width="30px" height="29.2px" viewBox="0 0 30 29.2" style="enable-background:new 0 0 30 29.2;" xml:space="preserve">
<g>
	<path d="M0,1.5c0-0.1,0.1-0.2,0.1-0.3C0.4,0.5,0.9,0.1,1.7,0C1.8,0,2,0,2.1,0c6.3,0,12.6,0,18.9,0c1,0,1.7,0.5,2,1.4
		C23,1.6,23,1.9,23,2.1c0,3.1,0,6.1,0,9.2c0,0.1,0,0.2,0,0.3c0.7,0.3,1.4,0.5,2.1,0.8c3.4,1.6,5.4,5.4,4.8,9.1
		c-0.6,3.9-3.5,6.9-7.2,7.5c-4.3,0.7-8.5-1.7-9.9-5.8C12.7,23,12.6,23,12.4,23C9,23,5.7,23,2.3,23C1,23,0.5,22.7,0,21.4
		c0-2.5,0-5,0-7.4c0.2-0.4,0.4-0.5,0.8-0.4c0.3,0.1,0.4,0.3,0.4,0.7c0,2,0,3.9,0,5.9c0,0.3,0,0.6,0,0.9c0,0.4,0.3,0.7,0.7,0.7
		c3.5,0,6.9,0,10.4,0c0,0,0.1,0,0.1,0c-0.4-2.8,0.3-5.3,2.2-7.4c1.9-2.1,4.3-3,7.2-2.9c0-0.1,0-0.2,0-0.3c0-3,0-6.1,0-9.1
		c0-0.7-0.3-0.9-0.9-0.9c-1.6,0-3.3,0-4.9,0c-0.1,0-0.2,0-0.3,0c0,0.1,0,0.3,0,0.4c0,2.3,0,4.6,0,6.9c0,0.1,0,0.2,0,0.3
		c0,0.5-0.5,0.8-0.9,0.5c-1-0.6-2-1.2-3-1.8c-0.2-0.1-0.3-0.1-0.5,0c-1,0.6-1.9,1.2-2.9,1.8C8.1,9.3,7.9,9.4,7.6,9.3
		C7.4,9.1,7.3,8.9,7.3,8.6c0-2.3,0-4.7,0-7c0-0.1,0-0.2,0-0.4c-0.1,0-0.2,0-0.3,0c-1.6,0-3.3,0-4.9,0c-0.7,0-0.9,0.2-0.9,1
		c0,2.2,0,4.4,0,6.6c0,0.4-0.2,0.7-0.6,0.7C0.3,9.5,0.1,9.3,0,9C0,6.5,0,4,0,1.5z M21.1,12.7c-4.2,0-7.7,3.4-7.7,7.7
		c0,4.2,3.4,7.7,7.7,7.7c4.2,0,7.7-3.4,7.7-7.7C28.8,16.1,25.4,12.7,21.1,12.7z M14.5,7.7c0-2.2,0-4.4,0-6.5c-2,0-4,0-5.9,0
		c0,2.2,0,4.3,0,6.5c0.1-0.1,0.2-0.1,0.3-0.2c0.8-0.5,1.5-0.9,2.3-1.4c0.3-0.2,0.5-0.2,0.8,0c0.3,0.2,0.7,0.4,1,0.6
		C13.4,7,13.9,7.4,14.5,7.7z"/>
	<path d="M0,11.3c0.2-0.1,0.3-0.3,0.5-0.4C0.8,10.8,1,11,1.1,11.3c0.1,0.3,0,0.6-0.3,0.7c-0.2,0.1-0.5,0.1-0.7-0.1
		c0-0.1-0.1-0.1-0.1-0.2C0,11.6,0,11.4,0,11.3z"/>
	<path d="M6.8,20c-1,0-2,0-3,0c-0.1,0-0.2,0-0.3,0c-0.3,0-0.5-0.3-0.5-0.5c0-0.3,0.2-0.5,0.4-0.6c0.1,0,0.3,0,0.4,0c2,0,3.9,0,5.9,0
		c0.5,0,0.8,0.2,0.8,0.6c0,0.4-0.3,0.6-0.8,0.6C8.7,20,7.7,20,6.8,20z"/>
	<path d="M8.2,16c0.6,0,1.1,0,1.7,0c0.4,0,0.7,0.2,0.7,0.6c0,0.4-0.3,0.6-0.7,0.6c-1.1,0-2.2,0-3.4,0c-0.4,0-0.7-0.2-0.7-0.6
		c0-0.4,0.3-0.6,0.7-0.6C7.1,16,7.6,16,8.2,16z"/>
	<path d="M3.8,17.2C3.3,17.2,3,17,3,16.6C3,16.2,3.3,16,3.8,16C3.9,16,4,16,4,16c0.4,0,0.6,0.3,0.6,0.6c0,0.3-0.2,0.6-0.6,0.6
		C4,17.2,3.9,17.2,3.8,17.2z"/>
	<path d="M20,17c0.2,0,0.3,0,0.4,0c0.8,0,1.7,0,2.5,0.1c1.8,0.3,3.1,2.1,3,3.9c-0.2,1.9-1.7,3.4-3.6,3.4c-1.8,0-3.5,0-5.3,0
		c-0.4,0-0.7-0.2-0.7-0.6c0-0.4,0.3-0.6,0.7-0.6c1.7,0,3.4,0,5.1,0c0.5,0,1-0.1,1.5-0.4c0.9-0.6,1.4-1.7,1.1-2.8
		c-0.3-1.1-1.2-1.9-2.3-1.9c-0.8,0-1.5,0-2.4,0c0.1,0.1,0.1,0.1,0.1,0.2c0.3,0.3,0.6,0.5,0.8,0.8c0.2,0.3,0.2,0.6,0,0.8
		c-0.2,0.2-0.6,0.2-0.8,0c-0.7-0.7-1.4-1.4-2-2c-0.2-0.2-0.2-0.6,0-0.8c0.7-0.7,1.4-1.4,2.1-2c0.2-0.2,0.6-0.2,0.8,0
		c0.2,0.2,0.2,0.6,0,0.8c-0.3,0.3-0.5,0.5-0.8,0.8C20.2,16.8,20.1,16.9,20,17z"/>
</g>
</svg>
