<svg width="22" height="22" viewBox="0 0 22 22" fill="none" xmlns="http://www.w3.org/2000/svg">
<path d="M9.84856 0C10.2439 0.0718873 10.6438 0.0898591 11.0347 0.166239C12.9397 0.539155 14.5707 1.41977 15.9275 2.79911C17.1631 4.05265 17.9763 5.54431 18.3268 7.27409C18.7671 9.44868 18.4481 11.511 17.3788 13.4564C17.0328 14.0854 16.6105 14.6605 16.1342 15.1862C16.1567 15.2805 16.2241 15.3165 16.269 15.3659C18.0707 17.1406 19.8723 18.9108 21.674 20.6856C22.0649 21.072 22.1098 21.4763 21.7953 21.7908C21.4853 22.1008 21.0585 22.0649 20.6811 21.692C18.8704 19.9083 17.0598 18.1246 15.2446 16.3454C15.1952 16.2959 15.1413 16.251 15.0873 16.2016C14.7953 16.3993 14.5212 16.6015 14.2292 16.7857C12.6072 17.8056 10.8325 18.2863 8.92301 18.2144C6.40695 18.1201 4.26381 17.1541 2.51156 15.3389C1.19513 13.9776 0.399873 12.3466 0.103338 10.4776C0.0629014 10.226 0.0359436 9.96987 0 9.71826C0 9.31839 0 8.91402 0 8.51415C0.0404366 8.46023 0.0359436 8.39284 0.0404366 8.32994C0.0673943 7.96601 0.12131 7.60657 0.19769 7.24714C0.561619 5.54431 1.35687 4.07062 2.56997 2.83056C3.93583 1.43775 5.57576 0.543648 7.49425 0.179718C7.87166 0.107831 8.25356 0.0629014 8.63546 0.00898591C9.04881 0 9.44868 0 9.84856 0ZM1.42876 9.06229C1.44673 9.38129 1.44673 9.64637 1.47818 9.91146C1.67587 11.5828 2.31387 13.061 3.47755 14.2831C5.49938 16.4038 7.98847 17.199 10.8415 16.6464C13.3486 16.1567 15.2221 14.7144 16.3319 12.3961C17.4506 10.0552 17.3832 7.69194 16.1297 5.43198C14.8447 3.11362 12.8184 1.79718 10.19 1.47369C8.11428 1.21759 6.20477 1.72529 4.53339 2.99231C2.50707 4.51991 1.50065 6.58667 1.42876 9.06229Z" fill="#3190D2"/>
</svg>
