<?xml version="1.0" encoding="utf-8"?>
<svg width="250px" height="56px" version="1.1" id="Layer_1" xmlns="http://www.w3.org/2000/svg" xmlns:xlink="http://www.w3.org/1999/xlink" x="0px" y="0px"
	 viewBox="0 0 371.3 92.9" style="enable-background:new 0 0 371.3 92.9;" xml:space="preserve">
<style type="text/css">
	.st0{fill:#FFFFFF;}
	.st1{fill:#D7D7D7;}
	.st2{fill:#143257;}
	.st3{fill:#EA7424;}
	.st4{fill:#262525;}
</style>
<path class="st0" d="M366,2.9H5.5C4.1,2.9,3,4.1,3,5.4v82.3c0,1.4,1.1,2.5,2.5,2.5H366c1.4,0,2.5-1.1,2.5-2.5V5.4
	C368.5,4.1,367.4,2.9,366,2.9z"/>
<path class="st1" d="M366,3.4c1.1,0,2,0.9,2,2v82.3c0,1.1-0.9,2-2,2H5.5c-1.1,0-2-0.9-2-2V5.4c0-1.1,0.9-2,2-2H366z M366,2.4H5.5
	c-1.7,0-3,1.3-3,3v82.3c0,1.7,1.3,3,3,3H366c1.7,0,3-1.3,3-3V5.4C369,3.8,367.6,2.4,366,2.4z"/>
<path class="st0" d="M178,90.2l33.7-87.3h153.5c1.8,0,3.2,1.4,3.2,3.2v81c0,1.8-1.4,3.2-3.2,3.2L178,90.2L178,90.2z"/>
<path class="st1" d="M365.3,3.4c1.5,0,2.7,1.2,2.7,2.7v81c0,1.5-1.2,2.7-2.7,2.7H178.8l33.4-86.3L365.3,3.4 M365.3,2.4H211.4
	l-34.1,88.3h188c2,0,3.7-1.6,3.7-3.7v-81C369,4.1,367.3,2.4,365.3,2.4L365.3,2.4z"/>
<path class="st2" d="M247.2,66.6L247.2,66.6L232,56.7c0.9-0.9,1.8-1.8,2.7-2.6l4.9,3.2l-2.2-5.7c1-0.9,2-1.7,3.1-2.6L247.2,66.6
	L247.2,66.6z"/>
<path class="st2" d="M244.7,37.5c-0.4,0.1-0.7,0.3-1.1,0.4c-1.9,0.8-3.9,1.8-6,3.1h-4.3l-2.4-6.3l-2.4,6.3H211l-5.4-3.5h20.3
	l5.1-13.4l5.1,13.4L244.7,37.5L244.7,37.5z"/>
<path class="st3" d="M256.2,37.3C254,38.2,240.8,42,223.1,63c-0.2,0.2-3.1,3.5-6.6,3.5h-2.2h-0.8c2.7-7,5.6-14.5,6.2-16.1
	c0.7-1.7,0.2-3.4-1.2-4.3c-0.1,0-0.1-0.1-0.2-0.1h3.7c1.4,0,2.6,1,2.8,2.4c0,0.1,0,0.1,0,0.2c0,0.5-0.1,0.9-0.2,1.4
	c-0.8,2.2-2,5.2-2.7,7.1c0.2-0.3,0.5-0.6,0.8-0.9c7.5-8.2,16-13.6,21.8-16c4.9-2,9-2.9,10.9-2.9C255.8,37.2,256,37.2,256.2,37.3
	L256.2,37.3z"/>
<path class="st3" d="M280,24h3.1v5h3.5c1.5,0,2.6,0.4,3.3,1.3c0.7,0.9,1.1,2.1,1.1,3.6v7H288v-6.6c0-0.8-0.2-1.2-0.6-1.6
	c-0.4-0.4-0.8-0.6-1.5-0.6h-2.7l-0.1,8.9h-3.1L280,24L280,24z"/>
<path class="st3" d="M277.8,36.4c0,1.2-0.5,2.3-1.3,3.1c-0.8,0.9-2,1.4-3.3,1.4h-6.9v-3.1h6.9c0.8,0,1.5-0.6,1.5-1.4c0,0,0,0,0,0
	c0-0.3-0.1-0.7-0.2-0.9c-0.1-0.1-0.1-0.3-0.2-0.4c-0.1-0.2-0.2-0.3-0.4-0.4c-0.1-0.1-0.3-0.2-0.5-0.3c-0.2-0.1-0.4-0.2-0.6-0.3
	c-0.4-0.2-1-0.4-1.6-0.7l-1.1-0.4c-0.4-0.2-0.9-0.4-1.4-0.7c-0.4-0.3-0.9-0.6-1.2-1c-0.3-0.3-0.5-0.7-0.7-1
	c-0.1-0.1-0.1-0.2-0.2-0.3c-0.2-0.5-0.3-1-0.3-1.6c0-0.4,0.1-0.8,0.2-1.2c0.2-0.7,0.6-1.3,1.1-1.9c0.9-0.9,2-1.4,3.2-1.4h6.2v3.1
	h-6.2c-0.4,0-0.8,0.2-1,0.4c-0.2,0.2-0.4,0.5-0.4,0.8c0,0.2,0,0.3,0.1,0.3c0.1,0.2,0.2,0.3,0.3,0.5c0.2,0.2,0.4,0.3,0.6,0.5
	c0.3,0.2,0.6,0.3,0.8,0.4l1.1,0.4c0.7,0.3,1.4,0.5,1.9,0.8c0.6,0.3,1.2,0.7,1.6,1c0,0,0,0,0,0c0.3,0.2,0.5,0.4,0.7,0.7
	c0,0,0.1,0.1,0.1,0.1c0.6,0.6,0.9,1.4,1.1,2.3C277.8,35.7,277.8,36,277.8,36.4L277.8,36.4z"/>
<path class="st3" d="M354.3,29.3c-0.6-0.2-1.2-0.2-1.9-0.2c-0.9,0-1.7,0.2-2.4,0.5c-0.3,0.1-0.6,0.3-0.9,0.5v-0.7H346v11.6h3.1v-5.8
	c0-0.1,0-0.2,0-0.3c0-0.3,0.1-0.7,0.2-1c0.1-0.2,0.1-0.4,0.2-0.6c0-0.1,0.1-0.1,0.1-0.2c0.1-0.2,0.2-0.3,0.4-0.5
	c0.1-0.1,0.2-0.2,0.4-0.3c0.2-0.1,0.4-0.2,0.6-0.3c0,0,0,0,0.1,0c0.3-0.1,0.6-0.1,0.9-0.1c0.3,0,0.6,0,0.8,0.1
	c0.2,0.1,0.4,0.1,0.6,0.2l0-0.1c0,0,0,0,0,0l0.1-0.3l0.9-2.4C354.5,29.3,354.4,29.3,354.3,29.3L354.3,29.3z"/>
<path class="st3" d="M317.5,32.5c-0.3-0.7-0.7-1.4-1.2-1.9c-0.5-0.6-1.1-1-1.8-1.3c-0.7-0.3-1.4-0.4-2.1-0.4h-5.6v16.7h3V41h2.6
	c0.7,0,1.4-0.1,2.1-0.4c0.7-0.3,1.3-0.7,1.8-1.3c0.5-0.5,0.9-1.2,1.2-1.9c0.3-0.7,0.4-1.6,0.4-2.4S317.7,33.3,317.5,32.5z
	 M314.6,36.2c-0.2,0.4-0.4,0.7-0.7,0.9c-0.3,0.2-0.6,0.5-1,0.6c-0.4,0.1-0.7,0.2-1.1,0.2h-2.1V32h2.1c0.4,0,0.8,0.1,1.1,0.2
	c0.4,0.1,0.7,0.3,1,0.6s0.5,0.6,0.7,0.9c0.2,0.4,0.2,0.8,0.2,1.2C314.9,35.4,314.8,35.8,314.6,36.2L314.6,36.2z"/>
<path class="st3" d="M330.1,32.5c-0.3-0.7-0.7-1.4-1.2-1.9c-0.5-0.6-1.1-1-1.8-1.3c-0.6-0.3-1.4-0.4-2.1-0.4h-5.6v16.7h3V41h2.6
	c0.7,0,1.4-0.1,2.1-0.4c0.7-0.3,1.3-0.7,1.8-1.3c0.5-0.5,0.9-1.2,1.2-1.9c0.3-0.7,0.4-1.6,0.4-2.4S330.4,33.3,330.1,32.5z
	 M327.2,36.2c-0.2,0.4-0.4,0.7-0.7,0.9c-0.3,0.2-0.6,0.5-1,0.6c-0.4,0.1-0.7,0.2-1.1,0.2h-2.1V32h2.1c0.4,0,0.8,0.1,1.1,0.2
	c0.4,0.1,0.7,0.3,1,0.6s0.5,0.6,0.7,0.9c0.2,0.4,0.2,0.8,0.2,1.2C327.5,35.4,327.4,35.8,327.2,36.2L327.2,36.2z"/>
<path class="st3" d="M304.5,32.6c-0.3-0.8-0.7-1.4-1.3-1.9c-0.5-0.5-1.2-1-1.9-1.3c-0.8-0.3-1.6-0.5-2.5-0.5c-0.9,0-1.7,0.1-2.5,0.5
	c-0.8,0.3-1.4,0.7-1.9,1.3c-0.5,0.5-1,1.2-1.3,1.9c-0.3,0.8-0.5,1.6-0.5,2.5s0.1,1.7,0.5,2.5c0.3,0.8,0.7,1.4,1.3,2
	c0.5,0.5,1.2,1,1.9,1.3s1.6,0.5,2.5,0.5c0.9,0,1.7-0.1,2.5-0.5s1.4-0.7,1.9-1.3c0.5-0.5,1-1.2,1.3-2c0.3-0.8,0.5-1.6,0.5-2.5
	S304.8,33.4,304.5,32.6z M301.6,36.4c-0.1,0.4-0.3,0.7-0.6,0.9c-0.3,0.3-0.6,0.5-0.9,0.6c-0.4,0.2-0.8,0.2-1.3,0.2s-0.9-0.1-1.3-0.2
	c-0.4-0.1-0.7-0.3-0.9-0.6c-0.2-0.2-0.4-0.6-0.6-0.9c-0.2-0.4-0.2-0.8-0.2-1.3s0.1-0.9,0.2-1.3c0.1-0.4,0.3-0.7,0.6-0.9
	c0.3-0.3,0.6-0.4,0.9-0.6c0.4-0.2,0.8-0.2,1.3-0.2s0.9,0.1,1.3,0.2c0.4,0.1,0.7,0.3,0.9,0.6c0.2,0.2,0.4,0.6,0.6,0.9
	c0.2,0.4,0.2,0.8,0.2,1.3S301.8,36.1,301.6,36.4z"/>
<path class="st3" d="M343.7,38.2c-0.5,1-1.3,1.7-2.2,2.3c-0.9,0.6-2,0.9-3.3,0.9c-0.9,0-1.7-0.1-2.4-0.5s-1.4-0.7-2-1.3
	c-0.5-0.5-1-1.2-1.3-2s-0.5-1.6-0.5-2.5c0-0.8,0.2-1.6,0.5-2.4s0.7-1.4,1.3-2c0.5-0.6,1.2-1,1.9-1.3c0.7-0.3,1.5-0.5,2.4-0.5
	c0.9,0,1.8,0.2,2.5,0.5s1.3,0.7,1.8,1.3c0.5,0.6,0.9,1.2,1.1,1.9c0.2,0.7,0.4,1.6,0.4,2.4v0.3c0,0.1,0,0.2,0,0.3c0,0.1,0,0.2,0,0.3
	h-8.8c0.1,0.5,0.2,0.9,0.4,1.2c0.2,0.3,0.4,0.6,0.7,0.9c0.3,0.2,0.6,0.4,1,0.5s0.7,0.1,1.1,0.1c0.7,0,1.3-0.2,1.8-0.5
	c0.5-0.3,0.8-0.7,1.1-1.2L343.7,38.2L343.7,38.2z M340.9,33.6c0-0.2-0.1-0.4-0.2-0.7c-0.1-0.2-0.3-0.5-0.5-0.7
	c-0.2-0.2-0.5-0.4-0.9-0.6c-0.3-0.1-0.8-0.2-1.2-0.2c-0.7,0-1.2,0.2-1.8,0.6c-0.5,0.4-0.9,0.9-1.1,1.6H340.9L340.9,33.6z"/>
<path class="st2" d="M265.9,44.9h-2.2c-0.9,0-1.6,0.5-1.9,1.3l-5.9,15.6h3.5l0.9-2.7c0.3-0.8,1.1-1.4,1.9-1.4h5.1l1.4,4h3.5
	L265.9,44.9L265.9,44.9z M261.9,54.9l2.2-6.2l2.2,6.2H261.9z"/>
<path class="st2" d="M319.8,50.3h3.5l2.9,7.4h0.2l2.9-7.4h3.5l-5,11.6h-3.1L319.8,50.3z"/>
<path class="st2" d="M307,50.2c-0.6-0.2-1.2-0.2-1.9-0.2c-0.9,0-1.7,0.2-2.4,0.5c-0.3,0.1-0.6,0.3-0.9,0.5v-0.7h-3.1v11.6h3.1v-5.8
	c0-0.1,0-0.2,0-0.3c0-0.3,0.1-0.7,0.2-1c0.1-0.2,0.1-0.4,0.2-0.5c0-0.1,0.1-0.1,0.1-0.2c0.1-0.2,0.2-0.3,0.4-0.5
	c0.1-0.1,0.2-0.2,0.4-0.3c0.2-0.1,0.4-0.2,0.6-0.3c0,0,0,0,0.1,0c0.3-0.1,0.6-0.1,0.9-0.1c0.3,0,0.6,0,0.8,0.1
	c0.2,0.1,0.4,0.1,0.6,0.2l0-0.1c0,0,0,0,0,0l0.1-0.3l0.9-2.4C307.1,50.3,307.1,50.2,307,50.2L307,50.2z"/>
<path class="st2" d="M284,53.5c-0.3-0.7-0.7-1.4-1.2-1.9c-0.5-0.6-1.1-1-1.8-1.3c-0.6-0.3-1.4-0.4-2.1-0.4h-5.6v16.7h3V62h2.6
	c0.7,0,1.4-0.1,2.1-0.4c0.7-0.3,1.3-0.7,1.8-1.3c0.5-0.5,0.9-1.2,1.2-1.9c0.3-0.7,0.4-1.5,0.4-2.4S284.3,54.2,284,53.5z M281.2,57.1
	c-0.2,0.4-0.4,0.7-0.7,0.9c-0.3,0.2-0.6,0.5-1,0.6c-0.4,0.1-0.7,0.2-1.2,0.2h-2.1V53h2.1c0.4,0,0.8,0.1,1.2,0.2
	c0.4,0.1,0.7,0.3,1,0.6s0.5,0.6,0.7,0.9c0.2,0.4,0.2,0.8,0.2,1.2C281.4,56.4,281.3,56.8,281.2,57.1L281.2,57.1z"/>
<path class="st2" d="M296.7,53.5c-0.3-0.7-0.7-1.4-1.2-1.9c-0.5-0.6-1.1-1-1.8-1.3c-0.6-0.3-1.4-0.4-2.1-0.4h-5.6v16.7h3V62h2.6
	c0.7,0,1.4-0.1,2.1-0.4c0.7-0.3,1.3-0.7,1.8-1.3c0.5-0.5,0.9-1.2,1.2-1.9s0.4-1.5,0.4-2.4S296.9,54.2,296.7,53.5z M293.8,57.1
	c-0.2,0.4-0.4,0.7-0.7,0.9c-0.3,0.2-0.6,0.5-1,0.6c-0.4,0.1-0.7,0.2-1.2,0.2H289V53h2.1c0.4,0,0.8,0.1,1.2,0.2
	c0.4,0.1,0.7,0.3,1,0.6s0.5,0.6,0.7,0.9c0.2,0.4,0.2,0.8,0.2,1.2C294.1,56.4,294,56.8,293.8,57.1L293.8,57.1z"/>
<path class="st2" d="M347.2,58.2c0.3,0.7,0.7,1.4,1.2,1.9c0.5,0.5,1.1,1,1.8,1.3c0.6,0.3,1.4,0.4,2.1,0.4h5.6V44.9h-3v4.8h-2.6
	c-0.7,0-1.4,0.1-2.1,0.4c-0.7,0.3-1.3,0.7-1.8,1.3c-0.5,0.5-0.9,1.2-1.2,1.9c-0.3,0.7-0.4,1.5-0.4,2.4S346.9,57.5,347.2,58.2
	L347.2,58.2z M350.1,54.6c0.2-0.4,0.4-0.7,0.7-0.9c0.3-0.2,0.6-0.4,1-0.6c0.4-0.1,0.7-0.2,1.1-0.2h2.1v5.9h-2.1
	c-0.4,0-0.8-0.1-1.1-0.2c-0.4-0.1-0.7-0.3-1-0.6s-0.5-0.6-0.7-0.9c-0.2-0.4-0.2-0.8-0.2-1.2C349.8,55.3,349.9,54.9,350.1,54.6
	L350.1,54.6z"/>
<path class="st2" d="M319.1,53.6c-0.3-0.8-0.7-1.4-1.3-2c-0.5-0.5-1.2-1-1.9-1.3s-1.6-0.5-2.5-0.5c-0.9,0-1.7,0.1-2.5,0.5
	s-1.4,0.7-1.9,1.3c-0.5,0.5-1,1.2-1.3,2c-0.3,0.8-0.5,1.6-0.5,2.5c0,0.9,0.2,1.7,0.5,2.5s0.7,1.4,1.3,2c0.5,0.5,1.2,1,1.9,1.3
	s1.6,0.5,2.5,0.5c0.9,0,1.7-0.1,2.5-0.5s1.4-0.7,1.9-1.3c0.5-0.5,1-1.2,1.3-2c0.3-0.8,0.5-1.6,0.5-2.5
	C319.6,55.2,319.5,54.3,319.1,53.6z M316.3,57.4c-0.2,0.4-0.4,0.7-0.6,0.9c-0.3,0.3-0.6,0.5-0.9,0.6c-0.4,0.2-0.8,0.2-1.3,0.2
	s-0.9-0.1-1.3-0.2c-0.4-0.2-0.7-0.4-0.9-0.6c-0.2-0.2-0.5-0.6-0.6-0.9c-0.2-0.4-0.2-0.8-0.2-1.3c0-0.5,0.1-0.9,0.2-1.3
	c0.1-0.4,0.4-0.7,0.6-0.9c0.3-0.3,0.6-0.5,0.9-0.6c0.4-0.2,0.8-0.2,1.3-0.2s0.9,0.1,1.3,0.2c0.4,0.1,0.7,0.4,0.9,0.6
	c0.2,0.2,0.4,0.6,0.6,0.9c0.2,0.4,0.2,0.8,0.2,1.3C316.5,56.6,316.5,57,316.3,57.4z"/>
<path class="st2" d="M345.1,59.1c-0.5,1-1.3,1.7-2.2,2.3c-0.9,0.6-2,0.9-3.3,0.9c-0.9,0-1.7-0.1-2.4-0.5s-1.4-0.7-2-1.3
	c-0.5-0.5-1-1.2-1.3-2s-0.5-1.6-0.5-2.5c0-0.8,0.2-1.6,0.5-2.4s0.7-1.4,1.3-2c0.5-0.6,1.2-1,1.9-1.3c0.7-0.3,1.5-0.5,2.4-0.5
	c0.9,0,1.8,0.1,2.5,0.5c0.7,0.3,1.3,0.7,1.8,1.3c0.5,0.5,0.9,1.2,1.1,1.9s0.4,1.6,0.4,2.4v0.3c0,0.1,0,0.2,0,0.3c0,0.1,0,0.2,0,0.3
	h-8.8c0.1,0.5,0.2,0.9,0.4,1.2c0.2,0.3,0.4,0.6,0.7,0.9c0.3,0.2,0.6,0.4,1,0.5c0.4,0.1,0.7,0.1,1.1,0.1c0.7,0,1.3-0.2,1.8-0.5
	c0.5-0.3,0.8-0.7,1.1-1.2L345.1,59.1L345.1,59.1z M342.2,54.6c0-0.2-0.1-0.4-0.2-0.7c-0.1-0.2-0.3-0.5-0.5-0.7
	c-0.2-0.2-0.5-0.4-0.9-0.5c-0.3-0.1-0.8-0.2-1.2-0.2c-0.7,0-1.2,0.2-1.8,0.6c-0.5,0.4-0.9,0.9-1.1,1.6H342.2L342.2,54.6z"/>
<path class="st3" d="M32,13.4l3.6,11.1h11.7l-9.4,6.8l3.6,11.1L32,35.6l-9.4,6.8l3.6-11.1l-9.4-6.8h11.6L32,13.4z"/>
<path class="st3" d="M64.8,13.4l3.6,11.1h11.6l-9.4,6.8l3.6,11.1l-9.4-6.8l-9.4,6.8L59,31.4l-9.4-6.8h11.7L64.8,13.4z"/>
<path class="st3" d="M97.7,13.4l3.6,11.1h11.7l-9.4,6.8l3.6,11.1l-9.4-6.8l-9.4,6.8l3.6-11.1l-9.4-6.8h11.7L97.7,13.4z"/>
<path class="st3" d="M130.6,13.4l3.6,11.1h11.7l-9.4,6.8l3.6,11.1l-9.4-6.8l-9.4,6.8l3.6-11.1l-9.4-6.8H127L130.6,13.4z"/>
<path class="st3" d="M163.4,13.4l3.6,11.1h11.7l-9.4,6.8l3.6,11.1l-9.4-6.8l-9.4,6.8l3.6-11.1l-9.4-6.8h11.6L163.4,13.4z"/>
<path class="st4" d="M27.4,57.4h-2.3l-7.7,12v1.3h7.9v4h2.2v-4h2.4v-1.8h-2.4V57.4L27.4,57.4z M25.2,68.9h-5.4l5.1-8l0.3-0.5V68.9
	L25.2,68.9z"/>
<path class="st4" d="M33.4,72.2c-0.5,0-0.8,0.1-1,0.4c-0.2,0.2-0.3,0.6-0.3,1s0.1,0.7,0.3,0.9c0.2,0.2,0.6,0.4,1,0.4s0.8-0.1,1-0.4
	c0.2-0.2,0.3-0.5,0.3-0.9c0-0.4-0.1-0.7-0.3-1S33.9,72.2,33.4,72.2z"/>
<path class="st4" d="M46.2,65.8c0.8-0.4,1.4-0.9,1.8-1.6c0.5-0.7,0.7-1.4,0.7-2.3c0-1.5-0.5-2.6-1.4-3.5c-0.9-0.9-2.2-1.3-3.7-1.3
	s-2.8,0.4-3.7,1.3c-0.9,0.8-1.4,2-1.4,3.5c0,0.9,0.2,1.6,0.7,2.3c0.4,0.7,1,1.2,1.8,1.6c-0.9,0.4-1.6,1-2.1,1.7
	c-0.5,0.8-0.8,1.6-0.8,2.5c0,1.5,0.5,2.7,1.5,3.6c1,0.9,2.3,1.3,4,1.3s3-0.4,4-1.3c1-0.9,1.5-2.1,1.5-3.6c0-0.9-0.3-1.8-0.8-2.5
	C47.7,66.7,47,66.1,46.2,65.8L46.2,65.8z M40.7,61.9c0-0.9,0.3-1.6,0.8-2.2c0.5-0.5,1.2-0.8,2.1-0.8s1.5,0.3,2.1,0.8
	c0.5,0.6,0.8,1.3,0.8,2.2c0,0.9-0.3,1.6-0.8,2.1c-0.5,0.5-1.2,0.8-2.1,0.8s-1.6-0.3-2.1-0.8C41,63.5,40.7,62.8,40.7,61.9z M46,72.2
	c-0.6,0.6-1.4,0.9-2.4,0.9s-1.8-0.3-2.4-0.8c-0.6-0.6-0.9-1.3-0.9-2.3s0.3-1.8,0.9-2.4c0.6-0.6,1.4-0.9,2.4-0.9c1,0,1.8,0.3,2.4,0.9
	c0.6,0.6,0.9,1.4,0.9,2.4S46.6,71.7,46,72.2L46,72.2z"/>
<path class="st4" d="M68.4,58.1c-1.1-0.7-2.3-1-3.7-1c-1.4,0-2.6,0.3-3.6,1c-1,0.7-1.9,1.6-2.5,2.9c-0.6,1.3-0.9,2.7-0.9,4.4v1.2
	c0,1.6,0.3,3.1,0.9,4.3c0.6,1.2,1.4,2.2,2.5,2.9c1,0.7,2.3,1,3.6,1s2.6-0.3,3.7-1c1-0.7,1.8-1.6,2.4-2.9c0.6-1.3,0.8-2.7,0.8-4.4
	v-1.1c0-1.7-0.3-3.2-0.8-4.4C70.3,59.8,69.5,58.8,68.4,58.1L68.4,58.1z M69.4,66.7c0,2-0.4,3.5-1.2,4.6c-0.8,1.1-1.9,1.6-3.4,1.6
	c-1.5,0-2.6-0.6-3.4-1.7s-1.2-2.7-1.2-4.7v-1.3c0-1.9,0.4-3.5,1.3-4.6c0.8-1.1,2-1.6,3.4-1.6c1.4,0,2.6,0.5,3.5,1.6
	c0.8,1.1,1.2,2.7,1.2,4.7L69.4,66.7L69.4,66.7z"/>
<path class="st4" d="M79,71.7l-3.3-9.9h-2.2l4.7,12.8h1.7l4.6-12.8h-2.2L79,71.7z"/>
<path class="st4" d="M91.4,61.6c-1,0-2,0.3-2.8,0.9c-0.9,0.6-1.5,1.4-2,2.4c-0.5,1-0.7,2.1-0.7,3.4v0.4c0,1.9,0.5,3.4,1.6,4.6
	c1.1,1.1,2.5,1.7,4.2,1.7c2.2,0,3.8-0.8,4.8-2.5l-1.3-1c-0.4,0.5-0.9,0.9-1.4,1.3s-1.2,0.5-2,0.5c-1.1,0-2-0.4-2.7-1.2
	s-1.1-1.8-1.1-3.1h8.7v-0.9c0-2-0.5-3.6-1.4-4.7C94.4,62.1,93.1,61.6,91.4,61.6L91.4,61.6z M94.5,67.1h-6.4c0.1-1.2,0.5-2.1,1.1-2.7
	c0.6-0.6,1.3-1,2.2-1s1.6,0.3,2.2,0.9c0.5,0.6,0.8,1.5,0.9,2.6L94.5,67.1L94.5,67.1z"/>
<path class="st4" d="M101.4,63.3l0-1.5h-2.1v12.8h2.2v-9.1c0.5-1.2,1.5-1.8,2.9-1.8c0.4,0,0.8,0,1.1,0.1v-2c-0.2-0.1-0.5-0.2-1-0.2
	C103.2,61.6,102.1,62.1,101.4,63.3L101.4,63.3z"/>
<path class="st4" d="M116.8,65.7c0-1.3-0.5-2.3-1.3-3s-2-1.1-3.5-1.1c-0.9,0-1.8,0.2-2.6,0.5s-1.4,0.8-1.8,1.4
	c-0.5,0.6-0.7,1.2-0.7,1.9h2.2c0-0.6,0.3-1,0.8-1.4c0.5-0.4,1.2-0.6,2-0.6c0.9,0,1.6,0.2,2,0.7c0.5,0.4,0.7,1.1,0.7,1.8v1h-2.1
	c-1.8,0-3.3,0.4-4.3,1.1c-1,0.7-1.5,1.8-1.5,3.1c0,1.1,0.4,2,1.2,2.7s1.8,1.1,3.1,1.1c1.4,0,2.6-0.5,3.7-1.6
	c0.1,0.7,0.2,1.1,0.3,1.4h2.3v-0.2c-0.3-0.7-0.5-1.6-0.5-2.8L116.8,65.7L116.8,65.7z M114.6,71.1c-0.3,0.6-0.7,1-1.3,1.4
	c-0.6,0.4-1.3,0.5-2,0.5c-0.7,0-1.3-0.2-1.8-0.6c-0.5-0.4-0.7-0.9-0.7-1.6c0-1.6,1.3-2.4,4-2.4h1.7L114.6,71.1L114.6,71.1z"/>
<path class="st4" d="M122.6,56.4h-2.2v18.2h2.2V56.4z"/>
<path class="st4" d="M128.5,56.4h-2.2v18.2h2.2V56.4z"/>
</svg>
