<?xml version="1.0" encoding="utf-8"?>
<!-- Generator: Adobe Illustrator 23.0.1, SVG Export Plug-In . SVG Version: 6.00 Build 0)  -->
<svg version="1.1" id="Layer_1" xmlns="http://www.w3.org/2000/svg" xmlns:xlink="http://www.w3.org/1999/xlink" x="0px" y="0px"
	 width="180px" height="28px" viewBox="0 0 180 28" style="enable-background:new 0 0 180 28;" xml:space="preserve">
<style type="text/css">
	.st0{fill:#FE9103;}
	.st1{fill:#033258;}
</style>
<g>
	<g>
		<path class="st0" d="M11.1,21.2c1.7-1.6,3.4-3.4,5.3-4.9c4-3.3,8.4-6,13.6-7.2c1-0.2,2.1-0.4,3.1-0.6c0,0.1,0,0.1,0,0.2
			c-0.9,0.4-1.8,0.7-2.7,1.1c-4,1.9-7.6,4.5-10.9,7.4c-2.9,2.6-5.5,5.4-8.1,8.3c-1.3,1.5-2.8,2.4-4.9,2.3c-0.4,0-0.9,0-1.4,0
			c0.5-1.4,1-2.7,1.5-4c0.8-2.2,1.7-4.4,2.5-6.6c0.5-1.3,0.3-2.1-0.8-3c0.9,0,1.8-0.1,2.6,0c1.1,0.1,1.9,1.2,1.5,2.2
			c-0.4,1.3-0.9,2.6-1.4,3.8C11.1,20.7,11,20.9,11.1,21.2c-0.1,0-0.1,0.1-0.1,0.2C11,21.3,11,21.3,11.1,21.2z"/>
		<path class="st1" d="M0,8.8c3.5,0,6.9,0,10.4,0c0.8,0,1.5,0,2.3,0c0.4,0,0.6-0.1,0.7-0.5c1-2.7,2.1-5.5,3.2-8.3
			c0.5,1.2,0.9,2.3,1.3,3.4c0.6,1.6,1.3,3.3,1.9,4.9c0.1,0.3,0.3,0.5,0.7,0.5c1.7,0,3.3,0,5.1,0C25.4,8.9,25.2,9,25.1,9
			c-1.1,0.5-2.2,1-3.2,1.6c-1.2,0.8-2.4,0.4-3.6,0.5c-0.1,0-0.2-0.2-0.3-0.4c-0.5-1.2-0.9-2.4-1.4-3.7c-0.2,0.6-0.4,1-0.6,1.4
			c-0.3,0.8-0.6,1.6-0.9,2.3c-0.1,0.2-0.3,0.3-0.5,0.3c-3.6,0-7.3,0-10.9,0c-0.2,0-0.4,0-0.5-0.1C2.1,10.3,1.1,9.6,0,8.9
			C0,8.9,0,8.9,0,8.8z"/>
		<path class="st1" d="M112.2,21.4c-0.8,0-1.5,0-2.3,0c-0.2,0-0.4-0.2-0.5-0.4c-0.3-0.7-0.6-1.5-0.8-2.2c-0.1-0.3-0.2-0.4-0.5-0.4
			c-1.1,0-2.2,0-3.3,0c-0.8,0-1.2,0.3-1.5,1.1c-0.1,0.3-0.2,0.5-0.3,0.8c-0.4,1.1-0.4,1.1-1.5,1.1c-0.5,0-1,0-1.5,0
			c0.7-1.8,1.4-3.6,2-5.4c0.7-2,1.5-4,2.3-6c0.3-0.9,0.7-1.1,1.6-1.2c1.5,0,1.5,0,2,1.4c1.3,3.5,2.7,7.1,4,10.6
			C112,21,112.1,21.2,112.2,21.4z M106.1,11.7c-0.6,1.5-1,2.9-1.5,4.2c0,0,0.2,0.2,0.3,0.2c0.8,0,1.6,0,2.4,0c0.4,0,0.4-0.1,0.3-0.4
			C107.1,14.4,106.6,13.1,106.1,11.7z"/>
		<path class="st0" d="M74.2,18.7c0-1.9,0-3.8,0-5.7c0-0.4,0.1-0.6,0.5-0.5c1.4,0,2.9-0.1,4.3,0.1c1.8,0.2,3.2,1.7,3.4,3.6
			c0.3,2.2-0.7,4.3-2.6,5c-0.8,0.3-1.8,0.3-2.7,0.3c-0.5,0-0.8,0.1-0.7,0.7c0.1,0.7,0,1.5,0,2.3c0,0.4-0.1,0.5-0.5,0.5
			c-0.6,0-1.2-0.1-1.8-0.1c0-0.6,0-1.1,0-1.7C74.2,21.6,74.2,20.1,74.2,18.7z M76.5,16.9c0,0.6,0,1.2,0,1.8c0,0.3,0,0.4,0.4,0.4
			c0.5,0,0.9,0,1.4,0c1.1-0.1,2-1,2-2.2c0-1.1-0.9-2-2-2.1c-0.4,0-0.9,0-1.3,0c-0.3,0-0.4,0.1-0.4,0.4
			C76.6,15.8,76.5,16.4,76.5,16.9z"/>
		<path class="st1" d="M175.7,15.1c0,1.9,0,3.9,0,5.8c0,0.4-0.1,0.5-0.5,0.5c-1.2,0-2.3,0-3.5,0c-2.4,0-4.1-1.5-4.3-3.9
			c-0.3-2.4,1-4.5,3.1-5c0.8-0.2,1.6-0.1,2.4-0.1c0.5,0,0.6-0.1,0.5-0.6c0-0.8,0-1.7,0-2.5c0-0.4,0.1-0.6,0.5-0.5c0.4,0,0.8,0,1.2,0
			c0.4,0,0.5,0.1,0.5,0.5C175.7,11.3,175.7,13.2,175.7,15.1z M173.4,16.9c0-0.2,0-0.4,0-0.7c0-1.7,0-1.7-1.7-1.5c-1.2,0.1-2,1-2,2.2
			c0,1.1,0.8,2,2,2.1c0.5,0.1,1,0,1.4,0c0.3,0,0.4-0.1,0.4-0.4C173.4,18.1,173.4,17.5,173.4,16.9z"/>
		<path class="st1" d="M112.9,18.7c0-1.9,0-3.8,0-5.7c0-0.4,0.1-0.5,0.5-0.5c1.2,0,2.3,0,3.5,0c2.4,0,4.3,1.8,4.4,4.2
			c0.1,2.2-1.1,4.1-3,4.6c-0.8,0.2-1.7,0.2-2.6,0.2c-0.4,0-0.5,0.1-0.5,0.5c0,0.9,0,1.7,0,2.6c0,0.3-0.1,0.4-0.4,0.4
			c-0.6,0-1.2-0.1-1.8-0.1c0-0.6,0-1.1,0-1.7C112.9,21.7,112.9,20.2,112.9,18.7z M115.2,16.9c0,0.2,0,0.4,0,0.6c0,1.7,0,1.7,1.7,1.6
			c1.1-0.1,1.9-0.8,2.1-1.9c0.1-0.9-0.5-1.9-1.4-2.2c-0.6-0.2-1.2-0.1-1.8-0.2c-0.4,0-0.6,0.1-0.6,0.6
			C115.2,15.9,115.2,16.4,115.2,16.9z"/>
		<path class="st0" d="M64.9,18.7c0-1.9,0-3.8,0-5.7c0-0.5,0.1-0.6,0.6-0.5c1.2,0,2.3,0,3.5,0c1.8,0,3.3,1,3.9,2.7
			c0.8,2.2,0.1,4.6-1.8,5.7c-0.9,0.5-1.9,0.6-2.9,0.6c-1.1,0-1.1,0-1.1,1.1c0,0.6,0,1.3,0,1.9c0,0.3-0.1,0.4-0.4,0.4
			c-0.6,0-1.2,0-1.8-0.1c0-0.6,0-1.1,0-1.7C64.9,21.6,64.9,20.2,64.9,18.7z M67.1,17c0,0.2,0,0.4,0,0.6c0,1.7,0,1.7,1.7,1.6
			c1-0.1,1.9-0.8,2-1.8c0.2-1.1-0.3-2.1-1.4-2.4c-0.6-0.2-1.3-0.1-1.9-0.2c-0.3,0-0.4,0.1-0.4,0.4C67.1,15.8,67.1,16.4,67.1,17z"/>
		<path class="st1" d="M122.3,18.7c0-1.9,0-3.7,0-5.6c0-0.4,0.1-0.6,0.6-0.6c1.1,0,2.3,0,3.4,0c2,0,3.4,1,4.1,2.9
			c0.7,2.2-0.1,4.6-1.9,5.6c-0.9,0.5-1.8,0.5-2.8,0.5c-1,0-1,0-1,1c0,0.7,0,1.4,0,2c0,0.3-0.1,0.4-0.4,0.4c-0.6,0-1.2,0-1.8,0
			c0-0.6-0.1-1.2-0.1-1.8C122.3,21.6,122.3,20.1,122.3,18.7z M124.6,16.9c0,0.2,0,0.4,0,0.6c0,1.7,0,1.7,1.7,1.6
			c1-0.1,1.9-0.8,2-1.8c0.1-1.2-0.4-2.1-1.4-2.4c-0.6-0.2-1.2-0.1-1.9-0.1c-0.3,0-0.4,0.1-0.4,0.4C124.6,15.8,124.6,16.4,124.6,16.9
			z"/>
		<path class="st0" d="M37.8,21.4c-0.8,0-1.7,0-2.5,0c-0.3,0-0.4-0.1-0.4-0.4c0-0.6-0.2-1.4,0.1-1.7c0.3-0.3,1.1-0.1,1.7-0.1
			c1,0,2,0,3,0c0.6,0,1.1-0.1,1.3-0.8c0.2-0.5,0-1.2-0.6-1.6c-0.6-0.4-1.3-0.7-1.9-1c-0.7-0.4-1.6-0.6-2.2-1.1
			c-1.3-0.9-1.7-2.2-1.3-3.6c0.4-1.4,1.6-2.3,3.1-2.3c1.4,0,2.9,0,4.3,0c0.3,0,0.4,0.1,0.4,0.4c0,0.6,0,1.2,0,1.8
			c-0.6,0-1.2,0.1-1.8,0.1c-0.9,0-1.7,0-2.6,0c-0.5,0-1,0.1-1.2,0.7c-0.2,0.6,0.2,1,0.7,1.2c0.7,0.3,1.5,0.6,2.2,0.9
			c1,0.4,1.8,0.9,2.5,1.7c0.9,1.1,1.1,2.4,0.5,3.7c-0.5,1.3-1.6,2-3,2C39.3,21.4,38.5,21.4,37.8,21.4z"/>
		<path class="st0" d="M45.1,15.1c0-1.9,0-3.8,0-5.7c0-0.4,0.1-0.6,0.5-0.5c0.5,0,0.9,0,1.4,0c0.4,0,0.5,0.1,0.5,0.5
			c0,0.9,0,1.8,0,2.7c0,0.4,0.1,0.5,0.5,0.5c0.9,0,1.8,0,2.6,0.1c1.5,0.2,2.5,1,2.6,2.5c0.2,2,0.1,4,0.1,6.1c0,0.1-0.2,0.2-0.3,0.3
			c0,0,0,0-0.1,0c-0.7,0-1.3,0-2,0c0-0.6-0.1-1.2-0.1-1.8c0-1.1,0-2.1,0-3.2c0-1-0.6-1.5-1.6-1.6c-0.5,0-1,0-1.4,0
			c-0.4,0-0.5,0.1-0.5,0.5c0,1.8,0,3.7,0,5.5c0,0.4-0.1,0.7-0.6,0.6c-0.6-0.1-1.3,0.2-1.7-0.1c-0.3-0.3-0.1-1.1-0.1-1.6
			C45.1,18.1,45.1,16.6,45.1,15.1z"/>
		<path class="st0" d="M89.2,17.6c-0.9,0-1.9,0-2.8,0c-0.4,0-0.5,0.1-0.4,0.5c0.5,1.6,2.8,2.1,4,0.7c0.4-0.4,0.6-0.4,1-0.2
			c0.2,0.1,0.4,0.2,0.6,0.3c0.7,0.4,0.7,0.4,0.3,1c-1.2,1.6-3.5,2.2-5.5,1.4c-1.8-0.7-2.9-2.7-2.7-4.8c0.2-1.8,1.1-3.2,2.9-3.8
			c1.6-0.6,3.1-0.4,4.5,0.7c1.2,1,1.5,2.4,1.4,3.9c0,0.1-0.3,0.3-0.4,0.3C91.1,17.7,90.1,17.6,89.2,17.6z M88.1,16c0.5,0,1,0,1.5,0
			c0.2,0,0.3,0,0.5-0.1c0-0.2,0-0.4-0.1-0.5c-0.4-0.7-1.1-1-1.9-0.9c-0.8,0-1.4,0.5-1.8,1.2c-0.2,0.3-0.1,0.4,0.2,0.4
			C87,16,87.5,16,88.1,16z"/>
		<path class="st1" d="M163,17.6c-0.9,0-1.8,0-2.7,0c-0.5,0-0.5,0.2-0.4,0.6c0.6,1.6,2.9,2,4,0.6c0.3-0.4,0.5-0.4,0.8-0.2
			c0.3,0.2,0.6,0.3,0.9,0.4c0.5,0.2,0.6,0.4,0.2,0.9c-1.2,1.6-3.4,2.3-5.4,1.6c-1.9-0.7-3.1-2.5-3-4.6c0.1-2,1.4-3.7,3.3-4.1
			c3.2-0.7,5.6,1.3,5.5,4.7c0,0.1-0.3,0.3-0.4,0.3C164.9,17.7,164,17.6,163,17.6z M162,16c0.6,0,1.1,0,1.7,0c0.3,0,0.4,0,0.3-0.4
			c-0.3-0.7-1-1.2-1.9-1.2c-0.9,0-1.6,0.5-1.9,1.2c-0.1,0.3,0,0.3,0.2,0.3C160.9,16,161.4,16,162,16z"/>
		<path class="st0" d="M59,21.6c-2.7,0-4.6-1.9-4.6-4.6c0-2.7,1.9-4.6,4.6-4.6c2.6,0,4.5,1.9,4.6,4.6C63.6,19.7,61.6,21.8,59,21.6z
			 M59,14.8c-1.4,0-2.2,0.9-2.2,2.3c0,1.4,0.9,2.3,2.3,2.3c1.3,0,2.3-0.9,2.3-2.3C61.3,15.7,60.4,14.8,59,14.8z"/>
		<path class="st1" d="M142.7,21.6c-2.7,0-4.6-1.9-4.6-4.6c0-2.7,1.9-4.7,4.6-4.6c2.6,0,4.5,2,4.6,4.6
			C147.3,19.8,145.4,21.6,142.7,21.6z M142.8,14.8c-1.4,0-2.3,0.9-2.3,2.2c0,1.4,0.9,2.3,2.2,2.3c1.4,0,2.3-0.9,2.3-2.2
			C145,15.7,144.1,14.8,142.8,14.8z"/>
		<path class="st1" d="M22.1,21.6c-0.4-1-0.7-2-1.1-2.9c-0.2-0.4-0.1-0.7,0.2-0.9c0.5-0.4,1-0.8,1.6-1.3c1.5,3.9,2.9,7.6,4.4,11.6
			c-0.9-0.6-1.7-1.1-2.5-1.6c-2.4-1.5-4.7-3.1-7.1-4.6c-0.5-0.3-0.4-0.4-0.1-0.7c0.5-0.4,0.9-1.1,1.4-1.2c0.5-0.1,1,0.6,1.5,0.9
			c0.5,0.3,1,0.6,1.4,0.9C22.1,21.6,22.1,21.6,22.1,21.6z"/>
		<path class="st1" d="M152.3,18.2c0.4-0.9,0.7-1.8,1.1-2.7c0.3-0.8,0.6-1.6,0.9-2.4c0.1-0.3,0.3-0.4,0.6-0.4c0.7,0,1.4,0,2.2,0
			c-0.4,1-0.9,2-1.3,3c-0.7,1.7-1.5,3.5-2.2,5.2c-0.1,0.3-0.3,0.4-0.6,0.4c-0.4,0-0.8,0-1.2,0c-0.5,0-0.7-0.1-0.9-0.6
			c-1-2.5-2.1-5-3.2-7.5c-0.2-0.4-0.2-0.6,0.3-0.5c0.1,0,0.3,0,0.4,0c0.6,0,1.3-0.2,1.7,0.1c0.4,0.3,0.5,1,0.7,1.5
			c0.5,1.2,1,2.5,1.4,3.7C152.1,18.1,152.2,18.2,152.3,18.2z"/>
		<path class="st0" d="M96.6,13.1c0.9-0.6,2.1-0.7,3.3-0.5c0.4,0.1,0.5,0.2,0.3,0.5c-0.1,0.1-0.1,0.3-0.2,0.4
			c-0.1,0.4-0.2,0.8-0.5,1.1c-0.2,0.2-0.7,0-1,0c-1.3,0-2.2,0.9-2.2,2.4c0,1.3,0,2.5,0,3.8c0,0.4-0.1,0.6-0.5,0.6
			c-0.6-0.1-1.4,0.2-1.7-0.1C93.8,21,94,20.2,94,19.6c0-2.1,0-4.2,0-6.3c0-0.5,0.1-0.6,0.6-0.6c0.5,0,0.9,0,1.4,0
			C96.1,12.8,96.3,13,96.6,13.1z"/>
		<path class="st1" d="M131.7,17.1c0-1.3,0-2.5,0-3.8c0-0.4,0.1-0.5,0.5-0.5c0.5,0,1,0,1.5,0c0.1,0,0.3,0,0.3,0
			c0.2,0.7,0.5,0.2,0.7,0.1c1-0.4,2-0.4,3-0.2c0.3,0.1,0.3,0.2,0.2,0.4c-0.2,0.5-0.4,1-0.5,1.4c-0.1,0.3-0.2,0.3-0.5,0.2
			c-1.5-0.4-2.8,0.5-2.8,2.1c0,1.3,0,2.7,0,4.1c0,0.3-0.1,0.4-0.4,0.4c-0.5,0-1,0-1.5,0c-0.3,0-0.4-0.1-0.4-0.4
			C131.8,19.7,131.7,18.4,131.7,17.1z"/>
	</g>
	<path class="st1" d="M178.6,11.6c-0.8,0-1.4-0.6-1.4-1.4c0-0.8,0.6-1.4,1.4-1.4c0.8,0,1.4,0.6,1.4,1.4
		C180,11,179.4,11.6,178.6,11.6z M178.6,9.1c-0.6,0-1.1,0.5-1.1,1.1c0,0.6,0.5,1.1,1.1,1.1s1.1-0.5,1.1-1.1
		C179.6,9.6,179.2,9.1,178.6,9.1z"/>
	<g>
		<path class="st1" d="M178.7,10.7l-0.2-0.4h-0.1v0.4h-0.2v-1h0.4c0.1,0,0.1,0,0.2,0c0.1,0,0.1,0.1,0.1,0.1c0,0,0,0.1,0,0.2
			c0,0.1,0,0.1-0.1,0.2c0,0.1-0.1,0.1-0.2,0.1l0.2,0.4H178.7z M178.4,10.2h0.2c0,0,0.1,0,0.1,0c0,0,0-0.1,0-0.1c0,0,0-0.1,0-0.1
			c0,0-0.1,0-0.1,0h-0.2V10.2z"/>
	</g>
</g>
</svg>
