<svg width="51" height="48" viewBox="0 0 51 48" fill="none" xmlns="http://www.w3.org/2000/svg">
<path d="M50.1258 46.4321C49.72 47.5138 48.9201 47.8713 47.7954 47.87C32.6294 47.8517 17.4648 47.8609 2.29885 47.8439C1.80041 47.8439 1.26804 47.7043 0.812658 47.4955C0.335093 47.2776 0.0545565 46.7805 0.0480324 46.2586C0.0271552 44.6628 -0.0785354 43.0474 0.111969 41.4725C0.468185 38.5288 2.73988 36.4985 5.69922 36.2467C5.74619 36.2427 5.79186 36.2271 5.9106 36.2023C5.9106 36.0079 5.9106 35.8017 5.9106 35.5969C5.9106 27.443 5.9106 19.2905 5.9106 11.1367C5.9106 9.23685 6.62564 8.24518 8.41846 7.64888C9.20658 7.38661 9.98686 7.10085 10.7815 6.86207C11.1468 6.75246 11.293 6.6011 11.2825 6.19009C11.2486 4.91919 11.2656 3.64699 11.2721 2.37479C11.2773 0.956446 12.2259 0.00392594 13.6273 1.14731e-05C14.9191 -0.00390299 15.9173 0.994286 15.9434 2.33825C15.9603 3.23206 15.946 4.12586 15.946 5.07838C16.1639 5.02097 16.3335 4.98835 16.4953 4.93354C20.321 3.64699 24.1481 2.36696 27.9673 1.06083C28.4866 0.883376 28.8533 0.96558 29.2395 1.34267C31.3859 3.43822 33.5428 5.52463 35.7101 7.59929C36.4734 8.32999 36.8466 9.18726 36.8375 10.252C36.8166 13.073 36.831 15.894 36.8297 18.7151C36.8297 18.8456 36.874 19.0152 36.8088 19.0987C36.6339 19.3244 36.4434 19.605 36.1981 19.6937C35.8628 19.815 35.5548 19.6102 35.4361 19.2553C35.3709 19.0609 35.3643 18.8403 35.3643 18.6316C35.3604 15.8588 35.3487 13.0874 35.3696 10.3146C35.3748 9.62829 35.1569 9.09723 34.661 8.62488C32.9713 7.01734 31.3024 5.38893 29.6257 3.76964C29.5344 3.68222 29.4391 3.60001 29.2852 3.4617C29.2852 9.56827 29.2852 15.6031 29.2852 21.6966C29.4796 21.707 29.6818 21.7266 29.8854 21.7266C33.8312 21.7279 37.7783 21.7266 41.724 21.7279C43.5195 21.7279 44.4407 22.6452 44.4407 24.4302C44.442 28.1476 44.4407 31.8664 44.4407 35.5838C44.4407 35.7795 44.4407 35.9739 44.4407 36.2375C44.7447 36.2375 45.0305 36.2323 45.3149 36.2388C47.6949 36.291 49.5412 37.8229 50.0331 40.1481C50.0488 40.2225 50.0932 40.2916 50.1232 40.3634C50.1258 42.3871 50.1258 44.4096 50.1258 46.4321ZM27.7755 24.1014C27.5485 24.1705 27.3958 24.2136 27.2444 24.2645C24.0346 25.3423 20.826 26.4213 17.6175 27.4991C15.8586 28.0902 14.101 28.6865 12.3381 29.2698C11.8423 29.4342 11.4287 29.2411 11.2995 28.8248C11.1756 28.4243 11.3843 28.055 11.8554 27.8841C12.299 27.7236 12.7505 27.5853 13.198 27.4339C17.9189 25.8446 22.6384 24.2527 27.3619 22.6752C27.6776 22.5695 27.7938 22.4338 27.7846 22.0946C27.7598 21.1499 27.7781 20.2026 27.7742 19.2566C27.7742 19.1209 27.7507 18.9852 27.735 18.8234C27.5263 18.8886 27.371 18.9343 27.2183 18.9852C22.3579 20.6188 17.4974 22.2537 12.637 23.8874C12.4673 23.9448 12.2964 24.0074 12.1215 24.0322C11.7079 24.0922 11.4078 23.9122 11.2982 23.5129C11.1951 23.1397 11.3452 22.8396 11.6988 22.6635C11.8149 22.6061 11.9428 22.5734 12.0667 22.5317C16.9272 20.898 21.7877 19.2644 26.6481 17.6308C27.7768 17.2511 27.7768 17.2498 27.7768 16.0493C27.7768 15.226 27.7768 14.4026 27.7768 13.5297C27.5302 13.608 27.3619 13.6576 27.1948 13.7137C22.2718 15.3656 17.35 17.0188 12.4269 18.6694C11.8541 18.8612 11.4339 18.7007 11.2982 18.2558C11.169 17.8304 11.4052 17.4677 11.9506 17.2837C12.8444 16.9797 13.7421 16.6861 14.6372 16.3847C18.8649 14.9624 23.0899 13.5336 27.3214 12.127C27.6842 12.0057 27.7977 11.8465 27.7859 11.4759C27.7585 10.6291 27.7768 9.77965 27.7768 8.93152C27.7768 8.71492 27.7768 8.49962 27.7768 8.25692C27.6346 8.29346 27.5876 8.30259 27.5419 8.31695C23.2973 9.74051 19.0541 11.1641 14.8095 12.5889C13.9757 12.8682 13.1471 13.1604 12.3094 13.4279C11.8358 13.5793 11.4417 13.3914 11.306 12.9934C11.1703 12.5942 11.3752 12.2249 11.8371 12.0422C11.8971 12.0187 11.9598 11.9992 12.0224 11.9783C16.7915 10.3773 21.5606 8.77755 26.3271 7.17262C26.8034 7.01212 27.4506 6.9521 27.6907 6.61285C27.9321 6.27229 27.7703 5.64206 27.7742 5.13709C27.7794 4.34376 27.7755 3.55174 27.7755 2.70621C27.5197 2.78189 27.3358 2.83017 27.1544 2.89019C21.0296 4.9479 14.9034 7.0056 8.77859 9.06461C7.73865 9.4143 7.37722 9.91796 7.37722 11.0218C7.37591 22.6335 7.37722 34.2451 7.37722 45.8567C7.37722 46.0146 7.39157 46.1724 7.4007 46.3538C8.699 46.3538 9.96207 46.3538 11.2669 46.3538C11.2669 46.1463 11.2669 45.9702 11.2669 45.794C11.2669 44.2283 11.2643 42.6625 11.2682 41.0967C11.2708 39.9771 11.721 39.3834 12.8053 39.0794C14.9217 38.4857 17.0381 37.896 19.1558 37.3075C20.5416 36.9226 21.4354 37.5985 21.4367 39.0351C21.4393 41.3015 21.4367 43.5693 21.438 45.8358C21.438 46.0067 21.4536 46.1777 21.4615 46.3395C23.5922 46.3395 25.6682 46.3395 27.7455 46.3395C27.7455 40.6752 27.7455 35.0567 27.7455 29.3924C27.5863 29.4355 27.4649 29.4642 27.3462 29.5033C25.2781 30.1962 23.2112 30.8917 21.1431 31.5858C20.171 31.912 19.2015 32.2461 18.2242 32.554C17.8145 32.6832 17.457 32.4809 17.3252 32.1025C17.1934 31.7254 17.3604 31.3575 17.7519 31.1839C17.8706 31.1318 17.9985 31.1004 18.1211 31.0587C21.2057 30.0187 24.2929 28.9827 27.3736 27.931C27.5315 27.8775 27.752 27.6831 27.7559 27.5487C27.7885 26.4292 27.7755 25.3044 27.7755 24.1014ZM29.2734 41.7935C32.8721 41.7935 36.4486 41.7935 40.0134 41.7935C40.0343 41.7308 40.0513 41.7008 40.0526 41.6708C40.0578 41.4425 40.0539 41.2141 40.0656 40.9871C40.1569 39.1538 40.9725 37.7472 42.5774 36.8417C42.8984 36.6603 42.9832 36.4698 42.9819 36.1214C42.9688 32.2409 42.9741 28.3603 42.9741 24.4798C42.9741 23.462 42.7144 23.1971 41.7097 23.1971C37.7482 23.1958 33.7855 23.1958 29.8241 23.1971C29.6492 23.1971 29.4744 23.2115 29.2734 23.2206C29.2734 29.4277 29.2734 35.5982 29.2734 41.7935ZM29.2682 46.3629C32.8891 46.3629 36.4486 46.3629 40.033 46.3629C40.033 45.336 40.033 44.3379 40.033 43.3253C36.4317 43.3253 32.8591 43.3253 29.2682 43.3253C29.2682 44.3431 29.2682 45.3308 29.2682 46.3629ZM41.5544 41.7974C43.9357 41.7974 46.2753 41.7974 48.6305 41.7974C48.7818 40.3177 48.4073 39.0612 47.1273 38.2574C45.8538 37.4562 44.485 37.4458 43.1854 38.2C41.8376 38.9829 41.42 40.2512 41.5544 41.7974ZM41.5557 46.3903C42.3895 46.3903 43.1998 46.3903 44.0088 46.3903C45.3606 46.3903 46.7124 46.4034 48.0642 46.376C48.2599 46.3721 48.6148 46.1842 48.62 46.0681C48.6657 45.1508 48.6461 44.2296 48.6461 43.3305C46.2413 43.3305 43.9044 43.3305 41.5557 43.3305C41.5557 44.3535 41.5557 45.34 41.5557 46.3903ZM17.0994 39.4069C17.0994 41.7347 17.0994 44.0286 17.0994 46.3551C18.0598 46.3551 18.9953 46.3551 19.9218 46.3551C19.9218 43.7755 19.9218 41.2298 19.9218 38.6227C18.9419 38.8954 18.022 39.1512 17.0994 39.4069ZM15.5793 39.8297C14.6855 40.0815 13.853 40.2942 13.0401 40.5656C12.8966 40.6139 12.7544 40.9049 12.7505 41.0862C12.7244 42.2736 12.7374 43.461 12.7374 44.6484C12.7374 45.2121 12.7374 45.7771 12.7374 46.3616C13.7147 46.3616 14.6346 46.3616 15.5806 46.3616C15.5793 44.1917 15.5793 42.0505 15.5793 39.8297ZM5.87667 46.3903C5.87667 45.3321 5.87667 44.3326 5.87667 43.3266C4.40222 43.3266 2.9617 43.3266 1.48856 43.3266C1.48856 43.9281 1.48595 44.4957 1.48856 45.0646C1.49638 46.4934 1.30719 46.3916 2.83774 46.3903C3.84637 46.389 4.85369 46.3903 5.87667 46.3903ZM5.88842 37.7394C3.72633 37.6833 1.44811 39.8545 1.59033 41.7948C3.0152 41.7948 4.44137 41.7948 5.88842 41.7948C5.88842 40.4364 5.88842 39.1068 5.88842 37.7394ZM12.74 6.13659C14.4663 5.82996 14.4794 5.81299 14.4794 4.16239C14.4794 4.08149 14.4794 3.99929 14.4794 3.91839C14.4781 3.3808 14.4976 2.84322 14.4689 2.30694C14.4415 1.78892 14.0657 1.4588 13.5751 1.46663C13.0976 1.47446 12.7505 1.76935 12.7453 2.243C12.7296 3.52694 12.74 4.81219 12.74 6.13659Z" fill="#3190D2"/>
<path d="M15.4632 33.1335C15.3549 33.2496 15.1957 33.5562 14.9556 33.6502C14.0657 33.9999 13.1524 34.2935 12.239 34.5779C11.8071 34.7123 11.417 34.4879 11.2995 34.1056C11.1821 33.7206 11.3726 33.3449 11.811 33.1896C12.6983 32.8751 13.5882 32.5724 14.4859 32.2893C14.9791 32.134 15.4384 32.468 15.4632 33.1335Z" fill="#3190D2"/>
<path d="M36.0403 34.8192C34.8999 34.8192 33.7582 34.8257 32.6178 34.8166C31.69 34.8088 31.236 34.3521 31.2255 33.4361C31.2203 32.9142 31.2164 32.3922 31.2281 31.8716C31.2464 31.0861 31.7318 30.5903 32.5225 30.5864C34.8699 30.5759 37.216 30.5772 39.5633 30.5851C40.3358 30.5877 40.8381 31.043 40.8825 31.8011C40.9177 32.4014 40.9177 33.0081 40.8825 33.6083C40.8381 34.3599 40.3671 34.8009 39.6103 34.8114C38.4203 34.8283 37.2303 34.8153 36.0416 34.8153C36.0403 34.8179 36.0403 34.8192 36.0403 34.8192ZM39.3963 33.3187C39.3963 32.8868 39.3963 32.4888 39.3963 32.0791C37.1546 32.0791 34.9456 32.0791 32.7222 32.0791C32.7222 32.5071 32.7222 32.905 32.7222 33.3187C34.9599 33.3187 37.1677 33.3187 39.3963 33.3187Z" fill="#3190D2"/>
<path d="M36.0416 29.241C34.9169 29.241 33.7921 29.2475 32.6673 29.2397C31.6757 29.2332 31.2307 28.7869 31.2242 27.8083C31.2203 27.3034 31.2151 26.7971 31.2268 26.2921C31.2451 25.5079 31.7305 25.0082 32.5186 25.0043C34.866 24.9938 37.212 24.9951 39.5594 25.003C40.3371 25.0056 40.8342 25.4557 40.8799 26.2178C40.9164 26.818 40.9164 27.4247 40.8799 28.0249C40.8329 28.7935 40.358 29.2241 39.5607 29.2345C38.389 29.2515 37.2146 29.2397 36.0416 29.241ZM32.713 27.7379C34.9704 27.7379 37.1755 27.7379 39.3976 27.7379C39.3976 27.3034 39.3976 26.9067 39.3976 26.5074C37.1481 26.5074 34.9299 26.5074 32.713 26.5074C32.713 26.9315 32.713 27.319 32.713 27.7379Z" fill="#3190D2"/>
<path d="M33.6015 40.4626C33.227 40.4626 32.8512 40.473 32.4767 40.4613C31.7447 40.4378 31.2502 39.9576 31.2293 39.2321C31.2124 38.6463 31.2137 38.0591 31.228 37.4732C31.2463 36.7543 31.7056 36.265 32.4141 36.2441C33.2283 36.2193 34.0438 36.2206 34.858 36.2428C35.5522 36.2611 36.0219 36.7217 36.0506 37.4106C36.0767 38.0291 36.0767 38.6489 36.0519 39.2674C36.0219 39.9746 35.5326 40.4365 34.8228 40.4613C34.417 40.473 34.0086 40.4613 33.6015 40.4626ZM32.7103 38.9673C33.3614 38.9673 33.9564 38.9673 34.5671 38.9673C34.5671 38.5432 34.5671 38.1452 34.5671 37.7381C33.9303 37.7381 33.3249 37.7381 32.7103 37.7381C32.7103 38.1635 32.7103 38.5497 32.7103 38.9673Z" fill="#3190D2"/>
</svg>
