<?xml version="1.0" encoding="utf-8"?>
<!-- Generator: Adobe Illustrator 23.0.1, SVG Export Plug-In . SVG Version: 6.00 Build 0)  -->
<svg version="1.1" id="Layer_1" xmlns="http://www.w3.org/2000/svg" xmlns:xlink="http://www.w3.org/1999/xlink" x="0px" y="0px"
	 viewBox="0 0 332.32 360.26" style="enable-background:new 0 0 332.32 360.26;" xml:space="preserve">
<style type="text/css">
	.st0{fill:#165075;}
</style>
<g>
	<path class="st0" d="M202.79,0c0.25,0.22,0.46,0.53,0.76,0.64c10.06,3.7,14.73,10.84,14.25,21.59c-0.32,7.16-2.33,13.9-5.67,20.11
		c-5.87,10.92-12.12,21.64-18.23,32.43c-0.69,1.21-1.49,2.36-2.43,3.84c9.31,2.94,18.4,5.81,27.49,8.7
		c5.79,1.84,11.58,3.69,17.37,5.55c6.01,1.93,10.41,5.76,13.11,11.45c4.51,9.51,8.99,19.05,13.42,28.6c1.7,3.66,0.8,6.65-2.22,8.02
		c-2.97,1.35-5.74,0.04-7.51-3.7c-4.35-9.2-8.46-18.52-13.1-27.58c-1.28-2.5-3.7-5.27-6.22-6.16c-12.2-4.32-24.62-8.05-37.64-12.2
		c0.64,1.57,1.01,2.59,1.47,3.57c8.78,19.02,17.48,38.07,26.4,57.02c3.27,6.94,3.35,13.63,0.42,20.66
		c-16.99,40.82-33.88,81.69-50.88,122.5c-0.93,2.24-0.98,4.01,0.09,6.24c6.16,12.88,12.13,25.84,18.21,38.76
		c3.47,7.38,9.1,9.5,16.37,6.1c35.3-16.5,70.59-33.02,105.87-49.56c7.47-3.5,9.36-9.07,5.77-16.75
		c-18.2-38.89-36.4-77.77-54.61-116.66c-2.35-5.02-1.86-8.19,1.49-9.64c3.26-1.41,5.85,0.18,8.12,5.04
		c18.21,38.89,36.44,77.78,54.63,116.68c6.19,13.24,1.96,24.96-11.23,31.15c-35.16,16.5-70.33,32.98-105.51,49.43
		c-12.56,5.87-24.53,1.49-30.44-11.05c-4.54-9.63-9.02-19.29-13.55-28.92c-0.54-1.14-1.15-2.24-2.05-3.99
		c-1.48,3.48-2.75,6.39-3.97,9.33c-3.4,8.21-6.74,16.45-10.19,24.65c-5.33,12.7-16.92,17.56-29.63,12.33
		c-20.99-8.63-41.93-17.35-62.89-26.05c-3.98-1.65-5.48-4.45-4.14-7.6c1.24-2.94,4.27-3.84,8.11-2.26
		c20.65,8.52,41.28,17.09,61.91,25.63c8.57,3.55,13.59,1.44,17.2-7.26c23.74-57.26,47.44-114.53,71.27-171.75
		c1.91-4.59,1.83-8.61-0.27-13.09c-10-21.28-19.82-42.65-29.67-64c-2.28-4.95-5.47-8.91-11.23-11.23
		c-0.53,4.42-1.15,8.53-1.43,12.66c-0.06,0.85,0.98,1.96,1.77,2.66c5.95,5.22,8,13.27,5.1,20.43c-2.97,7.34-9.9,11.54-18.21,11.02
		c-7.27-0.45-13.59-5.74-15.65-13.12c-2.7-9.68,3.41-19.88,13.41-21.95c2.3-0.48,3.1-1.32,3.18-3.61c0.11-2.9,0.67-5.78,1.12-9.29
		c-1.6,0.48-2.88,0.79-4.11,1.26c-22.18,8.46-44.33,16.98-66.53,25.38c-3.78,1.43-6.25,3.84-7.78,7.54
		c-23.98,57.93-48,115.84-71.99,173.77c-3.2,7.74-0.92,13.02,6.91,16.29c6.15,2.57,12.34,5.06,18.48,7.65
		c3.85,1.62,5.25,4.25,4.08,7.35c-1.19,3.15-4.25,4.1-8.22,2.48c-6.61-2.69-13.23-5.35-19.79-8.17C2.05,307.94-3,296.01,1.81,284.39
		c24.22-58.58,48.55-117.11,72.82-175.67c2.47-5.96,6.7-10.06,12.71-12.36c22.61-8.65,45.22-17.29,67.84-25.93
		c0.55-0.21,1.1-0.59,1.65-0.57c7.59,0.18,7.83-5.14,8.84-10.74c2.14-11.83,4.64-23.63,7.72-35.24c1.9-7.18,5.89-13.61,11.75-18.41
		c2.73-2.24,6.12-3.66,9.21-5.46C197.16,0,199.98,0,202.79,0z M182.12,72.92c0.39-0.48,0.82-0.89,1.1-1.38
		c6.79-11.99,13.9-23.81,20.16-36.07c2.3-4.51,2.89-10.01,3.66-15.15c0.58-3.87-1.26-7.1-4.94-8.89c-3.93-1.9-7.64-0.79-10.19,2.22
		c-2.98,3.52-5.89,7.4-7.6,11.63c-5.75,14.17-7.05,29.36-9.59,44.25c1.52,0.63,2.71,1.1,3.88,1.63
		C179.74,71.69,180.87,72.29,182.12,72.92z M162.27,102.58c-4.07-0.06-7.2,2.84-7.35,6.81c-0.15,4.02,3.12,7.43,7.16,7.44
		c3.98,0.01,7.05-3.04,7.09-7.07C169.21,105.66,166.31,102.64,162.27,102.58z"/>
	<path class="st0" d="M58.24,220.92c0.17-30.23,23.04-55.92,52.7-58.96c30.79-3.16,58.58,17.21,64.41,47.31
		c0.69,3.55,1.09,7.18,1.26,10.79c0.17,3.54-1.99,5.82-5.06,5.95c-3.19,0.13-5.36-1.74-5.51-5.47
		c-0.45-11.48-3.63-22.02-11.28-30.71c-13.43-15.27-30.41-21.08-50.02-15.64c-19.71,5.46-31.82,18.99-34.96,39.34
		c-4.17,27.03,14.09,51.21,40.95,55.19c19.43,2.88,39.7-7.25,49.13-24.55c0.56-1.03,1.03-2.11,1.67-3.09
		c1.67-2.56,4.48-3.37,7.02-2.01c2.7,1.46,3.27,3.8,2.49,6.59c-0.19,0.67-0.55,1.29-0.87,1.91c-11.34,22.57-36.67,35.54-61.77,31.63
		c-25.18-3.93-45.26-23.86-49.17-48.87C58.76,227.22,58.56,224.06,58.24,220.92z"/>
	<path class="st0" d="M129.73,200.58c1.25,0.5,2.45,0.91,3.58,1.45c4.3,2.08,6.5,6.79,5.4,11.47c-0.65,2.77-2.53,4.29-5.26,4.29
		c-2.58,0-4.71-1.46-5.01-4.06c-0.24-2.13-1.31-2.69-2.98-3.15c-2.37-0.65-4.69-1.46-7.05-2.12c-2.18-0.61-4.11-0.13-4.89,2.15
		c-0.8,2.34,0.09,4.15,2.53,4.97c1.88,0.63,3.79,1.2,5.68,1.81c7.83,2.52,11.87,8.84,10.65,16.67c-1.06,6.83-7.12,11.57-14.94,11.66
		c-0.46,0.01-0.92,0-1.45,0c-1.92,3.93-1.73,10.74-8.57,8.59c-6.28-1.98-2.87-7.26-2-11.56c-4.39-1.48-8.17-3.55-9-8.46
		c-0.25-1.45-0.14-3,0.08-4.47c0.41-2.7,2.27-4.12,4.85-4.26c2.79-0.15,4.9,1.36,5.37,4.07c0.35,2.03,1.36,2.69,3.04,3.15
		c2.37,0.65,4.68,1.49,7.06,2.1c2.36,0.6,4.33-0.13,4.98-2.6c0.59-2.24-0.51-3.85-2.77-4.55c-2.23-0.69-4.49-1.32-6.69-2.1
		c-6.56-2.33-10.77-8.97-9.77-15.34c1.17-7.54,6.57-12.55,14.07-12.61c2.26-0.02,2.98-0.76,3.56-2.76c1.5-5.18,3.93-7.12,7.26-6.21
		c3.51,0.96,4.43,3.96,2.88,9.36C130.1,198.85,129.95,199.64,129.73,200.58z"/>
	<path class="st0" d="M296.33,279.73c-1.2,1.34-2.31,3.66-3.88,4.04c-1.78,0.43-4.09-0.63-5.94-1.52c-0.85-0.41-1.19-1.93-1.69-2.99
		c-10.57-22.42-21.12-44.85-31.68-67.27c-0.45-0.95-0.89-1.91-1.25-2.89c-1.06-2.89-0.03-5.08,2.54-6.49
		c2.52-1.38,4.78-0.67,6.56,1.47c0.59,0.71,0.99,1.59,1.38,2.43c10.76,22.85,21.52,45.7,32.25,68.57
		C295.22,276.33,295.59,277.68,296.33,279.73z"/>
	<path class="st0" d="M234.27,214.61c1.95,0,3.32,2,4.48,4.49c8.13,17.37,16.33,34.7,24.5,52.05c2.69,5.71,5.4,11.42,8.05,17.15
		c1.72,3.72,0.95,6.67-2,8.1c-2.99,1.46-5.82,0.23-7.57-3.49c-10.98-23.26-21.95-46.52-32.87-69.81
		C226.78,218.66,228.88,214.69,234.27,214.61z"/>
</g>
</svg>
