<svg id="Layer_1" data-name="Layer 1" xmlns="http://www.w3.org/2000/svg" viewBox="0 0 384.07 384"><defs><style>.cls-1{fill:#01cc00;}</style></defs><title>tick</title><path class="cls-1" d="M180,0h24c6.42.83,12.88,1.4,19.25,2.52C272.73,11.26,313.31,35.21,343.94,75c33.63,43.71,46.15,93.4,37.46,147.77-8,50.32-33,91.23-73.54,122C265.92,376.7,218.29,389,166.08,382.18c-38.14-5-71.79-20.54-100.62-46.06C31.93,306.46,11,269.56,3,225.46c-1.29-7.1-2-14.3-3-21.46V180c.58-4.69,1.06-9.39,1.74-14.07,6-41.85,23.69-78.06,53.32-108.23C83.8,28.42,118.46,10.07,158.93,3,165.91,1.72,173,1,180,0Zm11.93,360c92.46.06,167.84-75.17,168.07-167.74S284.74,24.07,192.07,24C99.61,23.94,24.19,99.2,24,191.73S99.29,359.93,191.93,360Z"/><path class="cls-1" d="M156.23,235.09c3.87-4,7.42-7.67,11-11.29q49.56-49.61,99.14-99.2c3.64-3.64,7.68-5.54,12.82-4.09a11.9,11.9,0,0,1,6.12,19,36.27,36.27,0,0,1-2.84,3L166.37,258.6c-7.27,7.26-13.42,7.29-20.61.1q-22.81-22.8-45.6-45.62c-7.17-7.21-4.45-18.39,5-20.7,4.82-1.18,8.76.53,12.19,4q18,18.09,36.05,36.07C154.19,233.21,155,234,156.23,235.09Z"/></svg>