<svg width="20" height="20" viewBox="0 0 20 20" fill="none" xmlns="http://www.w3.org/2000/svg">
<g clip-path="url(#clip0_20_411)">
<path d="M0.5 10H8V11.25H0.5V10ZM-0.75 6.875H5.5V8.125H-0.75V6.875Z" fill="#3190D2"/>
<path d="M16.6995 10.3788L14.8245 6.00375C14.7763 5.8913 14.6963 5.79546 14.5941 5.72812C14.492 5.66079 14.3724 5.62493 14.2501 5.625H12.3751V4.375C12.3751 4.20924 12.3092 4.05027 12.192 3.93306C12.0748 3.81585 11.9158 3.75 11.7501 3.75H1.75009V5H11.1251V12.8475C10.8403 13.0129 10.5911 13.233 10.3917 13.4952C10.1924 13.7573 10.047 14.0564 9.96384 14.375H6.03634C5.88422 13.7858 5.52244 13.2724 5.01883 12.9309C4.51522 12.5894 3.90435 12.4433 3.30071 12.5199C2.69708 12.5966 2.14213 12.8908 1.73989 13.3474C1.33764 13.8039 1.11572 14.3915 1.11572 15C1.11572 15.6085 1.33764 16.1961 1.73989 16.6526C2.14213 17.1092 2.69708 17.4034 3.30071 17.4801C3.90435 17.5567 4.51522 17.4106 5.01883 17.0691C5.52244 16.7276 5.88422 16.2142 6.03634 15.625H9.96384C10.0998 16.1614 10.4107 16.6371 10.8474 16.977C11.2842 17.3168 11.8217 17.5013 12.3751 17.5013C12.9284 17.5013 13.466 17.3168 13.9027 16.977C14.3394 16.6371 14.6504 16.1614 14.7863 15.625H16.1251C16.2908 15.625 16.4498 15.5592 16.567 15.4419C16.6842 15.3247 16.7501 15.1658 16.7501 15V10.625C16.7501 10.5403 16.7329 10.4565 16.6995 10.3788ZM3.62509 16.25C3.37786 16.25 3.13619 16.1767 2.93062 16.0393C2.72506 15.902 2.56485 15.7068 2.47024 15.4784C2.37563 15.2499 2.35087 14.9986 2.39911 14.7561C2.44734 14.5137 2.56639 14.2909 2.7412 14.1161C2.91602 13.9413 3.13875 13.8222 3.38122 13.774C3.6237 13.7258 3.87503 13.7505 4.10344 13.8451C4.33185 13.9398 4.52707 14.1 4.66442 14.3055C4.80178 14.5111 4.87509 14.7528 4.87509 15C4.87476 15.3314 4.74295 15.6492 4.50861 15.8835C4.27426 16.1179 3.95651 16.2497 3.62509 16.25ZM12.3751 6.875H13.8376L15.1776 10H12.3751V6.875ZM12.3751 16.25C12.1279 16.25 11.8862 16.1767 11.6806 16.0393C11.4751 15.902 11.3148 15.7068 11.2202 15.4784C11.1256 15.2499 11.1009 14.9986 11.1491 14.7561C11.1973 14.5137 11.3164 14.2909 11.4912 14.1161C11.666 13.9413 11.8887 13.8222 12.1312 13.774C12.3737 13.7258 12.625 13.7505 12.8534 13.8451C13.0818 13.9398 13.2771 14.1 13.4144 14.3055C13.5518 14.5111 13.6251 14.7528 13.6251 15C13.6248 15.3314 13.493 15.6492 13.2586 15.8835C13.0243 16.1179 12.7065 16.2497 12.3751 16.25ZM15.5001 14.375H14.7863C14.6487 13.8396 14.3372 13.3651 13.9009 13.0258C13.4645 12.6865 12.9279 12.5015 12.3751 12.5V11.25H15.5001V14.375Z" fill="#3190D2"/>
</g>
<rect x="0.5" y="0.5" width="19" height="19" stroke="#3190D2"/>
<defs>
<clipPath id="clip0_20_411">
<rect width="20" height="20" fill="white"/>
</clipPath>
</defs>
</svg>
