<svg width="21" height="24" viewBox="0 0 21 24" fill="none" xmlns="http://www.w3.org/2000/svg">
<g clip-path="url(#clip0_2_8)">
<path d="M3.69736 24C3.41611 23.9414 3.13486 23.9004 2.85947 23.8183C1.15439 23.3261 0.0879846 22.0195 0.0118127 20.2324C-0.0643591 18.375 0.13486 16.5468 0.843844 14.8125C1.30088 13.6933 1.96298 12.7207 3.06455 12.1289C3.75009 11.7656 4.48252 11.6074 5.25009 11.5957C5.51377 11.5898 5.74814 11.707 5.9708 11.8476C6.3165 12.0644 6.65048 12.2871 6.99619 12.498C9.00595 13.7402 11.0099 13.7343 13.0196 12.4922C13.3009 12.3222 13.5821 12.1523 13.8458 11.959C14.3263 11.6015 14.8536 11.5547 15.422 11.6367C16.9806 11.8652 18.0763 12.7207 18.8204 14.08C19.4825 15.2929 19.7638 16.6172 19.922 17.9707C20.004 18.6679 20.0274 19.3711 20.0157 20.0742C19.9747 22.166 18.545 23.7246 16.4649 23.9531C16.4122 23.959 16.3536 23.9531 16.3126 24C12.1056 24 7.90439 24 3.69736 24ZM10.0079 22.5937C11.9942 22.5879 13.9747 22.6054 15.961 22.582C17.6075 22.5644 18.6153 21.5097 18.6095 19.8632C18.6095 19.2363 18.5919 18.6152 18.5099 17.9941C18.3692 16.8808 18.1524 15.791 17.6075 14.7949C17.045 13.7578 16.2364 13.0898 15.0177 13.0136C14.8946 13.0078 14.7892 13.0312 14.6895 13.0957C14.3966 13.289 14.0977 13.4765 13.8048 13.664C11.5841 15.0527 9.29306 15.2226 6.92587 14.0742C6.36923 13.8047 5.87705 13.4238 5.3497 13.1074C5.27353 13.0605 5.19736 12.9961 5.09775 13.0019C4.34189 13.0488 3.65634 13.2773 3.11142 13.8281C2.66025 14.2851 2.34384 14.83 2.11533 15.4218C1.52353 16.9394 1.38291 18.5332 1.42392 20.1386C1.44736 21.0175 1.82236 21.7382 2.60752 22.1953C3.129 22.5 3.70322 22.5879 4.29502 22.5879C6.19345 22.5937 8.09775 22.5937 10.0079 22.5937Z" fill="black"/>
<path d="M15.6388 5.77734C15.6505 8.96484 13.0841 11.5371 9.86728 11.5664C6.69735 11.5957 4.08993 9 4.07821 5.80078C4.06064 2.5957 6.65048 0 9.85556 0C13.0606 0 15.627 2.56641 15.6388 5.77734ZM9.85556 10.1543C12.2813 10.1543 14.2267 8.20898 14.2325 5.77734C14.2325 3.35156 12.2872 1.40625 9.85556 1.40039C7.42392 1.40039 5.4786 3.33984 5.4786 5.77148C5.48446 8.20898 7.42392 10.1543 9.85556 10.1543Z" fill="black"/>
</g>
<defs>
<clipPath id="clip0_2_8">
<rect width="20.0156" height="24" fill="white"/>
</clipPath>
</defs>
</svg>
