<?xml version="1.0" encoding="utf-8"?>
<!-- Generator: Adobe Illustrator 23.0.1, SVG Export Plug-In . SVG Version: 6.00 Build 0)  -->
<svg version="1.1" id="Layer_1" xmlns="http://www.w3.org/2000/svg" xmlns:xlink="http://www.w3.org/1999/xlink" x="0px" y="0px"
	 width="18px" height="21.7px" viewBox="0 0 18 21.7" enable-background="new 0 0 18 21.7" xml:space="preserve">
<g>
	<g>
		<g>
			<path d="M11.9,6.1c-0.1-0.4-0.2-0.7-0.4-0.9c-0.3-0.3-0.7-0.5-1.2-0.5h-0.1c-0.5,0-1,0.2-1.2,0.6C8.9,5.1,8.8,5,8.6,4.9
				C8.3,4.7,7.9,4.7,7.5,4.7c-0.4,0-0.8,0.2-1.1,0.6C6.1,5.7,6,6.1,6,6.5c0,0.4,0.1,0.8,0.4,1.2c0.3,0.4,0.6,0.7,0.9,1
				C7.7,9,8.2,9.4,8.8,9.7c0.1,0,0.1,0,0.2,0s0.1,0,0.2,0c0.5-0.3,1-0.6,1.4-1c0.4-0.4,0.8-0.7,1-1.1C11.9,7.2,12,6.7,11.9,6.1z" fill="#494949"/>
		</g>
		<rect x="3.8" y="12.2" width="10.3" height="0.9"/>
		<rect x="3.8" y="16.1" width="10.3" height="0.9"/>
	</g>
	<path d="M15,21.7H2.9c-1.6,0-2.9-1.3-2.9-2.9V2.9C0,1.3,1.3,0,2.9,0h12.1C16.7,0,18,1.3,18,2.9v15.8C18,20.3,16.7,21.7,15,21.7z
		 M2.9,1.5c-0.8,0-1.5,0.7-1.5,1.5v15.8c0,0.8,0.7,1.5,1.5,1.5h12.1c0.8,0,1.5-0.7,1.5-1.5V2.9c0-0.8-0.7-1.5-1.5-1.5L2.9,1.5
		L2.9,1.5z" fill="#494949"/>
</g>
</svg>
