<svg xmlns="http://www.w3.org/2000/svg" xmlns:xlink="http://www.w3.org/1999/xlink" version="1.1" x="0px" y="0px" viewBox="0 0 32 40" enable-background="new 0 0 32 32" xml:space="preserve"><path d="M27.355,20.865c-0.106-0.129-0.23-0.241-0.361-0.344c-0.044-0.033-0.094-0.062-0.139-0.09  c-0.092-0.063-0.188-0.119-0.285-0.168c-0.063-0.029-0.123-0.056-0.188-0.078c-0.091-0.035-0.184-0.066-0.277-0.094  c-0.071-0.019-0.146-0.033-0.22-0.048c-0.089-0.017-0.178-0.021-0.268-0.026c-0.093-0.008-0.183-0.016-0.271-0.012  c-0.021,0.001-0.039,0.003-0.062,0.004c-0.138,0.012-0.271,0.029-0.407,0.063c-0.009,0.002-0.02,0.004-0.027,0.006  c-0.295,0.075-0.58,0.21-0.838,0.403c-0.373,0.283-0.691,0.688-0.9,1.248C22.66,20.521,21.705,20,20.77,20  c-0.727,0-1.438,0.314-1.896,0.865c-0.241,0.289-0.451,0.677-0.561,1.135H14.5v-1h3.111c0.132-0.273,0.293-0.536,0.49-0.773  C18.74,19.458,19.736,19,20.77,19c0.898,0,1.72,0.34,2.346,0.938c0.263-0.25,0.563-0.442,0.887-0.599V7c0-1.104-0.896-2-2-2h-1v1h-1  V5c0-0.552-0.445-1-1-1h-1c0-1.103-0.896-2-2-2c-1.104,0-2,0.897-2,2h-1c-0.553,0-1,0.448-1,1v1h-1V5h-1C8.896,5,8,5.896,8,7v17  c0,1.104,0.896,2,2,2h10.052c0.183,0.163,0.382,0.327,0.597,0.491c0.012,0.009,0.021,0.017,0.033,0.024  c0.202,0.153,0.42,0.311,0.655,0.465c0.078,0.053,0.168,0.104,0.251,0.155c0.182,0.115,0.362,0.23,0.563,0.347  c0.302,0.174,0.619,0.346,0.964,0.518C28.896,25.107,28.389,22.107,27.355,20.865z M16,3.25c0.413,0,0.75,0.337,0.75,0.75  S16.413,4.75,16,4.75S15.25,4.413,15.25,4S15.587,3.25,16,3.25z M14.5,11H21v1h-6.5V11z M14.5,16H21v1h-6.5V16z M13.354,20.354  l-1.5,1.5C11.756,21.951,11.628,22,11.5,22s-0.256-0.049-0.354-0.146l-1-1c-0.195-0.193-0.195-0.512,0-0.707  c0.195-0.193,0.512-0.193,0.707,0l0.646,0.646l1.146-1.146c0.195-0.193,0.512-0.193,0.707,0  C13.547,19.842,13.549,20.158,13.354,20.354z M13.354,15.354l-1.5,1.5C11.756,16.951,11.628,17,11.5,17s-0.256-0.049-0.354-0.146  l-1-1c-0.195-0.195-0.195-0.512,0-0.707s0.512-0.195,0.707,0l0.646,0.646l1.146-1.146c0.195-0.195,0.512-0.195,0.707,0  S13.549,15.158,13.354,15.354z M13.354,10.354l-1.5,1.5C11.756,11.951,11.628,12,11.5,12s-0.256-0.049-0.354-0.146l-1-1  c-0.195-0.195-0.195-0.512,0-0.707s0.512-0.195,0.707,0l0.646,0.646l1.146-1.146c0.195-0.195,0.512-0.195,0.707,0  S13.549,10.158,13.354,10.354z"/><text x="0" y="47" fill="#000000" font-size="5px" font-weight="bold" font-family="'Helvetica Neue', Helvetica, Arial-Unicode, Arial, Sans-serif">Created by David Khai</text><text x="0" y="52" fill="#000000" font-size="5px" font-weight="bold" font-family="'Helvetica Neue', Helvetica, Arial-Unicode, Arial, Sans-serif">from the Noun Project</text></svg>